<svg xmlns="http://www.w3.org/2000/svg"
     width="20" height="20"
     viewBox="0 0 480 480"
     fill="none" stroke="none">
  <g transform="translate(0,480) scale(0.1,-0.1)" fill="#428CDC">
    <path d="M0 2400 l0 -2400 2400 0 2400 0 0 2400 0 2400 -2400 0 -2400 0 0 -2400z m3320 60 c260 -660 480 -1230 480 -1280 0 -40 -110 -80 -260 -80 -270 0 -270 -10 -780 1370 l-270 720 -470 30 c-400 30 -470 60 -500 260 -30 220 -10 230 640 200 l680 -30 480 -1190z m-1140 -1080 c-30 -210 -100 -230 -620 -260 -620 -30 -830 60 -730 320 50 120 220 160 720 160 630 0 660 -10 630 -220z"/>
  </g>
</svg>
