<svg width="20" height="17" viewBox="0 0 20 17" fill="none" xmlns="http://www.w3.org/2000/svg">
<path d="M3.33301 11.4998C2.63856 11.4998 2.04829 11.2568 1.56217 10.7707C1.07606 10.2846 0.833008 9.69428 0.833008 8.99984C0.833008 8.30539 1.07606 7.71512 1.56217 7.229C2.04829 6.74289 2.63856 6.49984 3.33301 6.49984V4.83317C3.33301 4.37484 3.4962 3.98248 3.82259 3.65609C4.14898 3.3297 4.54134 3.1665 4.99967 3.1665H7.49967C7.49967 2.47206 7.74273 1.88178 8.22884 1.39567C8.71495 0.909559 9.30523 0.666504 9.99967 0.666504C10.6941 0.666504 11.2844 0.909559 11.7705 1.39567C12.2566 1.88178 12.4997 2.47206 12.4997 3.1665H14.9997C15.458 3.1665 15.8504 3.3297 16.1768 3.65609C16.5031 3.98248 16.6663 4.37484 16.6663 4.83317V6.49984C17.3608 6.49984 17.9511 6.74289 18.4372 7.229C18.9233 7.71512 19.1663 8.30539 19.1663 8.99984C19.1663 9.69428 18.9233 10.2846 18.4372 10.7707C17.9511 11.2568 17.3608 11.4998 16.6663 11.4998V14.8332C16.6663 15.2915 16.5031 15.6839 16.1768 16.0103C15.8504 16.3366 15.458 16.4998 14.9997 16.4998H4.99967C4.54134 16.4998 4.14898 16.3366 3.82259 16.0103C3.4962 15.6839 3.33301 15.2915 3.33301 14.8332V11.4998ZM7.49967 9.83317C7.8469 9.83317 8.14204 9.71164 8.38509 9.46859C8.62815 9.22553 8.74967 8.93039 8.74967 8.58317C8.74967 8.23595 8.62815 7.94081 8.38509 7.69775C8.14204 7.4547 7.8469 7.33317 7.49967 7.33317C7.15245 7.33317 6.85731 7.4547 6.61426 7.69775C6.3712 7.94081 6.24967 8.23595 6.24967 8.58317C6.24967 8.93039 6.3712 9.22553 6.61426 9.46859C6.85731 9.71164 7.15245 9.83317 7.49967 9.83317ZM12.4997 9.83317C12.8469 9.83317 13.142 9.71164 13.3851 9.46859C13.6281 9.22553 13.7497 8.93039 13.7497 8.58317C13.7497 8.23595 13.6281 7.94081 13.3851 7.69775C13.142 7.4547 12.8469 7.33317 12.4997 7.33317C12.1525 7.33317 11.8573 7.4547 11.6143 7.69775C11.3712 7.94081 11.2497 8.23595 11.2497 8.58317C11.2497 8.93039 11.3712 9.22553 11.6143 9.46859C11.8573 9.71164 12.1525 9.83317 12.4997 9.83317ZM6.66634 13.1665H13.333V11.4998H6.66634V13.1665ZM4.99967 14.8332H14.9997V4.83317H4.99967V14.8332Z" fill="#428CDC"/>
</svg>