<svg width="24" height="24" viewBox="0 0 24 24" fill="none" xmlns="http://www.w3.org/2000/svg">
<path d="M7.63597 10.4771C7.63597 10.7308 7.66258 10.9365 7.70914 11.0873C7.76236 11.2381 7.82888 11.4027 7.922 11.5809C7.95526 11.6358 7.96856 11.6906 7.96856 11.7386C7.96856 11.8072 7.92865 11.8758 7.84218 11.9443L7.42311 12.2323C7.36324 12.2734 7.30338 12.294 7.25016 12.294C7.18364 12.294 7.11712 12.2597 7.05061 12.198C6.95748 12.0952 6.87766 11.9855 6.81114 11.8758C6.74462 11.7592 6.6781 11.6289 6.60493 11.4712C6.08608 12.102 5.4342 12.4174 4.64928 12.4174C4.09052 12.4174 3.64484 12.2529 3.3189 11.9238C2.99296 11.5947 2.82666 11.1559 2.82666 10.6074C2.82666 10.0246 3.02622 9.55151 3.43198 9.19499C3.83775 8.83847 4.37655 8.66021 5.06169 8.66021C5.28786 8.66021 5.52067 8.68078 5.76679 8.71506C6.01291 8.74934 6.26568 8.80419 6.53176 8.86589V8.36539C6.53176 7.84432 6.42533 7.48094 6.21912 7.2684C6.00626 7.05586 5.64706 6.95301 5.13486 6.95301C4.90205 6.95301 4.66258 6.98044 4.41646 7.04214C4.17034 7.10385 3.93087 7.17927 3.69806 7.27525C3.59163 7.32325 3.5118 7.35067 3.46524 7.36438C3.41868 7.3781 3.38542 7.38495 3.35881 7.38495C3.26568 7.38495 3.21912 7.31639 3.21912 7.17241V6.83646C3.21912 6.72676 3.23242 6.64448 3.26568 6.59649C3.29894 6.5485 3.35881 6.5005 3.45194 6.45251C3.68475 6.3291 3.96413 6.22625 4.29007 6.14398C4.61602 6.05485 4.96191 6.01371 5.32777 6.01371C6.11934 6.01371 6.69806 6.19883 7.07056 6.56906C7.43641 6.9393 7.62267 7.50151 7.62267 8.25569V10.4771H7.63597ZM4.93531 11.5192C5.15482 11.5192 5.38098 11.4781 5.62045 11.3958C5.85992 11.3136 6.07278 11.1627 6.25238 10.957C6.35881 10.8268 6.43863 10.6828 6.47854 10.5182C6.51845 10.3537 6.54506 10.1549 6.54506 9.92175V9.63379C6.35216 9.58579 6.14595 9.54466 5.93309 9.51723C5.72023 9.48981 5.51402 9.47609 5.30781 9.47609C4.86214 9.47609 4.53619 9.56523 4.31668 9.75034C4.09717 9.93546 3.99074 10.196 3.99074 10.5388C3.99074 10.861 4.07056 11.101 4.23686 11.2656C4.3965 11.437 4.62932 11.5192 4.93531 11.5192ZM10.2768 12.2597C10.157 12.2597 10.0772 12.2391 10.024 12.1912C9.97078 12.15 9.92422 12.054 9.88431 11.9238L8.32111 6.62391C8.2812 6.48679 8.26125 6.39766 8.26125 6.34967C8.26125 6.23997 8.31446 6.17826 8.42089 6.17826H9.07278C9.19916 6.17826 9.28564 6.19883 9.3322 6.24682C9.38542 6.28796 9.42533 6.38395 9.46524 6.51422L10.5828 11.053L11.6204 6.51422C11.6537 6.37709 11.6936 6.28796 11.7468 6.24682C11.8 6.20569 11.8932 6.17826 12.0129 6.17826H12.5451C12.6714 6.17826 12.7579 6.19883 12.8111 6.24682C12.8643 6.28796 12.9109 6.38395 12.9375 6.51422L13.9885 11.1079L15.1393 6.51422C15.1792 6.37709 15.2258 6.28796 15.2723 6.24682C15.3255 6.20569 15.412 6.17826 15.5318 6.17826H16.1504C16.2568 6.17826 16.3167 6.23311 16.3167 6.34967C16.3167 6.38395 16.31 6.41823 16.3034 6.45937C16.2967 6.5005 16.2834 6.55535 16.2568 6.63077L14.6537 11.9306C14.6138 12.0677 14.5672 12.1569 14.514 12.198C14.4608 12.2391 14.3743 12.2666 14.2612 12.2666H13.6892C13.5628 12.2666 13.4763 12.246 13.4231 12.198C13.3699 12.15 13.3233 12.0609 13.2967 11.9238L12.2657 7.50151L11.2413 11.9169C11.208 12.054 11.1681 12.1432 11.1149 12.1912C11.0617 12.2391 10.9686 12.2597 10.8488 12.2597H10.2768ZM18.8244 12.4448C18.4785 12.4448 18.1326 12.4037 17.8 12.3214C17.4675 12.2391 17.208 12.15 17.0351 12.0472C16.9286 11.9855 16.8555 11.9169 16.8289 11.8552C16.8023 11.7935 16.789 11.7249 16.789 11.6632V11.3136C16.789 11.1696 16.8422 11.101 16.942 11.101C16.9819 11.101 17.0218 11.1079 17.0617 11.1216C17.1016 11.1353 17.1615 11.1627 17.228 11.1901C17.4541 11.293 17.7003 11.3753 17.9597 11.4301C18.2258 11.485 18.4852 11.5124 18.7513 11.5124C19.1703 11.5124 19.4963 11.437 19.7224 11.2861C19.9486 11.1353 20.0683 10.9159 20.0683 10.6348C20.0683 10.4428 20.0085 10.2851 19.8887 10.1549C19.769 10.0246 19.5428 9.90804 19.2169 9.79834L18.2524 9.48981C17.7668 9.33211 17.4076 9.099 17.1881 8.79047C16.9686 8.4888 16.8555 8.15285 16.8555 7.79632C16.8555 7.50836 16.9153 7.25469 17.0351 7.03529C17.1548 6.81589 17.3145 6.62391 17.514 6.47308C17.7136 6.31539 17.9397 6.19883 18.2058 6.11656C18.4719 6.03428 18.7513 6 19.0439 6C19.1903 6 19.3433 6.00686 19.4896 6.02742C19.6426 6.04799 19.7823 6.07542 19.922 6.10284C20.055 6.13712 20.1814 6.17141 20.3012 6.21254C20.4209 6.25368 20.514 6.29482 20.5805 6.33595C20.6737 6.3908 20.7402 6.44565 20.7801 6.50736C20.82 6.56221 20.84 6.63763 20.84 6.73361V7.05586C20.84 7.19984 20.7867 7.27525 20.687 7.27525C20.6337 7.27525 20.5473 7.24783 20.4342 7.19298C20.055 7.01472 19.6293 6.92559 19.157 6.92559C18.7779 6.92559 18.4785 6.98729 18.2723 7.11756C18.0661 7.24783 17.9597 7.44666 17.9597 7.72776C17.9597 7.91974 18.0262 8.08429 18.1592 8.21455C18.2923 8.34482 18.5384 8.47509 18.891 8.59164L19.8355 8.90017C20.3145 9.05787 20.6604 9.27726 20.8666 9.55837C21.0728 9.83947 21.1726 10.1617 21.1726 10.5182C21.1726 10.8131 21.1127 11.0804 20.9996 11.3136C20.8799 11.5467 20.7202 11.7524 20.514 11.9169C20.3078 12.0883 20.0617 12.2117 19.7757 12.3008C19.4763 12.3968 19.1637 12.4448 18.8244 12.4448Z" fill="#252F3E"/>
<path fill-rule="evenodd" clip-rule="evenodd" d="M20.0819 15.7768C17.8935 17.4428 14.7139 18.3273 11.98 18.3273C8.14847 18.3273 4.69614 16.8669 2.0886 14.4398C1.8824 14.2478 2.06865 13.9873 2.31477 14.1381C5.13517 15.8248 8.6141 16.8463 12.2128 16.8463C14.6407 16.8463 17.3081 16.3253 19.7627 15.2557C20.1285 15.0843 20.4411 15.5025 20.0819 15.7768Z" fill="#FF9900"/>
<path fill-rule="evenodd" clip-rule="evenodd" d="M20.9929 14.7073C20.7136 14.3371 19.1437 14.529 18.432 14.6182C18.2191 14.6456 18.1858 14.4536 18.3787 14.3096C19.6293 13.4046 21.6847 13.6651 21.9242 13.9668C22.1637 14.2753 21.8577 16.3939 20.6869 17.4086C20.5073 17.5663 20.3344 17.484 20.4142 17.2784C20.6803 16.5996 21.2723 15.0707 20.9929 14.7073Z" fill="#FF9900"/>
</svg>
