<svg fill="none" height="24" viewBox="0 0 24 24" width="24" xmlns="http://www.w3.org/2000/svg" xmlns:xlink="http://www.w3.org/1999/xlink"><mask id="a" height="24" maskUnits="userSpaceOnUse" width="24" x="0" y="0"><path d="m0 0h24v24h-24z" fill="#d9d9d9"/></mask><g mask="url(#a)"><path d="m12.1 22c-1.4 0-2.7125-.2667-3.9375-.8s-2.29167-1.2542-3.2-2.1625-1.62917-1.975-2.1625-3.2-.8-2.5375-.8-3.9375c0-2.43333.775-4.57917 2.325-6.4375s3.525-3.0125 5.925-3.4625c-.3 1.65-.2083 3.2625.275 4.8375s1.3167 2.95417 2.5 4.1375c1.1833 1.1833 2.5625 2.0167 4.1375 2.5s3.1875.575 4.8375.275c-.4333 2.4-1.5833 4.375-3.45 5.925s-4.0167 2.325-6.45 2.325zm0-2c1.4667 0 2.825-.3667 4.075-1.1s2.2333-1.7417 2.95-3.025c-1.4333-.1333-2.7917-.4958-4.075-1.0875s-2.4333-1.3958-3.45-2.4125-1.825-2.1667-2.425-3.45c-.6-1.28333-.95833-2.64167-1.075-4.075-1.28333.71667-2.2875 1.70417-3.0125 2.9625s-1.0875 2.6208-1.0875 4.0875c0 2.25.7875 4.1625 2.3625 5.7375s3.4875 2.3625 5.7375 2.3625z" fill="#428cdc"/></g></svg>