<svg width="24" height="24" viewBox="0 0 24 24" fill="none" xmlns="http://www.w3.org/2000/svg">
<path d="M12.6797 2.00072C14.3665 1.98884 16.0773 2.39303 17.6572 3.22533L16.6357 5.16283C15.3766 4.49708 14.0218 4.18822 12.6914 4.18822C11.171 4.1883 9.67383 4.59219 8.36719 5.36497C7.06049 6.126 5.94388 7.24464 5.18359 8.68333C4.50663 9.93173 4.19824 11.2756 4.19824 12.6072C4.19831 14.1171 4.60198 15.615 5.37402 16.9109C6.14613 18.2069 7.27457 19.313 8.71191 20.074L7.69043 22.0007C5.88485 21.0495 4.45949 19.6581 3.48535 18.0173C2.51128 16.3884 2.00007 14.5096 2 12.6072C2 10.9425 2.40375 9.24135 3.23535 7.6599C4.18569 5.8645 5.59991 4.43749 7.23926 3.47435C8.87847 2.51138 10.7673 2.00077 12.6797 2.00072ZM12.8223 7.16087C11.7057 7.16094 10.6719 7.50602 9.80469 8.08861C8.93769 8.67123 8.24854 9.50357 7.84473 10.4665C7.57156 11.1086 7.41699 11.822 7.41699 12.571C7.41699 13.6887 7.76165 14.7235 8.34375 15.5915C8.92584 16.4595 9.74564 17.1492 10.7197 17.5535C11.3611 17.8269 12.0739 17.9811 12.8223 17.9812V20.1687C11.2424 20.1686 9.78098 19.693 8.56934 18.8845C7.3578 18.0641 6.39551 16.911 5.81348 15.5437C5.43332 14.6281 5.21973 13.6291 5.21973 12.5827C5.21976 11.0132 5.69483 9.53887 6.52637 8.31419C7.34603 7.10138 8.49817 6.14976 9.86426 5.56712C10.7789 5.18667 11.777 4.97342 12.8223 4.97337V7.16087Z" fill="#F05A28"/>
<path fill-rule="evenodd" clip-rule="evenodd" d="M14.6046 10.8469C14.3551 10.5853 14.0818 10.3713 13.8086 10.2167C13.5354 10.0621 13.2503 9.97889 12.9533 9.97889C12.5493 9.97889 12.2049 10.0502 11.8841 10.1929C11.5752 10.3356 11.302 10.5258 11.0763 10.7756C10.8506 11.0133 10.6842 11.2987 10.5655 11.6079C10.4467 11.917 10.3991 12.25 10.3991 12.5829C10.3991 12.9158 10.4585 13.2488 10.5655 13.5579C10.6842 13.8671 10.8506 14.1525 11.0763 14.3903C11.302 14.6281 11.5634 14.8303 11.8841 14.9729C12.193 15.1156 12.5493 15.1869 12.9533 15.1869C13.2859 15.1869 13.6067 15.1156 13.8918 14.9848C14.1769 14.8421 14.4263 14.64 14.6283 14.3784L16.0776 15.9361C15.8638 16.1501 15.6143 16.3403 15.3292 16.4949C15.0441 16.6495 14.759 16.7803 14.4739 16.8754C14.1888 16.9706 13.9036 17.0419 13.6423 17.0776C13.381 17.1251 13.1434 17.137 12.9533 17.137C12.2999 17.137 11.6821 17.03 11.1119 16.816C10.5298 16.6019 10.0309 16.2928 9.61509 15.8885C9.18741 15.4961 8.85477 15.0086 8.60531 14.4497C8.35584 13.8909 8.23703 13.2607 8.23703 12.5829C8.23703 11.8933 8.35584 11.2749 8.60531 10.7161C8.85477 10.1572 9.18741 9.68161 9.61509 9.27731C10.0428 8.88494 10.5417 8.57578 11.1119 8.34987C11.694 8.13584 12.3118 8.02882 12.9533 8.02882C13.5116 8.02882 14.0699 8.13584 14.6283 8.34987C15.1867 8.5639 15.6856 8.89682 16.1014 9.34868L14.6046 10.8469Z" fill="black"/>
</svg>
