<svg width="24" height="24" viewBox="0 0 24 24" fill="none" xmlns="http://www.w3.org/2000/svg">
<path d="M4.8248 12.025L8.6998 15.9C8.88314 16.0834 8.9748 16.3167 8.9748 16.6C8.9748 16.8834 8.88314 17.1167 8.6998 17.3C8.51647 17.4834 8.28314 17.575 7.9998 17.575C7.71647 17.575 7.48314 17.4834 7.2998 17.3L2.6998 12.7C2.5998 12.6 2.52897 12.4917 2.4873 12.375C2.44564 12.2584 2.4248 12.1334 2.4248 12C2.4248 11.8667 2.44564 11.7417 2.4873 11.625C2.52897 11.5084 2.5998 11.4 2.6998 11.3L7.2998 6.70002C7.4998 6.50002 7.7373 6.40002 8.0123 6.40002C8.2873 6.40002 8.52481 6.50002 8.7248 6.70002C8.9248 6.90002 9.0248 7.13752 9.0248 7.41252C9.0248 7.68752 8.9248 7.92502 8.7248 8.12502L4.8248 12.025ZM19.1748 11.975L15.2998 8.10002C15.1165 7.91669 15.0248 7.68336 15.0248 7.40002C15.0248 7.11669 15.1165 6.88336 15.2998 6.70002C15.4831 6.51669 15.7165 6.42502 15.9998 6.42502C16.2831 6.42502 16.5165 6.51669 16.6998 6.70002L21.2998 11.3C21.3998 11.4 21.4706 11.5084 21.5123 11.625C21.554 11.7417 21.5748 11.8667 21.5748 12C21.5748 12.1334 21.554 12.2584 21.5123 12.375C21.4706 12.4917 21.3998 12.6 21.2998 12.7L16.6998 17.3C16.4998 17.5 16.2665 17.5959 15.9998 17.5875C15.7331 17.5792 15.4998 17.475 15.2998 17.275C15.0998 17.075 14.9998 16.8375 14.9998 16.5625C14.9998 16.2875 15.0998 16.05 15.2998 15.85L19.1748 11.975Z" fill="black"/>
</svg>
