<svg width="24" height="23" viewBox="0 0 24 23" fill="none" xmlns="http://www.w3.org/2000/svg">
<path d="M3.49159 7.95947C3.43549 8.00659 3.37676 8.05501 3.33499 8.11408C2.23279 9.67345 2.14854 11.3085 2.97861 13.0086C3.00736 13.0674 3.01332 13.1867 3.10533 13.1577C3.19438 13.1296 3.16968 13.0193 3.15794 12.9409C3.11633 12.6635 3.07834 12.385 3.02369 12.1101C2.79072 10.9373 2.88735 9.80386 3.40449 8.71526C3.48344 8.54909 3.54342 8.3736 3.60757 8.20078C3.63637 8.12306 3.64279 8.04204 3.59565 7.97297C3.56027 7.93451 3.5206 7.93519 3.49159 7.95947Z" fill="#FAF7EF"/>
<path d="M14.947 1.03285C15.1129 1.084 15.2783 1.13748 15.4463 1.1807C16.1626 1.36513 16.7687 1.72282 17.237 2.30292C17.3085 2.39142 17.3903 2.47195 17.4695 2.55399C17.505 2.59091 17.5485 2.61621 17.5997 2.60839C17.6306 2.59902 17.6409 2.57672 17.6351 2.55404C17.6238 2.51013 17.6126 2.46442 17.5908 2.42532C17.0168 1.39277 16.1277 0.907582 14.9573 0.914722C14.9168 0.914965 14.8487 0.886356 14.8402 0.945371C14.832 1.00254 14.9002 1.01842 14.947 1.03285Z" fill="#FAF7EF"/>
<path d="M20.6555 11.3223C20.688 7.00269 17.6244 3.18815 13.4584 2.31924C8.81848 1.35134 5.00975 4.00742 3.64932 6.72456C3.94706 6.35765 4.19641 6.00657 4.48911 5.69643C6.90843 3.13317 10.3713 2.20743 13.5551 2.98774C14.9265 3.32387 16.2465 3.97464 17.4085 4.9507C19.4915 6.70047 20.5467 9.3703 20.3178 11.9843C20.254 12.7128 20.0906 13.4369 19.8218 14.1355C18.3066 18.0737 14.0924 20.3984 9.76584 19.6656C7.37897 19.2613 5.4359 18.0936 3.92691 16.1933C5.26667 18.7118 8.98476 21.0121 13.0384 20.2808C17.4804 19.4796 20.6221 15.7677 20.6555 11.3223Z" fill="#FAF7EF"/>
<path d="M20.6302 15.9949C20.545 15.9568 20.4902 16.0558 20.4471 16.1223C20.2942 16.3575 20.1379 16.591 19.9964 16.8331C19.393 17.8652 18.5688 18.6494 17.4598 19.1211C17.2905 19.1931 17.1292 19.2846 16.9666 19.3714C16.8935 19.4104 16.8349 19.4668 16.8244 19.5498C16.8253 19.602 16.8555 19.6278 16.8933 19.6288C16.9665 19.6308 17.0426 19.6336 17.113 19.617C18.9722 19.1811 20.1198 18.0133 20.6261 16.1905C20.6437 16.1274 20.7183 16.0342 20.6302 15.9949Z" fill="#FAF7EF"/>
<path d="M21.4388 7.23346C20.0261 6.02206 19.8656 5.33331 19.3786 3.45025C18.849 1.4022 16.0104 -0.375503 13.9312 0.0686915C12.3395 0.408795 10.7855 0.498266 9.20422 0.121393C9.03684 0.0815146 8.85957 0.0769488 8.6863 0.0691287C7.84551 0.0310965 7.16169 0.337151 6.63973 1.0042C6.32594 1.40526 6.05046 1.83294 5.82183 2.28427C5.2153 3.48168 4.2853 4.33145 3.10538 4.94274C2.56629 5.22203 2.03392 5.5242 1.53512 5.86911C0.766926 6.40015 0.139201 7.05515 0.0191663 8.04578C-0.0683126 8.76752 0.153032 9.43374 0.492298 10.045C1.11604 11.1686 1.4229 12.3499 1.29957 13.5154C1.29957 13.997 1.2866 14.3598 1.30191 14.7214C1.35465 15.9666 1.6462 17.1061 2.74417 17.8751C3.16122 18.1672 3.60402 18.4201 4.07224 18.6108C5.44474 19.1698 6.55025 20.0323 7.30425 21.3255C7.405 21.4982 7.55187 21.6466 7.6896 21.7949C8.31565 22.469 9.0835 22.8087 10.0111 22.7782C10.7022 22.7555 11.3628 22.5907 11.9855 22.3092C13.8491 21.4666 15.7345 20.7398 17.7799 20.4117C19.2272 20.1795 20.1707 19.1926 20.672 17.8041C20.836 17.3501 20.9168 16.8795 20.9859 16.408C21.1235 15.4696 21.5798 14.7598 22.4082 14.2902C22.5968 14.1832 22.6705 14.0595 22.8462 13.932C23.4757 13.4753 23.85 12.8603 23.9625 12.0896C24.0794 11.2878 23.9169 10.5345 23.5604 9.81532C23.0391 8.76344 22.3082 7.9789 21.4388 7.23346ZM14.9573 0.914725C16.1277 0.907585 17.0168 1.39277 17.5908 2.42533C17.6126 2.46443 17.6238 2.51013 17.6351 2.55404C17.6408 2.57673 17.6306 2.59902 17.5996 2.6084C17.5485 2.61622 17.505 2.59091 17.4695 2.554C17.3902 2.47196 17.3085 2.39142 17.237 2.30292C16.7687 1.72282 16.1626 1.36514 15.4462 1.18071C15.2783 1.13748 15.1129 1.084 14.947 1.03285C14.9002 1.01843 14.832 1.00254 14.8402 0.945375C14.8487 0.886359 14.9168 0.914968 14.9573 0.914725ZM3.60757 8.20078C3.54342 8.3736 3.48345 8.54909 3.40449 8.71526C2.88735 9.80386 2.79072 10.9373 3.0237 12.1101C3.07834 12.385 3.11634 12.6635 3.15794 12.9409C3.16968 13.0193 3.19438 13.1296 3.10533 13.1577C3.01333 13.1867 3.00736 13.0674 2.97861 13.0086C2.14854 11.3085 2.23279 9.67344 3.335 8.11408C3.37676 8.05501 3.43549 8.00659 3.49159 7.95947C3.5206 7.93518 3.56028 7.9345 3.59565 7.97297C3.64279 8.04204 3.63638 8.12306 3.60757 8.20078ZM3.92691 16.1933C5.4359 18.0936 7.37896 19.2613 9.76584 19.6656C14.0924 20.3984 18.3066 18.0737 19.8218 14.1355C20.0906 13.4369 20.254 12.7128 20.3178 11.9843C20.5467 9.37031 19.4915 6.70047 17.4085 4.9507C16.2465 3.97464 14.9265 3.32387 13.5551 2.98775C10.3713 2.20743 6.90843 3.13317 4.48911 5.69643C4.1964 6.00657 3.94706 6.35765 3.64932 6.72457C5.00975 4.00743 8.81848 1.35134 13.4584 2.31925C17.6244 3.18816 20.688 7.00269 20.6555 11.3223C20.6221 15.7677 17.4804 19.4796 13.0384 20.2808C8.98476 21.0121 5.26667 18.7118 3.92691 16.1933ZM14.6594 11.3641L14.3781 11.5516C14.1905 11.6924 13.9091 11.6454 13.7685 11.4578L11.0487 7.70641C10.9079 7.51877 10.9548 7.23744 11.1424 7.09673L11.4238 6.90914C11.6114 6.76843 11.8927 6.81545 12.0334 7.00298L14.7533 10.7545C14.8939 10.9421 14.847 11.2234 14.6594 11.3641ZM15.5035 12.1613C15.6442 12.0674 15.7849 12.1144 15.7849 12.302L15.8787 13.2399C15.8787 13.4274 15.738 13.5212 15.5973 13.4274L14.7533 13.0055C14.6125 12.9116 14.6125 12.7709 14.7533 12.6772L15.5035 12.1613ZM13.065 12.5364C13.2995 12.6302 13.3933 12.9584 13.2995 13.193C13.1589 13.4743 12.8306 13.5681 12.5961 13.4274C11.6114 12.9116 10.9548 13.1461 10.1577 13.3805C9.78251 13.5212 9.45424 13.6149 9.03216 13.6619H8.75082C8.37569 13.6619 7.95366 13.5681 7.48467 13.3805C7.25022 13.2867 7.10955 13.0055 7.20331 12.724C7.29713 12.4895 7.57849 12.3489 7.85984 12.4426C8.28193 12.5834 8.65705 12.6772 8.93841 12.6302C9.26666 12.5834 9.54806 12.4895 9.87628 12.3957C10.7673 12.1613 11.752 11.833 13.065 12.5364ZM20.6261 16.1905C20.1198 18.0133 18.9722 19.1811 17.113 19.617C17.0426 19.6336 16.9665 19.6308 16.8933 19.6288C16.8555 19.6278 16.8253 19.602 16.8244 19.5498C16.8349 19.4668 16.8935 19.4104 16.9665 19.3714C17.1292 19.2846 17.2905 19.1931 17.4598 19.1211C18.5688 18.6494 19.3929 17.8652 19.9964 16.8331C20.1379 16.591 20.2941 16.3575 20.4471 16.1223C20.4902 16.0558 20.5449 15.9568 20.6302 15.9949C20.7183 16.0342 20.6437 16.1274 20.6261 16.1905Z" fill="#5A9ECC"/>
<path d="M12.0334 7.00299C11.8927 6.81545 11.6114 6.76843 11.4238 6.90914L11.1424 7.09673C10.9548 7.23744 10.9079 7.51878 11.0487 7.70641L13.7685 11.4579C13.9091 11.6454 14.1905 11.6924 14.3781 11.5516L14.6594 11.3641C14.847 11.2234 14.8939 10.9421 14.7533 10.7545L12.0334 7.00299Z" fill="#FAF7EF"/>
<path d="M8.93841 12.6302C8.65705 12.6772 8.28193 12.5834 7.85985 12.4426C7.57849 12.3489 7.29714 12.4895 7.20332 12.724C7.10955 13.0055 7.25023 13.2867 7.48467 13.3805C7.95366 13.5681 8.3757 13.6619 8.75082 13.6619H9.03217C9.45425 13.6149 9.78251 13.5212 10.1577 13.3805C10.9548 13.1461 11.6114 12.9116 12.5962 13.4274C12.8306 13.5681 13.1589 13.4743 13.2995 13.193C13.3933 12.9584 13.2995 12.6302 13.065 12.5364C11.752 11.833 10.7673 12.1613 9.87628 12.3957C9.54807 12.4895 9.26666 12.5834 8.93841 12.6302Z" fill="#FAF7EF"/>
<path d="M14.7533 13.0055L15.5973 13.4274C15.738 13.5212 15.8787 13.4274 15.8787 13.2399L15.7849 12.302C15.7849 12.1144 15.6442 12.0674 15.5036 12.1613L14.7533 12.6772C14.6125 12.7709 14.6125 12.9116 14.7533 13.0055Z" fill="#FAF7EF"/>
</svg>
