<svg fill="none" height="260" viewBox="0 0 260 260" width="260" xmlns="http://www.w3.org/2000/svg"><path d="m32.408 190.912 47.6697-27.965 47.8793 27.894.07 55.753zm53.8252-31.541 44.6968-26.16 44.767 26.16-44.627 26.125zm47.8798 31.505 98.662-57.7v55.789l-98.592 57.629-.07-55.753zm-50.9576-89.17 44.6966-26.1949v52.3199l-44.6966 26.16zm50.8876 26.125v-52.3199l44.767 26.1599v52.32zm-104.8876-53.9836 47.8096 27.8236v55.86l-47.6347 27.965-.1399-111.6486zm3.0778-5.4161 95.6188-55.895v55.7534l-47.7743 28.036-47.8445-27.859zm101.7748-.177v-55.718l95.514 55.8242-47.67 27.8944-47.844-27.9652zm-4.372-63.96596-105.0971 61.48806-.2449.1416-1.294 2.3009.1749 122.6931v.248l1.329 2.301 105.1321 61.24.245.141h2.623l104.957-61.381.245-.142 1.294-2.301v-63.86l-4.127-2.407-49.838 29.133v-52.319l52.776-30.8681v-4.8143l-105.342-61.45267-.245-.14159h-2.623z" fill="#fff"/></svg>
