<svg width="24" height="24" viewBox="0 0 24 24" fill="none" xmlns="http://www.w3.org/2000/svg">
<rect width="24" height="24" fill="white"/>
<path d="M18.6885 6C20.535 6.00003 21.9998 7.52947 22 9.37598V15.3008C22.0031 15.7364 21.9192 16.1682 21.7539 16.5713C21.5886 16.9745 21.3452 17.3412 21.0371 17.6494C20.729 17.9576 20.3622 18.2018 19.959 18.3672C19.556 18.5325 19.1241 18.6163 18.6885 18.6133H14.293L15.376 17.084L18.5605 16.0654C19.1339 15.8738 19.5156 15.3 19.5156 14.7275V9.88672C19.5156 9.31422 19.1339 8.74049 18.5605 8.54883L15.375 7.5293L14.292 6H18.6885ZM8.625 7.52832L5.43945 8.54785C4.86612 8.73952 4.48438 9.31339 4.48438 9.88672L4.4834 14.7266C4.48352 15.2998 4.86704 15.8728 5.43945 16.0645L8.62402 17.0195L9.70801 18.5488H5.31152C4.8759 18.5518 4.44406 18.4681 4.04102 18.3027C3.63782 18.1373 3.27102 17.8932 2.96289 17.585C2.65498 17.2769 2.41137 16.9108 2.24609 16.5078C2.08078 16.1046 1.9969 15.6721 2 15.2363V9.375C2.00024 7.52857 3.46519 6.00005 5.3125 6H9.70703L8.625 7.52832ZM15.376 11.4775V13.0068H8.6875V11.4775H15.376Z" fill="#FF6A00"/>
</svg>
