<svg viewBox="0 0 24 24" fill="none" xmlns="http://www.w3.org/2000/svg"><g id="SVGRepo_bgCarrier" stroke-width="0"></g><g id="SVGRepo_tracerCarrier" stroke-linecap="round" stroke-linejoin="round"></g><g id="SVGRepo_iconCarrier"> <path d="M9.5 20H6.2C5.0799 20 4.51984 20 4.09202 19.782C3.71569 19.5903 3.40973 19.2843 3.21799 18.908C3 18.4802 3 17.9201 3 16.8V7.2C3 6.0799 3 5.51984 3.21799 5.09202C3.40973 4.71569 3.71569 4.40973 4.09202 4.21799C4.51984 4 5.0799 4 6.2 4H15.8C16.9201 4 17.4802 4 17.908 4.21799C18.2843 4.40973 18.5903 4.71569 18.782 5.09202C19 5.51984 19 6.0799 19 7.2V8H3M3 12H11V8M3 16H9M7 4V8M7 12V16M15 4V8M19.8284 19.8284C18.2663 21.3905 15.7337 21.3905 14.1716 19.8284C13.3905 19.0474 13 18.0237 13 17C13 15.9763 13.3905 14.9526 14.1716 14.1716C14.1716 14.1716 14.5 15 15.5 15.5C15.5 14.5 15.75 13 16.9929 12C18 13 19.0456 13.3887 19.8284 14.1716C20.6095 14.9526 21 15.9763 21 17C21 18.0237 20.6095 19.0474 19.8284 19.8284Z" stroke="#428CDC" stroke-width="2" stroke-linecap="round" stroke-linejoin="round"></path> </g></svg>