<svg width="32" height="32" viewBox="0 0 32 32" fill="none" xmlns="http://www.w3.org/2000/svg">
<path d="M10.4928 25.2422L9.70795 26.2346L11.4837 28.9988L11.2986 30.277H18.8318L19.3533 28.9988L16.3233 25.2422H10.4928Z" fill="#428CDC"/>
<path d="M14.6128 8.4206L11.8879 13.1722L25.1786 28.8403L24.8005 30.277H30.897L32 25.1798L17.7784 8.41801L14.6128 8.4206Z" fill="#fff"/>
<path d="M16.4224 4.84845L15.1265 7.22556H18.3416L23.8592 13.7671L27.1395 11.0835V9.37924L26 7.78411L26.8422 6.91121L20.2608 1.72314L16.4224 4.84845Z" fill="#fff"/>
<path d="M6.52934 18.0901H4.73272L0 24.0757V30.277H5.07692L5.97392 29.1157L9.89048 24.0627H15.5567L17.3012 21.3999L11.1578 14.136L6.52934 18.0901Z" fill="#fff"/>
</svg>
