<svg viewBox="0 0 48 48" fill="none" xmlns="http://www.w3.org/2000/svg">
<path fill-rule="evenodd" clip-rule="evenodd" d="M23.9914 1.20001C18.3294 1.20295 12.853 3.20834 8.5415 6.85759C4.23001 10.5068 1.36457 15.562 0.457538 21.1191C-0.449492 26.6763 0.661026 32.373 3.59055 37.1907C6.52007 42.0084 11.0775 45.6329 16.448 47.4162C17.6329 47.6361 18.0792 46.9018 18.0792 46.2774C18.0792 45.653 18.0555 43.8427 18.0476 41.8635C11.4126 43.2968 10.0105 39.0636 10.0105 39.0636C8.92839 36.3147 7.36442 35.5922 7.36442 35.5922C5.20014 34.1235 7.52636 34.151 7.52636 34.151C9.92365 34.3198 11.1835 36.5975 11.1835 36.5975C13.3083 40.222 16.764 39.1735 18.1226 38.5609C18.3359 37.0255 18.9559 35.9809 19.6392 35.388C14.3391 34.7911 8.7704 32.7569 8.7704 23.67C8.73755 21.3133 9.61706 19.0343 11.2269 17.3044C10.9821 16.7075 10.1645 14.2964 11.4599 11.0213C11.4599 11.0213 13.4623 10.3851 18.0199 13.4521C21.9292 12.3891 26.0537 12.3891 29.9629 13.4521C34.5166 10.3851 36.515 11.0213 36.515 11.0213C37.8143 14.2885 36.9968 16.6997 36.7519 17.3044C38.3669 19.0346 39.2483 21.3176 39.2124 23.6778C39.2124 32.7844 33.6319 34.7911 28.3239 35.3762C29.177 36.1145 29.9392 37.5556 29.9392 39.7704C29.9392 42.9434 29.9116 45.4959 29.9116 46.2774C29.9116 46.9096 30.342 47.6479 31.5506 47.4162C36.9217 45.6327 41.4796 42.0076 44.4091 37.189C47.3386 32.3705 48.4485 26.6729 47.5405 21.1152C46.6324 15.5576 43.7655 10.5024 39.4526 6.85377C35.1397 3.20515 29.662 1.20109 23.9993 1.20001H23.9914Z" fill="currentColor"/>
<path d="M9.17262 35.2505C9.12127 35.3683 8.9317 35.4036 8.77768 35.3212C8.62365 35.2387 8.50913 35.0856 8.56442 34.9638C8.61971 34.8421 8.80533 34.8107 8.95936 34.8931C9.11338 34.9756 9.23186 35.1327 9.17262 35.2505Z" fill="currentColor"/>
<path d="M10.1405 36.3226C10.0588 36.3635 9.96518 36.375 9.87585 36.3549C9.78651 36.3349 9.70697 36.2846 9.65082 36.2126C9.4968 36.0477 9.46518 35.8199 9.58367 35.7178C9.70215 35.6157 9.91543 35.6628 10.0695 35.8278C10.2235 35.9927 10.259 36.2205 10.1405 36.3226Z" fill="currentColor"/>
<path d="M11.0803 37.6852C10.9342 37.7873 10.6854 37.6852 10.5471 37.481C10.5089 37.4444 10.4785 37.4004 10.4578 37.3519C10.437 37.3033 10.4263 37.251 10.4263 37.1983C10.4263 37.1455 10.437 37.0932 10.4578 37.0446C10.4785 36.9961 10.5089 36.9521 10.5471 36.9155C10.6933 36.8173 10.9421 36.9155 11.0803 37.1158C11.2185 37.3161 11.2225 37.5831 11.0803 37.6852Z" fill="currentColor"/>
<path d="M12.3559 39.0047C12.2256 39.1499 11.961 39.1107 11.7438 38.9143C11.5266 38.718 11.4752 38.451 11.6055 38.3096C11.7359 38.1682 12.0005 38.2075 12.2256 38.3999C12.4507 38.5923 12.4942 38.8633 12.3559 39.0047Z" fill="currentColor"/>
<path d="M14.1452 39.7743C14.0859 39.9589 13.8174 40.0414 13.5488 39.9628C13.2802 39.8843 13.1025 39.6644 13.1539 39.4759C13.2052 39.2874 13.4777 39.201 13.7502 39.2874C14.0227 39.3738 14.1965 39.5819 14.1452 39.7743Z" fill="currentColor"/>
<path d="M16.0961 39.9078C16.0961 40.1003 15.875 40.2652 15.5906 40.2691C15.3063 40.273 15.0732 40.116 15.0732 39.9235C15.0732 39.7311 15.2944 39.5662 15.5788 39.5623C15.8631 39.5583 16.0961 39.7115 16.0961 39.9078Z" fill="currentColor"/>
<path d="M17.9126 39.6055C17.9481 39.7979 17.7506 39.9982 17.4663 40.0453C17.1819 40.0924 16.9331 39.9786 16.8976 39.7901C16.862 39.6016 17.0674 39.3974 17.3438 39.3463C17.6203 39.2953 17.877 39.4131 17.9126 39.6055Z" fill="currentColor"/>
</svg>
