<svg width="24" height="24" viewBox="0 0 24 24" fill="none" xmlns="http://www.w3.org/2000/svg">
<path d="M14.6907 8.5684H15.3007L17.0392 6.77648L17.1246 6.0157C16.1287 5.10965 14.9251 4.48026 13.6276 4.18696C12.33 3.89366 10.9813 3.94615 9.70894 4.33947C8.43655 4.73279 7.28244 5.45395 6.35563 6.43483C5.42883 7.41571 4.75992 8.62392 4.41211 9.94534C4.60579 9.86352 4.82033 9.85025 5.02212 9.90762L8.49915 9.3166C8.49915 9.3166 8.67605 9.0148 8.76755 9.03367C9.51257 8.19031 10.5422 7.67237 11.6456 7.58588C12.749 7.49938 13.8427 7.85088 14.7029 8.5684H14.6907Z" fill="#EA4335"/>
<path d="M19.5162 9.94508C19.1166 8.42833 18.2962 7.06478 17.1555 6.02173L14.7155 8.5367C15.224 8.96498 15.6315 9.50669 15.9073 10.121C16.1831 10.7352 16.32 11.4061 16.3076 12.0828V12.5292C16.5928 12.5292 16.8752 12.5871 17.1386 12.6996C17.4021 12.8121 17.6415 12.977 17.8432 13.1848C18.0448 13.3927 18.2048 13.6394 18.3139 13.911C18.423 14.1825 18.4792 14.4736 18.4792 14.7675C18.4792 15.0615 18.423 15.3525 18.3139 15.6241C18.2048 15.8957 18.0448 16.1424 17.8432 16.3503C17.6415 16.5581 17.4021 16.723 17.1386 16.8355C16.8752 16.948 16.5928 17.0059 16.3076 17.0059H11.9644L11.5312 17.4586V20.1433L11.9644 20.5897H16.3076C17.5204 20.5994 18.7041 20.2065 19.6835 19.4691C20.6629 18.7317 21.386 17.689 21.7459 16.4952C22.1057 15.3013 22.0832 14.0198 21.6817 12.8402C21.2801 11.6606 20.5209 10.6455 19.5162 9.94508Z" fill="#4285F4"/>
<path d="M7.61501 20.5646H11.9583V16.9807H7.61501C7.30557 16.9807 6.99977 16.9121 6.7183 16.7795L6.1083 16.9745L4.35758 18.7664L4.20508 19.3951C5.18684 20.1592 6.3848 20.5701 7.61501 20.5646Z" fill="#34A853"/>
<path d="M7.61491 8.93912C6.4381 8.94637 5.29287 9.33228 4.33918 10.0429C3.38548 10.7536 2.67095 11.7536 2.29538 12.9031C1.91981 14.0527 1.90195 15.2944 2.24431 16.4549C2.58667 17.6154 3.27214 18.6368 4.20498 19.3763L6.7243 16.7795C6.40415 16.6305 6.12387 16.4035 5.90751 16.1183C5.69114 15.833 5.54516 15.4978 5.48208 15.1416C5.41901 14.7854 5.44072 14.4187 5.54536 14.0731C5.64999 13.7274 5.83443 13.4131 6.08285 13.157C6.33126 12.901 6.63624 12.7109 6.97161 12.603C7.30697 12.4952 7.66272 12.4728 8.00832 12.5378C8.35393 12.6028 8.67907 12.7533 8.95585 12.9763C9.23263 13.1993 9.45279 13.4882 9.59743 13.8182L12.1168 11.2215C11.588 10.5089 10.9064 9.93216 10.1255 9.53622C9.34449 9.14029 8.48524 8.93593 7.61491 8.93912Z" fill="#FBBC05"/>
</svg>
