<svg width="168" height="167" viewBox="0 0 168 167" fill="none" xmlns="http://www.w3.org/2000/svg">
<g clip-path="url(#clip0_2285_4)">
<path d="M130.504 9L43.51 9.01136L21.9062 46.2964L0 84.3374L21.6832 121.989L43.5364 159.652L130.507 159.622L152.013 121.993H167.04V121.978H167.116L167.089 46.6517H151.99L130.504 9ZM57.9818 34.1339H72.4763L72.4725 34.1415L79.7179 46.6706L57.9856 84.3639L79.6915 121.985L72.4763 134.579L72.4839 134.59H57.9818L36.2344 96.9233L28.9588 84.4244L36.3364 71.6269L57.9818 34.1339ZM101.443 34.1415L115.964 34.1528L137.711 71.8045V71.8158L144.972 84.4433L115.956 134.583H101.48V134.579C98.8121 130.663 94.2465 121.993 94.2465 121.993L115.99 84.3564L94.2427 46.663L101.443 34.1415Z" fill="black"/>
</g>
<defs>
<clipPath id="clip0_2285_4">
<rect width="168" height="167" fill="white"/>
</clipPath>
</defs>
</svg>
