<svg width="33" height="32" viewBox="0 0 33 32" fill="none" xmlns="http://www.w3.org/2000/svg">
<path d="M18.8865 18.0008C18.8492 17.9932 18.8112 17.9902 18.7732 17.9919C18.7075 17.9955 18.6432 18.0127 18.5842 18.0425C18.4696 18.0995 18.3807 18.1998 18.3362 18.3227C18.2917 18.4455 18.2948 18.5812 18.3451 18.7017L18.3416 18.7068L19.4726 21.5217C20.5546 20.8103 21.3757 19.7478 21.806 18.502L18.8916 17.9945L18.8865 18.0008ZM14.3518 18.3998C14.3273 18.2888 14.2673 18.1895 14.1815 18.1178C14.0957 18.0461 13.989 18.0062 13.8786 18.0044C13.846 18.0039 13.8134 18.0069 13.7814 18.0132L13.7765 18.0071L10.8874 18.5123C11.3212 19.7484 12.1389 20.8023 13.2135 21.5108L14.3331 18.7236L14.3243 18.7126C14.3656 18.614 14.3753 18.5044 14.3518 18.3998ZM16.7714 19.4928C16.7292 19.4117 16.6664 19.344 16.5898 19.2968C16.5132 19.2497 16.4256 19.2248 16.3363 19.2249C16.247 19.225 16.1595 19.2501 16.0829 19.2975C16.0064 19.3448 15.9438 19.4127 15.9018 19.4939H15.8994L14.4787 22.1406C15.496 22.4974 16.5896 22.5554 17.637 22.308C17.8313 22.2624 18.021 22.2078 18.2062 22.144L16.7821 19.4926L16.7714 19.4928ZM21.2691 13.3446L19.0831 15.3602L19.0843 15.3666C19.0171 15.4271 18.9671 15.5052 18.9396 15.5926C18.912 15.68 18.908 15.7735 18.9278 15.8631C18.9477 15.9527 18.9907 16.0351 19.0523 16.1015C19.114 16.1679 19.1919 16.2159 19.2779 16.2404L19.2806 16.2525L22.112 17.0928C22.2344 15.7823 21.9384 14.4664 21.2691 13.3448V13.3446ZM17.2079 13.5704C17.212 13.6622 17.2401 13.7512 17.2894 13.8278C17.3386 13.9044 17.407 13.9659 17.4875 14.0057C17.5679 14.0455 17.6572 14.0621 17.7461 14.0538C17.8349 14.0455 17.9199 14.0125 17.992 13.9584L18.0007 13.9621L20.3926 12.2149C19.4821 11.2962 18.3038 10.711 17.039 10.5495L17.2052 13.5696L17.2079 13.5704ZM14.6748 13.9695C14.747 14.0235 14.832 14.0564 14.9209 14.0646C15.0097 14.0728 15.0991 14.0561 15.1794 14.0161C15.2597 13.9762 15.328 13.9145 15.3771 13.8377C15.4261 13.761 15.454 13.6719 15.4578 13.5801L15.47 13.5742L15.6362 10.5493C15.4356 10.5742 15.2364 10.6095 15.0393 10.6553C13.9908 10.8981 13.029 11.438 12.2626 12.2141L14.6702 13.9724L14.6748 13.9695ZM13.3913 16.2551C13.4775 16.2309 13.5557 16.183 13.6175 16.1166C13.6794 16.0502 13.7225 15.9678 13.7424 15.878C13.7623 15.7883 13.7582 15.6947 13.7305 15.6072C13.7029 15.5198 13.6526 15.4416 13.5852 15.3813L13.5876 15.3692L11.3896 13.3439C10.719 14.4683 10.4312 15.7908 10.5716 17.1025L13.3891 16.265L13.3913 16.2551ZM15.5262 17.1448L16.3371 17.5465L17.1455 17.1457L17.3463 16.2465L16.7868 15.5257H15.8863L15.3252 16.2454L15.5262 17.1448Z" fill="#428CDC"/>
<path d="M29.7412 18.9167L27.4307 8.57749C27.3686 8.31001 27.2496 8.06007 27.0823 7.84571C26.9151 7.63134 26.7037 7.45789 26.4635 7.33788L17.111 2.73765C16.8687 2.61849 16.6035 2.55664 16.3349 2.55664C16.0663 2.55664 15.8011 2.61849 15.5587 2.73765L6.20815 7.34034C5.96789 7.46028 5.75647 7.63368 5.58917 7.84803C5.42186 8.06237 5.30284 8.31232 5.2407 8.57982L2.93392 18.9188C2.87702 19.1801 2.87684 19.4512 2.93339 19.7126C2.95004 19.7922 2.97179 19.8706 2.9985 19.9473C3.04365 20.0782 3.10342 20.2031 3.17661 20.3198C3.20831 20.3696 3.24173 20.4181 3.27807 20.4651L9.75042 28.7554C9.77866 28.7914 9.80983 28.8244 9.84073 28.8578C9.94229 28.9693 10.057 29.0672 10.1821 29.1493C10.3404 29.2519 10.5128 29.3291 10.6936 29.3784C10.8419 29.4203 10.9948 29.442 11.1485 29.443H11.2491L21.5277 29.4405C21.5902 29.4403 21.6526 29.4365 21.7147 29.4292C21.8037 29.4188 21.8919 29.4016 21.9784 29.3776C22.0405 29.3607 22.1016 29.3406 22.1616 29.3172C22.2084 29.2987 22.2551 29.2803 22.3002 29.258C22.3677 29.2247 22.4332 29.1872 22.4963 29.1457C22.6592 29.0402 22.8042 28.908 22.9256 28.7543L23.1229 28.5015L29.3957 20.4624C29.5159 20.3071 29.6104 20.1323 29.6753 19.9453C29.7024 19.8683 29.7245 19.7896 29.7416 19.7097C29.7983 19.4483 29.7981 19.1772 29.741 18.9159L29.7412 18.9167ZM20.0405 22.9379C20.0667 23.0174 20.0979 23.0952 20.1337 23.1706C20.0765 23.2738 20.0609 23.3959 20.0903 23.5108C20.2264 23.8319 20.3926 24.1385 20.5866 24.4262C20.6952 24.5733 20.7954 24.7268 20.8867 24.8858C20.9093 24.9289 20.9387 24.9955 20.9601 25.041C21.0003 25.1104 21.0261 25.1877 21.0357 25.2679C21.0452 25.3481 21.0384 25.4296 21.0156 25.5069C20.9927 25.5842 20.9545 25.6558 20.9032 25.717C20.8519 25.7782 20.7888 25.8277 20.7179 25.8622C20.6469 25.8967 20.5698 25.9156 20.4913 25.9176C20.4129 25.9196 20.3349 25.9046 20.2624 25.8737C20.1899 25.8428 20.1245 25.7966 20.0704 25.738C20.0163 25.6795 19.9746 25.6099 19.9482 25.5338C19.9268 25.4888 19.8971 25.4286 19.8789 25.386C19.815 25.2132 19.7608 25.0368 19.7165 24.8575C19.6194 24.5222 19.4908 24.1974 19.3324 23.8879C19.2635 23.7922 19.161 23.7281 19.0468 23.7093C19.0289 23.6775 18.9625 23.5522 18.927 23.4876C17.2621 24.1371 15.4234 24.1323 13.7618 23.4739L13.6351 23.7103C13.5447 23.7248 13.4606 23.767 13.3939 23.8315C13.203 24.1542 13.0571 24.5029 12.9605 24.8674C12.9166 25.0466 12.8627 25.2231 12.7989 25.3958C12.781 25.4382 12.7511 25.4975 12.7297 25.5424V25.5437L12.7288 25.5448C12.7024 25.621 12.6607 25.6906 12.6066 25.7492C12.5524 25.8079 12.487 25.8541 12.4144 25.8851C12.3418 25.916 12.2637 25.9309 12.1852 25.9289C12.1067 25.9268 12.0295 25.9078 11.9585 25.8731C11.8875 25.8384 11.8244 25.7888 11.7732 25.7274C11.722 25.6661 11.6839 25.5943 11.6613 25.5168C11.6386 25.4394 11.632 25.3578 11.6419 25.2776C11.6517 25.1973 11.6777 25.12 11.7184 25.0507C11.7394 25.005 11.7677 24.9387 11.79 24.8957C11.8813 24.7362 11.9814 24.5823 12.09 24.4348C12.2874 24.1395 12.4571 23.8253 12.5966 23.4967C12.6114 23.3853 12.5941 23.2719 12.5467 23.1706L12.6485 22.9192C11.1167 21.9878 9.96858 20.511 9.42086 18.7675L9.17697 18.8103C9.08235 18.7411 8.97079 18.7006 8.85497 18.6935C8.52125 18.7593 8.19453 18.8583 7.87942 18.9893C7.7158 19.0651 7.54812 19.1312 7.37719 19.1874C7.33675 19.1989 7.27839 19.2103 7.23224 19.2207C7.22853 19.2221 7.22535 19.2237 7.22163 19.2247C7.21877 19.2251 7.2159 19.2254 7.21301 19.2255C7.13872 19.2507 7.06015 19.2596 6.98232 19.2517C6.90449 19.2438 6.82912 19.2192 6.76104 19.1796C6.69296 19.1399 6.63366 19.0861 6.58694 19.0214C6.54023 18.9568 6.50712 18.8829 6.48975 18.8043C6.47237 18.7258 6.47111 18.6443 6.48604 18.5652C6.50097 18.4862 6.53176 18.4112 6.57645 18.345C6.62114 18.2789 6.67874 18.2231 6.74555 18.1813C6.81237 18.1394 6.88694 18.1124 6.96448 18.1019L6.97257 18.0998L6.97748 18.0985C7.02429 18.0871 7.08424 18.0711 7.12694 18.0627C7.305 18.0372 7.48433 18.0223 7.66405 18.0181C8.00299 17.9953 8.33895 17.9385 8.66718 17.8484C8.76446 17.7846 8.84665 17.6992 8.90775 17.5984L9.14209 17.5279C8.88781 15.7082 9.29456 13.8559 10.2843 12.3261L10.1049 12.1614C10.0984 12.0418 10.0594 11.9265 9.99245 11.8285C9.73466 11.6002 9.45586 11.3984 9.16 11.226C9.00024 11.1421 8.84531 11.0487 8.69596 10.9465C8.66201 10.9204 8.61692 10.8812 8.58005 10.8503L8.5717 10.8443C8.44438 10.7501 8.35844 10.6078 8.33265 10.4485C8.30686 10.2892 8.34331 10.1259 8.43404 9.99418C8.48764 9.92657 8.55596 9.87293 8.63345 9.83761C8.71094 9.80229 8.79542 9.78628 8.88004 9.79088C9.02248 9.79717 9.15922 9.85032 9.2702 9.94253C9.30826 9.97327 9.36038 10.0144 9.3942 10.0443C9.5245 10.1713 9.64759 10.3058 9.76288 10.4474C9.99163 10.7063 10.2444 10.9416 10.5175 11.1499C10.6198 11.2053 10.7392 11.2173 10.85 11.1831C10.9166 11.2332 10.9839 11.2825 11.0518 11.3309C12.0354 10.2539 13.3089 9.50427 14.709 9.17838C15.0423 9.10063 15.3804 9.04708 15.7209 9.01812L15.7342 8.77437C15.8211 8.69478 15.8842 8.59125 15.9159 8.47598C15.9281 8.12614 15.9072 7.77591 15.8536 7.43024C15.818 7.24908 15.7925 7.06598 15.7772 6.88182C15.7757 6.83987 15.778 6.78194 15.7785 6.73412C15.7785 6.72866 15.7772 6.72319 15.7772 6.718C15.7692 6.63739 15.7778 6.55596 15.8023 6.47896C15.8268 6.40197 15.8666 6.33112 15.9194 6.27099C15.9721 6.21086 16.0364 6.16278 16.1083 6.12986C16.1802 6.09695 16.2579 6.07992 16.3366 6.07988C16.4152 6.07984 16.493 6.09679 16.5649 6.12964C16.6368 6.16249 16.7012 6.2105 16.754 6.27058C16.8068 6.33066 16.8467 6.40147 16.8713 6.47844C16.8959 6.55541 16.9045 6.63684 16.8966 6.71746C16.8966 6.76801 16.8995 6.83495 16.8978 6.88141C16.8825 7.06554 16.8568 7.24861 16.821 7.42969C16.767 7.77542 16.7458 8.12574 16.7576 8.47571C16.7797 8.5927 16.8454 8.69615 16.9405 8.76399C16.9425 8.80566 16.9491 8.94475 16.954 9.02139C18.7234 9.18717 20.3743 10.0089 21.5999 11.3341L21.8129 11.1774C21.9273 11.1976 22.0449 11.1844 22.1524 11.1394C22.4255 10.9307 22.6782 10.6951 22.907 10.436C23.0226 10.2944 23.146 10.1599 23.2767 10.033C23.311 10.0026 23.3629 9.96193 23.4008 9.93106C23.4569 9.874 23.5241 9.82976 23.598 9.80119C23.6718 9.77262 23.7507 9.76036 23.8294 9.76522C23.9081 9.77007 23.985 9.79193 24.055 9.82938C24.125 9.86682 24.1866 9.91901 24.2357 9.98255C24.2849 10.0461 24.3205 10.1196 24.3403 10.1982C24.3601 10.2769 24.3636 10.359 24.3507 10.4391C24.3377 10.5193 24.3085 10.5957 24.265 10.6635C24.2215 10.7313 24.1646 10.7889 24.0981 10.8325C24.0606 10.8638 24.011 10.9074 23.9749 10.935C23.8252 11.0373 23.6699 11.1307 23.5098 11.2145C23.214 11.3871 22.9352 11.5889 22.6773 11.8171C22.6023 11.9076 22.5646 12.0248 22.5723 12.1436C22.5411 12.1731 22.4317 12.273 22.3738 12.3271C23.3664 13.8514 23.7813 15.698 23.5398 17.5166L23.7658 17.5843C23.8222 17.6891 23.9058 17.7756 24.0071 17.8344C24.3355 17.9246 24.6717 17.9816 25.0108 18.0046C25.1903 18.0089 25.3695 18.0236 25.5474 18.0489C25.5944 18.0578 25.6625 18.0772 25.7105 18.0885C25.788 18.099 25.8626 18.1261 25.9294 18.168C25.9962 18.2099 26.0538 18.2657 26.0984 18.3318C26.1431 18.398 26.1739 18.473 26.1888 18.5521C26.2037 18.6312 26.2024 18.7126 26.1849 18.7912C26.1675 18.8697 26.1344 18.9437 26.0876 19.0083C26.0409 19.0729 25.9816 19.1267 25.9134 19.1663C25.8453 19.2059 25.77 19.2304 25.6921 19.2383C25.6143 19.2462 25.5357 19.2372 25.4614 19.212L25.4533 19.2109C25.4496 19.2099 25.4462 19.2079 25.4423 19.2068C25.3962 19.1965 25.3382 19.1862 25.2978 19.1752C25.1269 19.1187 24.9593 19.052 24.7958 18.9755C24.4804 18.8444 24.1534 18.7454 23.8193 18.6797C23.7037 18.6759 23.5913 18.7189 23.5061 18.7995C23.4265 18.7839 23.3468 18.7695 23.2668 18.7563C22.7257 20.5107 21.5774 21.9989 20.0405 22.9378V22.9379Z" fill="#428CDC"/>
</svg>
