<svg viewBox="0 0 28 28" xmlns="http://www.w3.org/2000/svg" width="18" height="18"><path d="M26.599 0H16.7343V4.89325H23.0652V11.2584H27.9988V1.39982C27.9988 0.62662 27.3722 0 26.599 0Z" fill="currentColor"></path><path d="M23.0664 23.0994H16.7355V27.9988H26.6002C27.3734 27.9988 28 27.3722 28 26.599V16.7343H23.0664V23.0982V23.0994Z" fill="currentColor"></path><path d="M4.93356 16.7355H0V26.6002C0 27.3734 0.626619 28 1.39982 28H11.2584V23.1006H4.93356V16.7367V16.7355Z" fill="currentColor"></path><path d="M14.0782 10.1849L10.264 13.9991L14.0782 17.8132L17.8924 13.9991L14.0782 10.1849Z" fill="currentColor"></path><path d="M4.93356 4.89325H11.2584V0H1.39982C0.626619 0 0 0.62662 0 1.39982V11.2584H4.93356V4.89325Z" fill="currentColor"></path></svg>