<svg fill="none" viewBox="0 0 24 24" xmlns="http://www.w3.org/2000/svg"><path d="m3.75 22c-.21667 0-.39583-.0708-.5375-.2125s-.2125-.3208-.2125-.5375.07083-.3958.2125-.5375.32083-.2125.5375-.2125h1.75v-.75h-.75c-.21667 0-.39583-.0708-.5375-.2125s-.2125-.3208-.2125-.5375.07083-.3958.2125-.5375.32083-.2125.5375-.2125h.75v-.75h-1.75c-.21667 0-.39583-.0708-.5375-.2125s-.2125-.3208-.2125-.5375.07083-.3958.2125-.5375.32083-.2125.5375-.2125h2.25c.28333 0 .52083.0958.7125.2875s.2875.4292.2875.7125v1c0 .2833-.09583.5208-.2875.7125s-.42917.2875-.7125.2875c.28333 0 .52083.0958.7125.2875s.2875.4292.2875.7125v1c0 .2833-.09583.5208-.2875.7125s-.42917.2875-.7125.2875zm0-7c-.21667 0-.39583-.0708-.5375-.2125s-.2125-.3208-.2125-.5375v-2c0-.2833.09583-.5208.2875-.7125s.42917-.2875.7125-.2875h1.5v-.75h-1.75c-.21667 0-.39583-.0708-.5375-.2125s-.2125-.32083-.2125-.5375.07083-.39583.2125-.5375.32083-.2125.5375-.2125h2.25c.28333 0 .52083.09583.7125.2875s.2875.42917.2875.7125v1.75c0 .2833-.09583.5208-.2875.7125s-.42917.2875-.7125.2875h-1.5v.75h1.75c.21667 0 .39583.0708.5375.2125s.2125.3208.2125.5375-.07083.3958-.2125.5375-.32083.2125-.5375.2125zm1.5-7c-.21667 0-.39583-.07083-.5375-.2125s-.2125-.32083-.2125-.5375v-3.75h-.75c-.21667 0-.39583-.07083-.5375-.2125s-.2125-.32083-.2125-.5375.07083-.39583.2125-.5375.32083-.2125.5375-.2125h1.5c.21667 0 .39583.07083.5375.2125s.2125.32083.2125.5375v4.5c0 .21667-.07083.39583-.2125.5375s-.32083.2125-.5375.2125zm4.75 11c-.28333 0-.52083-.0958-.7125-.2875s-.2875-.4292-.2875-.7125.09583-.5208.2875-.7125.42917-.2875.7125-.2875h10c.2833 0 .5208.0958.7125.2875s.2875.4292.2875.7125-.0958.5208-.2875.7125-.4292.2875-.7125.2875zm0-6c-.28333 0-.52083-.0958-.7125-.2875s-.2875-.4292-.2875-.7125.09583-.5208.2875-.7125.42917-.2875.7125-.2875h10c.2833 0 .5208.0958.7125.2875s.2875.4292.2875.7125-.0958.5208-.2875.7125-.4292.2875-.7125.2875zm0-6c-.28333 0-.52083-.09583-.7125-.2875s-.2875-.42917-.2875-.7125.09583-.52083.2875-.7125.42917-.2875.7125-.2875h10c.2833 0 .5208.09583.7125.2875s.2875.42917.2875.7125-.0958.52083-.2875.7125-.4292.2875-.7125.2875z" fill="currentColor"/></svg>