<svg width="24" height="24" viewBox="0 0 24 24" fill="none" xmlns="http://www.w3.org/2000/svg">
<path d="M22.0162 18.9769C22.0181 19.8102 21.7281 20.5192 21.1461 21.1039C20.5641 21.6886 19.8564 21.9819 19.0231 21.9838C18.3731 21.9853 17.7893 21.7991 17.2718 21.4253C16.7543 21.0515 16.3948 20.5732 16.1935 19.9903L14.0185 19.9954C13.1852 19.9973 12.4762 19.7073 11.8915 19.1253C11.3068 18.5433 11.0135 17.8356 11.0116 17.0023L11.0023 13.0023L7.82733 13.0097C7.62868 13.5934 7.27145 14.0734 6.75565 14.4496C6.23986 14.8258 5.65696 15.0147 5.00696 15.0162C4.17363 15.0181 3.46462 14.7281 2.87994 14.1461C2.29526 13.5641 2.00196 12.8565 2.00003 12.0231C1.9981 11.1898 2.28813 10.4808 2.87011 9.89611C3.45209 9.31143 4.15975 9.01813 4.99308 9.0162C5.64308 9.0147 6.22685 9.20085 6.74438 9.57465C7.26191 9.94845 7.62135 10.4268 7.8227 11.0097L10.9977 11.0023L10.9884 7.00233C10.9865 6.169 11.2765 5.45999 11.8585 4.87531C12.4405 4.29063 13.1482 3.99733 13.9815 3.9954L16.1565 3.99037C16.3551 3.40657 16.7124 2.92658 17.2282 2.55039C17.744 2.17419 18.3269 1.98534 18.9769 1.98384C19.8102 1.98191 20.5192 2.27194 21.1039 2.85392C21.6886 3.43591 21.9819 4.14356 21.9838 4.97689C21.9857 5.81022 21.6957 6.51923 21.1137 7.10391C20.5317 7.68859 19.8241 7.9819 18.9907 7.98382C18.3407 7.98533 17.757 7.79918 17.2394 7.42537C16.7219 7.05157 16.3625 6.57323 16.1611 5.99036L13.9861 5.99539C13.7028 5.99605 13.4655 6.09243 13.2743 6.28454C13.0831 6.47665 12.9878 6.71437 12.9884 6.9977L12.9977 10.9977L16.1727 10.9903C16.3713 10.4066 16.7286 9.92656 17.2444 9.55037C17.7601 9.17417 18.343 8.98532 18.993 8.98382C19.8264 8.98189 20.5354 9.27192 21.1201 9.8539C21.7047 10.4359 21.998 11.1435 22 11.9769C22.0019 12.8102 21.7119 13.5192 21.1299 14.1039C20.5479 14.6886 19.8403 14.9819 19.0069 14.9838C18.3569 14.9853 17.7732 14.7992 17.2556 14.4254C16.7381 14.0515 16.3787 13.5732 16.1773 12.9903L13.0023 12.9977L13.0116 16.9977C13.0122 17.281 13.1086 17.5183 13.3007 17.7095C13.4928 17.9007 13.7305 17.996 14.0139 17.9954L16.1889 17.9903C16.3875 17.4065 16.7447 16.9265 17.2605 16.5503C17.7763 16.1742 18.3592 15.9853 19.0092 15.9838C19.8426 15.9819 20.5516 16.2719 21.1363 16.8539C21.7209 17.4359 22.0142 18.1435 22.0162 18.9769ZM20.0162 18.9815C20.0155 18.6981 19.9191 18.4609 19.727 18.2696C19.5349 18.0784 19.2972 17.9831 19.0139 17.9838C18.7305 17.9845 18.4932 18.0808 18.302 18.2729C18.1108 18.4651 18.0155 18.7028 18.0162 18.9861C18.0168 19.2694 18.1132 19.5067 18.3053 19.6979C18.4974 19.8892 18.7352 19.9844 19.0185 19.9838C19.3018 19.9831 19.5391 19.8868 19.7303 19.6946C19.9215 19.5025 20.0168 19.2648 20.0162 18.9815ZM20 11.9815C19.9993 11.6982 19.9029 11.4609 19.7108 11.2697C19.5187 11.0784 19.281 10.9832 18.9977 10.9838C18.7143 10.9845 18.4771 11.0809 18.2858 11.273C18.0946 11.4651 17.9993 11.7028 18 11.9861C18.0006 12.2695 18.097 12.5067 18.2891 12.698C18.4812 12.8892 18.719 12.9845 19.0023 12.9838C19.2856 12.9832 19.5229 12.8868 19.7141 12.6947C19.9054 12.5026 20.0006 12.2648 20 11.9815ZM19.9838 4.98152C19.9831 4.69819 19.8868 4.46091 19.6946 4.26969C19.5025 4.07846 19.2648 3.98318 18.9815 3.98383C18.6981 3.98449 18.4609 4.08087 18.2696 4.27298C18.0784 4.46509 17.9831 4.70281 17.9838 4.98614C17.9845 5.26948 18.0808 5.50675 18.2729 5.69798C18.4651 5.8892 18.7028 5.98448 18.9861 5.98383C19.2694 5.98317 19.5067 5.88679 19.6979 5.69468C19.8892 5.50257 19.9844 5.26485 19.9838 4.98152ZM6.00002 12.0139C5.99936 11.7305 5.90298 11.4933 5.71087 11.302C5.51876 11.1108 5.28104 11.0155 4.99771 11.0162C4.71438 11.0168 4.4771 11.1132 4.28587 11.3053C4.09465 11.4974 3.99937 11.7352 4.00002 12.0185C4.00068 12.3018 4.09706 12.5391 4.28917 12.7303C4.48128 12.9216 4.719 13.0168 5.00233 13.0162C5.28567 13.0155 5.52294 12.9192 5.71417 12.727C5.90539 12.5349 6.00067 12.2972 6.00002 12.0139Z" fill="#428CDC"/>
</svg>
