<svg width="24" height="24" viewBox="0 0 24 24" fill="none" xmlns="http://www.w3.org/2000/svg">
<path d="M16 15L19 12L17.95 10.925L16.75 12.125V9H15.25V12.125L14.05 10.925L13 12L16 15ZM4 20C3.45 20 2.97917 19.8042 2.5875 19.4125C2.19583 19.0208 2 18.55 2 18V6C2 5.45 2.19583 4.97917 2.5875 4.5875C2.97917 4.19583 3.45 4 4 4H20C20.55 4 21.0208 4.19583 21.4125 4.5875C21.8042 4.97917 22 5.45 22 6V18C22 18.55 21.8042 19.0208 21.4125 19.4125C21.0208 19.8042 20.55 20 20 20H4ZM4 18H20V6H4V18ZM5.5 15H7V10.5H8V13.5H9.5V10.5H10.5V15H12V10C12 9.71667 11.9042 9.47917 11.7125 9.2875C11.5208 9.09583 11.2833 9 11 9H6.5C6.21667 9 5.97917 9.09583 5.7875 9.2875C5.59583 9.47917 5.5 9.71667 5.5 10V15Z" fill="#428CDC"/>
</svg>
