<svg width="24" height="24" viewBox="0 0 24 24" fill="none" xmlns="http://www.w3.org/2000/svg">
<path d="M6.7999 21.4L5.8499 20.45L4.7999 21.5C4.48324 21.8167 4.09574 21.9792 3.6374 21.9875C3.17907 21.9958 2.7999 21.8333 2.4999 21.5C2.18324 21.1833 2.0249 20.8 2.0249 20.35C2.0249 19.9 2.18324 19.5167 2.4999 19.2L3.5499 18.15L2.5999 17.15L16.4499 3.3C16.6499 3.1 16.8916 3 17.1749 3C17.4582 3 17.6999 3.1 17.8999 3.3L20.6999 6.1C20.8999 6.3 20.9999 6.54167 20.9999 6.825C20.9999 7.10833 20.8999 7.35 20.6999 7.55L6.7999 21.4ZM11.0999 11.5L5.3999 17.15L6.8499 18.6L12.4999 12.9L11.0999 11.5Z" fill="#428CDC"/>
</svg>
