<svg width="33" height="32" viewBox="0 0 33 32" fill="none" xmlns="http://www.w3.org/2000/svg">
<path d="M8.66663 26.6668C7.55551 26.6668 6.61107 26.2779 5.83329 25.5002C5.05551 24.7224 4.66663 23.7779 4.66663 22.6668C4.66663 21.5557 5.05551 20.6113 5.83329 19.8335C6.61107 19.0557 7.55551 18.6668 8.66663 18.6668C9.77774 18.6668 10.7222 19.0557 11.5 19.8335C12.2777 20.6113 12.6666 21.5557 12.6666 22.6668C12.6666 23.7779 12.2777 24.7224 11.5 25.5002C10.7222 26.2779 9.77774 26.6668 8.66663 26.6668ZM24.6666 26.6668C23.5555 26.6668 22.6111 26.2779 21.8333 25.5002C21.0555 24.7224 20.6666 23.7779 20.6666 22.6668C20.6666 21.5557 21.0555 20.6113 21.8333 19.8335C22.6111 19.0557 23.5555 18.6668 24.6666 18.6668C25.7777 18.6668 26.7222 19.0557 27.5 19.8335C28.2777 20.6113 28.6666 21.5557 28.6666 22.6668C28.6666 23.7779 28.2777 24.7224 27.5 25.5002C26.7222 26.2779 25.7777 26.6668 24.6666 26.6668ZM16.6666 13.3335C15.5555 13.3335 14.6111 12.9446 13.8333 12.1668C13.0555 11.3891 12.6666 10.4446 12.6666 9.3335C12.6666 8.22239 13.0555 7.27794 13.8333 6.50016C14.6111 5.72238 15.5555 5.3335 16.6666 5.3335C17.7777 5.3335 18.7222 5.72238 19.5 6.50016C20.2777 7.27794 20.6666 8.22239 20.6666 9.3335C20.6666 10.4446 20.2777 11.3891 19.5 12.1668C18.7222 12.9446 17.7777 13.3335 16.6666 13.3335Z" fill="#428CDC"/>
</svg>
