<svg viewBox="0 0 24 24" fill="none" xmlns="http://www.w3.org/2000/svg">
  <path d="M4 6.5C4 5.67157 4.67157 5 5.5 5H18.5C19.3284 5 20 5.67157 20 6.5V13.5C20 14.3284 19.3284 15 18.5 15H5.5C4.67157 15 4 14.3284 4 13.5V6.5Z" fill="#428CDC"/>
  <path d="M7 9H17" stroke="white" stroke-width="1.8" stroke-linecap="round"/>
  <path d="M7 11.8H13.5" stroke="white" stroke-width="1.8" stroke-linecap="round"/>
  <path d="M11 15V18" stroke="#428CDC" stroke-width="2" stroke-linecap="round"/>
  <path d="M13 15V18" stroke="#428CDC" stroke-width="2" stroke-linecap="round"/>
  <path d="M9.5 18H14.5C15.3284 18 16 18.6716 16 19.5V20.5C16 21.3284 15.3284 22 14.5 22H9.5C8.67157 22 8 21.3284 8 20.5V19.5C8 18.6716 8.67157 18 9.5 18Z" fill="#428CDC"/>
</svg>
