<svg width="24" height="24" viewBox="0 0 24 24" fill="none" xmlns="http://www.w3.org/2000/svg">
  <path fill-rule="evenodd" clip-rule="evenodd" d="M19.35 10.04C18.67 6.59 15.64 4 12 4 9.11 4 6.6 5.64 5.35 8.04 2.34 8.36 0 10.91 0 14c0 3.31 2.69 6 6 6h13c2.76 0 5-2.24 5-5 0-2.64-2.05-4.78-4.65-4.96ZM11.3 10.6 12.16 13.04 14.6 13.9 12.16 14.76 11.3 17.2 10.44 14.76 8 13.9 10.44 13.04 11.3 10.6ZM16.1 8.5 16.55 9.75 17.8 10.2 16.55 10.65 16.1 11.9 15.65 10.65 14.4 10.2 15.65 9.75 16.1 8.5Z" fill="#428CDC"></path>
</svg>