<svg width="24" height="24" viewBox="0 0 24 24" fill="none" xmlns="http://www.w3.org/2000/svg">
<path d="M16.0969 5.52898C16.0969 5.70738 16.1635 5.87847 16.2822 6.00462C16.4009 6.13077 16.5618 6.20164 16.7297 6.20164C16.8975 6.20164 17.0585 6.13077 17.1771 6.00462C17.2958 5.87847 17.3625 5.70738 17.3625 5.52898C17.3625 5.35058 17.2958 5.17949 17.1771 5.05334C17.0585 4.92719 16.8975 4.85632 16.7297 4.85632C16.5618 4.85632 16.4009 4.92719 16.2822 5.05334C16.1635 5.17949 16.0969 5.35058 16.0969 5.52898Z" fill="#428CDC"/>
<path d="M16.0969 10.8118C16.0969 10.9902 16.1635 11.1613 16.2822 11.2875C16.4009 11.4136 16.5618 11.4845 16.7297 11.4845C16.8975 11.4845 17.0585 11.4136 17.1771 11.2875C17.2958 11.1613 17.3625 10.9902 17.3625 10.8118C17.3625 10.6334 17.2958 10.4623 17.1771 10.3362C17.0585 10.21 16.8975 10.1392 16.7297 10.1392C16.5618 10.1392 16.4009 10.21 16.2822 10.3362C16.1635 10.4623 16.0969 10.6334 16.0969 10.8118Z" fill="#428CDC"/>
<path d="M18.1477 3.28833H4.22345C3.31876 3.28833 2.58282 4.02427 2.58282 4.92896V6.1313C2.58282 7.03599 3.31876 7.77192 4.22345 7.77192H18.1477C19.0524 7.77192 19.7883 7.03599 19.7883 6.1313V4.92896C19.7883 4.02427 19.0524 3.28833 18.1477 3.28833ZM18.8508 6.1313C18.8508 6.51802 18.5344 6.83442 18.1477 6.83442H4.22345C3.83673 6.83442 3.52032 6.51802 3.52032 6.1313V4.92896C3.52032 4.54224 3.83673 4.22583 4.22345 4.22583H18.1477C18.5344 4.22583 18.8508 4.54224 18.8508 4.92896V6.1313Z" fill="#428CDC"/>
<path d="M10.4649 5.29456H4.85394C4.72504 5.29456 4.61957 5.40002 4.61957 5.52893C4.61957 5.65784 4.72504 5.76331 4.85394 5.76331H10.4649C10.5938 5.76331 10.6993 5.65784 10.6993 5.52893C10.6993 5.40002 10.5938 5.29456 10.4649 5.29456Z" fill="#428CDC"/>
<path d="M13.3547 17.8664C13.282 17.7586 13.2164 17.6461 13.1555 17.5313L12.6305 17.5453H12.607C12.457 17.5453 12.307 17.5102 12.1735 17.4399C12.1477 17.4281 12.1242 17.4141 12.1008 17.3977H4.22345C3.83673 17.3977 3.52032 17.0813 3.52032 16.6946V15.4922C3.52032 15.1055 3.83673 14.7891 4.22345 14.7891H11.9461C11.9906 14.7563 12.0399 14.7281 12.0914 14.7047C12.2039 14.6531 12.3258 14.625 12.4524 14.6227L12.9516 14.6086C12.9609 14.5828 12.9703 14.5594 12.9797 14.5336C13.0195 14.4352 13.0617 14.3367 13.111 14.2453C13.1695 14.1305 13.2375 14.0156 13.3125 13.9031L13.2774 13.8492H4.22345C3.31876 13.8492 2.58282 14.5852 2.58282 15.4899V16.6922C2.58282 17.5969 3.31876 18.3328 4.22345 18.3328H13.5914L13.6383 18.2414C13.5352 18.1242 13.4414 17.9977 13.3547 17.8664Z" fill="#428CDC"/>
<path d="M20.543 15.3375C20.5407 15.2906 20.5055 15.2461 20.4586 15.2203C20.4352 15.2086 20.4094 15.2016 20.3836 15.2016L19.7649 15.218L19.3336 15.2297L19.3172 15.1898L19.2282 14.9859C19.1907 14.8969 19.1485 14.8125 19.1016 14.7281C18.9657 14.4844 18.7969 14.2594 18.5977 14.0578L18.4149 13.8727L18.3961 13.8539L18.8672 12.9375C18.8766 12.9211 18.8789 12.9023 18.8766 12.8836C18.8719 12.8414 18.8391 12.7969 18.7922 12.7711L17.761 12.2414C17.7375 12.2297 17.7118 12.2227 17.686 12.2227C17.6391 12.2227 17.5993 12.2437 17.5828 12.2766L17.1844 13.0523L17.1094 13.1953L16.8282 13.1508C16.6664 13.125 16.5024 13.1133 16.3407 13.1133C16.1274 13.1133 15.9118 13.1367 15.7055 13.1813L15.4453 13.2375L15.3211 13.0547L14.8571 12.375C14.8407 12.3516 14.8196 12.3328 14.7961 12.3211C14.7727 12.3094 14.7446 12.3023 14.7188 12.3023C14.693 12.3023 14.6696 12.3094 14.6508 12.3211L13.7016 12.9023C13.6782 12.9164 13.6641 12.9352 13.6594 12.9609C13.6524 12.9914 13.6594 13.0219 13.6805 13.0523L13.6852 13.057L14.2289 13.8539L14.2829 13.9336L14.1024 14.1609C14.0063 14.2828 13.9219 14.4094 13.8493 14.5383C13.8352 14.5617 13.8235 14.5852 13.8118 14.6086C13.7813 14.6672 13.7532 14.7305 13.7274 14.7938C13.6852 14.8945 13.65 14.9977 13.6196 15.1055L13.5422 15.3844L12.4758 15.4125C12.4407 15.4125 12.4102 15.4266 12.3891 15.4477C12.3727 15.4664 12.3657 15.4898 12.3657 15.5156L12.4477 16.6242C12.45 16.6711 12.4852 16.7156 12.5321 16.7414C12.5555 16.7531 12.5813 16.7602 12.6071 16.7602L13.6547 16.732L13.7602 16.9758C13.8235 17.1234 13.9008 17.2641 13.9875 17.4C14.0953 17.5664 14.2196 17.7234 14.3578 17.8688C14.3696 17.8805 14.3813 17.8922 14.3907 17.9039L14.5922 18.1055L14.4727 18.3375L14.1211 19.0242C14.1047 19.057 14.1118 19.0898 14.1188 19.1086C14.1329 19.1437 14.1586 19.1719 14.1961 19.1906L15.2274 19.7203C15.2508 19.732 15.2766 19.7391 15.3024 19.7391C15.3493 19.7391 15.3891 19.718 15.4055 19.6852L15.8766 18.7664L16.1579 18.8109C16.3196 18.8367 16.4836 18.8484 16.6453 18.8484C16.8586 18.8484 17.0743 18.825 17.2805 18.7805L17.5407 18.7242L18.1289 19.5867C18.1453 19.6102 18.1664 19.6289 18.1899 19.6406C18.2133 19.6523 18.2414 19.6594 18.2672 19.6594C18.293 19.6594 18.3164 19.6523 18.3352 19.6406L19.2844 19.0594C19.3078 19.0453 19.3219 19.0266 19.3266 19.0008C19.3336 18.9633 19.3196 18.9305 19.3055 18.9094L18.8157 18.1898L18.7055 18.0258L18.8743 17.8148L18.886 17.8008C19.0008 17.6578 19.0969 17.5078 19.1766 17.3531C19.2305 17.25 19.2774 17.1375 19.3172 17.0227C19.336 16.9687 19.3547 16.9125 19.3688 16.8563L19.4485 16.5773L19.786 16.568L20.5149 16.5492C20.55 16.5492 20.5805 16.5352 20.6016 16.5141C20.618 16.4953 20.625 16.4719 20.625 16.4461L20.543 15.3375ZM15.4993 17.8289C15.2789 17.7164 15.0821 17.5711 14.9133 17.3977C14.8875 17.3719 14.8641 17.3461 14.8383 17.318C14.6438 17.1 14.4985 16.8516 14.4024 16.5797C14.3063 16.3055 14.2688 16.0242 14.2875 15.7406C14.3063 15.4664 14.3789 15.2039 14.5055 14.9602C14.536 14.8992 14.5688 14.843 14.6063 14.7867C14.6649 14.6977 14.7305 14.6109 14.8008 14.5312C14.8664 14.4586 14.9368 14.3906 15.0118 14.3297C15.2297 14.1492 15.4805 14.0156 15.7594 13.9336C15.9118 13.8891 16.0664 13.8609 16.2235 13.8492C16.3266 13.8422 16.4297 13.8422 16.5352 13.8492L16.6125 13.8563C16.8914 13.8867 17.161 13.9664 17.4118 14.0953C17.6344 14.2102 17.8336 14.3555 18.0047 14.5336C18.0282 14.557 18.0493 14.5805 18.0727 14.6063C18.1266 14.6672 18.1758 14.7281 18.2227 14.7938C18.3446 14.9625 18.4407 15.1477 18.5086 15.3445C18.6047 15.6188 18.6422 15.9 18.6235 16.1836C18.6047 16.4578 18.5321 16.7203 18.4055 16.9641C18.3235 17.1234 18.2227 17.2688 18.1032 17.4C18.0399 17.4703 17.9719 17.5336 17.8993 17.5945C17.768 17.7023 17.625 17.7938 17.4727 17.8688C17.3696 17.918 17.2641 17.9602 17.1516 17.993C16.875 18.075 16.5868 18.1008 16.2985 18.0703C16.0477 18.0445 15.8063 17.9766 15.5789 17.8688C15.5532 17.8547 15.5274 17.843 15.4993 17.8289Z" fill="white"/>
<path d="M21.4102 16.3876L21.3281 15.279C21.3164 15.1173 21.2602 14.9602 21.1664 14.8243C21.0774 14.6954 20.9555 14.5899 20.8172 14.5196C20.6836 14.4516 20.5336 14.4141 20.3836 14.4141H20.3602L19.8352 14.4282C19.7016 14.1751 19.5399 13.936 19.3524 13.7157L19.568 13.2962C19.6242 13.186 19.657 13.0665 19.6641 12.9423C19.6711 12.8251 19.6524 12.7079 19.6125 12.5954C19.582 12.511 19.5399 12.4313 19.4883 12.3587C19.6781 12.0915 19.7883 11.7657 19.7883 11.4141V10.2118C19.7883 9.3071 19.0524 8.57117 18.1477 8.57117H4.22345C3.31876 8.57117 2.58282 9.3071 2.58282 10.2118V11.4141C2.58282 12.3188 3.31876 13.0548 4.22345 13.0548H12.8742C12.8766 13.0876 12.8813 13.118 12.8883 13.1509C12.9117 13.2727 12.9609 13.3876 13.0313 13.4907L13.2774 13.8516L13.3125 13.9055C13.2375 14.018 13.1695 14.1305 13.1109 14.2477C13.0641 14.3391 13.0195 14.4376 12.9797 14.536C12.9703 14.5618 12.9609 14.5852 12.9516 14.611L12.4524 14.6251C12.3258 14.6274 12.2039 14.6555 12.0914 14.7071C12.0399 14.7305 11.9906 14.7587 11.9461 14.7915C11.8945 14.829 11.8453 14.8712 11.8031 14.9204C11.6414 15.1009 11.5617 15.3329 11.5805 15.5743L11.6625 16.6829C11.6742 16.8446 11.7305 17.0016 11.8242 17.1376C11.8969 17.243 11.993 17.3321 12.1008 17.4024C12.1242 17.4165 12.1477 17.4305 12.1734 17.4446C12.307 17.5126 12.457 17.5501 12.607 17.5501H12.6305L13.1555 17.536C13.2164 17.6509 13.282 17.7634 13.3547 17.8712C13.4414 18.0024 13.5352 18.1266 13.6383 18.2485L13.5914 18.3399L13.4227 18.668C13.3664 18.7782 13.3336 18.8977 13.3266 19.0219C13.3195 19.1391 13.3383 19.2563 13.3781 19.3688C13.4578 19.5962 13.6219 19.7813 13.8399 19.8938L14.8711 20.4235C15.007 20.4915 15.157 20.529 15.3047 20.529C15.3938 20.529 15.4805 20.5173 15.5649 20.4915C15.6797 20.4587 15.7852 20.4024 15.8766 20.3298C15.9727 20.2524 16.0524 20.1563 16.1086 20.0462L16.3242 19.6266C16.432 19.636 16.5399 19.6407 16.6477 19.6407C16.8281 19.6407 17.0063 19.629 17.1844 19.6032L17.4797 20.0368C17.5688 20.168 17.6906 20.2759 17.8336 20.3485C17.9672 20.4165 18.1195 20.454 18.2695 20.454H18.2859C18.45 20.4516 18.6094 20.4048 18.7477 20.3204L19.6969 19.7391C19.9055 19.6126 20.0461 19.411 20.0977 19.1743C20.1234 19.0571 20.1234 18.9352 20.1 18.8157C20.0766 18.6938 20.0274 18.579 19.957 18.4759L19.6758 18.0634C19.7508 17.9509 19.8188 17.8384 19.8774 17.7212C19.9359 17.6063 19.9899 17.4844 20.0367 17.3579L20.5359 17.3438C20.6625 17.3415 20.7844 17.3134 20.8969 17.2618C21.007 17.2102 21.1055 17.1399 21.1852 17.0509C21.3492 16.8634 21.4289 16.6313 21.4102 16.3876ZM3.52032 11.4141V10.2118C3.52032 9.82507 3.83673 9.50867 4.22345 9.50867H18.1477C18.5344 9.50867 18.8508 9.82507 18.8508 10.2118V11.4141C18.8508 11.5759 18.7969 11.7235 18.7055 11.843L18.1195 11.543C17.9836 11.4751 17.8336 11.4376 17.6859 11.4376C17.5969 11.4376 17.5102 11.4493 17.4258 11.4751C17.3109 11.5079 17.2055 11.5641 17.1141 11.6368C17.018 11.7141 16.9383 11.8102 16.882 11.9204L16.7813 12.1173H15.6375L15.5109 11.9321C15.4219 11.8009 15.3 11.693 15.157 11.6204C15.0211 11.5524 14.8711 11.5149 14.7211 11.5149H14.7047C14.5406 11.5173 14.3813 11.5641 14.243 11.6485L13.4766 12.1173H4.22345C3.83673 12.1173 3.52032 11.8009 3.52032 11.4141ZM20.6039 16.5165C20.5828 16.5399 20.5547 16.5516 20.5172 16.5516L19.7883 16.5704L19.4508 16.5798L19.3711 16.8587C19.3547 16.9149 19.3383 16.9712 19.3195 17.0251C19.2797 17.1399 19.2328 17.2524 19.1789 17.3555C19.1016 17.5079 19.0031 17.6579 18.8883 17.8032L18.8766 17.8173L18.7078 18.0282L18.818 18.1923L19.3078 18.9118C19.3219 18.9329 19.3359 18.9657 19.3289 19.0032C19.3242 19.0266 19.3078 19.0477 19.2867 19.0618L18.3375 19.6407C18.3188 19.6524 18.2953 19.6594 18.2695 19.6594C18.2438 19.6594 18.218 19.6524 18.1922 19.6407C18.1664 19.629 18.1453 19.6102 18.1313 19.5868L17.543 18.7243L17.2828 18.7805C17.0742 18.8251 16.8609 18.8485 16.6477 18.8485C16.4859 18.8485 16.3219 18.8344 16.1602 18.811L15.8789 18.7665L15.4078 19.6852C15.3914 19.718 15.3516 19.7391 15.3047 19.7391C15.2789 19.7391 15.2531 19.7321 15.2297 19.7204L14.1984 19.1907C14.1609 19.1719 14.1352 19.1415 14.1211 19.1087C14.1141 19.0923 14.107 19.0571 14.1234 19.0243L14.475 18.3376L14.5945 18.1055L14.393 17.904C14.3813 17.8923 14.3695 17.8805 14.3602 17.8688C14.2195 17.7235 14.0953 17.5665 13.9899 17.4001C13.9031 17.2641 13.8258 17.1235 13.7625 16.9759L13.657 16.7321L12.6094 16.7602C12.5836 16.7602 12.5578 16.7532 12.5344 16.7415C12.4852 16.7157 12.4524 16.6712 12.45 16.6243L12.368 15.5157C12.3656 15.4899 12.3727 15.4665 12.3914 15.4477C12.4125 15.4243 12.4406 15.4126 12.4781 15.4126L13.5445 15.3844L13.6219 15.1055C13.6524 14.9977 13.6875 14.8923 13.7297 14.7938C13.7555 14.7305 13.7836 14.6696 13.8141 14.6087C13.8258 14.5852 13.8399 14.5618 13.8516 14.5384C13.9219 14.4094 14.0086 14.2829 14.1047 14.161L14.2852 13.9337L14.2313 13.854L13.6875 13.0571L13.6828 13.0524C13.6617 13.0219 13.6547 12.9915 13.6617 12.961C13.6664 12.9376 13.6828 12.9165 13.7039 12.9024L14.6531 12.3212C14.6719 12.3094 14.6953 12.3024 14.7211 12.3024C14.7469 12.3024 14.7727 12.3094 14.7984 12.3212C14.8242 12.3329 14.8453 12.3516 14.8594 12.3751L15.3234 13.0548L15.4477 13.2376L15.7078 13.1813C15.9164 13.1368 16.1297 13.1134 16.343 13.1134C16.5047 13.1134 16.6688 13.1274 16.8305 13.1509L17.1117 13.1954L17.1844 13.0524L17.5828 12.2766C17.5992 12.2438 17.6391 12.2227 17.6859 12.2227C17.7117 12.2227 17.7375 12.2298 17.7609 12.2415L18.7922 12.7712C18.8391 12.7946 18.8719 12.8391 18.8766 12.8837C18.8789 12.9024 18.8766 12.9212 18.8672 12.9376L18.3961 13.8563L18.4149 13.8751L18.5977 14.0602C18.7992 14.2641 18.968 14.4868 19.1016 14.7305C19.1484 14.8149 19.1906 14.8993 19.2281 14.9884L19.3172 15.1923L19.3336 15.2321L19.7649 15.2204L20.3836 15.204C20.4094 15.204 20.4352 15.211 20.4586 15.2227C20.5078 15.2485 20.5406 15.293 20.543 15.3399L20.625 16.4485C20.6274 16.4743 20.6203 16.4977 20.6039 16.5165Z" fill="#428CDC"/>
<path d="M16.2234 13.8516H16.5352C16.4297 13.8446 16.3266 13.8446 16.2234 13.8516Z" fill="#428CDC"/>
<path d="M18.5086 15.3446C18.4406 15.1477 18.3422 14.9625 18.2226 14.7938C18.1758 14.7281 18.1265 14.6672 18.0726 14.6063C18.0515 14.5828 18.0281 14.5571 18.0047 14.5336C17.8336 14.3578 17.6344 14.2102 17.4117 14.0953C17.1609 13.9664 16.8914 13.8867 16.6125 13.8563L16.5351 13.8492H16.2234C16.0664 13.861 15.9117 13.8867 15.7594 13.9336C15.4805 14.0156 15.2297 14.1492 15.0117 14.3297C14.9367 14.393 14.8664 14.461 14.8008 14.5313C14.7281 14.611 14.6648 14.6953 14.6062 14.7867C14.5711 14.843 14.5359 14.9016 14.5055 14.9602C14.3812 15.2039 14.3086 15.4664 14.2875 15.7406C14.2664 16.0242 14.3062 16.3055 14.4023 16.5797C14.4984 16.8516 14.6437 17.1 14.8383 17.318C14.8617 17.3461 14.8875 17.3719 14.9133 17.3977C15.0844 17.5711 15.2812 17.7164 15.4992 17.8289C15.525 17.843 15.5508 17.8547 15.5789 17.8664C15.8086 17.9719 16.05 18.0399 16.2984 18.068C16.5867 18.0985 16.875 18.0727 17.1515 17.9906C17.264 17.9578 17.3695 17.9156 17.4726 17.8664C17.625 17.7938 17.768 17.7024 17.8992 17.5922C17.9719 17.5313 18.0398 17.4656 18.1031 17.3977C18.2226 17.2664 18.3234 17.1211 18.4055 16.9617C18.5297 16.718 18.6023 16.4555 18.6234 16.1813C18.6445 15.9 18.6047 15.6188 18.5086 15.3446ZM18.1336 16.1485C18.1195 16.3547 18.0633 16.5539 17.9695 16.7391C17.8758 16.9242 17.7469 17.0836 17.5875 17.2172C17.5031 17.2875 17.4117 17.3485 17.3133 17.4C17.2195 17.4492 17.1211 17.4891 17.0156 17.5196C16.8 17.5828 16.5773 17.6039 16.3523 17.5781C16.139 17.5547 15.9351 17.4938 15.7406 17.3977C15.7359 17.3953 15.7312 17.393 15.7242 17.3906C15.5273 17.2899 15.3515 17.1539 15.2062 16.9922C15.0562 16.8235 14.9414 16.6313 14.8687 16.4203C14.7961 16.2094 14.7656 15.9938 14.782 15.7781C14.7961 15.5719 14.8523 15.3727 14.9461 15.1875C15.0234 15.0375 15.1219 14.9039 15.2414 14.7891C15.2695 14.761 15.2976 14.7352 15.3281 14.7094C15.4078 14.6414 15.4969 14.5828 15.5883 14.5336C15.6867 14.4821 15.7898 14.4375 15.9 14.4047C16.1156 14.3414 16.3383 14.3203 16.5633 14.3461C16.7812 14.3696 16.9922 14.4328 17.189 14.5336C17.325 14.6039 17.4492 14.6883 17.5617 14.7891C17.6133 14.8336 17.6625 14.8828 17.707 14.9344C17.857 15.1031 17.9719 15.2953 18.0445 15.5063C18.1195 15.7172 18.1476 15.9328 18.1336 16.1485Z" fill="#428CDC"/>
</svg>
