<svg width="22" height="20" viewBox="0 0 22 20" fill="none" xmlns="http://www.w3.org/2000/svg">
<path d="M13 16V14H16.5C17.077 14 17.6451 13.8572 18.1536 13.5845C18.6622 13.3118 19.0954 12.9176 19.4147 12.4369C19.734 11.9563 19.9296 11.4042 19.9839 10.8297C20.0383 10.2552 19.9498 9.67624 19.7262 9.14426C19.5027 8.61227 19.1511 8.1438 18.7028 7.78055C18.2544 7.4173 17.7232 7.17054 17.1564 7.06224C16.5896 6.95393 16.0049 6.98744 15.4542 7.15978C14.9035 7.33212 14.4039 7.63795 14 8.05003V8.00003C14 6.40873 13.3679 4.88261 12.2426 3.75739C11.1174 2.63217 9.5913 2.00003 8 2.00003C6.4087 2.00003 4.88258 2.63217 3.75736 3.75739C2.63214 4.88261 2 6.40873 2 8.00003V8.00703H2.63361e-06V8.00003C-0.0015115 6.13319 0.649903 4.3246 1.84144 2.88746C3.03297 1.45032 4.68959 0.475148 6.5244 0.130809C8.35922 -0.21353 10.2567 0.0946521 11.8882 1.00199C13.5197 1.90932 14.7826 3.35867 15.458 5.09903C16.2103 4.95433 16.9846 4.9684 17.7312 5.14034C18.4778 5.31228 19.1802 5.63831 19.7935 6.09752C20.4067 6.55673 20.9173 7.139 21.2924 7.80701C21.6676 8.47502 21.899 9.21403 21.9719 9.97669C22.0448 10.7393 21.9575 11.5088 21.7158 12.2358C21.474 12.9628 21.083 13.6312 20.5678 14.1983C20.0527 14.7654 19.4247 15.2186 18.7242 15.5288C18.0237 15.8391 17.2661 15.9996 16.5 16H13ZM5 18H15V20H5V18ZM5 10H13V12H5V10ZM1 14H11V16H1V14Z" fill="#428CDC"/>
<defs>
<linearGradient id="paint0_linear_3708_5666" x1="22" y1="-0.000122917" x2="-0.000153363" y2="19.9999" gradientUnits="userSpaceOnUse">
<stop stop-color="#6F28FF"/>
<stop offset="1" stop-color="#FF3C99"/>
</linearGradient>
</defs>
</svg>
