<svg data-v-55492127="" fill="none" height="64" viewBox="0 0 64 64" width="64" xmlns="http://www.w3.org/2000/svg" decorative=""><g filter="url(#filter0_d_2600_6369)"><path d="M53.3334 32.2317V33.1409C41.9009 33.1409 38.8262 43.0811 38.8262 51.191H37.9278C37.9278 43.0811 34.3285 33.1409 23.4206 33.1409V32.2317C35.992 32.2317 37.9278 22.2915 37.9278 14.1816H38.8262C38.8262 22.2915 40.7939 32.2317 53.3334 32.2317ZM19.4301 29.4746C19.4301 24.8609 21.1805 19.2059 27.6835 19.2059V18.6897C20.5487 18.6897 19.4301 13.0347 19.4301 8.42102H18.9201C18.9201 13.0347 17.8189 18.6897 10.6667 18.6897V19.2059C16.8741 19.2059 18.9201 24.8609 18.9201 29.4746H19.4301ZM24.5624 37.6403H24.1277C24.1277 41.5706 23.1888 46.3896 17.0944 46.3896V46.8296C22.3831 46.8296 24.1277 51.6486 24.1277 55.5789H24.5624C24.5624 51.6486 26.052 46.8296 31.5958 46.8296V46.3896C25.5158 46.3896 24.5624 41.5706 24.5624 37.6403Z" fill="url(#paint0_linear_2600_6369)"></path></g><defs><filter id="filter0_d_2600_6369" color-interpolation-filters="sRGB" filterUnits="userSpaceOnUse" height="55.1578" width="50.6667" x="6.66669" y="6.42102"><feFlood flood-opacity="0" result="BackgroundImageFix"></feFlood><feColorMatrix in="SourceAlpha" result="hardAlpha" type="matrix" values="0 0 0 0 0 0 0 0 0 0 0 0 0 0 0 0 0 0 127 0"></feColorMatrix><feOffset dy="2"></feOffset><feGaussianBlur stdDeviation="2"></feGaussianBlur><feComposite in2="hardAlpha" operator="out"></feComposite><feColorMatrix type="matrix" values="0 0 0 0 0 0 0 0 0 0 0 0 0 0 0 0 0 0 0.25 0"></feColorMatrix><feBlend in2="BackgroundImageFix" mode="normal" result="effect1_dropShadow_2600_6369"></feBlend><feBlend in="SourceGraphic" in2="effect1_dropShadow_2600_6369" mode="normal" result="shape"></feBlend></filter><linearGradient id="paint0_linear_2600_6369" gradientUnits="userSpaceOnUse" x1="10.6667" x2="48.717" y1="55.5789" y2="19.8208"><stop stop-color="#808080"></stop><stop offset="1" stop-color="#808080"></stop></linearGradient></defs></svg>