<?xml version="1.0" encoding="utf-8"?>

<!DOCTYPE svg PUBLIC "-//W3C//DTD SVG 1.1//EN" "http://www.w3.org/Graphics/SVG/1.1/DTD/svg11.dtd">
<svg version="1.1" id="VAULT" xmlns="http://www.w3.org/2000/svg" xmlns:xlink="http://www.w3.org/1999/xlink" 
     width="800px" height="800px" viewBox="0 0 1800 1800" enable-background="new 0 0 1800 1800" xml:space="preserve">
<g>
    <path fill="#428CDC" d="M1762.581,1.514H37.419c-17.352,0-31.407,14.06-31.407,31.407v1557.842
        c0,17.342,14.056,31.406,31.407,31.406h217.792v144.909c0,17.342,14.065,31.407,31.407,31.407h245.651
        c17.352,0,31.407-14.065,31.407-31.407v-144.909h672.647v144.909c0,17.342,14.057,31.407,31.408,31.407h245.649
        c17.343,0,31.408-14.065,31.408-31.407v-144.909h217.792c17.342,0,31.407-14.064,31.407-31.406V32.92
        C1793.988,15.574,1779.923,1.514,1762.581,1.514z M500.862,1735.671H318.026v-109.927h182.835V1735.671z M1481.974,1735.671
        h-182.835v-109.927h182.835V1735.671z M215.154,199.597h1369.691v1230.754H215.154V199.597z M152.339,1027.651H68.826V596.919
        h83.513V1027.651z M1731.173,1559.354H68.826v-468.894h83.513v371.298c0,17.342,14.057,31.408,31.408,31.408h1432.506
        c17.343,0,31.406-14.066,31.406-31.408V168.19c0-17.347-14.063-31.407-31.406-31.407H183.747c-17.351,0-31.408,14.06-31.408,31.407
        v365.915H68.826V64.328h1662.347V1559.354z"/>
    <path fill="#428CDC" d="M1202.266,514.826c-0.763-0.964-1.569-1.906-2.458-2.796c-0.89-0.89-1.832-1.696-2.796-2.456
        C1120.456,434.335,1015.561,387.842,900,387.842c-115.556,0-220.443,46.484-296.999,121.712c-0.973,0.767-1.924,1.578-2.818,2.473
        c-0.898,0.898-1.708,1.847-2.475,2.82C522.48,591.403,476,696.286,476,811.839c0,115.539,46.471,220.417,121.686,296.968
        c0.771,0.982,1.586,1.941,2.493,2.845c0.907,0.902,1.862,1.718,2.844,2.488c76.551,75.219,181.429,121.695,296.977,121.695
        c115.557,0,220.447-46.489,297.003-121.721c0.964-0.763,1.911-1.57,2.805-2.463c0.893-0.896,1.704-1.841,2.467-2.81
        C1277.511,1032.287,1324,927.396,1324,811.839C1324,696.274,1277.502,591.381,1202.266,514.826z M1196.258,843.247h63.473
        c-6.582,76.025-36.775,145.377-83.251,200.659l-44.789-44.788c-12.265-12.265-32.152-12.265-44.416,0
        c-12.265,12.265-12.265,32.152,0,44.415l44.784,44.79c-55.278,46.471-124.63,76.66-200.651,83.251v-63.481
        c0-17.342-14.065-31.402-31.407-31.402c-17.352,0-31.408,14.061-31.408,31.402v63.481c-76.029-6.591-145.381-36.78-200.66-83.256
        l44.784-44.785c12.264-12.263,12.264-32.146,0-44.415c-12.26-12.256-32.148-12.265-44.417,0l-44.784,44.784
        c-46.476-55.278-76.666-124.63-83.255-200.655h63.48c17.342,0,31.408-14.062,31.408-31.408s-14.065-31.407-31.408-31.407h-63.48
        c6.589-76.025,36.779-145.375,83.255-200.655l44.784,44.789c6.134,6.132,14.17,9.199,22.206,9.199
        c8.036,0,16.081-3.067,22.21-9.199c12.264-12.264,12.264-32.15,0-44.417l-44.784-44.789c55.278-46.476,124.63-76.667,200.66-83.253
        v63.476c0,17.347,14.056,31.408,31.408,31.408c17.342,0,31.407-14.061,31.407-31.408v-63.476
        c76.025,6.585,145.373,36.777,200.656,83.253l-44.789,44.789c-12.265,12.266-12.265,32.152,0,44.417
        c6.129,6.132,14.17,9.199,22.211,9.199c8.035,0,16.071-3.067,22.205-9.199l44.789-44.789
        c46.476,55.28,76.669,124.628,83.251,200.655h-63.473c-17.351,0-31.407,14.061-31.407,31.407S1178.907,843.247,1196.258,843.247z"/>
    <path fill="#428CDC" d="M900,654.805c-86.589,0-157.037,70.445-157.037,157.034c0,86.59,70.448,157.037,157.037,157.037
        c86.59,0,157.036-70.447,157.036-157.037C1057.036,725.25,986.59,654.805,900,654.805z M900,906.062
        c-51.958,0-94.222-42.267-94.222-94.223c0-51.953,42.265-94.22,94.222-94.22c51.952,0,94.223,42.267,94.223,94.22
        C994.223,863.795,951.952,906.062,900,906.062z"/>
</g>
</svg>
