<svg viewBox="0 0 24 24" fill="currentColor" xmlns="http://www.w3.org/2000/svg">
<path d="M12.025 22.05C11.7583 22.05 11.5042 22 11.2625 21.9C11.0208 21.8 10.8 21.6583 10.6 21.475L2.575 13.45C2.39167 13.25 2.25 13.0292 2.15 12.7875C2.05 12.5458 2 12.2917 2 12.025C2 11.7583 2.05 11.5 2.15 11.25C2.25 11 2.39167 10.7833 2.575 10.6L10.6 2.575C10.8 2.375 11.0208 2.22917 11.2625 2.1375C11.5042 2.04583 11.7583 2 12.025 2C12.2917 2 12.55 2.04583 12.8 2.1375C13.05 2.22917 13.2667 2.375 13.45 2.575L21.475 10.6C21.675 10.7833 21.8208 11 21.9125 11.25C22.0042 11.5 22.05 11.7583 22.05 12.025C22.05 12.2917 22.0042 12.5458 21.9125 12.7875C21.8208 13.0292 21.675 13.25 21.475 13.45L13.45 21.475C13.2667 21.6583 13.05 21.8 12.8 21.9C12.55 22 12.2917 22.05 12.025 22.05ZM11.025 13.025H13.025V7.025H11.025V13.025ZM12.025 16.025C12.3083 16.025 12.5458 15.9292 12.7375 15.7375C12.9292 15.5458 13.025 15.3083 13.025 15.025C13.025 14.7417 12.9292 14.5042 12.7375 14.3125C12.5458 14.1208 12.3083 14.025 12.025 14.025C11.7417 14.025 11.5042 14.1208 11.3125 14.3125C11.1208 14.5042 11.025 14.7417 11.025 15.025C11.025 15.3083 11.1208 15.5458 11.3125 15.7375C11.5042 15.9292 11.7417 16.025 12.025 16.025Z" fill="currentColor"/>
</svg>