<svg width="24" height="24" viewBox="0 0 24 24" fill="none" xmlns="http://www.w3.org/2000/svg">
<path fill-rule="evenodd" clip-rule="evenodd" d="M9.65423 14.7246L16.3026 9.81042C16.6284 9.56875 17.0942 9.66292 17.2501 10.0371C18.0667 12.0112 17.7017 14.3829 16.0751 16.0112C14.4492 17.6396 12.1859 17.9962 10.1176 17.1829L7.8584 18.2304C11.0992 20.4479 15.0342 19.8996 17.4934 17.4362C19.4442 15.4829 20.0484 12.8204 19.4834 10.4196L19.4884 10.4254C18.6692 6.89875 19.6901 5.48875 21.7801 2.60625C21.8301 2.53792 21.8801 2.46958 21.9292 2.39958L19.1784 5.15375V5.14542L9.65173 14.7262M8.28173 15.9187C5.95506 13.6937 6.35673 10.2512 8.3409 8.26542C9.8084 6.79625 12.2134 6.19625 14.3126 7.07792L16.5667 6.03625C16.0982 5.6916 15.5856 5.41132 15.0426 5.20292C13.6774 4.64416 12.1775 4.50158 10.7315 4.79309C9.28546 5.0846 7.95795 5.7972 6.9159 6.84125C4.80506 8.95458 4.1409 12.2046 5.2809 14.9779C6.13256 17.0504 4.73673 18.5162 3.3309 19.9962C2.83173 20.5212 2.33173 21.0454 1.92923 21.6004L8.27923 15.9212" fill="black"/>
</svg>
