<svg viewBox="0 0 403 148" width="403" fill="none" xmlns="http://www.w3.org/2000/svg">
    <mask id="path-1-inside-1_9888_41727" fill="white">
        <path d="M200.567 0C213.479 7.34686e-06 224.633 2.86982 234.027 8.6084C243.422 14.3007 250.664 22.6076 255.755 33.5293C260.846 44.4511 263.368 57.7098 263.321 73.3057C263.321 88.9941 260.776 102.415 255.686 113.568C250.595 124.721 243.352 133.26 233.958 139.184C224.61 145.061 213.479 148 200.567 148C187.656 147.954 176.502 144.969 167.107 139.045C157.713 133.121 150.471 124.583 145.38 113.43C140.289 102.276 137.767 88.9017 137.813 73.3057C137.86 57.6636 140.405 44.3817 145.449 33.46C150.54 22.5383 157.759 14.2314 167.107 8.53906C176.502 2.84675 187.656 0 200.567 0ZM106.071 1.94434V91.9102H122.454V121.898H106.071V144.112H69.1406V121.898H0V91.9102L57.2002 1.94434H106.071ZM386.122 91.9102H402.505V121.898H386.122V144.112H349.191V121.898H280.051V91.9102L337.251 1.94434H386.122V91.9102ZM200.567 31.0996C193.903 31.0996 188.465 34.4777 184.254 41.2344C180.043 47.9911 177.89 58.6817 177.798 73.3057C177.752 83.2556 178.701 91.4471 180.645 97.8799C182.588 104.266 185.273 108.987 188.697 112.041C192.168 115.095 196.125 116.623 200.567 116.623C207.232 116.623 212.693 113.152 216.95 106.21C221.254 99.2218 223.383 88.2536 223.337 73.3057C223.337 63.5409 222.365 55.5578 220.421 49.3564C218.477 43.1551 215.793 38.5731 212.368 35.6113C208.944 32.6034 205.01 31.0996 200.567 31.0996ZM68.8633 41.9287L38.041 90.7998V91.9102H69.9736V41.9287H68.8633ZM318.092 90.7998V91.9102H350.024V41.9287H348.914L318.092 90.7998Z"/>
    </mask>
    <path d="M200.567 0C213.479 7.34686e-06 224.633 2.86982 234.027 8.6084C243.422 14.3007 250.664 22.6076 255.755 33.5293C260.846 44.4511 263.368 57.7098 263.321 73.3057C263.321 88.9941 260.776 102.415 255.686 113.568C250.595 124.721 243.352 133.26 233.958 139.184C224.61 145.061 213.479 148 200.567 148C187.656 147.954 176.502 144.969 167.107 139.045C157.713 133.121 150.471 124.583 145.38 113.43C140.289 102.276 137.767 88.9017 137.813 73.3057C137.86 57.6636 140.405 44.3817 145.449 33.46C150.54 22.5383 157.759 14.2314 167.107 8.53906C176.502 2.84675 187.656 0 200.567 0ZM106.071 1.94434V91.9102H122.454V121.898H106.071V144.112H69.1406V121.898H0V91.9102L57.2002 1.94434H106.071ZM386.122 91.9102H402.505V121.898H386.122V144.112H349.191V121.898H280.051V91.9102L337.251 1.94434H386.122V91.9102ZM200.567 31.0996C193.903 31.0996 188.465 34.4777 184.254 41.2344C180.043 47.9911 177.89 58.6817 177.798 73.3057C177.752 83.2556 178.701 91.4471 180.645 97.8799C182.588 104.266 185.273 108.987 188.697 112.041C192.168 115.095 196.125 116.623 200.567 116.623C207.232 116.623 212.693 113.152 216.95 106.21C221.254 99.2218 223.383 88.2536 223.337 73.3057C223.337 63.5409 222.365 55.5578 220.421 49.3564C218.477 43.1551 215.793 38.5731 212.368 35.6113C208.944 32.6034 205.01 31.0996 200.567 31.0996ZM68.8633 41.9287L38.041 90.7998V91.9102H69.9736V41.9287H68.8633ZM318.092 90.7998V91.9102H350.024V41.9287H348.914L318.092 90.7998Z" fill="url(#paint0_linear_9888_41727)"/>
    <path d="M200.567 0V-0.839161V-0.839161V0ZM234.027 8.6084L233.59 9.32453L233.592 9.32609L234.027 8.6084ZM255.755 33.5293L256.515 33.1748V33.1748L255.755 33.5293ZM263.321 73.3057L262.482 73.3032V73.3057H263.321ZM255.686 113.568L256.449 113.917V113.917L255.686 113.568ZM233.958 139.184L234.405 139.894L234.406 139.893L233.958 139.184ZM200.567 148L200.564 148.839H200.567V148ZM167.107 139.045L166.66 139.755V139.755L167.107 139.045ZM145.38 113.43L144.616 113.778V113.778L145.38 113.43ZM137.813 73.3057L138.653 73.3082V73.3082L137.813 73.3057ZM145.449 33.46L144.689 33.1054L144.687 33.1081L145.449 33.46ZM167.107 8.53906L166.673 7.82136L166.671 7.82232L167.107 8.53906ZM106.071 1.94434H106.91V1.10518H106.071V1.94434ZM106.071 91.9102H105.232V92.7493H106.071V91.9102ZM122.454 91.9102H123.293V91.071H122.454V91.9102ZM122.454 121.898V122.738H123.293V121.898H122.454ZM106.071 121.898V121.059H105.232V121.898H106.071ZM106.071 144.112V144.951H106.91V144.112H106.071ZM69.1406 144.112H68.3015V144.951H69.1406V144.112ZM69.1406 121.898H69.9798V121.059H69.1406V121.898ZM0 121.898H-0.839161V122.738H0V121.898ZM0 91.9102L-0.708149 91.4599L-0.839161 91.666V91.9102H0ZM57.2002 1.94434V1.10518H56.7393L56.492 1.4941L57.2002 1.94434ZM386.122 91.9102H385.283V92.7493H386.122V91.9102ZM402.505 91.9102H403.344V91.071H402.505V91.9102ZM402.505 121.898V122.738H403.344V121.898H402.505ZM386.122 121.898V121.059H385.283V121.898H386.122ZM386.122 144.112V144.951H386.961V144.112H386.122ZM349.191 144.112H348.352V144.951H349.191V144.112ZM349.191 121.898H350.031V121.059H349.191V121.898ZM280.051 121.898H279.212V122.738H280.051V121.898ZM280.051 91.9102L279.343 91.4599L279.212 91.666V91.9102H280.051ZM337.251 1.94434V1.10518H336.79L336.543 1.4941L337.251 1.94434ZM386.122 1.94434H386.961V1.10518H386.122V1.94434ZM200.567 31.0996V30.2604V30.2604V31.0996ZM184.254 41.2344L183.542 40.7905V40.7905L184.254 41.2344ZM177.798 73.3057L176.959 73.3004L176.959 73.3018L177.798 73.3057ZM180.645 97.8799L179.841 98.1226L179.842 98.1242L180.645 97.8799ZM188.697 112.041L188.139 112.667L188.143 112.671L188.697 112.041ZM200.567 116.623V117.462V117.462V116.623ZM216.95 106.21L216.236 105.77L216.235 105.771L216.95 106.21ZM223.337 73.3057H222.498L222.498 73.3083L223.337 73.3057ZM220.421 49.3564L221.222 49.1055V49.1055L220.421 49.3564ZM212.368 35.6113L211.814 36.2418L211.819 36.246L212.368 35.6113ZM68.8633 41.9287V41.0896H68.4004L68.1535 41.4811L68.8633 41.9287ZM38.041 90.7998L37.3312 90.3521L37.2019 90.5573V90.7998H38.041ZM38.041 91.9102H37.2019V92.7493H38.041V91.9102ZM69.9736 91.9102V92.7493H70.8128V91.9102H69.9736ZM69.9736 41.9287H70.8128V41.0896H69.9736V41.9287ZM318.092 90.7998L317.382 90.3521L317.253 90.5573V90.7998H318.092ZM318.092 91.9102H317.253V92.7493H318.092V91.9102ZM350.024 91.9102V92.7493H350.864V91.9102H350.024ZM350.024 41.9287H350.864V41.0896H350.024V41.9287ZM348.914 41.9287V41.0896H348.451L348.204 41.4811L348.914 41.9287ZM200.567 0V0.839161C213.352 0.839168 224.348 3.67941 233.59 9.32453L234.027 8.6084L234.465 7.89227C224.917 2.06022 213.607 -0.839153 200.567 -0.839161V0ZM234.027 8.6084L233.592 9.32609C242.831 14.9239 249.967 23.0976 254.994 33.8838L255.755 33.5293L256.515 33.1748C251.362 22.1177 244.012 13.6774 234.462 7.89071L234.027 8.6084ZM255.755 33.5293L254.994 33.8838C260.02 44.666 262.528 57.7957 262.482 73.3032L263.321 73.3057L264.16 73.3082C264.207 57.6239 261.671 44.2362 256.515 33.1748L255.755 33.5293ZM263.321 73.3057H262.482C262.482 88.9063 259.951 102.202 254.922 113.22L255.686 113.568L256.449 113.917C261.601 102.628 264.16 89.0819 264.16 73.3057H263.321ZM255.686 113.568L254.922 113.22C249.892 124.24 242.752 132.646 233.51 138.474L233.958 139.184L234.406 139.893C243.952 133.874 251.298 125.202 256.449 113.917L255.686 113.568ZM233.958 139.184L233.511 138.473C224.318 144.253 213.348 147.161 200.567 147.161V148V148.839C213.61 148.839 224.901 145.869 234.405 139.894L233.958 139.184ZM200.567 148L200.57 147.161C187.79 147.115 176.796 144.162 167.555 138.335L167.107 139.045L166.66 139.755C176.208 145.775 187.521 148.792 200.564 148.839L200.567 148ZM167.107 139.045L167.555 138.335C158.313 132.507 151.173 124.102 146.143 113.081L145.38 113.43L144.616 113.778C149.768 125.064 157.113 133.735 166.66 139.755L167.107 139.045ZM145.38 113.43L146.143 113.081C141.115 102.064 138.607 88.8149 138.653 73.3082L137.813 73.3057L136.974 73.3032C136.928 88.9884 139.464 102.489 144.616 113.778L145.38 113.43ZM137.813 73.3057L138.653 73.3082C138.699 57.752 141.23 44.5963 146.211 33.8118L145.449 33.46L144.687 33.1081C139.58 44.1671 137.021 57.5752 136.974 73.3032L137.813 73.3057ZM145.449 33.46L146.21 33.8145C151.238 23.0271 158.351 14.8534 167.544 9.2558L167.107 8.53906L166.671 7.82232C157.167 13.6094 149.842 22.0495 144.689 33.1054L145.449 33.46ZM167.107 8.53906L167.542 9.25676C176.784 3.6569 187.782 0.839161 200.567 0.839161V0V-0.839161C187.529 -0.839161 176.22 2.0366 166.673 7.82137L167.107 8.53906ZM106.071 1.94434H105.232V91.9102H106.071H106.91V1.94434H106.071ZM106.071 91.9102V92.7493H122.454V91.9102V91.071H106.071V91.9102ZM122.454 91.9102H121.615V121.898H122.454H123.293V91.9102H122.454ZM122.454 121.898V121.059H106.071V121.898V122.738H122.454V121.898ZM106.071 121.898H105.232V144.112H106.071H106.91V121.898H106.071ZM106.071 144.112V143.273H69.1406V144.112V144.951H106.071V144.112ZM69.1406 144.112H69.9798V121.898H69.1406H68.3015V144.112H69.1406ZM69.1406 121.898V121.059H0V121.898V122.738H69.1406V121.898ZM0 121.898H0.839161V91.9102H0H-0.839161V121.898H0ZM0 91.9102L0.708149 92.3604L57.9083 2.39458L57.2002 1.94434L56.492 1.4941L-0.708149 91.4599L0 91.9102ZM57.2002 1.94434V2.7835H106.071V1.94434V1.10518H57.2002V1.94434ZM386.122 91.9102V92.7493H402.505V91.9102V91.071H386.122V91.9102ZM402.505 91.9102H401.666V121.898H402.505H403.344V91.9102H402.505ZM402.505 121.898V121.059H386.122V121.898V122.738H402.505V121.898ZM386.122 121.898H385.283V144.112H386.122H386.961V121.898H386.122ZM386.122 144.112V143.273H349.191V144.112V144.951H386.122V144.112ZM349.191 144.112H350.031V121.898H349.191H348.352V144.112H349.191ZM349.191 121.898V121.059H280.051V121.898V122.738H349.191V121.898ZM280.051 121.898H280.89V91.9102H280.051H279.212V121.898H280.051ZM280.051 91.9102L280.759 92.3604L337.959 2.39458L337.251 1.94434L336.543 1.4941L279.343 91.4599L280.051 91.9102ZM337.251 1.94434V2.7835H386.122V1.94434V1.10518H337.251V1.94434ZM386.122 1.94434H385.283V91.9102H386.122H386.961V1.94434H386.122ZM200.567 31.0996V30.2604C193.553 30.2604 187.872 33.8438 183.542 40.7905L184.254 41.2344L184.966 41.6783C189.059 35.1117 194.253 31.9388 200.567 31.9388V31.0996ZM184.254 41.2344L183.542 40.7905C179.205 47.7487 177.052 58.6321 176.959 73.3004L177.798 73.3057L178.637 73.311C178.729 58.7312 180.88 48.2334 184.966 41.6783L184.254 41.2344ZM177.798 73.3057L176.959 73.3018C176.912 83.2992 177.865 91.5815 179.841 98.1226L180.645 97.8799L181.448 97.6372C179.537 91.3128 178.591 83.212 178.637 73.3096L177.798 73.3057ZM180.645 97.8799L179.842 98.1242C181.811 104.595 184.558 109.474 188.139 112.667L188.697 112.041L189.256 111.415C185.987 108.499 183.365 103.938 181.447 97.6356L180.645 97.8799ZM188.697 112.041L188.143 112.671C191.76 115.854 195.912 117.462 200.567 117.462V116.623V115.784C196.338 115.784 192.576 114.337 189.252 111.411L188.697 112.041ZM200.567 116.623V117.462C207.591 117.462 213.295 113.775 217.666 106.649L216.95 106.21L216.235 105.771C212.09 112.528 206.872 115.784 200.567 115.784V116.623ZM216.95 106.21L217.665 106.65C222.094 99.4589 224.222 88.2971 224.176 73.3031L223.337 73.3057L222.498 73.3083C222.544 88.21 220.414 98.9848 216.236 105.77L216.95 106.21ZM223.337 73.3057H224.176C224.176 63.494 223.2 55.4178 221.222 49.1055L220.421 49.3564L219.62 49.6074C221.529 55.6977 222.498 63.5878 222.498 73.3057H223.337ZM220.421 49.3564L221.222 49.1055C219.251 42.8167 216.5 38.0756 212.917 34.9766L212.368 35.6113L211.819 36.246C215.085 39.0707 217.704 43.4936 219.62 49.6074L220.421 49.3564ZM212.368 35.6113L212.922 34.9808C209.349 31.8423 205.219 30.2605 200.567 30.2604V31.0996V31.9388C204.8 31.9388 208.539 33.3646 211.814 36.2418L212.368 35.6113ZM68.8633 41.9287L68.1535 41.4811L37.3312 90.3521L38.041 90.7998L38.7508 91.2475L69.5731 42.3764L68.8633 41.9287ZM38.041 90.7998H37.2019V91.9102H38.041H38.8802V90.7998H38.041ZM38.041 91.9102V92.7493H69.9736V91.9102V91.071H38.041V91.9102ZM69.9736 91.9102H70.8128V41.9287H69.9736H69.1345V91.9102H69.9736ZM69.9736 41.9287V41.0896H68.8633V41.9287V42.7679H69.9736V41.9287ZM318.092 90.7998H317.253V91.9102H318.092H318.931V90.7998H318.092ZM318.092 91.9102V92.7493H350.024V91.9102V91.071H318.092V91.9102ZM350.024 91.9102H350.864V41.9287H350.024H349.185V91.9102H350.024ZM350.024 41.9287V41.0896H348.914V41.9287V42.7679H350.024V41.9287ZM348.914 41.9287L348.204 41.4811L317.382 90.3521L318.092 90.7998L318.802 91.2475L349.624 42.3764L348.914 41.9287Z" fill="url(#paint1_linear_9888_41727)" mask="url(#path-1-inside-1_9888_41727)"/>
    <defs>
        <linearGradient id="paint0_linear_9888_41727" x1="201.252" y1="0" x2="201.252" y2="139.434" gradientUnits="userSpaceOnUse">
            <stop stop-color="#375306"/>
            <stop offset="0.360573" stop-color="#1F3807"/>
            <stop offset="1" stop-color="#001408"/>
        </linearGradient>
    <linearGradient id="paint1_linear_9888_41727" x1="201.252" y1="0" x2="201.252" y2="140.386" gradientUnits="userSpaceOnUse">
        <stop stop-color="#375306" stop-opacity="0.5"/>
        <stop offset="1" stop-color="#428CDC" stop-opacity="0"/>
    </linearGradient>
    </defs>
</svg>