<svg xmlns="http://www.w3.org/2000/svg" width="403" height="148" viewBox="0 0 403 148" fill="none">
  <mask id="path-1-inside-1_9889_5950" fill="white">
    <path d="M200.567 0C213.479 7.34687e-06 224.633 2.86884 234.027 8.60742C243.422 14.2997 250.664 22.6075 255.755 33.5293C260.845 44.4511 263.368 57.7098 263.321 73.3057C263.321 88.9942 260.776 102.415 255.686 113.568C250.595 124.721 243.352 133.26 233.958 139.184C224.61 145.061 213.479 148 200.567 148C187.656 147.954 176.502 144.969 167.107 139.045C157.713 133.121 150.471 124.583 145.38 113.43C140.289 102.276 137.767 88.9017 137.813 73.3057C137.86 57.6636 140.405 44.3817 145.449 33.46C150.54 22.5381 157.759 14.2304 167.107 8.53809C176.502 2.84578 187.656 0 200.567 0ZM106.071 1.94434V91.9102H122.454V121.898H106.071V144.112H69.1406V121.898H0V91.9102L57.2002 1.94434H106.071ZM386.122 91.9102H402.505V121.898H386.122V144.112H349.191V121.898H280.051V91.9102L337.251 1.94434H386.122V91.9102ZM200.567 31.0996C193.903 31.0996 188.465 34.4777 184.254 41.2344C180.043 47.9911 177.89 58.6816 177.798 73.3057C177.752 83.2556 178.701 91.4471 180.645 97.8799C182.588 104.266 185.273 108.987 188.697 112.041C192.168 115.095 196.125 116.623 200.567 116.623C207.232 116.623 212.693 113.152 216.95 106.21C221.254 99.2218 223.383 88.2536 223.337 73.3057C223.337 63.5409 222.365 55.5578 220.421 49.3564C218.477 43.1551 215.793 38.5732 212.368 35.6113C208.944 32.6034 205.01 31.0996 200.567 31.0996ZM68.8633 41.9287L38.041 90.7998V91.9102H69.9736V41.9287H68.8633ZM318.092 90.7998V91.9102H350.024V41.9287H348.914L318.092 90.7998Z"/>
  </mask>
  <path d="M200.567 0C213.479 7.34687e-06 224.633 2.86884 234.027 8.60742C243.422 14.2997 250.664 22.6075 255.755 33.5293C260.845 44.4511 263.368 57.7098 263.321 73.3057C263.321 88.9942 260.776 102.415 255.686 113.568C250.595 124.721 243.352 133.26 233.958 139.184C224.61 145.061 213.479 148 200.567 148C187.656 147.954 176.502 144.969 167.107 139.045C157.713 133.121 150.471 124.583 145.38 113.43C140.289 102.276 137.767 88.9017 137.813 73.3057C137.86 57.6636 140.405 44.3817 145.449 33.46C150.54 22.5381 157.759 14.2304 167.107 8.53809C176.502 2.84578 187.656 0 200.567 0ZM106.071 1.94434V91.9102H122.454V121.898H106.071V144.112H69.1406V121.898H0V91.9102L57.2002 1.94434H106.071ZM386.122 91.9102H402.505V121.898H386.122V144.112H349.191V121.898H280.051V91.9102L337.251 1.94434H386.122V91.9102ZM200.567 31.0996C193.903 31.0996 188.465 34.4777 184.254 41.2344C180.043 47.9911 177.89 58.6816 177.798 73.3057C177.752 83.2556 178.701 91.4471 180.645 97.8799C182.588 104.266 185.273 108.987 188.697 112.041C192.168 115.095 196.125 116.623 200.567 116.623C207.232 116.623 212.693 113.152 216.95 106.21C221.254 99.2218 223.383 88.2536 223.337 73.3057C223.337 63.5409 222.365 55.5578 220.421 49.3564C218.477 43.1551 215.793 38.5732 212.368 35.6113C208.944 32.6034 205.01 31.0996 200.567 31.0996ZM68.8633 41.9287L38.041 90.7998V91.9102H69.9736V41.9287H68.8633ZM318.092 90.7998V91.9102H350.024V41.9287H348.914L318.092 90.7998Z" fill="url(#paint0_linear_9889_5950)" fill-opacity="0.27"/>
  <path d="M200.567 0V-1V-1V0ZM234.027 8.60742L233.506 9.46081L233.509 9.46268L234.027 8.60742ZM255.755 33.5293L256.661 33.1068V33.1068L255.755 33.5293ZM263.321 73.3057L262.321 73.3027V73.3057H263.321ZM255.686 113.568L256.595 113.984V113.984L255.686 113.568ZM233.958 139.184L234.49 140.03L234.491 140.029L233.958 139.184ZM200.567 148L200.564 149H200.567V148ZM167.107 139.045L166.574 139.891V139.891L167.107 139.045ZM145.38 113.43L144.47 113.845V113.845L145.38 113.43ZM137.813 73.3057L138.813 73.3086V73.3086L137.813 73.3057ZM145.449 33.46L144.543 33.0375L144.541 33.0407L145.449 33.46ZM167.107 8.53809L166.589 7.68283L166.587 7.68397L167.107 8.53809ZM106.071 1.94434H107.071V0.944336H106.071V1.94434ZM106.071 91.9102H105.071V92.9102H106.071V91.9102ZM122.454 91.9102H123.454V90.9102H122.454V91.9102ZM122.454 121.898V122.898H123.454V121.898H122.454ZM106.071 121.898V120.898H105.071V121.898H106.071ZM106.071 144.112V145.112H107.071V144.112H106.071ZM69.1406 144.112H68.1406V145.112H69.1406V144.112ZM69.1406 121.898H70.1406V120.898H69.1406V121.898ZM0 121.898H-1V122.898H0V121.898ZM0 91.9102L-0.843877 91.3736L-1 91.6192V91.9102H0ZM57.2002 1.94434V0.944336H56.651L56.3563 1.4078L57.2002 1.94434ZM386.122 91.9102H385.122V92.9102H386.122V91.9102ZM402.505 91.9102H403.505V90.9102H402.505V91.9102ZM402.505 121.898V122.898H403.505V121.898H402.505ZM386.122 121.898V120.898H385.122V121.898H386.122ZM386.122 144.112V145.112H387.122V144.112H386.122ZM349.191 144.112H348.191V145.112H349.191V144.112ZM349.191 121.898H350.191V120.898H349.191V121.898ZM280.051 121.898H279.051V122.898H280.051V121.898ZM280.051 91.9102L279.207 91.3736L279.051 91.6192V91.9102H280.051ZM337.251 1.94434V0.944336H336.702L336.407 1.4078L337.251 1.94434ZM386.122 1.94434H387.122V0.944336H386.122V1.94434ZM200.567 31.0996V30.0996V30.0996V31.0996ZM184.254 41.2344L183.405 40.7054V40.7054L184.254 41.2344ZM177.798 73.3057L176.798 73.2993V73.301L177.798 73.3057ZM180.645 97.8799L179.687 98.1691L179.688 98.171L180.645 97.8799ZM188.697 112.041L188.032 112.787L188.037 112.792L188.697 112.041ZM200.567 116.623V117.623V117.623V116.623ZM216.95 106.21L216.099 105.686L216.098 105.687L216.95 106.21ZM223.337 73.3057H222.337V73.3088L223.337 73.3057ZM220.421 49.3564L221.375 49.0574V49.0574L220.421 49.3564ZM212.368 35.6113L211.708 36.3627L211.714 36.3677L212.368 35.6113ZM68.8633 41.9287V40.9287H68.3117L68.0174 41.3953L68.8633 41.9287ZM38.041 90.7998L37.1952 90.2663L37.041 90.5108V90.7998H38.041ZM38.041 91.9102H37.041V92.9102H38.041V91.9102ZM69.9736 91.9102V92.9102H70.9736V91.9102H69.9736ZM69.9736 41.9287H70.9736V40.9287H69.9736V41.9287ZM318.092 90.7998L317.246 90.2663L317.092 90.5108V90.7998H318.092ZM318.092 91.9102H317.092V92.9102H318.092V91.9102ZM350.024 91.9102V92.9102H351.024V91.9102H350.024ZM350.024 41.9287H351.024V40.9287H350.024V41.9287ZM348.914 41.9287V40.9287H348.362L348.068 41.3953L348.914 41.9287ZM200.567 0V1C213.327 1.00001 224.294 3.83363 233.506 9.46081L234.027 8.60742L234.549 7.75404C224.972 1.90405 213.631 -0.999993 200.567 -1V0ZM234.027 8.60742L233.509 9.46268C242.718 15.0424 249.833 23.1913 254.849 33.9518L255.755 33.5293L256.661 33.1068C251.495 22.0237 244.126 13.557 234.546 7.75217L234.027 8.60742ZM255.755 33.5293L254.848 33.9518C259.862 44.7072 262.367 57.8122 262.321 73.3027L263.321 73.3057L264.321 73.3086C264.368 57.6074 261.829 44.195 256.661 33.1068L255.755 33.5293ZM263.321 73.3057H262.321C262.321 88.8895 259.793 102.161 254.776 113.153L255.686 113.568L256.595 113.984C261.76 102.669 264.321 89.0988 264.321 73.3057H263.321ZM255.686 113.568L254.776 113.153C249.757 124.148 242.637 132.529 233.425 138.338L233.958 139.184L234.491 140.029C244.067 133.991 251.433 125.295 256.595 113.984L255.686 113.568ZM233.958 139.184L233.426 138.337C224.262 144.098 213.323 147 200.567 147V148V149C213.635 149 224.957 146.024 234.49 140.03L233.958 139.184ZM200.567 148L200.571 147C187.816 146.954 176.852 144.007 167.641 138.199L167.107 139.045L166.574 139.891C176.152 145.93 187.495 148.953 200.564 149L200.567 148ZM167.107 139.045L167.641 138.199C158.428 132.39 151.308 124.01 146.29 113.014L145.38 113.43L144.47 113.845C149.633 125.156 156.998 133.853 166.574 139.891L167.107 139.045ZM145.38 113.43L146.29 113.014C141.273 102.023 138.768 88.7983 138.813 73.3086L137.813 73.3057L136.813 73.3027C136.767 89.005 139.306 102.53 144.47 113.845L145.38 113.43ZM137.813 73.3057L138.813 73.3086C138.859 57.7689 141.388 44.6375 146.357 33.8793L145.449 33.46L144.541 33.0407C139.422 44.1259 136.86 57.5582 136.813 73.3027L137.813 73.3057ZM145.449 33.46L146.356 33.8824C151.372 23.1206 158.465 14.9716 167.628 9.3922L167.107 8.53809L166.587 7.68397C157.054 13.4892 149.708 21.9557 144.543 33.0375L145.449 33.46ZM167.107 8.53809L167.626 9.39334C176.838 3.81123 187.806 1 200.567 1V0V-1C187.505 -1 176.166 1.88032 166.589 7.68283L167.107 8.53809ZM106.071 1.94434H105.071V91.9102H106.071H107.071V1.94434H106.071ZM106.071 91.9102V92.9102H122.454V91.9102V90.9102H106.071V91.9102ZM122.454 91.9102H121.454V121.898H122.454H123.454V91.9102H122.454ZM122.454 121.898V120.898H106.071V121.898V122.898H122.454V121.898ZM106.071 121.898H105.071V144.112H106.071H107.071V121.898H106.071ZM106.071 144.112V143.112H69.1406V144.112V145.112H106.071V144.112ZM69.1406 144.112H70.1406V121.898H69.1406H68.1406V144.112H69.1406ZM69.1406 121.898V120.898H0V121.898V122.898H69.1406V121.898ZM0 121.898H1V91.9102H0H-1V121.898H0ZM0 91.9102L0.843877 92.4467L58.0441 2.48087L57.2002 1.94434L56.3563 1.4078L-0.843877 91.3736L0 91.9102ZM57.2002 1.94434V2.94434H106.071V1.94434V0.944336H57.2002V1.94434ZM386.122 91.9102V92.9102H402.505V91.9102V90.9102H386.122V91.9102ZM402.505 91.9102H401.505V121.898H402.505H403.505V91.9102H402.505ZM402.505 121.898V120.898H386.122V121.898V122.898H402.505V121.898ZM386.122 121.898H385.122V144.112H386.122H387.122V121.898H386.122ZM386.122 144.112V143.112H349.191V144.112V145.112H386.122V144.112ZM349.191 144.112H350.191V121.898H349.191H348.191V144.112H349.191ZM349.191 121.898V120.898H280.051V121.898V122.898H349.191V121.898ZM280.051 121.898H281.051V91.9102H280.051H279.051V121.898H280.051ZM280.051 91.9102L280.895 92.4467L338.095 2.48087L337.251 1.94434L336.407 1.4078L279.207 91.3736L280.051 91.9102ZM337.251 1.94434V2.94434H386.122V1.94434V0.944336H337.251V1.94434ZM386.122 1.94434H385.122V91.9102H386.122H387.122V1.94434H386.122ZM200.567 31.0996V30.0996C193.486 30.0996 187.758 33.7222 183.405 40.7054L184.254 41.2344L185.103 41.7633C189.173 35.2332 194.32 32.0996 200.567 32.0996V31.0996ZM184.254 41.2344L183.405 40.7054C179.044 47.7023 176.891 58.6225 176.798 73.2993L177.798 73.3057L178.798 73.312C178.89 58.7407 181.041 48.2798 185.103 41.7633L184.254 41.2344ZM177.798 73.3057L176.798 73.301C176.751 83.3076 177.705 91.6072 179.687 98.1691L180.645 97.8799L181.602 97.5906C179.697 91.287 178.752 83.2037 178.798 73.3103L177.798 73.3057ZM180.645 97.8799L179.688 98.171C181.662 104.658 184.421 109.567 188.032 112.787L188.697 112.041L189.363 111.295C186.124 108.406 183.514 103.875 181.601 97.5887L180.645 97.8799ZM188.697 112.041L188.037 112.792C191.682 115.999 195.871 117.623 200.567 117.623V116.623V115.623C196.379 115.623 192.654 114.191 189.358 111.29L188.697 112.041ZM200.567 116.623V117.623C207.66 117.623 213.41 113.895 217.803 106.733L216.95 106.21L216.098 105.687C211.975 112.409 206.803 115.623 200.567 115.623V116.623ZM216.95 106.21L217.802 106.734C222.255 99.5043 224.383 88.3055 224.337 73.3026L223.337 73.3057L222.337 73.3088C222.383 88.2017 220.254 98.9394 216.099 105.686L216.95 106.21ZM223.337 73.3057H224.337C224.337 63.485 223.36 55.391 221.375 49.0574L220.421 49.3564L219.467 49.6555C221.369 55.7245 222.337 63.5968 222.337 73.3057H223.337ZM220.421 49.3564L221.375 49.0574C219.399 42.7518 216.636 37.9803 213.022 34.855L212.368 35.6113L211.714 36.3677C214.95 39.166 217.556 43.5584 219.467 49.6555L220.421 49.3564ZM212.368 35.6113L213.028 34.86C209.426 31.6963 205.26 30.0996 200.567 30.0996V31.0996V32.0996C204.76 32.0996 208.461 33.5105 211.708 36.3627L212.368 35.6113ZM68.8633 41.9287L68.0174 41.3953L37.1952 90.2663L38.041 90.7998L38.8868 91.3333L69.7091 42.4622L68.8633 41.9287ZM38.041 90.7998H37.041V91.9102H38.041H39.041V90.7998H38.041ZM38.041 91.9102V92.9102H69.9736V91.9102V90.9102H38.041V91.9102ZM69.9736 91.9102H70.9736V41.9287H69.9736H68.9736V91.9102H69.9736ZM69.9736 41.9287V40.9287H68.8633V41.9287V42.9287H69.9736V41.9287ZM318.092 90.7998H317.092V91.9102H318.092H319.092V90.7998H318.092ZM318.092 91.9102V92.9102H350.024V91.9102V90.9102H318.092V91.9102ZM350.024 91.9102H351.024V41.9287H350.024H349.024V91.9102H350.024ZM350.024 41.9287V40.9287H348.914V41.9287V42.9287H350.024V41.9287ZM348.914 41.9287L348.068 41.3953L317.246 90.2663L318.092 90.7998L318.938 91.3333L349.76 42.4622L348.914 41.9287Z" fill="url(#paint1_linear_9889_5950)" fill-opacity="0.1" mask="url(#path-1-inside-1_9889_5950)"/>
  <defs>
    <linearGradient id="paint0_linear_9889_5950" x1="201.252" y1="0" x2="201.252" y2="148" gradientUnits="userSpaceOnUse">
      <stop stop-color="#A7CF09"/>
      <stop offset="0.5" stop-color="#A7CF08" stop-opacity="0.5"/>
      <stop offset="1" stop-color="#D7DED4"/>
    </linearGradient>
    <linearGradient id="paint1_linear_9889_5950" x1="201.252" y1="0" x2="201.252" y2="148" gradientUnits="userSpaceOnUse">
      <stop stop-color="#4E780D"/>
      <stop offset="1" stop-color="#D7DED4"/>
    </linearGradient>
  </defs>
</svg>