<svg viewBox="0 0 403 148" width="403" fill="none" xmlns="http://www.w3.org/2000/svg">
    <mask id="path-1-inside-1_9889_5950" fill="white">
        <path d="M200.567 0C213.479 7.34687e-06 224.633 2.86884 234.027 8.60742C243.422 14.2997 250.664 22.6075 255.755 33.5293C260.845 44.4511 263.368 57.7098 263.321 73.3057C263.321 88.9942 260.776 102.415 255.686 113.568C250.595 124.721 243.352 133.26 233.958 139.184C224.61 145.061 213.479 148 200.567 148C187.656 147.954 176.502 144.969 167.107 139.045C157.713 133.121 150.471 124.583 145.38 113.43C140.289 102.276 137.767 88.9017 137.813 73.3057C137.86 57.6636 140.405 44.3817 145.449 33.46C150.54 22.5381 157.759 14.2304 167.107 8.53809C176.502 2.84578 187.656 0 200.567 0ZM106.071 1.94434V91.9102H122.454V121.898H106.071V144.112H69.1406V121.898H0V91.9102L57.2002 1.94434H106.071ZM386.122 91.9102H402.505V121.898H386.122V144.112H349.191V121.898H280.051V91.9102L337.251 1.94434H386.122V91.9102ZM200.567 31.0996C193.903 31.0996 188.465 34.4777 184.254 41.2344C180.043 47.9911 177.89 58.6816 177.798 73.3057C177.752 83.2556 178.701 91.4471 180.645 97.8799C182.588 104.266 185.273 108.987 188.697 112.041C192.168 115.095 196.125 116.623 200.567 116.623C207.232 116.623 212.693 113.152 216.95 106.21C221.254 99.2218 223.383 88.2536 223.337 73.3057C223.337 63.5409 222.365 55.5578 220.421 49.3564C218.477 43.1551 215.793 38.5732 212.368 35.6113C208.944 32.6034 205.01 31.0996 200.567 31.0996ZM68.8633 41.9287L38.041 90.7998V91.9102H69.9736V41.9287H68.8633ZM318.092 90.7998V91.9102H350.024V41.9287H348.914L318.092 90.7998Z"/>
    </mask>
    <path d="M200.567 0C213.479 7.34687e-06 224.633 2.86884 234.027 8.60742C243.422 14.2997 250.664 22.6075 255.755 33.5293C260.845 44.4511 263.368 57.7098 263.321 73.3057C263.321 88.9942 260.776 102.415 255.686 113.568C250.595 124.721 243.352 133.26 233.958 139.184C224.61 145.061 213.479 148 200.567 148C187.656 147.954 176.502 144.969 167.107 139.045C157.713 133.121 150.471 124.583 145.38 113.43C140.289 102.276 137.767 88.9017 137.813 73.3057C137.86 57.6636 140.405 44.3817 145.449 33.46C150.54 22.5381 157.759 14.2304 167.107 8.53809C176.502 2.84578 187.656 0 200.567 0ZM106.071 1.94434V91.9102H122.454V121.898H106.071V144.112H69.1406V121.898H0V91.9102L57.2002 1.94434H106.071ZM386.122 91.9102H402.505V121.898H386.122V144.112H349.191V121.898H280.051V91.9102L337.251 1.94434H386.122V91.9102ZM200.567 31.0996C193.903 31.0996 188.465 34.4777 184.254 41.2344C180.043 47.9911 177.89 58.6816 177.798 73.3057C177.752 83.2556 178.701 91.4471 180.645 97.8799C182.588 104.266 185.273 108.987 188.697 112.041C192.168 115.095 196.125 116.623 200.567 116.623C207.232 116.623 212.693 113.152 216.95 106.21C221.254 99.2218 223.383 88.2536 223.337 73.3057C223.337 63.5409 222.365 55.5578 220.421 49.3564C218.477 43.1551 215.793 38.5732 212.368 35.6113C208.944 32.6034 205.01 31.0996 200.567 31.0996ZM68.8633 41.9287L38.041 90.7998V91.9102H69.9736V41.9287H68.8633ZM318.092 90.7998V91.9102H350.024V41.9287H348.914L318.092 90.7998Z" fill="url(#paint0_linear_9889_5950)" fill-opacity="0.4"/>
    <path d="M200.567 0V-0.837628V-0.837628V0ZM234.027 8.60742L233.591 9.32225L233.593 9.32381L234.027 8.60742ZM255.755 33.5293L256.514 33.1754V33.1754L255.755 33.5293ZM263.321 73.3057L262.484 73.3032V73.3057H263.321ZM255.686 113.568L256.448 113.916V113.916L255.686 113.568ZM233.958 139.184L234.404 139.893L234.405 139.892L233.958 139.184ZM200.567 148L200.564 148.838H200.567V148ZM167.107 139.045L166.661 139.753V139.753L167.107 139.045ZM145.38 113.43L144.618 113.777V113.777L145.38 113.43ZM137.813 73.3057L138.651 73.3082V73.3081L137.813 73.3057ZM145.449 33.46L144.69 33.1061L144.689 33.1087L145.449 33.46ZM167.107 8.53809L166.673 7.8217L166.672 7.82265L167.107 8.53809ZM106.071 1.94434H106.909V1.10671H106.071V1.94434ZM106.071 91.9102H105.234V92.7478H106.071V91.9102ZM122.454 91.9102H123.292V91.0725H122.454V91.9102ZM122.454 121.898V122.736H123.292V121.898H122.454ZM106.071 121.898V121.061H105.234V121.898H106.071ZM106.071 144.112V144.95H106.909V144.112H106.071ZM69.1406 144.112H68.303V144.95H69.1406V144.112ZM69.1406 121.898H69.9783V121.061H69.1406V121.898ZM0 121.898H-0.837628V122.736H0V121.898ZM0 91.9102L-0.706855 91.4607L-0.837628 91.6664V91.9102H0ZM57.2002 1.94434V1.10671H56.7402L56.4933 1.49492L57.2002 1.94434ZM386.122 91.9102H385.284V92.7478H386.122V91.9102ZM402.505 91.9102H403.342V91.0725H402.505V91.9102ZM402.505 121.898V122.736H403.342V121.898H402.505ZM386.122 121.898V121.061H385.284V121.898H386.122ZM386.122 144.112V144.95H386.96V144.112H386.122ZM349.191 144.112H348.354V144.95H349.191V144.112ZM349.191 121.898H350.029V121.061H349.191V121.898ZM280.051 121.898H279.213V122.736H280.051V121.898ZM280.051 91.9102L279.344 91.4607L279.213 91.6664V91.9102H280.051ZM337.251 1.94434V1.10671H336.791L336.544 1.49492L337.251 1.94434ZM386.122 1.94434H386.96V1.10671H386.122V1.94434ZM200.567 31.0996V30.262V30.262V31.0996ZM184.254 41.2344L183.543 40.7913L183.543 40.7913L184.254 41.2344ZM177.798 73.3057L176.96 73.3004V73.3018L177.798 73.3057ZM180.645 97.8799L179.843 98.1222L179.843 98.1238L180.645 97.8799ZM188.697 112.041L188.14 112.666L188.144 112.67L188.697 112.041ZM200.567 116.623V117.461V117.461V116.623ZM216.95 106.21L216.237 105.771L216.236 105.772L216.95 106.21ZM223.337 73.3057H222.499V73.3083L223.337 73.3057ZM220.421 49.3564L221.22 49.1059V49.1059L220.421 49.3564ZM212.368 35.6113L211.815 36.2407L211.82 36.2449L212.368 35.6113ZM68.8633 41.9287V41.0911H68.4013L68.1548 41.4819L68.8633 41.9287ZM38.041 90.7998L37.3325 90.353L37.2034 90.5577V90.7998H38.041ZM38.041 91.9102H37.2034V92.7478H38.041V91.9102ZM69.9736 91.9102V92.7478H70.8113V91.9102H69.9736ZM69.9736 41.9287H70.8113V41.0911H69.9736V41.9287ZM318.092 90.7998L317.383 90.353L317.254 90.5577V90.7998H318.092ZM318.092 91.9102H317.254V92.7478H318.092V91.9102ZM350.024 91.9102V92.7478H350.862V91.9102H350.024ZM350.024 41.9287H350.862V41.0911H350.024V41.9287ZM348.914 41.9287V41.0911H348.452L348.206 41.4819L348.914 41.9287ZM200.567 0V0.837628C213.352 0.837636 224.349 3.67698 233.591 9.32224L234.027 8.60742L234.464 7.8926C224.917 2.0607 213.606 -0.837621 200.567 -0.837628V0ZM234.027 8.60742L233.593 9.32381C242.832 14.9218 249.968 23.0965 254.996 33.8832L255.755 33.5293L256.514 33.1754C251.36 22.1185 244.012 13.6776 234.461 7.89104L234.027 8.60742ZM255.755 33.5293L254.996 33.8832C260.021 44.6656 262.53 57.7956 262.484 73.3032L263.321 73.3057L264.159 73.3082C264.205 57.624 261.67 44.2366 256.514 33.1754L255.755 33.5293ZM263.321 73.3057H262.484C262.484 88.9065 259.952 102.203 254.924 113.221L255.686 113.568L256.448 113.916C261.6 102.628 264.159 89.0818 264.159 73.3057H263.321ZM255.686 113.568L254.924 113.221C249.893 124.241 242.754 132.647 233.511 138.475L233.958 139.184L234.405 139.892C243.951 133.873 251.297 125.202 256.448 113.916L255.686 113.568ZM233.958 139.184L233.512 138.474C224.319 144.255 213.349 147.162 200.567 147.162V148V148.838C213.61 148.838 224.901 145.867 234.404 139.893L233.958 139.184ZM200.567 148L200.57 147.162C187.79 147.117 176.796 144.163 167.554 138.336L167.107 139.045L166.661 139.753C176.209 145.774 187.521 148.791 200.564 148.838L200.567 148ZM167.107 139.045L167.554 138.336C158.312 132.509 151.172 124.103 146.142 113.082L145.38 113.43L144.618 113.777C149.769 125.063 157.114 133.734 166.661 139.753L167.107 139.045ZM145.38 113.43L146.142 113.082C141.113 102.064 138.605 88.8151 138.651 73.3082L137.813 73.3057L136.976 73.3032C136.929 88.9882 139.465 102.489 144.618 113.777L145.38 113.43ZM137.813 73.3057L138.651 73.3081C138.697 57.7518 141.229 44.596 146.21 33.8112L145.449 33.46L144.689 33.1087C139.581 44.1675 137.022 57.5753 136.976 73.3032L137.813 73.3057ZM145.449 33.46L146.208 33.8138C151.237 23.026 158.35 14.8512 167.543 9.25352L167.107 8.53809L166.672 7.82265C157.168 13.6095 149.843 22.0502 144.69 33.1061L145.449 33.46ZM167.107 8.53809L167.541 9.25447C176.784 3.65447 187.781 0.837628 200.567 0.837628V0V-0.837628C187.53 -0.837628 176.22 2.03708 166.673 7.8217L167.107 8.53809ZM106.071 1.94434H105.234V91.9102H106.071H106.909V1.94434H106.071ZM106.071 91.9102V92.7478H122.454V91.9102V91.0725H106.071V91.9102ZM122.454 91.9102H121.616V121.898H122.454H123.292V91.9102H122.454ZM122.454 121.898V121.061H106.071V121.898V122.736H122.454V121.898ZM106.071 121.898H105.234V144.112H106.071H106.909V121.898H106.071ZM106.071 144.112V143.275H69.1406V144.112V144.95H106.071V144.112ZM69.1406 144.112H69.9783V121.898H69.1406H68.303V144.112H69.1406ZM69.1406 121.898V121.061H0V121.898V122.736H69.1406V121.898ZM0 121.898H0.837628V91.9102H0H-0.837628V121.898H0ZM0 91.9102L0.706855 92.3596L57.9071 2.39375L57.2002 1.94434L56.4933 1.49492L-0.706855 91.4607L0 91.9102ZM57.2002 1.94434V2.78196H106.071V1.94434V1.10671H57.2002V1.94434ZM386.122 91.9102V92.7478H402.505V91.9102V91.0725H386.122V91.9102ZM402.505 91.9102H401.667V121.898H402.505H403.342V91.9102H402.505ZM402.505 121.898V121.061H386.122V121.898V122.736H402.505V121.898ZM386.122 121.898H385.284V144.112H386.122H386.96V121.898H386.122ZM386.122 144.112V143.275H349.191V144.112V144.95H386.122V144.112ZM349.191 144.112H350.029V121.898H349.191H348.354V144.112H349.191ZM349.191 121.898V121.061H280.051V121.898V122.736H349.191V121.898ZM280.051 121.898H280.888V91.9102H280.051H279.213V121.898H280.051ZM280.051 91.9102L280.758 92.3596L337.958 2.39375L337.251 1.94434L336.544 1.49492L279.344 91.4607L280.051 91.9102ZM337.251 1.94434V2.78196H386.122V1.94434V1.10671H337.251V1.94434ZM386.122 1.94434H385.284V91.9102H386.122H386.96V1.94434H386.122ZM200.567 31.0996V30.262C193.554 30.262 187.873 33.8449 183.543 40.7913L184.254 41.2344L184.965 41.6774C189.058 35.1105 194.252 31.9372 200.567 31.9372V31.0996ZM184.254 41.2344L183.543 40.7913C179.206 47.7492 177.053 58.6321 176.96 73.3004L177.798 73.3057L178.635 73.311C178.728 58.7311 180.879 48.2329 184.965 41.6774L184.254 41.2344ZM177.798 73.3057L176.96 73.3018C176.914 83.2991 177.866 91.5812 179.843 98.1222L180.645 97.8799L181.446 97.6376C179.535 91.313 178.589 83.2121 178.635 73.3096L177.798 73.3057ZM180.645 97.8799L179.843 98.1238C181.813 104.594 184.56 109.473 188.14 112.666L188.697 112.041L189.255 111.416C185.986 108.5 183.364 103.938 181.446 97.636L180.645 97.8799ZM188.697 112.041L188.144 112.67C191.761 115.853 195.912 117.461 200.567 117.461V116.623V115.785C196.337 115.785 192.575 114.338 189.251 111.412L188.697 112.041ZM200.567 116.623V117.461C207.591 117.461 213.294 113.774 217.664 106.648L216.95 106.21L216.236 105.772C212.092 112.529 206.872 115.785 200.567 115.785V116.623ZM216.95 106.21L217.663 106.649C222.092 99.4584 224.221 88.2971 224.175 73.3031L223.337 73.3057L222.499 73.3083C222.545 88.2102 220.416 98.9853 216.237 105.771L216.95 106.21ZM223.337 73.3057H224.175C224.175 63.4941 223.199 55.4181 221.22 49.1059L220.421 49.3564L219.622 49.607C221.531 55.6975 222.499 63.5877 222.499 73.3057H223.337ZM220.421 49.3564L221.22 49.1059C219.249 42.8173 216.499 38.0766 212.916 34.9778L212.368 35.6113L211.82 36.2449C215.087 39.0698 217.705 43.4929 219.622 49.607L220.421 49.3564ZM212.368 35.6113L212.921 34.982C209.348 31.8436 205.219 30.262 200.567 30.262V31.0996V31.9372C204.801 31.9372 208.539 33.3632 211.815 36.2407L212.368 35.6113ZM68.8633 41.9287L68.1548 41.4819L37.3325 90.353L38.041 90.7998L38.7495 91.2466L69.5718 42.3755L68.8633 41.9287ZM38.041 90.7998H37.2034V91.9102H38.041H38.8786V90.7998H38.041ZM38.041 91.9102V92.7478H69.9736V91.9102V91.0725H38.041V91.9102ZM69.9736 91.9102H70.8113V41.9287H69.9736H69.136V91.9102H69.9736ZM69.9736 41.9287V41.0911H68.8633V41.9287V42.7663H69.9736V41.9287ZM318.092 90.7998H317.254V91.9102H318.092H318.929V90.7998H318.092ZM318.092 91.9102V92.7478H350.024V91.9102V91.0725H318.092V91.9102ZM350.024 91.9102H350.862V41.9287H350.024H349.187V91.9102H350.024ZM350.024 41.9287V41.0911H348.914V41.9287V42.7663H350.024V41.9287ZM348.914 41.9287L348.206 41.4819L317.383 90.353L318.092 90.7998L318.8 91.2466L349.623 42.3755L348.914 41.9287Z" fill="url(#paint1_linear_9889_5950)" fill-opacity="0.1" mask="url(#path-1-inside-1_9889_5950)"/>
    <defs>
            <linearGradient id="paint0_linear_9889_5950" x1="201.252" y1="0" x2="201.252" y2="148" gradientUnits="userSpaceOnUse">
            <stop stop-color="#CCFF00"/>
            <stop offset="0.538462" stop-color="#D1EF66"/>
            <stop offset="1" stop-color="#D7DED4"/>
        </linearGradient>
        <linearGradient id="paint1_linear_9889_5950" x1="201.252" y1="2.65829e-06" x2="201.252" y2="148" gradientUnits="userSpaceOnUse">
            <stop stop-color="#4E780D"/>
            <stop offset="1" stop-color="#D7DED4"/>
        </linearGradient>
    </defs>
</svg>