<?xml version="1.0" encoding="UTF-8"?>
<svg id="artboard_1" xmlns="http://www.w3.org/2000/svg" version="1.1" viewBox="0 0 385.9 56.7">
  <!-- Generator: Adobe Illustrator 30.1.0, SVG Export Plug-In . SVG Version: 2.1.1 Build 136)  -->
  <defs>
    <style>
      .st0, .st1 {
        fill: #b7bdb5;
      }

      .st1 {
        fill-rule: evenodd;
      }
    </style>
  </defs>
  <path class="st1" d="M101.2,33.3h9v-13.9h-9v13.9ZM110.2,13.9h6.9v25.9c0,4.3-.4,5-1.6,6.2-.9.9-2.3,1.4-4.8,1.4h-10.1l-3.1-3.5v-1.4h12.7v-3.5h-8.7c-2.6,0-4-.5-5.1-1.6-1.4-1.5-2-4.7-2-10.8s.7-9.5,2.2-11c1.1-1.1,2.5-1.5,5-1.5h5.2l3.4,3.2v-3.4ZM28.8,7.1h8.1l-11.7,14.9,12.2,16.9h-8.6l-9.3-13.2h-2.2v13.2h-7.3V7.1h7.3v12.3h2.2s9.3-12.3,9.3-12.3ZM82.4,21.8v-2.3h-8.4v19.2h-6.8V13.9h6.8v3.1l3.4-3.1h6c2.1,0,3.4.4,4.4,1.4s1.4,2.3,1.4,6v17.5h-6.8v-17ZM46.3,33.3h9v-13.9h-9v13.9ZM46.6,38.8c-2.5,0-3.8-.4-4.9-1.5-1.6-1.6-2.2-3.9-2.2-10.9s.6-9.2,2.2-10.9c1-1.1,2.4-1.5,4.9-1.5h8.3c2.5,0,3.8.4,4.9,1.5,1.6,1.7,2.2,3.9,2.2,10.9s-.6,9.2-2.2,10.9c-1.1,1.1-2.4,1.5-4.9,1.5h-8.3Z"/>
  <path class="st0" d="M147.6,40.5c-2.8,0-5.3-.7-7.5-2.1-2.1-1.4-3.8-3.4-5-5.9s-1.8-5.3-1.8-8.5.6-6.2,1.9-8.7c1.3-2.5,3-4.4,5.3-5.8s4.9-2.1,7.9-2.1,4.5.5,6.4,1.4c1.9.9,3.5,2.2,4.7,3.9,1.2,1.6,2,3.6,2.3,5.8h-6.1c-.3-1.7-1-3.1-2.3-4.1-1.3-1.1-2.9-1.6-4.9-1.6s-3.4.5-4.8,1.4c-1.4.9-2.5,2.2-3.2,3.9-.7,1.7-1.1,3.7-1.1,6s.4,4.3,1.2,6,1.8,3.1,3.2,4.1,3,1.4,4.8,1.4,2.7-.3,3.9-.8c1.1-.5,2-1.3,2.7-2.2.7-1,1-2,1-3.1v-1.5h-8.1v-4.7h9.4c1.5,0,2.6.4,3.3,1.2.7.7,1.1,1.8,1.1,3.3v12.4h-5.4v-4.1h-.2c-.7,1.4-1.8,2.5-3.3,3.3s-3.2,1.2-5.2,1.2h-.2ZM174.5,40.5c-2.4,0-4.4-.7-5.8-2-1.5-1.4-2.2-3.1-2.2-5.3s.8-4.1,2.3-5.4c1.6-1.3,3.7-1.9,6.6-1.9h6.1v-1c0-1.4-.4-2.5-1.2-3.2-.8-.8-1.8-1.2-3.2-1.2s-2.1.3-2.9.8c-.8.5-1.3,1.3-1.5,2.3h-5.8c.5-2.5,1.6-4.4,3.4-5.8,1.8-1.4,4.1-2.1,6.9-2.1s5.6.8,7.3,2.4,2.6,3.9,2.6,6.8v15.1h-5.4v-3.6h-.2c-.6,1.3-1.6,2.3-2.8,3s-2.6,1-4.1,1h-.1ZM175.7,35.9c1.1,0,2.1-.2,2.9-.7.9-.5,1.6-1.1,2.1-1.9.5-.8.8-1.8.8-2.9v-.5h-5.8c-1.2,0-2.1.3-2.7.8-.6.5-1,1.3-1,2.2s.3,1.7,1,2.3c.7.5,1.6.8,2.8.8h-.1ZM199.2,40.1c-1.5,0-2.7-.4-3.5-1.2s-1.3-2-1.3-3.6v-14.4h-3.8v-4.6h3.9v-7.2h5.6v7.2h5.1v4.6h-5v14.6h5.6v4.6h-6.6ZM220.2,40.5c-2.2,0-4.2-.5-6-1.5-1.7-1-3.1-2.5-4.1-4.3-1-1.9-1.5-4.1-1.5-6.6s.5-4.7,1.4-6.5c1-1.9,2.3-3.3,4-4.3,1.7-1,3.6-1.5,5.8-1.5s3.9.5,5.5,1.4,2.9,2.2,3.9,4c1,1.7,1.4,3.9,1.4,6.3v2.1h-16.5c.2,2,.8,3.5,1.9,4.6,1.1,1.1,2.4,1.6,4,1.6s2.2-.3,3-.9c.8-.6,1.4-1.4,1.7-2.4h5.9c-.3,1.7-1,3.1-2,4.3s-2.2,2.1-3.7,2.7c-1.5.6-3.1,1-4.8,1h.1ZM214.4,25.5h10.7c-.2-1.6-.8-2.9-1.7-3.7-.9-.9-2.1-1.3-3.5-1.3s-2.6.4-3.5,1.3c-1,.9-1.6,2.1-1.9,3.7h-.1ZM239.5,40.1l-7-23.8h5.8l4.4,16.5h.2l5.2-16.5h5.7l5.2,16.5h.2l4.4-16.5h5.8l-7,23.8h-6.2l-5.2-16.1h-.2l-5.2,16.1h-6.2.1ZM278.9,40.5c-2.4,0-4.4-.7-5.8-2-1.5-1.4-2.2-3.1-2.2-5.3s.8-4.1,2.3-5.4c1.6-1.3,3.7-1.9,6.6-1.9h6.1v-1c0-1.4-.4-2.5-1.2-3.2-.8-.8-1.8-1.2-3.2-1.2s-2.1.3-2.9.8-1.3,1.3-1.5,2.3h-5.8c.5-2.5,1.6-4.4,3.4-5.8s4.1-2.1,6.9-2.1,5.5.8,7.3,2.4c1.7,1.6,2.6,3.9,2.6,6.8v15.1h-5.4v-3.6h-.2c-.6,1.3-1.6,2.3-2.8,3-1.2.7-2.6,1-4.1,1h0ZM280.1,35.9c1.1,0,2.1-.2,2.9-.7.9-.5,1.6-1.1,2.1-1.9.5-.8.8-1.8.8-2.9v-.5h-5.8c-1.2,0-2.1.3-2.7.8s-1,1.3-1,2.2.3,1.7,1,2.3c.7.5,1.6.8,2.8.8h0ZM296.2,49.6v-4.6h5.2l1.8-4.8-9.9-23.9h6l6.8,16.9h.2l5.8-16.9h5.8l-8.9,23.8-1.8,4.9c-.6,1.5-1.3,2.7-2,3.5-.8.8-1.9,1.2-3.5,1.2h-5.5Z"/>
</svg>