<?xml version="1.0" encoding="UTF-8"?>
<svg id="artboard_1" xmlns="http://www.w3.org/2000/svg" version="1.1" viewBox="0 0 385.9 56.7">
  <!-- Generator: Adobe Illustrator 30.1.0, SVG Export Plug-In . SVG Version: 2.1.1 Build 136)  -->
  <defs>
    <style>
      .st0, .st1 {
        fill: #b7bdb5;
      }

      .st1 {
        fill-rule: evenodd;
      }
    </style>
  </defs>
  <path class="st1" d="M105.4,34.9h9.4v-14.6h-9.4v14.6ZM114.7,14.7h7.2v27c0,4.5-.5,5.2-1.7,6.4-.9,1-2.4,1.5-5,1.5h-10.5l-3.3-3.6v-1.5h13.3v-3.7h-9.1c-2.7,0-4.1-.5-5.3-1.7-1.5-1.6-2.1-4.9-2.1-11.3s.7-9.9,2.3-11.5c1.2-1.1,2.6-1.6,5.2-1.6h5.4l3.6,3.3v-3.3ZM29.7,7.5h8.5l-12.2,15.6,12.8,17.6h-9l-9.7-13.8h-2.3v13.8h-7.7V7.5h7.7v12.9h2.3l9.7-12.9h0ZM85.7,22.9v-2.4h-8.8v20.1h-7.2V14.7h7.2v3.3l3.6-3.3h6.2c2.2,0,3.6.5,4.6,1.5,1.1,1,1.5,2.4,1.5,6.2v18.3h-7.2v-17.4c0-.1,0-.2,0-.3h0ZM48,34.9h9.4v-14.6h-9.4v14.6ZM48.3,40.6c-2.6,0-4-.4-5.1-1.6-1.7-1.7-2.3-4.1-2.3-11.4s.7-9.7,2.3-11.4c1.1-1.1,2.5-1.6,5.1-1.6h8.7c2.6,0,4,.4,5.1,1.6,1.7,1.8,2.3,4.1,2.3,11.4s-.7,9.7-2.3,11.4c-1.1,1.2-2.5,1.6-5.1,1.6h-8.7Z"/>
  <path class="st0" d="M140.5,42V8.3h8.4l9.2,24.8h.2l9.2-24.8h8.3v33.6h-6.1v-25.1h-.2l-9,25.1h-5.2l-8.9-25.1h-.2v25.1h-5.8.1ZM193.9,42.5c-2.3,0-4.4-.5-6.2-1.6s-3.2-2.6-4.3-4.5c-1-2-1.5-4.3-1.5-6.9s.5-4.9,1.5-6.8c1-1.9,2.4-3.4,4.2-4.5s3.8-1.6,6.1-1.6,4.1.5,5.8,1.5c1.7.9,3,2.3,4,4.2,1,1.8,1.5,4,1.5,6.6v2.2h-17.2c.2,2,.9,3.7,2,4.8,1.1,1.1,2.5,1.7,4.2,1.7s2.3-.3,3.2-.9c.9-.6,1.4-1.4,1.7-2.5h6.1c-.3,1.7-1,3.3-2.1,4.5-1,1.2-2.3,2.2-3.9,2.9-1.5.7-3.2,1-5.1,1h0ZM188,26.8h11.1c-.2-1.7-.8-3-1.8-3.9s-2.2-1.4-3.6-1.4-2.7.5-3.7,1.4-1.7,2.2-2,3.9ZM219.7,42.5c-3.1,0-5.7-.8-7.6-2.3-2-1.6-3-3.6-3.2-6.3h5.8c.2,1.2.7,2.2,1.6,2.9.9.6,2.1,1,3.6,1s2.2-.2,2.9-.7,1-1.2,1-2.1c0-1.4-.9-2.3-2.8-2.7l-4.5-1c-4.6-1-6.9-3.3-6.9-6.9s.9-4.2,2.7-5.6c1.8-1.4,4.1-2.2,6.9-2.2s5.2.7,7,2.2,2.8,3.5,3,6h-5.8c-.2-1.2-.7-2-1.5-2.7-.8-.6-1.8-.9-3-.9s-2,.2-2.7.7c-.7.4-1,1.1-1,2s.2,1.1.7,1.5c.4.4,1.1.7,2,.9l4.7,1c2.3.5,4,1.3,5.2,2.5,1.2,1.1,1.7,2.7,1.7,4.7s-.9,4.5-2.7,5.9c-1.7,1.4-4.1,2.2-7.1,2.2h0ZM234.5,42V7.1h6v13.5h.2c.7-1.2,1.7-2.2,3-2.9,1.2-.7,2.7-1,4.4-1s3.4.4,4.7,1.3c1.4.9,2.5,2.1,3.2,3.6.8,1.6,1.2,3.4,1.2,5.4v15h-6v-14c0-1.9-.5-3.4-1.4-4.4-.9-1.1-2.2-1.6-3.9-1.6s-2.9.5-3.9,1.6c-.9,1.1-1.4,2.5-1.4,4.4v14h-6.1Z"/>
</svg>