<?xml version="1.0" encoding="UTF-8"?>
<svg id="artboard_1" xmlns="http://www.w3.org/2000/svg" version="1.1" viewBox="0 0 515.3 56.7">
  <!-- Generator: Adobe Illustrator 30.1.0, SVG Export Plug-In . SVG Version: 2.1.1 Build 136)  -->
  <defs>
    <style>
      .st0, .st1 {
        fill: #b7bdb5;
      }

      .st1 {
        fill-rule: evenodd;
      }
    </style>
  </defs>
  <path class="st1" d="M99.4,33.2h8.8v-13.6h-8.8v13.6ZM108.1,14.2h6.8v25.3c0,4.2-.4,4.9-1.6,6-.9.9-2.3,1.4-4.7,1.4h-9.9l-3.1-3.4v-1.4h12.4v-3.5h-8.5c-2.6,0-3.9-.5-5-1.6-1.4-1.5-2-4.6-2-10.6s.7-9.3,2.1-10.8c1.1-1.1,2.5-1.5,4.9-1.5h5.1s3.4,3.1,3.4,3.1v-3.1ZM28.4,7.5h8l-11.5,14.6,12,16.5h-8.5l-9.1-13h-2.1v13h-7.2V7.5h7.2v12.1h2.1l9.1-12.1ZM80.9,21.9v-2.2h-8.3v18.9h-6.7V14.2h6.7v3.1l3.4-3.1h1.9c.3,0,.6,0,1,0h2.9c2,0,3.4.4,4.3,1.4,1,1,1.4,2.2,1.4,5.8v17.2h-6.7v-16.3c0,0,0-.2,0-.3ZM45.6,33.2h8.8v-13.6h-8.8v13.6ZM45.9,38.5c-2.4,0-3.7-.4-4.8-1.5-1.6-1.6-2.2-3.8-2.2-10.7s.6-9.1,2.2-10.7c1-1.1,2.3-1.5,4.8-1.5h8.2c2.4,0,3.7.4,4.8,1.5,1.6,1.7,2.2,3.8,2.2,10.7s-.6,9.1-2.2,10.7c-1.1,1.1-2.3,1.5-4.8,1.5h-8.2Z"/>
  <path class="st0" d="M132.4,39.8V8.3h5.8v31.5h-5.8ZM145.3,39.8v-23.4h5.5v3.5h.2c.7-1.3,1.6-2.2,2.8-2.9,1.2-.7,2.6-1.1,4.2-1.1s3.2.4,4.5,1.2c1.3.8,2.3,2,3,3.4.7,1.5,1.1,3.1,1.1,5v14.1h-5.6v-13c0-1.8-.4-3.1-1.3-4.1-.9-1-2.1-1.5-3.7-1.5s-2.8.5-3.7,1.5c-.9,1-1.3,2.4-1.3,4.1v13h-5.6ZM182.6,49.6c-3,0-5.6-.7-7.6-2.2-2-1.4-3.2-3.3-3.5-5.7h6c.3,1,.8,1.8,1.7,2.4.9.6,2,.9,3.3.9s3.2-.5,4.2-1.6c1-1,1.6-2.4,1.6-4.2v-3.3h-.2c-.6,1.3-1.5,2.3-2.7,3-1.1.7-2.4,1-3.9,1s-3.7-.5-5.2-1.5c-1.5-1-2.6-2.4-3.5-4.2-.8-1.8-1.2-3.9-1.2-6.2s.4-4.4,1.2-6.2c.8-1.8,2-3.2,3.5-4.2,1.5-1,3.2-1.5,5.2-1.5s2.9.3,4,1c1.1.7,2,1.6,2.6,2.9h.2v-3.5h5.5v22.8c0,3.2-1,5.7-3,7.6-2,1.8-4.7,2.8-8.2,2.8ZM182.9,34.7c1.6,0,2.9-.5,3.8-1.6.9-1.1,1.4-2.5,1.4-4.3v-2.1c0-1.7-.5-3.1-1.4-4.2-.9-1.1-2.2-1.6-3.8-1.6s-3.1.6-4.2,1.9c-1,1.2-1.5,2.9-1.5,5s.5,3.8,1.5,5c1,1.2,2.4,1.8,4.2,1.8ZM200.4,39.8v-23.4h5.4v4.1h.2c.5-1.3,1.3-2.4,2.4-3.2,1.1-.8,2.4-1.2,3.9-1.2h1.9v5h-2.1c-2,0-3.5.6-4.5,1.8-1,1.2-1.5,2.8-1.5,4.9v11.9h-5.6ZM227.2,40.3c-2.2,0-4.1-.5-5.8-1.5-1.7-1-3-2.4-4-4.2-1-1.8-1.4-4-1.4-6.5s.5-4.6,1.4-6.4c1-1.8,2.3-3.2,3.9-4.2,1.7-1,3.6-1.5,5.7-1.5s3.8.5,5.4,1.4c1.6.9,2.8,2.2,3.8,3.9s1.4,3.8,1.4,6.2v2.1h-16.1c.2,1.9.8,3.4,1.8,4.5,1,1.1,2.3,1.6,3.9,1.6s2.2-.3,3-.9c.8-.6,1.3-1.3,1.6-2.3h5.8c-.3,1.6-1,3.1-1.9,4.2-1,1.2-2.2,2.1-3.6,2.7-1.4.6-3,.9-4.8.9ZM221.6,25.5h10.4c-.2-1.6-.7-2.8-1.7-3.7-.9-.9-2-1.3-3.4-1.3s-2.5.4-3.5,1.3c-.9.9-1.6,2.1-1.9,3.7ZM251.4,40.3c-2.9,0-5.3-.7-7.2-2.2-1.8-1.5-2.8-3.4-3-5.9h5.5c.2,1.2.7,2.1,1.5,2.7.9.6,2,.9,3.4.9s2.1-.2,2.7-.7c.6-.5,1-1.1,1-2,0-1.3-.9-2.1-2.6-2.5l-4.2-.9c-4.3-.9-6.4-3.1-6.4-6.4s.8-4,2.5-5.3c1.7-1.3,3.8-2,6.5-2s4.9.7,6.6,2.1c1.7,1.4,2.6,3.2,2.8,5.6h-5.5c-.2-1.1-.7-1.9-1.4-2.5-.7-.6-1.7-.9-2.8-.9s-1.9.2-2.5.7c-.6.4-.9,1-.9,1.8s.2,1.1.6,1.4c.4.4,1,.6,1.9.8l4.4.9c2.2.5,3.8,1.2,4.9,2.3,1.1,1.1,1.6,2.5,1.6,4.4s-.8,4.2-2.5,5.6c-1.6,1.3-3.9,2-6.7,2ZM274.1,40.3c-2.9,0-5.3-.7-7.2-2.2-1.8-1.5-2.8-3.4-3-5.9h5.5c.2,1.2.7,2.1,1.5,2.7.9.6,2,.9,3.4.9s2.1-.2,2.7-.7c.6-.5,1-1.1,1-2,0-1.3-.9-2.1-2.6-2.5l-4.2-.9c-4.3-.9-6.4-3.1-6.4-6.4s.8-4,2.5-5.3c1.7-1.3,3.8-2,6.5-2s4.9.7,6.6,2.1c1.7,1.4,2.6,3.2,2.8,5.6h-5.5c-.2-1.1-.7-1.9-1.4-2.5-.7-.6-1.7-.9-2.8-.9s-1.9.2-2.5.7c-.6.4-.9,1-.9,1.8s.2,1.1.6,1.4c.4.4,1,.6,1.9.8l4.4.9c2.2.5,3.8,1.2,4.9,2.3,1.1,1.1,1.6,2.5,1.6,4.4s-.8,4.2-2.5,5.6c-1.6,1.3-3.9,2-6.7,2ZM312.9,40.3c-2.9,0-5.4-.7-7.6-2-2.2-1.4-3.9-3.3-5.1-5.7s-1.8-5.3-1.8-8.5.6-6,1.8-8.5c1.2-2.5,2.9-4.4,5.1-5.7,2.2-1.4,4.8-2.1,7.6-2.1s4.4.4,6.3,1.3c1.8.9,3.4,2.1,4.6,3.8,1.2,1.6,1.9,3.5,2.2,5.7h-6c-.3-1.7-1-3-2.3-4-1.3-1-2.9-1.6-4.8-1.6s-3.3.5-4.6,1.4c-1.3.9-2.3,2.2-3.1,3.9-.7,1.6-1.1,3.6-1.1,5.8s.4,4.2,1.1,5.8c.7,1.7,1.8,2.9,3.1,3.9,1.3.9,2.9,1.4,4.6,1.4s3.5-.5,4.8-1.5c1.3-1,2-2.4,2.3-4.1h6c-.3,2.2-1,4.1-2.2,5.7-1.2,1.6-2.7,2.9-4.6,3.8-1.8.9-3.9,1.3-6.3,1.3ZM340.3,40.3c-2.2,0-4.1-.5-5.8-1.5-1.7-1-3.1-2.4-4.1-4.2-1-1.8-1.5-4-1.5-6.4s.5-4.6,1.5-6.5c1-1.8,2.4-3.2,4.1-4.2,1.7-1,3.7-1.5,5.8-1.5s4.2.5,5.9,1.5c1.7,1,3.1,2.4,4,4.2,1,1.8,1.5,4,1.5,6.5s-.5,4.6-1.5,6.5c-1,1.8-2.3,3.2-4,4.2-1.7,1-3.7,1.5-5.9,1.5ZM340.3,35.2c1.7,0,3.1-.6,4.2-1.9,1.1-1.3,1.6-3,1.6-5.2s-.5-3.9-1.6-5.2c-1-1.3-2.4-1.9-4.2-1.9s-3.1.6-4.2,1.9c-1.1,1.3-1.6,3-1.6,5.2s.5,3.9,1.6,5.2c1.1,1.3,2.5,1.9,4.2,1.9ZM356.6,39.8v-23.4h5.5v3.5h.2c.7-1.3,1.6-2.2,2.8-2.9,1.2-.7,2.6-1.1,4.2-1.1s3.2.4,4.5,1.2c1.3.8,2.3,2,3,3.4.7,1.5,1.1,3.1,1.1,5v14.1h-5.6v-13c0-1.8-.4-3.1-1.3-4.1-.9-1-2.1-1.5-3.7-1.5s-2.8.5-3.7,1.5c-.9,1-1.3,2.4-1.3,4.1v13h-5.6ZM390,39.8c-1.5,0-2.6-.4-3.5-1.2-.8-.8-1.2-2-1.2-3.5v-14.1h-3.7v-4.5h3.8v-7h5.5v7h5v4.5h-4.9v14.3h5.5v4.5h-6.4ZM400.9,39.8v-23.4h5.4v4.1h.2c.5-1.3,1.3-2.4,2.4-3.2,1.1-.8,2.4-1.2,3.9-1.2h1.9v5h-2.1c-2,0-3.5.6-4.5,1.8-1,1.2-1.5,2.8-1.5,4.9v11.9h-5.6ZM427.8,40.3c-2.2,0-4.1-.5-5.8-1.5-1.7-1-3.1-2.4-4.1-4.2-1-1.8-1.5-4-1.5-6.4s.5-4.6,1.5-6.5c1-1.8,2.4-3.2,4.1-4.2,1.7-1,3.7-1.5,5.8-1.5s4.2.5,5.9,1.5c1.7,1,3.1,2.4,4,4.2,1,1.8,1.5,4,1.5,6.5s-.5,4.6-1.5,6.5c-1,1.8-2.3,3.2-4.1,4.2-1.7,1-3.7,1.5-5.9,1.5ZM427.8,35.2c1.7,0,3.1-.6,4.2-1.9,1.1-1.3,1.6-3,1.6-5.2s-.5-3.9-1.6-5.2c-1-1.3-2.4-1.9-4.2-1.9s-3.1.6-4.2,1.9c-1.1,1.3-1.6,3-1.6,5.2s.5,3.9,1.6,5.2c1.1,1.3,2.5,1.9,4.2,1.9ZM444.2,39.8V7.1h5.6v32.7h-5.6ZM456.2,39.8V7.1h5.6v32.7h-5.6ZM478.2,40.3c-2.2,0-4.1-.5-5.8-1.5-1.7-1-3-2.4-4-4.2-1-1.8-1.4-4-1.4-6.5s.5-4.6,1.4-6.4c1-1.8,2.3-3.2,3.9-4.2,1.7-1,3.6-1.5,5.7-1.5s3.8.5,5.4,1.4c1.6.9,2.8,2.2,3.8,3.9s1.4,3.8,1.4,6.2v2.1h-16.1c.2,1.9.8,3.4,1.8,4.5,1,1.1,2.3,1.6,3.9,1.6s2.2-.3,3-.9c.8-.6,1.3-1.3,1.6-2.3h5.8c-.3,1.6-1,3.1-1.9,4.2-1,1.2-2.2,2.1-3.6,2.7-1.4.6-3,.9-4.8.9ZM472.5,25.5h10.4c-.2-1.6-.7-2.8-1.7-3.7-.9-.9-2-1.3-3.4-1.3s-2.5.4-3.5,1.3c-.9.9-1.6,2.1-1.9,3.7ZM493.9,39.8v-23.4h5.4v4.1h.2c.5-1.3,1.3-2.4,2.4-3.2,1.1-.8,2.4-1.2,3.9-1.2h1.9v5h-2.1c-2,0-3.5.6-4.5,1.8-1,1.2-1.5,2.8-1.5,4.9v11.9h-5.6Z"/>
</svg>