<?xml version="1.0" encoding="UTF-8"?>
<svg id="artboard_1" xmlns="http://www.w3.org/2000/svg" version="1.1" viewBox="0 0 326.1 56.7">
  <!-- Generator: Adobe Illustrator 30.1.0, SVG Export Plug-In . SVG Version: 2.1.1 Build 136)  -->
  <defs>
    <style>
      .st0, .st1 {
        fill: #b7bdb5;
      }

      .st1 {
        fill-rule: evenodd;
      }
    </style>
  </defs>
  <path class="st1" d="M100.2,33.1h8.9v-13.8h-8.9v13.8ZM109.1,13.9h6.8v25.6c0,4.2-.4,5-1.6,6.1-.9.9-2.3,1.4-4.8,1.4h-10l-3.1-3.4v-1.4h12.6v-3.5h-8.6c-2.6,0-3.9-.5-5-1.6-1.4-1.5-2-4.7-2-10.7s.7-9.4,2.2-10.9c1.1-1.1,2.5-1.5,5-1.5h5.1s3.4,3.1,3.4,3.1v-3.1ZM28.6,7.1h8l-11.6,14.8,12.1,16.7h-8.5l-9.2-13.1h-2.2v13.1h-7.3V7.1h7.3v12.2h2.2l9.2-12.2ZM81.6,21.6v-2.3h-8.3v19h-6.8V13.9h6.8v3.1l3.4-3.1h2c.3,0,.6,0,1,0h2.9c2.1,0,3.4.4,4.3,1.4,1,1,1.4,2.3,1.4,5.9v17.3h-6.8v-16.5c0,0,0-.2,0-.3ZM45.9,33h8.9v-13.8h-8.9v13.8ZM46.2,38.4c-2.5,0-3.8-.4-4.8-1.5-1.6-1.6-2.2-3.8-2.2-10.8s.6-9.1,2.2-10.8c1-1.1,2.4-1.5,4.8-1.5h8.2c2.5,0,3.8.4,4.8,1.5,1.6,1.7,2.2,3.8,2.2,10.8s-.6,9.1-2.2,10.8c-1.1,1.1-2.4,1.5-4.8,1.5h-8.2Z"/>
  <path class="st0" d="M133.5,39.7V7.9h7.9l8.7,23.5h.2l8.7-23.5h7.9v31.8h-5.8V16h-.2l-8.5,23.7h-4.9l-8.4-23.8h-.2v23.8h-5.5ZM180.3,40.1c-2.4,0-4.3-.7-5.8-2-1.4-1.3-2.2-3.1-2.2-5.3s.8-4,2.3-5.3c1.5-1.3,3.7-1.9,6.5-1.9h6.1v-1c0-1.4-.4-2.4-1.2-3.2-.8-.8-1.8-1.1-3.2-1.1s-2.1.3-2.9.8c-.8.5-1.3,1.3-1.5,2.3h-5.8c.4-2.5,1.6-4.4,3.3-5.7,1.8-1.4,4-2,6.8-2s5.5.8,7.2,2.4c1.7,1.6,2.6,3.9,2.6,6.8v14.9h-5.3v-3.5h-.2c-.6,1.3-1.5,2.2-2.8,2.9-1.2.7-2.5,1-4.1,1ZM181.5,35.6c1.1,0,2-.2,2.9-.7.9-.5,1.5-1.1,2-1.9.5-.8.7-1.8.7-2.8v-.5h-5.8c-1.2,0-2.1.3-2.7.8-.6.5-.9,1.2-.9,2.2s.3,1.7,1,2.2c.7.5,1.6.8,2.8.8ZM198.7,39.7v-23.6h5.5v3.6h.2c.7-1.3,1.6-2.3,2.8-2.9,1.2-.7,2.6-1.1,4.2-1.1s3.2.4,4.5,1.3c1.3.8,2.3,2,3.1,3.5.7,1.5,1.1,3.2,1.1,5.1v14.2h-5.7v-13.1c0-1.8-.4-3.2-1.3-4.2-.9-1-2.1-1.5-3.7-1.5s-2.8.5-3.7,1.5c-.9,1-1.3,2.4-1.3,4.2v13.1h-5.7ZM232.7,40.1c-2.4,0-4.3-.7-5.8-2-1.4-1.3-2.2-3.1-2.2-5.3s.8-4,2.3-5.3c1.5-1.3,3.7-1.9,6.5-1.9h6.1v-1c0-1.4-.4-2.4-1.2-3.2-.8-.8-1.8-1.1-3.2-1.1s-2.1.3-2.9.8c-.8.5-1.3,1.3-1.5,2.3h-5.8c.4-2.5,1.6-4.4,3.3-5.7,1.8-1.4,4-2,6.8-2s5.5.8,7.2,2.4c1.7,1.6,2.6,3.9,2.6,6.8v14.9h-5.3v-3.5h-.2c-.6,1.3-1.5,2.2-2.8,2.9-1.2.7-2.5,1-4.1,1ZM234,35.6c1.1,0,2-.2,2.9-.7.9-.5,1.5-1.1,2-1.9.5-.8.7-1.8.7-2.8v-.5h-5.8c-1.2,0-2.1.3-2.7.8-.6.5-.9,1.2-.9,2.2s.3,1.7,1,2.2c.7.5,1.6.8,2.8.8ZM261.2,49.6c-3.1,0-5.6-.7-7.7-2.2-2-1.4-3.2-3.4-3.6-5.8h6c.3,1,.8,1.8,1.7,2.4.9.6,2,.9,3.4.9s3.2-.5,4.2-1.6c1-1,1.6-2.5,1.6-4.2v-3.4h-.2c-.7,1.3-1.6,2.3-2.7,3-1.1.7-2.5,1-4,1s-3.7-.5-5.2-1.5c-1.5-1-2.7-2.4-3.5-4.2-.8-1.8-1.3-3.9-1.3-6.2s.4-4.5,1.3-6.2c.8-1.8,2-3.2,3.5-4.2,1.5-1,3.3-1.5,5.2-1.5s2.9.3,4,1c1.2.7,2,1.7,2.6,2.9h.2v-3.5h5.5v23c0,3.2-1,5.8-3,7.7-2,1.9-4.7,2.8-8.3,2.8ZM261.5,34.6c1.6,0,2.9-.5,3.8-1.6.9-1.1,1.4-2.5,1.4-4.3v-2.1c0-1.8-.5-3.2-1.4-4.2-.9-1.1-2.2-1.6-3.8-1.6s-3.2.6-4.2,1.9c-1,1.2-1.5,2.9-1.5,5s.5,3.8,1.5,5.1c1,1.2,2.4,1.8,4.2,1.8ZM288.8,40.2c-2.2,0-4.2-.5-5.9-1.5-1.7-1-3.1-2.4-4-4.3-1-1.9-1.5-4-1.5-6.6s.5-4.6,1.4-6.4c1-1.8,2.3-3.2,4-4.2,1.7-1,3.6-1.5,5.8-1.5s3.9.5,5.5,1.4c1.6.9,2.9,2.2,3.8,3.9.9,1.7,1.4,3.8,1.4,6.2v2.1h-16.3c.2,1.9.8,3.5,1.8,4.6,1,1.1,2.4,1.6,3.9,1.6s2.2-.3,3-.9c.8-.6,1.4-1.4,1.7-2.4h5.8c-.3,1.7-1,3.1-2,4.3-1,1.2-2.2,2.1-3.7,2.7-1.4.6-3,.9-4.8.9ZM283.2,25.3h10.5c-.2-1.6-.7-2.9-1.7-3.7-.9-.9-2.1-1.3-3.4-1.3s-2.5.4-3.5,1.3c-.9.9-1.6,2.1-1.9,3.7ZM304.7,39.7v-23.6h5.5v4.2h.2c.5-1.3,1.3-2.4,2.4-3.2,1.1-.8,2.4-1.2,4-1.2h1.9v5h-2.2c-2,0-3.6.6-4.6,1.8-1,1.2-1.5,2.9-1.5,4.9v12h-5.7Z"/>
</svg>