<svg height="200px" width="200px" version="1.1" id="Layer_1" xmlns="http://www.w3.org/2000/svg" xmlns:xlink="http://www.w3.org/1999/xlink" viewBox="0 0 511.999 511.999" xml:space="preserve" fill="#000000"><g id="SVGRepo_bgCarrier" stroke-width="0"></g><g id="SVGRepo_tracerCarrier" stroke-linecap="round" stroke-linejoin="round"></g><g id="SVGRepo_iconCarrier"> <polygon style="fill:#9783fd;" points="27.96,164.583 27.96,160.534 172.264,14.827 172.264,164.583 "></polygon> <g> <path style="fill:#762ff9;" d="M459.182,264.152c-5.593-5.981-14.975-6.295-20.956-0.703c-5.981,5.593-6.295,14.976-0.703,20.956 c20.435,21.854,31.69,50.379,31.69,80.317c0,64.859-52.766,117.623-117.623,117.623c-64.859,0-117.625-52.766-117.625-117.623 s52.766-117.623,117.625-117.623c8.187,0,14.827-6.638,14.827-14.827c0-8.189-6.639-14.827-14.827-14.827 c-81.209,0-147.278,66.068-147.278,147.276c0,14.953,2.246,29.389,6.41,42.997H42.786v-167.54c0-8.189-6.639-14.827-14.827-14.827 s-14.827,6.638-14.827,14.827v182.366c0,8.189,6.639,14.827,14.827,14.827h195.557c25.359,44.53,73.265,74.626,128.073,74.626 c81.208,0,147.276-66.068,147.276-147.276C498.867,327.236,484.773,291.519,459.182,264.152z"></path> <path style="fill:#762ff9;" d="M394.598,0H172.264c-0.179,0-0.356,0.021-0.534,0.027c-0.171,0.006-0.34,0.013-0.509,0.025 c-0.639,0.044-1.272,0.117-1.895,0.243c-0.016,0.003-0.033,0.009-0.049,0.012c-0.612,0.126-1.211,0.302-1.8,0.503 c-0.157,0.053-0.311,0.11-0.466,0.168c-0.58,0.219-1.149,0.464-1.698,0.755c-0.022,0.012-0.044,0.019-0.067,0.031 c-0.566,0.304-1.105,0.658-1.629,1.036c-0.133,0.096-0.265,0.194-0.397,0.297c-0.52,0.4-1.025,0.824-1.493,1.297L17.424,150.099 c-0.348,0.351-0.676,0.721-0.986,1.102c-0.2,0.246-0.375,0.503-0.556,0.758c-0.098,0.138-0.206,0.27-0.299,0.412 c-0.211,0.319-0.396,0.646-0.58,0.977c-0.049,0.089-0.107,0.173-0.154,0.264c-0.181,0.341-0.338,0.691-0.489,1.042 c-0.039,0.089-0.085,0.175-0.122,0.264c-0.138,0.335-0.252,0.678-0.363,1.02c-0.037,0.116-0.085,0.228-0.119,0.345 c-0.093,0.316-0.166,0.636-0.239,0.956c-0.034,0.151-0.079,0.299-0.108,0.452c-0.058,0.297-0.093,0.596-0.133,0.896 c-0.024,0.179-0.058,0.357-0.074,0.537c-0.028,0.297-0.034,0.595-0.044,0.893c-0.006,0.172-0.025,0.342-0.025,0.516v4.051 c0,8.189,6.639,14.827,14.827,14.827h144.304c8.187,0,14.827-6.638,14.827-14.827V29.653H379.77v143.315 c0,8.189,6.639,14.827,14.827,14.827s14.827-6.638,14.827-14.827V14.827C409.424,6.638,402.786,0,394.598,0z M59.499,149.757 l0.755-0.762l97.183-98.128v98.89H59.499z"></path> </g> <path style="fill:#9783fd;" d="M384.866,393.413l50.281-50.281l-32.644-32.644l-50.281,50.281l-33.925-33.925l-32.644,32.644 l54.45,54.45c6.693,6.693,17.544,6.693,24.237,0L384.866,393.413z"></path> <path style="fill:#762ff9;" d="M352.222,433.786c-8.539,0-16.564-3.326-22.602-9.361l-54.452-54.452 c-2.78-2.78-4.343-6.552-4.343-10.484s1.563-7.704,4.343-10.484l32.645-32.644c5.793-5.79,15.178-5.788,20.969,0l23.441,23.441 l39.797-39.797c5.791-5.788,15.176-5.79,20.969,0l32.645,32.644c2.78,2.78,4.343,6.552,4.343,10.484s-1.563,7.704-4.343,10.484 l-70.807,70.807C368.786,430.46,360.761,433.786,352.222,433.786z M306.621,359.488l43.965,43.967 c0.559,0.559,1.198,0.678,1.635,0.678s1.076-0.119,1.637-0.678l60.322-60.323l-11.676-11.676l-39.797,39.797 c-2.781,2.78-6.552,4.343-10.484,4.343c-3.932,0-7.702-1.563-10.484-4.343l-23.441-23.441L306.621,359.488z"></path> </g></svg>