<svg fill="none" height="32" viewBox="0 0 32 32" width="32" xmlns="http://www.w3.org/2000/svg" xmlns:xlink="http://www.w3.org/1999/xlink"><clipPath id="a"><path d="m0 0h32v32h-32z"/></clipPath><g clip-path="url(#a)"><path d="m5.33333 16c0-1.4733-1.19333-2.6667-2.66666-2.6667-1.47334 0-2.66667 1.1934-2.66667 2.6667s1.19333 2.6667 2.66667 2.6667c1.47333 0 2.66666-1.1934 2.66666-2.6667zm23.99997-2.6667c-1.4733 0-2.6666 1.1934-2.6666 2.6667s1.1933 2.6667 2.6666 2.6667c1.4734 0 2.6667-1.1934 2.6667-2.6667s-1.1933-2.6667-2.6667-2.6667zm-13.3333-7.99997c1.4733 0 2.6667-1.19333 2.6667-2.66666 0-1.47334-1.1934-2.66667-2.6667-2.66667s-2.6667 1.19333-2.6667 2.66667c0 1.47333 1.1934 2.66666 2.6667 2.66666zm0 21.33337c-1.4733 0-2.6667 1.1933-2.6667 2.6666 0 1.4734 1.1934 2.6667 2.6667 2.6667s2.6667-1.1933 2.6667-2.6667c0-1.4733-1.1934-2.6666-2.6667-2.6666z" fill="#9783fd"/><path d="m13.3333 13.3333h5.3334v5.3334h-5.3334z" fill="#9783fd"/><g fill="#4000ff"><path d="m8.45743 8.45727c-.52.52134-1.20267.78134-1.88534.78134-.68266 0-1.36533-.26-1.88533-.78134-1.04133-1.04133-1.04133-2.72933 0-3.77066.52-.52134 1.20267-.78134 1.88533-.78134.68267 0 1.36534.26 1.88534.78134 1.04133 1.04133 1.04133 2.72933 0 3.77066z"/><path d="m27.3134 8.45727c-.52.52134-1.2026.78134-1.8853.78134s-1.3653-.26-1.8853-.78134c-1.0414-1.04133-1.0414-2.72933 0-3.77066.52-.52134 1.2026-.78134 1.8853-.78134s1.364.26 1.8853.78134c1.0414 1.04133 1.0414 2.72933 0 3.77066z"/><path d="m23.5428 23.5426c.52-.5213 1.2026-.7813 1.8853-.7813s1.3653.26 1.8853.7813c1.0414 1.0413 1.0414 2.7293 0 3.7707-.52.5213-1.2026.7813-1.8853.7813s-1.364-.26-1.8853-.7813c-1.0414-1.0414-1.0414-2.7294 0-3.7707z"/><path d="m4.68676 23.5426c.52-.5213 1.20267-.7813 1.88533-.7813.68267 0 1.36534.26 1.88534.7813 1.04133 1.0413 1.04133 2.7293 0 3.7707-.52.5213-1.20267.7813-1.88534.7813-.68266 0-1.36399-.26-1.88533-.7813-1.04133-1.0414-1.04133-2.7294 0-3.7707z"/></g></g></svg>