<svg fill="none" height="32" viewBox="0 0 32 32" width="32" xmlns="http://www.w3.org/2000/svg"><g stroke="#9783fd" stroke-linecap="round" stroke-linejoin="round" stroke-miterlimit="10" stroke-width="2"><path d="m1.3335 17.3335h6.66666"/><path d="m24 17.3335h6.6667"/><path d="m12 10.4054v-3.73865c0-2.20934 1.7907-4 4-4s4 1.79066 4 4l-.0013 3.73865"/><path d="m2.66699 6.66675c1.364 3.03466 4.2 5.06665 7.42271 5.28935"/><path d="m21.9106 11.9561c3.2227-.2227 6.0587-2.25469 7.4227-5.28935"/><path d="m29.3334 29.3334c-1.1453-2.548-3.3306-4.3853-5.9066-5.048"/><path d="m8.57366 24.2854c-2.576.6627-4.76133 2.5-5.90667 5.048"/><path d="m16 9.3335c-4.4187 0-8 3.5813-8 8v4c0 2.9307 1.58 5.484 3.9293 6.8787l4.0707-6.8787 4.0707 6.8787c2.3493-1.3947 3.9293-3.948 3.9293-6.8787v-4c0-4.4187-3.5813-8-8-8z" fill="#4000ff"/><path d="m16 21.3335v-12"/></g></svg>