<svg fill="none" height="32" viewBox="0 0 32 32" width="32" xmlns="http://www.w3.org/2000/svg"><g clip-rule="evenodd" fill-rule="evenodd"><path d="m6.66683 2.33325c-2.39323 0-4.33333 1.9401-4.33333 4.33334v18.66671c0 2.3932 1.9401 4.3333 4.33333 4.3333h18.66667c2.3932 0 4.3333-1.9401 4.3333-4.3333v-18.66671c0-2.39324-1.9401-4.33334-4.3333-4.33334zm-6.333334 4.33334c0-3.49781 2.835534-6.333338 6.333334-6.333338h18.66667c3.4978 0 6.3333 2.835528 6.3333 6.333338v18.66671c0 3.4978-2.8355 6.3333-6.3333 6.3333h-18.66667c-3.4978 0-6.333334-2.8355-6.333334-6.3333z" fill="#9783fd"/><path d="m6.66683 6.33325c-.1841 0-.33333.14924-.33333.33334v18.66671c0 .184.14923.3333.33333.3333h18.66667c.1841 0 .3333-.1493.3333-.3333v-18.66671c0-.1841-.1492-.33334-.3333-.33334zm-2.33333.33334c0-1.28867 1.04467-2.33334 2.33333-2.33334h18.66667c1.2887 0 2.3333 1.04467 2.3333 2.33334v18.66671c0 1.2886-1.0446 2.3333-2.3333 2.3333h-18.66667c-1.28866 0-2.33333-1.0447-2.33333-2.3333z" fill="#4000ff"/><path d="m21.2216 11.1681c.4596.3063.5837.9272.2774 1.3867l-5.3333 8c-.3064.4595-.9273.5837-1.3868.2774l-4-2.6667c-.4595-.3064-.5837-.9272-.2773-1.3868.3063-.4595.9272-.5837 1.3867-.2773l3.168 2.112 4.7786-7.168c.3063-.4595.9272-.5837 1.3867-.2773z" fill="#9783fd"/></g></svg>