<svg viewBox="0 0 64 64" id="Layer_1" version="1.1" xml:space="preserve" xmlns="http://www.w3.org/2000/svg" xmlns:xlink="http://www.w3.org/1999/xlink" fill="#000000">
  <g>
    <style type="text/css">
      .st0{fill:none;stroke:#9783fd;stroke-width:2;stroke-linecap:round;stroke-linejoin:round;stroke-miterlimit:10;}
      .st1{fill:none;stroke:#9783fd;stroke-width:2;stroke-linecap:round;stroke-linejoin:round;stroke-miterlimit:10;}
    </style>
    <path class="st0" d="M46,40H32c-1.7,0-3,1.4-3,3v3.5c0,3-2.3,5.4-5.3,5.5C20,52,18,50,18,46V12h22c3.3,0,6,2.7,6,6v18.3"></path>
    <path class="st0" d="M14,28c-1.7,0-2-1.5-2-3.4v-5.7c0-3.8,2.7-6.9,6-6.9v16"></path>
    <path class="st0" d="M49,40c1.6,0,3,1.3,3,3v3.9c0,2.8-2.7,5.1-6,5.1H24c-0.1,0-0.2,0-0.3,0c2.9-0.1,5.3-2.2,5.3-4.7V43 c0-1.6,1.3-3,3-3H49z"></path>
    <rect class="st1" height="8" width="10" x="27" y="25"></rect>
    <path class="st1" d="M35,25h-6v-2c0-1.7,1.3-3,3-3h0c1.7,0,3,1.3,3,3V25z"></path>
    <line class="st1" x1="32" x2="32" y1="29" y2="29"></line>
  </g>
</svg>

