<svg fill="none" height="32" viewBox="0 0 32 32" width="32" xmlns="http://www.w3.org/2000/svg"><path clip-rule="evenodd" d="m9.33854.333252c.55229 0 .99996.447716.99996.999998v2.99903h2.999c.5523 0 1 .44771 1 1 0 .55228-.4477 1-1 1h-2.999v2.99915c0 .55229-.44767.99997-.99996.99997-.55228 0-1-.44768-1-.99997v-2.99915h-2.99919c-.55228 0-.99999-.44772-.99999-1 0-.55229.44771-1 .99999-1h2.99919v-2.99903c0-.552282.44772-.999998 1-.999998zm18.66216.000081c.5522 0 1 .447716 1 .999997v1.66602h1.6671c.5523 0 1 .44771 1 1 0 .55228-.4477 1-1 1h-1.6671v1.66732c0 .55228-.4478 1-1 1-.5523 0-1-.44772-1-1v-1.66732h-1.6662c-.5523 0-1-.44772-1-1 0-.55229.4477-1 1-1h1.6662v-1.66602c0-.552281.4477-.999997 1-.999997zm-.3331 18.329467c0-.5522-.4477-1-1-1-.5522 0-1 .4478-1 1v2.9991h-2.9991c-.5523 0-1 .4477-1 1 0 .5522.4477 1 1 1h2.9991v2.9991c0 .5523.4478 1 1 1 .5523 0 1-.4477 1-1v-2.9991h2.999c.5523 0 1-.4478 1-1 0-.5523-.4477-1-1-1h-2.999zm-6.4835-7.8557c-.6324-.6406-1.6753-.6472-2.3271.0046l-3.0787 3.0787 2.3316 2.3316 3.0787-3.0787.0046-.0045c.6406-.6324.6472-1.6753-.0046-2.3271l-.0046-.0045zm1.421-1.40732c-1.4207-1.43662-3.7353-1.42926-5.1623-.00228l-3.7683 3.7683c-.006.0057-.0119.0115-.0177.0173l-12.24848 12.2485c-1.4356795 1.4199-1.429046 3.7327-.00441 5.1598 1.42068 1.4366 3.73533 1.4293 5.16233.0023l12.23316-12.2332c.006-.0057.0118-.0114.0176-.0172l3.7837-3.7837c1.4357-1.4199 1.429-3.7327.0044-5.15982zm-19.78467 17.44812 11.54347-11.5435 2.3316 2.3316-11.54348 11.5435c-.65177.6518-1.69466.6451-2.32705.0046l.00002-.0001-.00456-.0045c-.65178-.6518-.64518-1.6947-.00458-2.3271z" fill="#9783fd" fill-rule="evenodd"/></svg>