<svg width="48" height="48" viewBox="0 0 48 48" fill="none" xmlns="http://www.w3.org/2000/svg">
<rect x="0.5" y="0.5" width="47" height="47" rx="9.5" fill="white" stroke="url(#paint0_linear_2845_9403)"/>
<g clip-path="url(#clip0_2845_9403)">
<path fill-rule="evenodd" clip-rule="evenodd" d="M27.0908 22.1617C27.6606 20.9461 29.3392 20.9461 29.909 22.1617L29.9099 22.1637L31.2789 25.1075L34.493 25.5986C34.493 25.5986 34.4929 25.5986 34.493 25.5986C35.7417 25.7892 36.1337 27.3378 35.3163 28.1742C35.2932 28.1978 35.2687 28.2198 35.243 28.2399L32.9663 30.6042L33.5008 33.8836C33.5998 34.5138 33.3371 35.0917 32.8957 35.4339C32.4489 35.7804 31.8053 35.89 31.2184 35.5672L31.214 35.5647L28.5049 34.0508L25.7913 35.5672C25.2044 35.89 24.5609 35.7804 24.114 35.4339C23.6726 35.0917 23.4099 34.5138 23.509 33.8836L23.5093 33.8813L24.034 30.6067L21.6776 28.1782C20.8736 27.3368 21.253 25.8009 22.5054 25.6088C22.5059 25.6087 22.5063 25.6086 22.5068 25.6086L25.7203 25.1087L27.0898 22.1637L27.0908 22.1617ZM26.1005 25.0496C26.1377 25.0435 26.1776 25.04 26.2199 25.04C26.1813 25.04 26.1427 25.043 26.1046 25.0489L26.1005 25.0496ZM26.2399 25.77C26.9107 26.1054 26.9106 26.1055 26.9106 26.1057L26.9096 26.1075L26.9085 26.1098L26.9061 26.1145L26.9005 26.125C26.8966 26.1325 26.8917 26.1412 26.886 26.151C26.8755 26.169 26.858 26.1975 26.8336 26.23C26.8125 26.2582 26.767 26.3156 26.6957 26.3725C26.6435 26.4143 26.5132 26.5079 26.3199 26.5335L22.7551 27.088C22.7548 27.0888 22.7545 27.0897 22.7542 27.0906C22.7503 27.1034 22.7503 27.1157 22.752 27.124C22.7527 27.1276 22.7538 27.1301 22.7548 27.1322C22.7557 27.1339 22.7574 27.1368 22.7612 27.1409L25.3681 29.8277C25.4216 29.8829 25.4663 29.9459 25.5007 30.0146L24.8299 30.35C25.5007 30.0146 25.5006 30.0144 25.5007 30.0146L25.5015 30.0162L25.5023 30.0178L25.5039 30.0211L25.5073 30.0282L25.5147 30.0441C25.5197 30.0553 25.5254 30.0687 25.5313 30.084C25.5422 30.1124 25.5577 30.1574 25.5691 30.2142C25.5762 30.25 25.6029 30.391 25.5606 30.5601L24.9908 34.1164C24.9907 34.1167 24.9908 34.1162 24.9908 34.1164C24.9849 34.1549 24.9905 34.1824 24.9981 34.2011C25.0066 34.222 25.0199 34.2382 25.0332 34.2486C25.0441 34.257 25.0515 34.259 25.0533 34.2593C25.0554 34.2589 25.0598 34.2575 25.0672 34.2535L28.124 32.5453C28.2358 32.4828 28.3618 32.45 28.4899 32.45H28.5198C28.6478 32.45 28.7739 32.4828 28.8857 32.5453L31.9426 34.2535C31.9499 34.2575 31.9543 34.2589 31.9565 34.2593C31.9583 34.259 31.9657 34.257 31.9765 34.2486C31.9899 34.2382 32.0031 34.222 32.0117 34.2011C32.0192 34.1825 32.0249 34.1559 32.0192 34.1178C32.0191 34.1173 32.019 34.1169 32.019 34.1164L31.4296 30.5006C31.4231 30.4608 31.4199 30.4204 31.4199 30.38V30.3502C31.4199 30.1562 31.4951 29.9695 31.6296 29.8298L34.2296 27.1298C34.2359 27.1233 34.2423 27.1169 34.2488 27.1106C34.2492 27.1035 34.2485 27.0938 34.2452 27.0834C34.2446 27.0813 34.244 27.0795 34.2433 27.0778L30.6797 26.5334C30.6713 26.5323 30.6625 26.531 30.6535 26.5295C30.6025 26.521 30.523 26.5026 30.4345 26.4583C30.343 26.4126 30.2287 26.3322 30.139 26.1976C30.105 26.1467 30.0787 26.0941 30.0589 26.0412L28.5508 22.7983C28.5507 22.7981 28.5509 22.7986 28.5508 22.7983C28.5359 22.7668 28.522 22.7573 28.5188 22.7553C28.5134 22.7519 28.5071 22.75 28.4999 22.75C28.4927 22.75 28.4864 22.7519 28.481 22.7553C28.4778 22.7573 28.4642 22.7661 28.4493 22.7976C28.4492 22.7979 28.4494 22.7974 28.4493 22.7976L26.9199 26.0863C26.9169 26.0927 26.9137 26.0993 26.9106 26.1057L26.2399 25.77Z" fill="black"/>
<path fill-rule="evenodd" clip-rule="evenodd" d="M12.4697 12.4697C12.7626 12.1768 13.2374 12.1768 13.5303 12.4697L22.5303 21.4697C22.8232 21.7626 22.8232 22.2374 22.5303 22.5303C22.2374 22.8232 21.7626 22.8232 21.4697 22.5303L12.4697 13.5303C12.1768 13.2374 12.1768 12.7626 12.4697 12.4697Z" fill="black"/>
<path fill-rule="evenodd" clip-rule="evenodd" d="M19.4697 12.4697C19.7626 12.1768 20.2374 12.1768 20.5303 12.4697L25.5303 17.4697C25.8232 17.7626 25.8232 18.2374 25.5303 18.5303C25.2374 18.8232 24.7626 18.8232 24.4697 18.5303L19.4697 13.5303C19.1768 13.2374 19.1768 12.7626 19.4697 12.4697Z" fill="black"/>
<path fill-rule="evenodd" clip-rule="evenodd" d="M12.4697 19.4697C12.7626 19.1768 13.2374 19.1768 13.5303 19.4697L18.5303 24.4697C18.8232 24.7626 18.8232 25.2374 18.5303 25.5303C18.2374 25.8232 17.7626 25.8232 17.4697 25.5303L12.4697 20.5303C12.1768 20.2374 12.1768 19.7626 12.4697 19.4697Z" fill="black"/>
</g>
<defs>
<linearGradient id="paint0_linear_2845_9403" x1="48.1406" y1="-0.0377211" x2="0.160027" y2="47.9428" gradientUnits="userSpaceOnUse">
<stop offset="0.0860081" stop-color="#E9EEF7"/>
<stop offset="0.359305" stop-color="#FF6161"/>
<stop offset="0.671149" stop-color="#5F43E9"/>
<stop offset="0.922071" stop-color="#E9EEF7"/>
</linearGradient>
<clipPath id="clip0_2845_9403">
<rect width="24" height="24" fill="white" transform="translate(12 12)"/>
</clipPath>
</defs>
</svg>
