<svg width="48" height="48" fill="none" xmlns="http://www.w3.org/2000/svg"><rect x=".5" y=".5" width="47" height="47" rx="9.5" fill="#fff" stroke="url(#a)"/><g clip-path="url(#b)" fill-rule="evenodd" clip-rule="evenodd" fill="#000"><path d="M35.005 31.068a.75.75 0 0 1-.454.958l-10.3 3.68a.75.75 0 0 1-.505 0l-10.3-3.68a.75.75 0 1 1 .505-1.412l10.047 3.59 10.048-3.59a.75.75 0 0 1 .959.454ZM23.704 12.31a.75.75 0 0 1 .588 0l10.364 4.411c1.501.649 1.44 2.786-.106 3.336l-10.301 3.65a.75.75 0 0 1-.501 0l-10.3-3.65c-1.537-.546-1.62-2.698-.102-3.338h.002l10.356-4.41Zm.294 1.505L13.93 18.101a.29.29 0 0 0 .02.542L24 22.204l10.048-3.56a.29.29 0 0 0 .015-.545h-.001l-10.063-4.284ZM12.991 25.11a.75.75 0 0 1 .957-.457l10.05 3.552 10.05-3.552a.75.75 0 1 1 .5 1.414l-10.3 3.64a.75.75 0 0 1-.5 0l-10.3-3.64a.75.75 0 0 1-.457-.957Z"/></g><defs><linearGradient id="a" x1="1.2" y1="1.165" x2="44.63" y2="50.443" gradientUnits="userSpaceOnUse"><stop offset=".05" stop-color="#E9EEF7"/><stop offset=".359" stop-color="#FF6F81"/><stop offset=".651" stop-color="#917BF9"/><stop offset=".895" stop-color="#E9EEF7"/></linearGradient><clipPath id="b"><path fill="#fff" transform="translate(12 12)" d="M0 0h24v24H0z"/></clipPath></defs></svg>