<svg width="48" height="48" viewBox="0 0 48 48" fill="none" xmlns="http://www.w3.org/2000/svg">
<rect x="0.5" y="0.5" width="47" height="47" rx="9.5" fill="white" stroke="url(#paint0_linear_527_2242)"/>
<g clip-path="url(#clip0_527_2242)">
<path fill-rule="evenodd" clip-rule="evenodd" d="M35.75 23C35.75 22.5858 35.4142 22.25 35 22.25C34.5858 22.25 34.25 22.5858 34.25 23V24C34.25 26.8958 31.8958 29.25 29 29.25H17.8107L21.5303 25.5303C21.8232 25.2374 21.8232 24.7626 21.5303 24.4697C21.2374 24.1768 20.7626 24.1768 20.4697 24.4697L15.4697 29.4697C15.3978 29.5416 15.3435 29.6245 15.3069 29.7129C15.2702 29.8013 15.25 29.8983 15.25 30C15.25 30.1017 15.2702 30.1987 15.3069 30.2871C15.3435 30.3755 15.3978 30.4584 15.4697 30.5303L20.4697 35.5303C20.7626 35.8232 21.2374 35.8232 21.5303 35.5303C21.8232 35.2374 21.8232 34.7626 21.5303 34.4697L17.8107 30.75H29C32.7242 30.75 35.75 27.7242 35.75 24V23Z" fill="black"/>
<path fill-rule="evenodd" clip-rule="evenodd" d="M27.5303 12.4697C27.2374 12.1768 26.7626 12.1768 26.4697 12.4697C26.1768 12.7626 26.1768 13.2374 26.4697 13.5303L30.1893 17.25H19C15.2758 17.25 12.25 20.2758 12.25 24V25C12.25 25.4142 12.5858 25.75 13 25.75C13.4142 25.75 13.75 25.4142 13.75 25V24C13.75 21.1042 16.1042 18.75 19 18.75H30.1893L26.4697 22.4697C26.1768 22.7626 26.1768 23.2374 26.4697 23.5303C26.7626 23.8232 27.2374 23.8232 27.5303 23.5303L32.5303 18.5303C32.6768 18.3839 32.75 18.1919 32.75 18C32.75 17.8983 32.7298 17.8013 32.6931 17.7129C32.6565 17.6245 32.6022 17.5416 32.5303 17.4697L27.5303 12.4697Z" fill="black"/>
</g>
<defs>
<linearGradient id="paint0_linear_527_2242" x1="48.1406" y1="-0.0377211" x2="0.160027" y2="47.9428" gradientUnits="userSpaceOnUse">
<stop offset="0.0860081" stop-color="#E9EEF7"/>
<stop offset="0.359305" stop-color="#FF6161"/>
<stop offset="0.671149" stop-color="#5F43E9"/>
<stop offset="0.922071" stop-color="#E9EEF7"/>
</linearGradient>
<clipPath id="clip0_527_2242">
<rect width="24" height="24" fill="white" transform="translate(12 12)"/>
</clipPath>
</defs>
</svg>
