<svg width="48" height="48" viewBox="0 0 48 48" fill="none" xmlns="http://www.w3.org/2000/svg">
<rect x="0.5" y="0.5" width="47" height="47" rx="9.5" fill="white" stroke="url(#paint0_linear_374_2895)"/>
<path fill-rule="evenodd" clip-rule="evenodd" d="M16.2715 22.4181C16.5691 18.4097 19.9155 15.25 24 15.25C28.0845 15.25 31.431 18.4097 31.7285 22.4181C34.0284 22.9702 35.75 25.0203 35.75 27.5C35.75 30.3992 33.3992 32.75 30.5 32.75H17.5C14.6008 32.75 12.25 30.3992 12.25 27.5C12.25 25.0203 13.9716 22.9702 16.2715 22.4181ZM17.75 22.9815C17.7505 22.9875 17.7511 22.9961 17.7517 23.006C17.7751 23.4042 17.4827 23.7511 17.0862 23.7954C15.2072 24.0052 13.75 25.5777 13.75 27.5C13.75 29.5708 15.4292 31.25 17.5 31.25H30.5C32.5708 31.25 34.25 29.5708 34.25 27.5C34.25 25.5777 32.7928 24.0052 30.9138 23.7954C30.5173 23.7511 30.2249 23.4042 30.2483 23.006C30.2489 22.9962 30.2495 22.9876 30.25 22.9815C30.24 19.5382 27.4456 16.75 24 16.75C20.5544 16.75 17.76 19.5382 17.75 22.9815ZM30.251 22.9683L30.251 22.9684L30.251 22.9683Z" fill="black"/>
<path fill-rule="evenodd" clip-rule="evenodd" d="M22 26.25C22.4142 26.25 22.75 26.5858 22.75 27V27.01C22.75 27.4242 22.4142 27.76 22 27.76C21.5858 27.76 21.25 27.4242 21.25 27.01V27C21.25 26.5858 21.5858 26.25 22 26.25Z" fill="black"/>
<path fill-rule="evenodd" clip-rule="evenodd" d="M18 26.25C18.4142 26.25 18.75 26.5858 18.75 27V27.01C18.75 27.4242 18.4142 27.76 18 27.76C17.5858 27.76 17.25 27.4242 17.25 27.01V27C17.25 26.5858 17.5858 26.25 18 26.25Z" fill="black"/>
<defs>
<linearGradient id="paint0_linear_374_2895" x1="48" y1="1.5" x2="-1.32557" y2="46.5486" gradientUnits="userSpaceOnUse">
<stop offset="0.0500911" stop-color="#E9EEF7"/>
<stop offset="0.359305" stop-color="#11A06B"/>
<stop offset="0.651214" stop-color="#286FEB"/>
<stop offset="1" stop-color="#E9EEF7"/>
</linearGradient>
</defs>
</svg>
