<svg width="48" height="48" viewBox="0 0 48 48" fill="none" xmlns="http://www.w3.org/2000/svg">
<rect x="0.5" y="0.5" width="47" height="47" rx="9.5" fill="white" stroke="url(#paint0_linear_4954_2137)"/>
<path fill-rule="evenodd" clip-rule="evenodd" d="M28.8369 13.2056C29.1232 12.9315 29.5876 12.9315 29.8739 13.2056L33.7765 16.9421C33.9143 17.0698 34 17.2487 34 17.4468C34 17.6452 33.9141 17.8243 33.776 17.952L29.8739 21.688C29.5876 21.9622 29.1232 21.9622 28.8369 21.688C28.5505 21.4138 28.5505 20.9692 28.8369 20.695L31.4961 18.1489H24.804L19.5658 24.0001L24.8038 29.8511H31.4961L28.8369 27.305C28.5505 27.0308 28.5505 26.5862 28.8369 26.312C29.1232 26.0378 29.5876 26.0378 29.8739 26.312L33.7851 30.0567C33.9052 30.1717 33.9749 30.3167 33.9943 30.4665C34.0008 30.5172 34.0016 30.5685 33.9966 30.6193C33.9953 30.633 33.9935 30.6466 33.9914 30.6601C33.9857 30.6956 33.9773 30.7301 33.9663 30.7636C33.9321 30.8683 33.8717 30.9668 33.7851 31.0497L29.8739 34.7944C29.5876 35.0686 29.1232 35.0686 28.8369 34.7944C28.5505 34.5202 28.5505 34.0756 28.8369 33.8014L31.4961 31.2553H24.4665C24.2524 31.2553 24.049 31.1657 23.9097 31.0101L18.2625 24.7021H12.7333C12.3283 24.7021 12 24.3878 12 24C12 23.6122 12.3283 23.2979 12.7333 23.2979H18.2627L23.9099 16.9899C24.0492 16.8343 24.2526 16.7447 24.4667 16.7447H31.4961L28.8369 14.1986C28.5505 13.9244 28.5505 13.4798 28.8369 13.2056Z" fill="black"/>
<defs>
<linearGradient id="paint0_linear_4954_2137" x1="48.1406" y1="-0.0377211" x2="0.160027" y2="47.9428" gradientUnits="userSpaceOnUse">
<stop offset="0.0860081" stop-color="#E9EEF7"/>
<stop offset="0.359305" stop-color="#FF6161"/>
<stop offset="0.671149" stop-color="#5F43E9"/>
<stop offset="0.922071" stop-color="#E9EEF7"/>
</linearGradient>
</defs>
</svg>
