<svg viewBox="0 0 64 64" id="Layer_1" version="1.1" xml:space="preserve" xmlns="http://www.w3.org/2000/svg" xmlns:xlink="http://www.w3.org/1999/xlink" fill="#000000"><g id="SVGRepo_bgCarrier" stroke-width="0"></g><g id="SVGRepo_tracerCarrier" stroke-linecap="round" stroke-linejoin="round"></g><g id="SVGRepo_iconCarrier"> <style type="text/css"> .st0{fill:none;stroke:#9783fd;stroke-width:2;stroke-linecap:round;stroke-linejoin:round;stroke-miterlimit:10;} .st1{fill:none;stroke:#9783fd;stroke-width:2;stroke-linecap:round;stroke-linejoin:round;stroke-miterlimit:10;} .st2{fill:none;stroke:#9783fd;stroke-width:2;stroke-linejoin:round;stroke-miterlimit:10;} .st3{fill:#FFFFFF;stroke:#00B1E4;stroke-width:2;stroke-linecap:round;stroke-linejoin:round;stroke-miterlimit:10;} .st4{fill:#00B1E4;} .st5{fill:none;stroke:#9783fd;stroke-width:2;stroke-miterlimit:10;} .st6{fill:none;stroke:#9783fd;stroke-width:2;stroke-miterlimit:10;} .st7{fill:none;stroke:#9783fd8;stroke-width:2;stroke-linejoin:round;stroke-miterlimit:10;} .st8{fill:none;stroke:#9783fd;stroke-width:2;stroke-linecap:round;stroke-miterlimit:10;} .st9{fill:none;stroke:#00B1E4;stroke-width:2;stroke-linecap:round;stroke-miterlimit:10;} </style> <path class="st0" d="M52,23H12v-4.1c0-3.2,2.6-5.9,5.9-5.9h28.3c3.2,0,5.9,2.6,5.9,5.9V23z"></path> <path class="st0" d="M38,51H17.9c-3.2,0-5.9-2.6-5.9-5.9V41h28"></path> <g> <path class="st0" d="M40,37H13.5c-0.8,0-1.5-0.7-1.5-1.5v-7c0-0.8,0.7-1.5,1.5-1.5h37c0.8,0,1.5,0.7,1.5,1.5v7.4"></path> </g> <rect class="st1" height="8" width="10" x="42" y="44"></rect> <path class="st1" d="M50,44h-6v-2c0-1.7,1.3-3,3-3h0c1.7,0,3,1.3,3,3V44z"></path> <line class="st1" x1="47" x2="47" y1="48" y2="48"></line> <path class="st1" d="M27,19H17v0c0-1.1,0.9-2,2-2h8V19z"></path> <rect class="st1" height="2" width="10" x="17" y="31"></rect> <path class="st1" d="M27,45H17v0c0,1.1,0.9,2,2,2h8V45z"></path> </g></svg>

