<svg width="24" height="24" viewBox="0 0 24 24" fill="none" xmlns="http://www.w3.org/2000/svg">
<g clip-path="url(#clip0_55_22054)">
<path d="M12 23.3899C18.2905 23.3899 23.3899 18.2905 23.3899 12.0001C23.3899 5.70963 18.2905 0.610229 12 0.610229C5.70963 0.610229 0.610229 5.70963 0.610229 12.0001C0.610229 18.2905 5.70963 23.3899 12 23.3899Z" fill="white"/>
<path d="M12 0C5.37258 0 0 5.37258 0 12C0 18.6275 5.37258 24 12 24C18.6275 24 24 18.6275 24 12C24 5.37258 18.6275 0 12 0ZM12 1.22034C17.9534 1.22034 22.7797 6.04656 22.7797 12C22.7797 17.9534 17.9534 22.7797 12 22.7797C6.04656 22.7797 1.22034 17.9534 1.22034 12C1.22034 6.04656 6.04656 1.22034 12 1.22034Z" fill="#4000BF"/>
<path d="M12.1355 3.45764C16.8534 3.45764 20.6779 7.28219 20.6779 12C20.6779 16.7178 16.8534 20.5424 12.1355 20.5424C7.41769 20.5424 3.59314 16.7178 3.59314 12C3.59314 10.847 3.82157 9.74739 4.23566 8.74381C4.84027 9.56716 5.8153 10.1017 6.91517 10.1017C8.74992 10.1017 10.2372 8.61436 10.2372 6.77968C10.2372 5.6798 9.70272 4.70477 8.8793 4.10017C9.88287 3.68608 10.9825 3.45764 12.1355 3.45764Z" fill="url(#paint0_linear_55_22054)"/>
</g>
<defs>
<linearGradient id="paint0_linear_55_22054" x1="857.829" y1="1711.93" x2="857.829" y2="3.45764" gradientUnits="userSpaceOnUse">
<stop stop-color="#7400E1"/>
<stop offset="1" stop-color="#4000BF"/>
</linearGradient>
<clipPath id="clip0_55_22054">
<rect width="24" height="24" fill="white"/>
</clipPath>
</defs>
</svg>
