<svg width="12px" height="12px" viewBox="0 0 12 12" fill="none" xmlns="http://www.w3.org/2000/svg">
<path d="M6 0C2.68629 0 0 2.68629 0 6C0 9.31373 2.68629 12 6 12C9.31373 12 12 9.31373 12 6C12 2.68629 9.31373 0 6 0ZM6 0.61017C8.97671 0.61017 11.3898 3.02328 11.3898 6C11.3898 8.97671 8.97671 11.3898 6 11.3898C3.02328 11.3898 0.61017 8.97671 0.61017 6C0.61017 3.02328 3.02328 0.61017 6 0.61017Z" fill="currentColor"/>
<path fill-rule="evenodd" clip-rule="evenodd" d="M6.06707 1.729C8.426 1.729 10.3383 3.64127 10.3383 6.00021C10.3383 8.35911 8.426 10.2714 6.06707 10.2714C3.70817 10.2714 1.7959 8.35911 1.7959 6.00021C1.7959 5.42368 1.91011 4.87386 2.11715 4.37211C2.41946 4.78378 2.90698 5.05104 3.45691 5.05104C4.37428 5.05104 5.11794 4.30738 5.11794 3.39002C5.11794 2.84008 4.85068 2.35257 4.43897 2.05027C4.94075 1.84322 5.49058 1.729 6.06707 1.729Z" fill="currentColor"/>
</svg>
