<svg fill="none" height="32" viewBox="0 0 32 32" width="32" xmlns="http://www.w3.org/2000/svg"><g clip-rule="evenodd" fill-rule="evenodd"><path d="m10.3335 9.33325c0-.55228-.44772-1-1-1-.55229 0-1 .44772-1 1v13.33335c0 .5523.44771 1 1 1 .55228 0 1-.4477 1-1v-7.2177c1.8798 2.5587 4.9107 4.2177 8.3333 4.2177h2.6667c.5523 0 1-.4477 1-1s-.4477-1-1-1h-2.6667c-4.6077 0-8.3333-3.7256-8.3333-8.33335z" fill="#4000ff"/><g fill="#9783fd"><path d="m9.3335 2.33325c-1.65686 0-3 1.34315-3 3 0 1.65686 1.34314 3 3 3 1.6569 0 3-1.34314 3-3 0-1.65685-1.3431-3-3-3zm-5 3c0-2.76142 2.23857-4.999998 5-4.999998 2.7614 0 5 2.238578 5 4.999998 0 2.76143-2.2386 5.00005-5 5.00005-2.76143 0-5-2.23862-5-5.00005z"/><path d="m9.3335 23.6665c-1.65686 0-3 1.3431-3 3s1.34314 3 3 3c1.6569 0 3-1.3431 3-3s-1.3431-3-3-3zm-5 3c0-2.7614 2.23857-5 5-5 2.7614 0 5 2.2386 5 5s-2.2386 5-5 5c-2.76143 0-5-2.2386-5-5z"/><path d="m25.3335 15.6665c-1.6569 0-3 1.3431-3 3s1.3431 3 3 3 3-1.3431 3-3-1.3431-3-3-3zm-5 3c0-2.7614 2.2386-5 5-5s5 2.2386 5 5-2.2386 5-5 5-5-2.2386-5-5z"/></g></g></svg>