<svg fill="none" height="31" viewBox="0 0 31 31" width="31" xmlns="http://www.w3.org/2000/svg"><g fill="#9783fd"><g clip-rule="evenodd" fill-rule="evenodd"><path d="m13.7049 5.07128c.5128.20498.7624.78688.5574 1.29972l-3.4266 8.5733c-.1017.2543-.3032.4558-.5575.5575l-8.5733 3.4266c-.51283.205-1.094738-.0446-1.299714-.5574s.044596-1.0947.557434-1.2997l8.17508-3.2675 3.2675-8.17508c.205-.51284.7869-.76241 1.2997-.55744z"/><path d="m12.9626 5.07128c.5129-.20497 1.0948.0446 1.2997.55744l3.2675 8.17508 8.1751 3.2675c.5128.205.7624.7869.5574 1.2997-.2049.5128-.7868.7624-1.2997.5574l-8.5733-3.4266c-.2543-.1017-.4558-.3032-.5574-.5575l-3.4267-8.5733c-.205-.51284.0446-1.09474.5574-1.29972z"/><path d="m26.2623 17.6287c.205.5129-.0446 1.0948-.5574 1.2997l-8.1751 3.2675-3.2675 8.1751c-.2049.5128-.7868.7624-1.2997.5574-.5128-.2049-.7624-.7868-.5574-1.2997l3.4267-8.5733c.1016-.2543.3031-.4558.5574-.5574l8.5733-3.4267c.5129-.205 1.0948.0446 1.2997.5574z"/><path d="m.405186 17.6287c.204976-.5128.786884-.7624 1.299714-.5574l8.5733 3.4267c.2543.1016.4558.3031.5575.5574l3.4266 8.5733c.205.5129-.0446 1.0948-.5574 1.2997-.5128.205-1.0947-.0446-1.2997-.5574l-3.2675-8.1751-8.17508-3.2675c-.512838-.2049-.76241-.7868-.557434-1.2997z"/></g><path d="m26.3335 1.33325c0-.552283-.4477-.999998-1-.999998s-1 .447715-1 .999998v3.66667h-3.6667c-.5523 0-1 .44771-1 1 0 .55228.4477 1 1 1h3.6667v3.66668c0 .5523.4477 1 1 1s1-.4477 1-1v-3.66668h3.6667c.5522 0 1-.44772 1-1 0-.55229-.4478-1-1-1h-3.6667z"/></g></svg>