<?xml version="1.0" encoding="UTF-8" standalone="no"?>
<!-- Created with Inkscape (http://www.inkscape.org/) -->

<svg
   version="1.1"
   id="svg1"
   width="64"
   height="64"
   viewBox="0 0 400 400"
   sodipodi:docname="Eagle.svg"
   inkscape:version="1.3 (0e150ed, 2023-07-21)"
   xmlns:inkscape="http://www.inkscape.org/namespaces/inkscape"
   xmlns:sodipodi="http://sodipodi.sourceforge.net/DTD/sodipodi-0.dtd"
   xmlns="http://www.w3.org/2000/svg"
   xmlns:svg="http://www.w3.org/2000/svg">
  <defs
     id="defs1" />
  <sodipodi:namedview
     id="namedview1"
     pagecolor="#ffffff"
     bordercolor="#000000"
     borderopacity="0.25"
     inkscape:showpageshadow="2"
     inkscape:pageopacity="0.0"
     inkscape:pagecheckerboard="0"
     inkscape:deskcolor="#d1d1d1"
     inkscape:zoom="1.5192794"
     inkscape:cx="206.01872"
     inkscape:cy="214.90452"
     inkscape:window-width="1488"
     inkscape:window-height="868"
     inkscape:window-x="155"
     inkscape:window-y="146"
     inkscape:window-maximized="0"
     inkscape:current-layer="g1">
    <inkscape:page
       x="0"
       y="0"
       inkscape:label="1"
       id="page1"
       width="400"
       height="400"
       margin="0"
       bleed="0"
       inkscape:export-filename="../../../../Logos/Eagle_2024.png"
       inkscape:export-xdpi="96"
       inkscape:export-ydpi="96" />
  </sodipodi:namedview>
  <g
     id="g1"
     inkscape:groupmode="layer"
     inkscape:label="1">
    <g
       id="group-R5"
       transform="matrix(1.8000533,0,0,1.8000533,-309.33076,-53.115017)"
       style="fill:#ec0000;fill-opacity:1">
      <path
         id="path2"
         d="m 2873.22,1109.64 c -35.89,3.57 -99.57,12.43 -179.26,-27.74 -79.64,-40.17 -111,-41.9 -150.09,-37.73 11.49,-21.03 34.78,-49.881 108.01,-55.029 73.21,-5.161 108.22,-7.422 69.7,-98.661 0.88,27.559 -5.55,80.84 -78.25,71.489 -72.65,-9.36 -89.64,-74.778 -11.68,-107.43 -25.35,-5.09 -79.08,-8.129 -117.47,92.281 -26.59,-11.55 -67.58,-34.718 -141.9,22.692 25.88,-9.391 57.92,-9.973 57.92,-9.973 -65.99,31.492 -128.99,90.061 -169.38,145.411 32.01,-23.84 67.34,-47.59 103.05,-52.04 -42.2,51.49 -139.82,154.47 -259.26,260.28 76.8,-50.13 169.46,-129.42 321.1,-111.6 151.67,17.83 253.6,52.58 447.51,-91.95"
         style="fill:#ec0000;fill-opacity:1;fill-rule:nonzero;stroke:none"
         transform="matrix(0.13333333,0,0,-0.13333333,0,341.42667)" />
      <path
         id="path3"
         d="m 2224.12,1145.4 c -95.12,41.21 -115.48,49.48 -237.74,80.56 -122.28,31.06 -242.56,95.71 -322.96,196.61 56.71,-41.53 172.47,-125.09 291.36,-116.04 -18.08,26.46 -51.4,47.07 -91.25,67.86 45.05,-10.79 181.05,-45.57 360.59,-228.99"
         style="fill:#ec0000;fill-opacity:1;fill-rule:nonzero;stroke:none"
         transform="matrix(0.13333333,0,0,-0.13333333,0,341.42667)" />
      <path
         id="path4"
         d="m 2017.08,1497.37 c -24.53,70.34 -68.75,160.41 -278.55,294.22 -102.18,67.43 -252.18,152.11 -449.69,368.04 14.12,-58.2 76.53,-209.56 390.98,-406.06 103.31,-70.48 236.63,-113.98 337.26,-256.2"
         style="fill:#ec0000;fill-opacity:1;fill-rule:nonzero;stroke:none"
         transform="matrix(0.13333333,0,0,-0.13333333,0,341.42667)" />
      <path
         id="path5"
         d="m 2030.05,1395.41 c -25.82,59.54 -77.68,135.92 -280.92,244.97 -93.7,52.5 -253.82,133.26 -397.81,286.82 13.07,-55.44 79.91,-177.22 367.51,-329.31 79.65,-43.89 214.3,-85.04 311.22,-202.48"
         style="fill:#ec0000;fill-opacity:1;fill-rule:nonzero;stroke:none"
         transform="matrix(0.13333333,0,0,-0.13333333,0,341.42667)" />
      <path
         id="path6"
         d="m 2227.16,1703.15 c -396.16,113.35 -553.7,256.41 -675.57,406.19 55.64,-172.39 188.39,-234.07 330.17,-349.8 141.8,-115.75 149.87,-177.94 191.63,-246.32 93.05,-152.33 107.85,-177.5 200.2,-244.01 108.83,-72.2 240.47,-23.34 384.87,-45.98 144.38,-22.63 263.73,-132.69 289.69,-175.04 30.27,54 -42.04,131.81 -61.57,151.34 10.42,70.74 -156.84,101.82 -220.18,126.03 -12.43,4.75 -43.22,11.88 -16.52,75.36 36,87.6 73.5,163.84 -422.72,302.23 m 571.74,-464.79 c 75.12,-11.35 71.33,-27.28 72.14,-54.74 -31.96,34.91 -72.14,54.74 -72.14,54.74"
         style="fill:#ec0000;fill-opacity:1;fill-rule:nonzero;stroke:none"
         transform="matrix(0.13333333,0,0,-0.13333333,0,341.42667)" />
    </g>
  </g>
</svg>
