<svg width="64" height="64" viewBox="0 0 64 64" fill="none" xmlns="http://www.w3.org/2000/svg">
<rect width="64" height="64" fill="white"/>
<g filter="url(#filter0_i_2478_152503)">
<path d="M34.9311 47.1565L35.848 48.0744C36.5212 48.7483 36.8578 49.0852 37.246 49.2115C37.5875 49.3225 37.9553 49.3225 38.2968 49.2115C38.685 49.0852 39.0216 48.7483 39.6948 48.0744L53.7003 34.0542C56.7497 31.0016 58.2744 29.4753 58.8456 27.7153C59.3481 26.1671 59.3481 24.4994 58.8456 22.9513C58.2744 21.1913 56.7497 19.6649 53.7002 16.6123L52.0151 14.9254C51.3419 14.2515 51.0053 13.9146 50.6171 13.7883C50.2757 13.6773 49.9078 13.6773 49.5663 13.7883C49.1781 13.9146 48.8415 14.2515 48.1683 14.9254L31.6113 31.4999V23.8667C31.6113 22.1322 31.6113 21.2649 31.4155 20.4488C31.242 19.7252 30.9557 19.0334 30.5673 18.3989C30.1292 17.6832 29.5166 17.07 28.2914 15.8435L27.3745 14.9256C26.7013 14.2517 26.3647 13.9148 25.9765 13.7885C25.635 13.6775 25.2672 13.6775 24.9257 13.7885C24.5375 13.9148 24.2009 14.2517 23.5277 14.9256L9.52225 28.9458C6.47284 31.9984 4.94814 33.5247 4.37687 35.2847C3.87437 36.8329 3.87438 38.5006 4.37688 40.0487C4.94814 41.8087 6.47284 43.3351 9.52226 46.3877L11.2074 48.0746C11.8806 48.7485 12.2172 49.0854 12.6054 49.2116C12.9469 49.3227 13.3147 49.3227 13.6562 49.2116C14.0444 49.0854 14.381 48.7485 15.0542 48.0746L31.6113 31.4999L31.6113 39.1333C31.6113 40.8678 31.6113 41.7351 31.807 42.5512C31.9805 43.2748 32.2668 43.9666 32.6552 44.6011C33.0933 45.3168 33.7059 45.93 34.9311 47.1565Z" fill="url(#paint0_linear_2478_152503)"/>
</g>
<defs>
<filter id="filter0_i_2478_152503" x="4" y="13.7051" width="55.2227" height="35.5898" filterUnits="userSpaceOnUse" color-interpolation-filters="sRGB">
<feFlood flood-opacity="0" result="BackgroundImageFix"/>
<feBlend mode="normal" in="SourceGraphic" in2="BackgroundImageFix" result="shape"/>
<feColorMatrix in="SourceAlpha" type="matrix" values="0 0 0 0 0 0 0 0 0 0 0 0 0 0 0 0 0 0 127 0" result="hardAlpha"/>
<feOffset dy="0.46208"/>
<feComposite in2="hardAlpha" operator="arithmetic" k2="-1" k3="1"/>
<feColorMatrix type="matrix" values="0 0 0 0 0.737255 0 0 0 0 0.870588 0 0 0 0 1 0 0 0 1 0"/>
<feBlend mode="normal" in2="shape" result="effect1_innerShadow_2478_152503"/>
</filter>
<linearGradient id="paint0_linear_2478_152503" x1="31.6112" y1="13" x2="31.3494" y2="58.4184" gradientUnits="userSpaceOnUse">
<stop offset="0.168269" stop-color="#008CFF"/>
<stop offset="1" stop-color="#1E2733"/>
</linearGradient>
</defs>
</svg>
