<svg width="24" height="24" viewBox="0 0 24 24" fill="none" xmlns="http://www.w3.org/2000/svg">
<path d="M17.825 17.5L18.7 18.375C18.8833 18.575 18.9792 18.8125 18.9875 19.0875C18.9958 19.3625 18.9 19.6 18.7 19.8C18.5 20 18.2667 20.1 18 20.1C17.7333 20.1 17.5 20 17.3 19.8L14.7 17.2C14.5 17 14.4 16.7667 14.4 16.5C14.4 16.2334 14.5 16 14.7 15.8L17.3 13.2C17.5 13 17.7333 12.9 18 12.9C18.2667 12.9 18.5 13 18.7 13.2C18.9 13.4 18.9958 13.6375 18.9875 13.9125C18.9792 14.1875 18.8833 14.425 18.7 14.625L17.825 15.5H21C21.2833 15.5 21.5208 15.5959 21.7125 15.7875C21.9042 15.9792 22 16.2167 22 16.5C22 16.7834 21.9042 17.0209 21.7125 17.2125C21.5208 17.4042 21.2833 17.5 21 17.5H17.825ZM4 20C3.45 20 2.97917 19.8042 2.5875 19.4125C2.19583 19.0209 2 18.55 2 18V15C2 14.45 2.19583 13.9792 2.5875 13.5875C2.97917 13.1959 3.45 13 4 13H10C10.55 13 11.0208 13.1959 11.4125 13.5875C11.8042 13.9792 12 14.45 12 15V18C12 18.55 11.8042 19.0209 11.4125 19.4125C11.0208 19.8042 10.55 20 10 20H4ZM4 18H10V15H4V18ZM6.175 8.50002H3C2.71667 8.50002 2.47917 8.40419 2.2875 8.21252C2.09583 8.02086 2 7.78336 2 7.50002C2 7.21669 2.09583 6.97919 2.2875 6.78752C2.47917 6.59586 2.71667 6.50002 3 6.50002H6.175L5.3 5.62502C5.11667 5.42502 5.02083 5.18752 5.0125 4.91252C5.00417 4.63752 5.1 4.40002 5.3 4.20002C5.5 4.00002 5.73333 3.90002 6 3.90002C6.26667 3.90002 6.5 4.00002 6.7 4.20002L9.3 6.80002C9.5 7.00002 9.6 7.23336 9.6 7.50002C9.6 7.76669 9.5 8.00002 9.3 8.20002L6.7 10.8C6.5 11 6.26667 11.1 6 11.1C5.73333 11.1 5.5 11 5.3 10.8C5.1 10.6 5.00417 10.3625 5.0125 10.0875C5.02083 9.81252 5.11667 9.57502 5.3 9.37502L6.175 8.50002ZM14 11C13.45 11 12.9792 10.8042 12.5875 10.4125C12.1958 10.0209 12 9.55002 12 9.00002V6.00002C12 5.45002 12.1958 4.97919 12.5875 4.58752C12.9792 4.19586 13.45 4.00002 14 4.00002H20C20.55 4.00002 21.0208 4.19586 21.4125 4.58752C21.8042 4.97919 22 5.45002 22 6.00002V9.00002C22 9.55002 21.8042 10.0209 21.4125 10.4125C21.0208 10.8042 20.55 11 20 11H14ZM14 9.00002H20V6.00002H14V9.00002Z" fill="#428CDC"/>
</svg>
