<?xml version="1.0" encoding="UTF-8"?>
<svg id="Layer_1" data-name="Layer 1" xmlns="http://www.w3.org/2000/svg" viewBox="0 0 216 190">
  <defs>
    <style>
      .cls-1 {
        fill: #d71920;
      }
    </style>
  </defs>
  <path class="cls-1" d="M47.8461,74.1319c8.733,8.8949,17.2409,19.9067,19.2188,31.5326,3.5598-19.9277,30.42-47.053,50.4692-50.489-19.9184-3.222-47.3042-30.5695-50.4677-50.5304-3.5865,19.6949-30.6344,47.064-50.4707,50.5012,11.5607,1.9897,22.3748,10.3296,31.2504,18.9856Z"/>
  <path class="cls-1" d="M206.8478,17.0867C186.2361-7.4909,147.9184.0152,118.3216,12.0285c46.9705-14.8147,90.043,4.6788,67.5668,60.4021-11.134,27.3956-39.1398,55.4172-65.978,71.2576-14.1716,9.1444-29.3313,16.8464-45.8502,19.1521-25.4145,3.4812-40.6454-9.6156-34.1811-35.7853,1.6302-6.3906,4.5977-12.8417,7.5439-19.1184-4.8502-11.4896-15.2857-23.2439-26.4849-26.5099-6.037,9.0657-10.4294,17.2729-14.8985,29.9626-10.1141,27.2717-6.8105,67.3172,27.7498,75.9817,63.2462,12.578,148.8033-54.5234,173.1553-110.4428,10.4224-23.5671,11.1678-45.3504-.0968-59.8416Z"/>
</svg>