<svg width="92" height="87" viewBox="0 0 92 87" fill="none" xmlns="http://www.w3.org/2000/svg">
<path d="M88.3492 0H3.65079C1.63452 0 0 1.54568 0 3.45238V83.5476C0 85.4543 1.63452 87 3.65079 87H88.3492C90.3655 87 92 85.4543 92 83.5476V3.45238C92 1.54568 90.3655 0 88.3492 0Z" fill="#121417"/>
<path d="M83.333 45.334C84.621 45.334 85.667 44.288 85.667 43C85.667 41.712 84.621 40.667 83.333 40.667H64.6666V36H83.333C84.621 36 85.667 34.955 85.667 33.667C85.667 32.379 84.621 31.3337 83.333 31.3337H64.6666C64.6666 27.4743 61.5259 24.3337 57.6666 24.3337V8.00029C57.6666 6.71229 56.6213 5.66699 55.3333 5.66699C54.0453 5.66699 52.9999 6.71229 52.9999 8.00029V24.3337H48.3333V8.00029C48.3333 6.71229 47.2879 5.66699 45.9999 5.66699C44.7119 5.66699 43.6666 6.71229 43.6666 8.00029V24.3337H38.9999V8.00029C38.9999 6.71229 37.9546 5.66699 36.6666 5.66699C35.3786 5.66699 34.3333 6.71229 34.3333 8.00029V24.3337C30.4739 24.3337 27.3333 27.4743 27.3333 31.3337H8.6666C7.3786 31.3337 6.3333 32.379 6.3333 33.667C6.3333 34.955 7.3786 36 8.6666 36H27.3333V40.667H8.6666C7.3786 40.667 6.3333 41.712 6.3333 43C6.3333 44.288 7.3786 45.334 8.6666 45.334H27.3333V50H8.6666C7.3786 50 6.3333 51.046 6.3333 52.334C6.3333 53.622 7.3786 54.667 8.6666 54.667H27.3333C27.3333 58.526 30.4739 61.667 34.3333 61.667V78C34.3333 79.288 35.3786 80.334 36.6666 80.334C37.9546 80.334 38.9999 79.288 38.9999 78V61.667H43.6666V78C43.6666 79.288 44.7119 80.334 45.9999 80.334C47.2879 80.334 48.3333 79.288 48.3333 78V61.667H52.9999V78C52.9999 79.288 54.0453 80.334 55.3333 80.334C56.6213 80.334 57.6666 79.288 57.6666 78V61.667C61.5259 61.667 64.6666 58.526 64.6666 54.667H83.333C84.621 54.667 85.667 53.622 85.667 52.334C85.667 51.046 84.621 50 83.333 50H64.6666V45.334H83.333ZM59.9999 54.667C59.9999 55.953 58.9523 57 57.6666 57H34.3333C33.0476 57 31.9999 55.953 31.9999 54.667V31.3337C31.9999 30.048 33.0476 29.0003 34.3333 29.0003H57.6666C58.9523 29.0003 59.9999 30.048 59.9999 31.3337V54.667Z" fill="#FAFAF7"/>
<path d="M50.6667 33.667C53.2404 33.667 55.3337 35.76 55.3337 38.334V47.667C55.3337 50.241 53.2404 52.334 50.6667 52.334H41.3337C38.7601 52.334 36.6667 50.241 36.6667 47.667V38.334C36.6667 35.76 38.7601 33.667 41.3337 33.667H50.6667ZM41.3337 47.667H50.6687L50.6667 38.334H41.3337V47.667Z" fill="url(#paint0_linear_0_1)"/>
<defs>
<linearGradient id="paint0_linear_0_1" x1="36.0838" y1="58.39" x2="62.2985" y2="48.102" gradientUnits="userSpaceOnUse">
<stop stop-color="#FF0000"/>
<stop offset="0.252341" stop-color="#FF881A"/>
<stop offset="0.675" stop-color="#37DCCA"/>
<stop offset="1" stop-color="#001AFF"/>
</linearGradient>
</defs>
</svg>
