<svg width="720" height="368" viewBox="0 0 720 368" fill="none" xmlns="http://www.w3.org/2000/svg">
<mask id="path-1-inside-1_9203_17225" fill="white">
<path d="M0 0H720V368H0V0Z"/>
</mask>
<path d="M0 0H720V368H0V0Z" fill="#021428"/>
<path d="M720 368V367H0V368V369H720V368Z" fill="white" fill-opacity="0.05" mask="url(#path-1-inside-1_9203_17225)"/>
<path d="M590 0V368" stroke="white" stroke-opacity="0.05" stroke-dasharray="6 6"/>
<path d="M436.667 0V368" stroke="white" stroke-opacity="0.05" stroke-dasharray="6 6"/>
<path d="M283.333 0V368" stroke="white" stroke-opacity="0.05" stroke-dasharray="6 6"/>
<path d="M130 0V368" stroke="white" stroke-opacity="0.05" stroke-dasharray="6 6"/>
<g clip-path="url(#clip0_9203_17225)">
<g filter="url(#filter0_f_9203_17225)">
<path d="M720 248C704.241 248 688.637 251.104 674.078 257.134C659.519 263.165 646.29 272.004 635.147 283.147C624.004 294.29 615.165 307.519 609.134 322.078C603.104 336.637 600 352.241 600 368L720 368L720 248Z" fill="#1880F0" fill-opacity="0.4"/>
</g>
<g filter="url(#filter1_f_9203_17225)">
<path d="M0 120C15.7586 120 31.3629 116.896 45.922 110.866C60.4811 104.835 73.7098 95.9959 84.8528 84.8528C95.9959 73.7098 104.835 60.4811 110.866 45.922C116.896 31.3629 120 15.7586 120 0L8.71931e-06 1.74386e-05L0 120Z" fill="#1880F0" fill-opacity="0.4"/>
</g>
</g>
<path fill-rule="evenodd" clip-rule="evenodd" d="M273.71 197.261H285.138V179.794H273.71V197.261ZM274.11 204.247C270.929 204.247 269.276 203.732 267.915 202.316C265.87 200.268 265.076 197.421 265.076 188.597C265.076 179.773 265.87 176.926 267.915 174.819C269.225 173.454 270.929 172.938 274.11 172.938H284.738C287.919 172.938 289.571 173.454 290.933 174.819C292.978 176.926 293.772 179.714 293.772 188.597C293.772 197.479 292.978 200.268 290.933 202.316C289.571 203.739 287.919 204.247 284.738 204.247H274.11Z" fill="white"/>
<path fill-rule="evenodd" clip-rule="evenodd" d="M319.613 182.808C319.613 182.917 319.613 183.026 319.613 183.142V204.24H328.305V182.118C328.305 177.528 327.795 175.88 326.485 174.63C325.291 173.439 323.58 172.902 320.909 172.902L313.265 172.924L308.883 176.867V172.924H305.95H300.221V204.233H308.912V179.78H319.599V182.793L319.613 182.808Z" fill="white"/>
<path fill-rule="evenodd" clip-rule="evenodd" d="M251.485 164.31H261.837L246.972 183.076L262.463 204.239H251.485L239.7 187.615L236.905 187.601V204.239H227.587V164.31H236.905V179.786H239.7L251.485 164.31Z" fill="white"/>
<path fill-rule="evenodd" clip-rule="evenodd" d="M354.988 172.932V176.876L350.606 172.932L344.083 172.91C340.96 172.91 339.126 173.448 337.706 174.806C335.828 176.73 334.918 180.943 334.918 188.655C334.918 196.368 335.661 200.406 337.474 202.28C338.893 203.638 340.582 204.241 343.938 204.241H354.966L354.981 208.722L339.672 208.751L339.687 210.588L343.639 214.961H355.607C358.788 214.961 360.608 214.394 361.743 213.203C363.163 211.729 363.73 210.814 363.73 205.432V172.939H354.981L354.988 172.932ZM355.046 197.225H343.617V179.788H355.039V197.225H355.046Z" fill="white"/>
<path fill-rule="evenodd" clip-rule="evenodd" d="M156.801 210.261L158.829 207.669H173.837L181.66 217.566L180.269 220.924H160.915L161.379 217.566L156.801 210.261Z" fill="#428CDC"/>
<path fill-rule="evenodd" clip-rule="evenodd" d="M161.378 176.516L168.625 164.119H177.07L214.92 207.655L211.986 220.925H195.755L196.774 217.2L161.378 176.516Z" fill="#428CDC"/>
<path fill-rule="evenodd" clip-rule="evenodd" d="M170.159 161.762L173.629 155.407L184.039 147.075L201.875 160.922L199.562 163.26L202.667 167.516V172.072L193.779 179.265L178.864 161.762H170.159Z" fill="#428CDC"/>
<path fill-rule="evenodd" clip-rule="evenodd" d="M142.603 189.446H147.317L159.611 179.263L175.903 198.009L171.308 204.837H156.269L145.885 217.913L143.498 220.921H130.01V204.894L142.603 189.446Z" fill="#428CDC"/>
<path d="M572.412 200.988V176.437H580.707C582.625 176.437 584.2 176.764 585.431 177.42C586.661 178.067 587.572 178.958 588.164 180.093C588.755 181.228 589.051 182.518 589.051 183.965C589.051 185.412 588.755 186.694 588.164 187.813C587.572 188.932 586.665 189.811 585.443 190.451C584.22 191.082 582.657 191.398 580.755 191.398H574.042V188.712H580.659C581.97 188.712 583.025 188.52 583.824 188.137C584.631 187.753 585.215 187.21 585.574 186.506C585.942 185.795 586.126 184.948 586.126 183.965C586.126 182.982 585.942 182.123 585.574 181.388C585.207 180.652 584.619 180.085 583.812 179.685C583.005 179.278 581.938 179.074 580.611 179.074H575.385V200.988H572.412ZM583.968 189.959L590.01 200.988H586.557L580.611 189.959H583.968Z" fill="#428CDC"/>
<path d="M549.536 200.988V176.437H564.353V179.074H552.509V187.37H563.586V190.007H552.509V198.351H564.545V200.988H549.536Z" fill="#428CDC"/>
<path d="M525.405 200.988V176.437H533.7C535.627 176.437 537.201 176.784 538.424 177.479C539.655 178.167 540.566 179.098 541.157 180.273C541.748 181.448 542.044 182.758 542.044 184.205C542.044 185.651 541.748 186.966 541.157 188.149C540.574 189.332 539.671 190.275 538.448 190.978C537.225 191.673 535.659 192.021 533.748 192.021H527.802V189.384H533.653C534.971 189.384 536.03 189.156 536.829 188.7C537.629 188.245 538.208 187.629 538.568 186.854C538.935 186.071 539.119 185.188 539.119 184.205C539.119 183.222 538.935 182.343 538.568 181.567C538.208 180.792 537.625 180.185 536.817 179.745C536.01 179.298 534.939 179.074 533.605 179.074H528.378V200.988H525.405Z" fill="#428CDC"/>
<path d="M517.707 188.711C517.707 191.301 517.24 193.539 516.304 195.425C515.369 197.311 514.087 198.765 512.456 199.788C510.826 200.811 508.964 201.323 506.87 201.323C504.776 201.323 502.914 200.811 501.283 199.788C499.653 198.765 498.37 197.311 497.435 195.425C496.5 193.539 496.033 191.301 496.033 188.711C496.033 186.122 496.5 183.884 497.435 181.998C498.37 180.112 499.653 178.658 501.283 177.635C502.914 176.612 504.776 176.1 506.87 176.1C508.964 176.1 510.826 176.612 512.456 177.635C514.087 178.658 515.369 180.112 516.304 181.998C517.24 183.884 517.707 186.122 517.707 188.711ZM514.83 188.711C514.83 186.586 514.474 184.791 513.763 183.329C513.06 181.866 512.105 180.759 510.898 180.008C509.699 179.257 508.356 178.881 506.87 178.881C505.383 178.881 504.037 179.257 502.83 180.008C501.631 180.759 500.676 181.866 499.965 183.329C499.261 184.791 498.91 186.586 498.91 188.711C498.91 190.837 499.261 192.632 499.965 194.094C500.676 195.557 501.631 196.664 502.83 197.415C504.037 198.166 505.383 198.542 506.87 198.542C508.356 198.542 509.699 198.166 510.898 197.415C512.105 196.664 513.06 195.557 513.763 194.094C514.474 192.632 514.83 190.837 514.83 188.711Z" fill="#428CDC"/>
<path d="M476.256 200.988V176.437H479.229V198.351H490.642V200.988H476.256Z" fill="#428CDC"/>
<path d="M453.383 200.988V176.437H468.2V179.074H456.356V187.37H467.433V190.007H456.356V198.351H468.392V200.988H453.383Z" fill="#428CDC"/>
<path d="M428.873 176.437L436.162 197.104H436.45L443.738 176.437H446.855L437.84 200.988H434.771L425.756 176.437H428.873Z" fill="#428CDC"/>
<path d="M404.991 200.988V176.437H419.808V179.074H407.964V187.37H419.041V190.007H407.964V198.351H420V200.988H404.991Z" fill="#428CDC"/>
<path d="M385.601 200.988H378.024V176.437H385.937C388.318 176.437 390.356 176.928 392.05 177.911C393.745 178.886 395.043 180.289 395.946 182.119C396.85 183.941 397.301 186.123 397.301 188.664C397.301 191.222 396.846 193.424 395.934 195.27C395.023 197.108 393.697 198.522 391.954 199.513C390.212 200.496 388.094 200.988 385.601 200.988ZM380.997 198.351H385.409C387.439 198.351 389.121 197.959 390.456 197.176C391.791 196.393 392.786 195.278 393.441 193.831C394.096 192.385 394.424 190.662 394.424 188.664C394.424 186.682 394.1 184.976 393.453 183.545C392.806 182.107 391.839 181.004 390.552 180.237C389.265 179.461 387.663 179.074 385.745 179.074H380.997V198.351Z" fill="#428CDC"/>
<defs>
<filter id="filter0_f_9203_17225" x="501.714" y="149.714" width="316.571" height="316.571" filterUnits="userSpaceOnUse" color-interpolation-filters="sRGB">
<feFlood flood-opacity="0" result="BackgroundImageFix"/>
<feBlend mode="normal" in="SourceGraphic" in2="BackgroundImageFix" result="shape"/>
<feGaussianBlur stdDeviation="49.1429" result="effect1_foregroundBlur_9203_17225"/>
</filter>
<filter id="filter1_f_9203_17225" x="-98.2857" y="-98.2857" width="316.571" height="316.571" filterUnits="userSpaceOnUse" color-interpolation-filters="sRGB">
<feFlood flood-opacity="0" result="BackgroundImageFix"/>
<feBlend mode="normal" in="SourceGraphic" in2="BackgroundImageFix" result="shape"/>
<feGaussianBlur stdDeviation="49.1429" result="effect1_foregroundBlur_9203_17225"/>
</filter>
<clipPath id="clip0_9203_17225">
<rect width="720" height="368" fill="white" transform="matrix(-1 0 0 -1 720 368)"/>
</clipPath>
</defs>
</svg>
