<svg viewBox="27 43 266 193" height="219" fill="none" xmlns="http://www.w3.org/2000/svg">
    <path d="M226.5 43.3721C236.95 43.3721 247.198 44.578 257.245 46.9893C267.291 49.4003 276.935 53.0165 286.178 57.8389L286.187 57.8438L286.196 57.8477C288.344 58.8241 289.944 60.2821 291.012 62.2227C292.091 64.1849 292.628 66.2392 292.628 68.3906V214.086C292.628 218.592 290.73 221.999 286.911 224.349C283.099 226.694 279.159 226.797 275.04 224.641H275.041C267.56 220.597 259.724 217.462 251.535 215.238C243.342 213.013 234.997 211.9 226.5 211.9C214.365 211.9 202.632 214.025 191.306 218.272C180.073 222.485 169.638 228.388 160 235.981C150.362 228.388 139.927 222.485 128.694 218.272C117.368 214.025 105.635 211.9 93.5 211.9C85.0035 211.9 76.658 213.013 68.4648 215.238C60.2758 217.462 52.4401 220.597 44.959 224.641C40.84 226.797 36.9005 226.694 33.0889 224.349C29.2703 221.999 27.3721 218.592 27.3721 214.086V68.3906C27.3721 66.2392 27.9091 64.1849 28.9883 62.2227C30.0556 60.2821 31.6556 58.8241 33.8037 57.8477L33.8135 57.8438L33.8223 57.8389C43.0651 53.0165 52.7091 49.4003 62.7549 46.9893C72.8019 44.578 83.0501 43.3721 93.5 43.3721C105.155 43.3721 116.559 44.8795 127.711 47.8936C138.862 50.9074 149.562 55.428 159.812 61.457L160 61.5684L160.188 61.457C170.438 55.428 181.138 50.9074 192.289 47.8936C203.441 44.8795 214.845 43.3721 226.5 43.3721ZM226.5 152.19C231.72 152.19 236.839 152.592 241.857 153.395C246.787 154.183 251.62 155.166 256.355 156.342V174.861C251.663 173.133 246.922 171.829 242.134 170.949C237.173 170.038 231.961 169.582 226.5 169.582C218.813 169.582 211.426 170.493 204.342 172.314C197.458 174.084 190.863 176.716 184.554 180.205V160.529C191.109 157.765 197.811 155.688 204.659 154.299C211.585 152.894 218.865 152.19 226.5 152.19ZM226.5 118.94C231.72 118.94 236.839 119.342 241.857 120.145C246.787 120.933 251.62 121.916 256.355 123.092V141.611C251.663 139.883 246.922 138.579 242.134 137.699C237.173 136.788 231.961 136.332 226.5 136.332C218.811 136.332 211.423 137.293 204.337 139.217C197.456 141.085 190.862 143.671 184.554 146.972V127.279C191.109 124.515 197.811 122.438 204.659 121.049C211.585 119.644 218.865 118.94 226.5 118.94ZM226.5 85.6904C231.72 85.6904 236.839 86.0917 241.857 86.8945C246.787 87.6833 251.62 88.6665 256.355 89.8418V108.361C251.663 106.633 246.922 105.329 242.134 104.449C237.173 103.538 231.961 103.082 226.5 103.082C218.811 103.082 211.423 104.043 204.337 105.967C197.456 107.835 190.862 110.421 184.554 113.722V94.0293C191.109 91.2655 197.811 89.1884 204.659 87.7988C211.585 86.3935 218.865 85.6904 226.5 85.6904ZM148.281 81.4775L148.097 81.3701C139.805 76.5166 131.008 72.876 121.705 70.4492C112.405 68.0232 103.003 66.8096 93.5 66.8096C86.2212 66.8096 78.9928 67.5174 71.8154 68.9326C64.6368 70.3481 57.7099 72.4714 51.0361 75.3027L50.8096 75.3994V195.866L51.3027 195.697C58.3382 193.285 65.3221 191.477 72.2539 190.271C79.1844 189.066 86.2663 188.463 93.5 188.463C102.943 188.463 112.134 189.518 121.072 191.627C130.012 193.736 138.905 196.901 147.749 201.122L148.281 201.376V81.4775ZM269.19 75.3994L268.964 75.3027C262.29 72.4714 255.363 70.3481 248.185 68.9326C241.007 67.5174 233.779 66.8096 226.5 66.8096C216.997 66.8096 207.595 68.0232 198.295 70.4492C188.992 72.876 180.195 76.5166 171.903 81.3701L171.719 81.4775V201.376L172.251 201.122C181.095 196.901 189.988 193.736 198.928 191.627C207.866 189.518 217.057 188.463 226.5 188.463C233.734 188.463 240.816 189.066 247.746 190.271C254.678 191.477 261.662 193.285 268.697 195.697L269.19 195.866V75.3994Z" fill="url(#paint0_linear_9915_38228)" stroke="url(#paint1_linear_9915_38228)" stroke-width="0.744056"/>
    <defs>
    <linearGradient id="paint0_linear_9915_38228" x1="160" y1="43" x2="160" y2="225.258" gradientUnits="userSpaceOnUse">
        <stop stop-color="#375306"/>
        <stop offset="0.360573" stop-color="#1F3807"/>
        <stop offset="1" stop-color="#001408"/>
    </linearGradient>
    <linearGradient id="paint1_linear_9915_38228" x1="160" y1="43" x2="160" y2="226.502" gradientUnits="userSpaceOnUse">
        <stop stop-color="#375306" stop-opacity="0.5"/>
        <stop offset="1" stop-color="#428CDC" stop-opacity="0"/>
    </linearGradient>
    </defs>
</svg>