<svg viewBox="27 43 266 193" height="219" fill="none" xmlns="http://www.w3.org/2000/svg">
    <path d="M184.182 114.336V93.7818C190.832 90.9606 197.633 88.8447 204.585 87.4341C211.537 86.0235 218.842 85.3182 226.5 85.3182C231.739 85.3182 236.878 85.7212 241.916 86.5273C246.954 87.3333 251.891 88.3409 256.727 89.55V108.895C251.891 107.082 247.004 105.722 242.067 104.815C237.13 103.908 231.941 103.455 226.5 103.455C218.842 103.455 211.487 104.412 204.434 106.326C197.381 108.241 190.63 110.911 184.182 114.336ZM184.182 180.836V160.282C190.832 157.461 197.633 155.345 204.585 153.934C211.537 152.523 218.842 151.818 226.5 151.818C231.739 151.818 236.878 152.221 241.916 153.027C246.954 153.833 251.891 154.841 256.727 156.05V175.395C251.891 173.582 247.004 172.222 242.067 171.315C237.13 170.408 231.941 169.955 226.5 169.955C218.842 169.955 211.487 170.861 204.434 172.675C197.381 174.489 190.63 177.209 184.182 180.836ZM184.182 147.586V127.032C190.832 124.211 197.633 122.095 204.585 120.684C211.537 119.273 218.842 118.568 226.5 118.568C231.739 118.568 236.878 118.971 241.916 119.777C246.954 120.583 251.891 121.591 256.727 122.8V142.145C251.891 140.332 247.004 138.972 242.067 138.065C237.13 137.158 231.941 136.705 226.5 136.705C218.842 136.705 211.487 137.662 204.434 139.576C197.381 141.491 190.63 144.161 184.182 147.586ZM93.5 188.091C102.971 188.091 112.191 189.149 121.158 191.265C130.125 193.381 139.042 196.555 147.909 200.786V81.6909C139.647 76.8545 130.881 73.2273 121.611 70.8091C112.342 68.3909 102.971 67.1818 93.5 67.1818C86.2455 67.1818 79.0413 67.8871 71.8875 69.2977C64.7337 70.7083 57.8318 72.8242 51.1818 75.6455V195.345C58.2348 192.927 65.2375 191.114 72.1898 189.905C79.142 188.695 86.2455 188.091 93.5 188.091ZM172.091 200.786C180.958 196.555 189.875 193.381 198.842 191.265C207.809 189.149 217.029 188.091 226.5 188.091C233.755 188.091 240.858 188.695 247.81 189.905C254.763 191.114 261.765 192.927 268.818 195.345V75.6455C262.168 72.8242 255.266 70.7083 248.113 69.2977C240.959 67.8871 233.755 67.1818 226.5 67.1818C217.029 67.1818 207.658 68.3909 198.389 70.8091C189.119 73.2273 180.353 76.8545 172.091 81.6909V200.786ZM160 236.455C150.327 228.797 139.848 222.852 128.564 218.62C117.279 214.389 105.591 212.273 93.5 212.273C85.0364 212.273 76.7239 213.381 68.5625 215.598C60.4011 217.814 52.5924 220.938 45.1364 224.968C40.9045 227.185 36.8239 227.084 32.8943 224.666C28.9648 222.248 27 218.721 27 214.086V68.3909C27 66.1742 27.5542 64.0583 28.6625 62.0432C29.7708 60.028 31.4333 58.5167 33.65 57.5091C42.9197 52.6727 52.5924 49.0455 62.6682 46.6273C72.7439 44.2091 83.0212 43 93.5 43C105.188 43 116.624 44.5114 127.808 47.5341C138.992 50.5568 149.723 55.0909 160 61.1364C170.277 55.0909 181.008 50.5568 192.192 47.5341C203.376 44.5114 214.812 43 226.5 43C236.979 43 247.256 44.2091 257.332 46.6273C267.408 49.0455 277.08 52.6727 286.35 57.5091C288.567 58.5167 290.229 60.028 291.338 62.0432C292.446 64.0583 293 66.1742 293 68.3909V214.086C293 218.721 291.035 222.248 287.106 224.666C283.176 227.084 279.095 227.185 274.864 224.968C267.408 220.938 259.599 217.814 251.437 215.598C243.276 213.381 234.964 212.273 226.5 212.273C214.409 212.273 202.721 214.389 191.436 218.62C180.152 222.852 169.673 228.797 160 236.455Z" fill="url(#paint0_linear_9915_38283)" fill-opacity="0.4"/>
    <path d="M226.5 43.5C236.94 43.5 247.178 44.7044 257.215 47.1133C267.25 49.5218 276.885 53.1346 286.119 57.9521L286.131 57.959L286.144 57.9639C288.268 58.9296 289.846 60.3693 290.899 62.2842C291.969 64.2283 292.5 66.2615 292.5 68.3906V214.086C292.5 218.548 290.625 221.914 286.844 224.24C283.189 226.49 279.421 226.655 275.478 224.719L275.096 224.525C267.608 220.478 259.765 217.341 251.568 215.115C243.364 212.887 235.008 211.772 226.5 211.772C214.349 211.772 202.602 213.899 191.261 218.152C180.047 222.358 169.626 228.247 160 235.818C150.374 228.247 139.953 222.358 128.739 218.152C117.398 213.899 105.651 211.772 93.5 211.772C84.9922 211.772 76.6357 212.887 68.4316 215.115C60.2352 217.341 52.3924 220.478 44.9043 224.525C40.8219 226.664 36.9292 226.562 33.1562 224.24C29.3754 221.914 27.5 218.548 27.5 214.086V68.3906C27.5 66.2616 28.0313 64.2283 29.1006 62.2842C30.1538 60.3693 31.7319 58.9296 33.8564 57.9639L33.8691 57.959L33.8809 57.9521C43.1146 53.1346 52.7496 49.5218 62.7852 47.1133C72.8222 44.7044 83.0602 43.5 93.5 43.5C105.144 43.5 116.537 45.0055 127.678 48.0166C138.817 51.0273 149.506 55.544 159.746 61.5674L160 61.7168L160.254 61.5674C170.494 55.544 181.183 51.0273 192.322 48.0166C203.463 45.0055 214.856 43.5 226.5 43.5ZM226.5 152.318C231.714 152.318 236.826 152.72 241.837 153.521C246.73 154.304 251.526 155.279 256.228 156.442V174.678C251.585 172.979 246.895 171.693 242.157 170.823C237.188 169.911 231.969 169.454 226.5 169.454C218.803 169.454 211.405 170.366 204.31 172.19C197.484 173.945 190.942 176.547 184.682 179.989V160.614C191.204 157.87 197.872 155.806 204.685 154.424C211.602 153.02 218.873 152.318 226.5 152.318ZM226.5 119.068C231.714 119.068 236.826 119.469 241.837 120.271C246.73 121.053 251.526 122.029 256.228 123.192V141.428C251.585 139.729 246.895 138.443 242.157 137.573C237.188 136.661 231.969 136.204 226.5 136.204C218.8 136.204 211.4 137.167 204.303 139.094C197.481 140.945 190.941 143.502 184.682 146.761V127.364C191.204 124.62 197.872 122.556 204.685 121.174C211.602 119.77 218.873 119.068 226.5 119.068ZM226.5 85.8184C231.714 85.8184 236.826 86.2187 241.837 87.0205C246.73 87.8033 251.526 88.7786 256.228 89.9424V108.178C251.585 106.479 246.895 105.193 242.157 104.323C237.188 103.411 231.969 102.954 226.5 102.954C218.8 102.954 211.4 103.917 204.303 105.844C197.481 107.695 190.941 110.252 184.682 113.511V94.1143C191.204 91.3701 197.872 89.3061 204.685 87.9238C211.602 86.5204 218.873 85.8184 226.5 85.8184ZM148.409 81.4043L148.162 81.2598C139.86 76.4002 131.051 72.7549 121.737 70.3252C112.427 67.8964 103.014 66.6816 93.5 66.6816C86.2129 66.6816 78.9765 67.3908 71.791 68.8076C64.6037 70.2248 57.6683 72.3508 50.9863 75.1855L50.6816 75.3145V196.046L51.3438 195.818C58.3732 193.408 65.3505 191.602 72.2754 190.397C79.1986 189.193 86.2734 188.591 93.5 188.591C102.934 188.591 112.114 189.644 121.043 191.751C129.973 193.858 138.857 197.02 147.693 201.237L148.409 201.579V81.4043ZM269.318 75.3145L269.014 75.1855C262.332 72.3508 255.396 70.2248 248.209 68.8076C241.024 67.3908 233.787 66.6816 226.5 66.6816C216.986 66.6816 207.573 67.8964 198.263 70.3252C188.949 72.7549 180.14 76.4002 171.838 81.2598L171.591 81.4043V201.579L172.307 201.237C181.143 197.02 190.027 193.858 198.957 191.751C207.886 189.644 217.066 188.591 226.5 188.591C233.727 188.591 240.801 189.193 247.725 190.397C254.649 191.602 261.627 193.408 268.656 195.818L269.318 196.046V75.3145Z" stroke="url(#paint1_linear_9915_38283)" stroke-opacity="0.1"/>
    <defs>
    <linearGradient id="paint0_linear_9915_38283" x1="160" y1="43" x2="160" y2="236.455" gradientUnits="userSpaceOnUse">
        <stop stop-color="#CCFF00"/>
        <stop offset="0.538462" stop-color="#D1EF66"/>
        <stop offset="1" stop-color="#D7DED4"/>
    </linearGradient>
    <linearGradient id="paint1_linear_9915_38283" x1="160" y1="43" x2="160" y2="236.455" gradientUnits="userSpaceOnUse">
        <stop stop-color="#4E780D"/>
        <stop offset="1" stop-color="#D7DED4"/>
    </linearGradient>
    </defs>
</svg>