<svg xmlns="http://www.w3.org/2000/svg" xmlns:xlink="http://www.w3.org/1999/xlink" fill="none" height="302" viewBox="35 0 250 280" >
<defs>
    <linearGradient id="plugins-logo-dark-grad-a" gradientUnits="userSpaceOnUse" x1="188.314" x2="188.314" y1=".681679" y2="278.539"><stop offset="0" stop-color="#375306"/><stop offset=".360573" stop-color="#1f3807"/><stop offset="1" stop-color="#001408"/></linearGradient>
    <linearGradient id="plugins-logo-dark-grad-b" gradientUnits="userSpaceOnUse" x1="180.929" x2="180.929" y1=".681717" y2="278.539"><stop offset="0" stop-color="#375306" stop-opacity=".5"/><stop offset="1" stop-color="#fff" stop-opacity="0"/></linearGradient>
</defs>
<path d="m160.084 108.916v-45.999h122.923v45.999c0 8.401-2.987 15.582-8.971 21.566s-13.166 8.971-21.566 8.971h-.387v30.925h-61.074v-30.925h-.388c-8.4 0-15.582-2.987-21.566-8.971-5.984-5.983-8.971-13.166-8.971-21.566zm77.311-92.7725c.001-4.2833 1.444-7.85579 4.332-10.74312 2.887-2.88732 6.459-4.33102 10.743-4.33105 4.283 0 7.856 1.44379 10.743 4.33105 2.887 2.88733 4.332 6.45982 4.332 10.74312v30.5372h-30.15zm-201.0073 231.9325v-54.118c0-14.844 5.2423-27.502 15.7353-37.995s23.1505-15.734 37.9942-15.734c14.8438 0 27.5018 5.241 37.9948 15.734s15.736 23.151 15.736 37.995v23.193c0 8.608 3.069 15.987 9.197 22.115s13.506 9.197 22.114 9.197 15.986-3.069 22.114-9.197 9.198-13.507 9.198-22.115v-30.537h30.149v30.537c0 16.905-6.015 31.368-18.055 43.408-12.039 12.039-26.501 18.053-43.406 18.053-16.904 0-31.366-6.014-43.406-18.053-12.04-12.04-18.055-26.503-18.055-43.408v-23.193c0-6.544-2.295-12.119-6.878-16.702s-10.1587-6.878-16.7028-6.878c-6.544 0-12.119 2.295-16.7022 6.878-4.5831 4.583-6.8778 10.158-6.8779 16.702v54.118c-.0001 4.283-1.4449 7.855-4.332 10.742-2.8874 2.888-6.4598 4.332-10.7432 4.332-4.2832 0-7.8549-1.444-10.7422-4.332-2.8872-2.887-4.3319-6.459-4.332-10.742zm139.1593-231.9325c0-4.2833 1.445-7.85579 4.332-10.74312 2.887-2.88701 6.459-4.331 10.742-4.33105 4.283 0 7.856 1.44383 10.743 4.33105 2.888 2.88733 4.332 6.45982 4.332 10.74312v30.5372h-30.149z" fill="url(#plugins-logo-dark-grad-a)" stroke="url(#plugins-logo-dark-grad-b)" stroke-width=".77464"/>
</svg>