  <svg xmlns="http://www.w3.org/2000/svg" xmlns:xlink="http://www.w3.org/1999/xlink" fill="none" height="302" viewBox="46 12 228 257">
    <defs>
        <linearGradient id="logo-plugins-light-a" gradientUnits="userSpaceOnUse" x1="160.242" x2="160.242" y1="14.455" y2="267"><stop offset="0" stop-color="#cf0"/><stop offset=".538462" stop-color="#d1ef66"/><stop offset="1"
    stop-color="#d7ded4"/></linearGradient>
        <linearGradient id="logo-plugins-light-b" gradientUnits="userSpaceOnUse" x1="160.242" x2="160.242" y1="14.455" y2="267"><stop offset="0" stop-color="#4e780d"/><stop offset="1" stop-color="#d7ded4"/></linearGradient>
    </defs>
    <path d="m202.333 56.5458-28.061.0001v-28.0606c0-3.9752 1.345-7.3074 4.034-9.9966 2.689-2.6891 6.021-4.0337 9.997-4.0337 3.975 0 7.307 1.3446 9.996 4.0337 2.689 2.6892 4.034 6.0214 4.034 9.9966zm56.121
    0h-28.06v-28.0605c0-3.9752 1.344-7.3074 4.033-9.9966 2.689-2.6891 6.022-4.0337 9.997-4.0337s7.307 1.3446 9.996 4.0337c2.69 2.6892 4.034 6.0213 4.034 9.9966zm14.03 56.1212c0 7.717-2.747 14.323-8.242 19.818-5.496 5.495-12.101
    8.243-19.818 8.243v28.06h-56.121v-28.06c-7.717 0-14.323-2.748-19.818-8.243s-8.243-12.101-8.243-19.818v-42.0909h112.242zm-42.09 98.212c0 15.433-5.496 28.645-16.486 39.635-10.99 10.991-24.202 16.486-39.636 16.486-15.433
    0-28.645-5.495-39.635-16.486-10.99-10.99-16.486-24.202-16.486-39.635v-21.046c0-5.845-2.046-10.815-6.138-14.907s-9.061-6.138-14.907-6.138-10.815 2.046-14.9072 6.138-6.1383 9.062-6.1383 14.907v49.106c0 3.976-1.3445 7.308-4.0337
    9.997-2.6891 2.689-6.0213 4.034-9.9965 4.034-3.9753 0-7.3075-1.345-9.9966-4.034s-4.0337-6.021-4.0337-9.997v-49.106c0-13.562 4.7937-25.137 14.381-34.724 9.5874-9.588 21.1624-14.381 34.725-14.381 13.563 0 25.138 4.793 34.725
    14.381 9.587 9.587 14.381 21.162 14.381 34.724v21.046c0 7.717 2.748 14.322 8.243 19.818 5.495 5.495 12.101 8.242 19.817 8.242 7.717 0 14.323-2.747 19.818-8.242 5.495-5.496 8.243-12.101 8.243-19.818v-28.061h28.061z"
    fill="url(#logo-plugins-light-a)" fill-opacity=".4"/>
    <path d="m160.661 112.667v-41.6719h111.404v41.6719c0 7.605-2.702 14.104-8.12 19.521-5.417 5.418-11.917 8.121-19.521 8.121h-.419v28.06h-55.283v-28.06h-.419c-7.605
    0-14.104-2.703-19.522-8.121-5.417-5.417-8.12-11.916-8.12-19.521zm70.151-84.1817c0-3.8697 1.305-7.0934 3.912-9.7002 2.606-2.6067 5.83-3.9111 9.7-3.9111s7.093 1.3044 9.7 3.9111c2.607 2.6068 3.911 5.8305 3.911
    9.7002v27.6416h-27.223zm-182.3931 210.4537v-49.106c.0002-13.451 4.7492-24.92 14.2579-34.429 9.5087-9.508 20.9781-14.258 34.4296-14.258 13.4516.001 24.9196 4.75 34.4286 14.258 9.509 9.509 14.258 20.978 14.258 34.429v21.046c0
    7.829 2.792 14.541 8.365 20.114s12.286 8.365 20.114 8.365c7.829 0 14.542-2.792 20.115-8.365s8.365-12.285 8.365-20.114v-27.642h27.223v27.642c0 15.321-5.45 28.427-16.363 39.34-10.912 10.912-24.018 16.362-39.34 16.362-15.321
    0-28.427-5.45-39.339-16.362-10.913-10.913-16.363-24.019-16.363-39.34v-21.046c0-5.956-2.089-11.032-6.26-15.203-4.172-4.172-9.248-6.261-15.2036-6.261-5.9557 0-11.0325 2.089-15.2041 6.261-4.1714 4.171-6.2606 9.247-6.2607
    15.203v49.106c0 3.87-1.3044 7.094-3.9111 9.701-2.6067 2.606-5.8305 3.911-9.7002 3.911-3.8698 0-7.0935-1.305-9.7002-3.911-2.6067-2.607-3.9112-5.831-3.9112-9.701zm126.2721-210.4537c0-3.8697 1.305-7.0934 3.912-9.7001
    2.606-2.6068 5.83-3.9112 9.7-3.9112 3.869 0 7.093 1.3044 9.7 3.9111 2.607 2.6068 3.911 5.8305 3.911 9.7002v27.6416h-27.223z" stroke="url(#logo-plugins-light-b)" stroke-opacity=".1" stroke-width=".837628"/>
  </svg>