<svg width="24" height="24" viewBox="0 0 24 24" fill="none" xmlns="http://www.w3.org/2000/svg">
<title>Contains assets</title>
<path d="M5 22C4.16667 22 3.45833 21.7083 2.875 21.125C2.29167 20.5417 2 19.8333 2 19V5C2 4.16667 2.29167 3.45833 2.875 2.875C3.45833 2.29167 4.16667 2 5 2H19C19.8333 2 20.5417 2.29167 21.125 2.875C21.7083 3.45833 22 4.16667 22 5V19C22 19.8333 21.7083 20.5417 21.125 21.125C20.5417 21.7083 19.8333 22 19 22H5ZM5 20H19C19.2833 20 19.5208 19.9042 19.7125 19.7125C19.9042 19.5208 20 19.2833 20 19V5C20 4.71667 19.9042 4.47917 19.7125 4.2875C19.5208 4.09583 19.2833 4 19 4H5C4.71667 4 4.47917 4.09583 4.2875 4.2875C4.09583 4.47917 4 4.71667 4 5V19C4 19.2833 4.09583 19.5208 4.2875 19.7125C4.47917 19.9042 4.71667 20 5 20ZM6 18L10 14L11.8 15.775L14 13L18 18H6ZM8 10C7.45 10 6.97917 9.80417 6.5875 9.4125C6.19583 9.02083 6 8.55 6 8C6 7.45 6.19583 6.97917 6.5875 6.5875C6.97917 6.19583 7.45 6 8 6C8.55 6 9.02083 6.19583 9.4125 6.5875C9.80417 6.97917 10 7.45 10 8C10 8.55 9.80417 9.02083 9.4125 9.4125C9.02083 9.80417 8.55 10 8 10Z" fill="currentColor"/>
</svg>
