<svg viewBox="0 0 48 48" fill="currentColor" xmlns="http://www.w3.org/2000/svg">
<g clip-path="url(#clip0_5693_2265)">
<path fill-rule="evenodd" clip-rule="evenodd" d="M33.7749 43.6864C33.116 42.7342 33.3565 41.4309 34.3087 40.772C35.2609 40.1132 36.5642 40.3537 37.223 41.3059C37.8771 42.2581 37.6414 43.5613 36.6892 44.2202C35.737 44.8742 34.4337 44.6386 33.7749 43.6864ZM21.7569 46.2304C21.3481 45.6437 21.4972 44.8358 22.0839 44.4318C22.6706 44.0278 23.4737 44.1721 23.8825 44.7588C24.2913 45.3455 24.1422 46.1535 23.5555 46.5574C22.9688 46.9662 22.1608 46.8171 21.7569 46.2304ZM8.33455 39.1369C7.82959 39.2476 7.33425 38.9253 7.22845 38.4252C7.11784 37.925 7.44005 37.4297 7.9402 37.3191C8.44516 37.2085 8.93569 37.5307 9.0463 38.0308C9.15691 38.5358 8.8347 39.0263 8.33455 39.1369ZM3.13107 21.2662C4.0448 21.8914 4.27564 23.1369 3.65045 24.0459C3.02526 24.9548 1.7797 25.1856 0.87077 24.5653C-0.0429657 23.9401 -0.273804 22.6945 0.351384 21.7856C0.976571 20.8718 2.22214 20.641 3.13107 21.2662ZM10.869 9.04136C11.3451 9.72907 11.1719 10.6765 10.4842 11.1526C9.79653 11.6287 8.84913 11.4555 8.37302 10.7678C7.89692 10.0801 8.07005 9.13273 8.75776 8.65663C9.44546 8.18052 10.3929 8.35365 10.869 9.04136ZM13.7496 1.02453C14.3267 0.899489 14.8894 1.26498 15.0144 1.83727C15.1347 2.41437 14.774 2.97704 14.1969 3.10207C13.6198 3.22711 13.0571 2.86162 12.9321 2.28933C12.8119 1.71223 13.1774 1.14956 13.7496 1.02453ZM25.8446 2.56345C26.7824 1.99597 28.0039 2.30376 28.5666 3.24154C29.1293 4.18413 28.8263 5.40084 27.8885 5.96351C26.9507 6.53099 25.7292 6.2232 25.1665 5.28542C24.5991 4.34764 24.9068 3.12612 25.8446 2.56345ZM36.7517 11.6768C37.9588 13.4273 38.4494 15.4567 38.3003 17.4237C39.3294 17.7315 40.272 18.347 40.9453 19.2896C42.4361 21.4057 42.0177 24.2671 40.0749 25.907C42.4939 29.7639 41.4791 34.876 37.6943 37.4874C36.1217 38.5791 34.3087 39.0311 32.5293 38.9638C32.1927 40.2863 31.4136 41.5078 30.2017 42.3446C27.927 43.9172 24.9646 43.6239 22.988 41.8637C22.9364 41.9054 22.8881 41.9495 22.8397 41.9937C22.7708 42.0566 22.7016 42.1198 22.6225 42.1763C19.0782 44.6242 14.2209 43.7345 11.7731 40.195C10.8786 38.9013 10.441 37.4297 10.4025 35.9677C8.44997 35.6455 6.63212 34.5634 5.47311 32.7696C3.52061 29.7447 4.11213 25.8252 6.68021 23.4736C4.78541 20.4246 5.57411 16.409 8.55577 14.3458C9.45989 13.7206 10.465 13.384 11.4797 13.2445C12.1819 11.3978 13.4274 9.73388 15.178 8.52678C18.6309 6.14145 23.0361 6.23282 26.364 8.36327C30.0863 7.0119 34.3953 8.26709 36.7517 11.6768ZM43.0036 13.8553C43.5374 14.6248 43.3451 15.678 42.5756 16.207C41.811 16.7408 40.7578 16.5484 40.2239 15.779C39.6901 15.0095 39.8825 13.9563 40.652 13.4273C41.4214 12.8935 42.4746 13.0858 43.0036 13.8553ZM44.355 25.1327C45.0331 24.9836 45.7064 25.4165 45.8506 26.0946C45.9949 26.7726 45.5621 27.4411 44.8888 27.5902C44.2107 27.7393 43.5374 27.3065 43.3932 26.6284C43.2441 25.9503 43.6769 25.277 44.355 25.1327ZM46.8702 19.3185C47.3751 19.2079 47.8705 19.5301 47.9811 20.035C48.0917 20.54 47.7695 21.0353 47.2645 21.146C46.7596 21.2566 46.2642 20.9344 46.1536 20.4294C46.043 19.9244 46.3652 19.4291 46.8702 19.3185ZM31.8523 31.3695C32.7456 31.4938 33.6293 31.6167 33.77 32.5148C34.1451 34.9097 29.4995 34.02 28.4415 33.4958C26.7775 32.6783 25.7676 30.8171 26.2004 28.9752C26.3668 28.2652 27.2674 26.425 28.1158 24.6914C28.9109 23.0668 29.6601 21.5359 29.7159 21.1171C29.8313 20.237 29.3601 20.1601 29.0667 20.1457C28.6916 20.1264 28.3886 20.3092 28.0183 20.8718C27.787 21.2221 25.9071 24.9491 24.6458 27.4496C24.0716 28.588 23.6256 29.4722 23.5218 29.6677C22.9254 30.7835 22.18 31.0528 21.4298 31.0143C20.3333 30.9566 19.8332 30.3699 19.9919 29.3167C20.0338 29.0318 20.5688 27.7224 21.1471 26.3066C21.8281 24.6398 22.5693 22.8256 22.6369 22.3627C22.7138 21.8337 22.608 21.271 22.0838 21.0017C21.5596 20.7324 20.9441 21.146 20.7565 21.4585C20.6317 21.6666 19.7724 23.8502 18.873 26.1357C17.9012 28.6052 16.8826 31.1938 16.6928 31.5385C16.058 32.6927 15.3943 33.0582 14.3892 33.1063C12.0135 33.2169 10.2582 31.2644 11.0324 28.8742C11.0963 28.6773 11.2262 28.2418 11.4028 27.6496C12.1833 25.0319 13.8769 19.3523 14.822 17.6738C15.5963 16.2935 17.7604 15.2403 19.2561 15.8896C19.7464 16.1014 20.3529 16.3933 20.8142 16.6153C21.0859 16.7461 21.3073 16.8526 21.425 16.9043C22.0671 17.1915 22.7537 16.5475 23.1198 16.204C23.1705 16.1565 23.215 16.1147 23.2524 16.0819C23.2801 16.0577 23.3077 16.0334 23.3353 16.0092C23.6144 15.7634 23.8921 15.519 24.2335 15.3702C24.6134 15.2067 25.205 15.1393 25.6618 15.2067C26.1187 15.274 26.388 15.4423 26.5611 15.5818C26.8508 15.8135 27.0479 16.0025 27.2995 16.2438C27.3403 16.2829 27.3825 16.3234 27.4268 16.3657C27.8644 16.7812 28.1923 16.5832 28.4292 16.4402C28.45 16.4276 28.4702 16.4154 28.4896 16.4041L28.5095 16.3927C28.9185 16.1575 29.2498 15.9669 30.4613 15.9906C31.7261 16.0146 33.1833 16.4667 33.4863 18.626C33.6498 19.7916 32.7274 21.8492 31.7696 23.9856C30.7557 26.2475 29.7021 28.5977 29.8554 30.0717C29.9638 31.1068 30.9133 31.2389 31.8523 31.3695Z" fill="currentColor"/>
</g>
<defs>
<clipPath id="clip0_5693_2265">
<rect width="48" height="48" fill="white"/>
</clipPath>
</defs>
</svg>
