<svg viewBox="0 0 48 48" fill="currentColor" xmlns="http://www.w3.org/2000/svg">
<g clip-path="url(#clip0_5049_12690)">
<path fill-rule="evenodd" clip-rule="evenodd" d="M45.4928 9.66825C46.2375 10.4178 46.7724 11.3498 47.0437 12.3709C48.0474 16.14 48.0474 24 48.0474 24C48.0474 24 48.0474 31.86 47.0437 35.6291C46.7724 36.6503 46.2375 37.5823 45.4928 38.3318C44.748 39.0813 43.8195 39.6221 42.8001 39.9C39.0474 40.9091 24.0474 40.9091 24.0474 40.9091C24.0474 40.9091 9.04736 40.9091 5.29464 39.9C4.27522 39.6221 3.34668 39.0813 2.60194 38.3318C1.8572 37.5823 1.32237 36.6503 1.051 35.6291C0.0473633 31.86 0.0473633 24 0.0473633 24C0.0473633 24 0.0473633 16.14 1.051 12.3709C1.32237 11.3498 1.8572 10.4178 2.60194 9.66825C3.34668 8.91872 4.27522 8.37794 5.29464 8.10003C9.04736 7.09094 24.0474 7.09094 24.0474 7.09094C24.0474 7.09094 39.0474 7.09094 42.8001 8.10003C43.8195 8.37794 44.748 8.91872 45.4928 9.66825ZM31.6838 24L19.1384 16.8628V31.1373L31.6838 24Z" fill="currentColor"/>
</g>
<defs>
<clipPath id="clip0_5049_12690">
<rect width="48" height="48" fill="white"/>
</clipPath>
</defs>
</svg>
