<?xml version="1.0" encoding="UTF-8"?>
<svg id="artboard_1" xmlns="http://www.w3.org/2000/svg" version="1.1" viewBox="0 0 293.2 56.7">
  <!-- Generator: Adobe Illustrator 30.1.0, SVG Export Plug-In . SVG Version: 2.1.1 Build 136)  -->
  <defs>
    <style>
      .st0 {
        fill: #b7bdb5;
      }

      .st1 {
        fill: #cf0;
        fill-rule: evenodd;
      }
    </style>
  </defs>
  <path class="st1" d="M99.4,33.2h8.8v-13.6h-8.8v13.6ZM108.1,14.2h6.8v25.3c0,4.2-.4,4.9-1.6,6-.9.9-2.3,1.4-4.7,1.4h-9.9l-3.1-3.4v-1.4h12.4v-3.5h-8.5c-2.6,0-3.9-.5-5-1.6-1.4-1.5-2-4.6-2-10.6s.7-9.3,2.1-10.8c1.1-1.1,2.5-1.5,4.9-1.5h5.1s3.4,3.1,3.4,3.1v-3.1ZM28.4,7.5h8l-11.5,14.6,12,16.5h-8.5l-9.1-13h-2.1v13h-7.2V7.5h7.2v12.1h2.1l9.1-12.1ZM80.9,21.9v-2.2h-8.3v18.9h-6.7V14.2h6.7v3.1l3.4-3.1h1.9c.3,0,.6,0,1,0h2.9c2,0,3.4.4,4.3,1.4,1,1,1.4,2.2,1.4,5.8v17.2h-6.7v-16.3c0,0,0-.2,0-.3ZM45.6,33.2h8.8v-13.6h-8.8v13.6ZM45.9,38.5c-2.4,0-3.7-.4-4.8-1.5-1.6-1.6-2.2-3.8-2.2-10.7s.6-9.1,2.2-10.7c1-1.1,2.3-1.5,4.8-1.5h8.2c2.4,0,3.7.4,4.8,1.5,1.6,1.7,2.2,3.8,2.2,10.7s-.6,9.1-2.2,10.7c-1.1,1.1-2.3,1.5-4.8,1.5h-8.2Z"/>
  <path class="st0" d="M132.4,39.8V8.3h13.1c3.2,0,5.8.9,7.6,2.7,1.9,1.8,2.8,4.2,2.8,7.2s-.9,5.5-2.8,7.2c-1.9,1.8-4.4,2.7-7.6,2.7h-7.3v11.7h-5.8ZM138.2,23h7c1.5,0,2.8-.4,3.7-1.3.9-.9,1.4-2.1,1.4-3.5s-.5-2.6-1.4-3.5c-.9-.9-2.1-1.3-3.7-1.3h-7v9.7ZM160.6,39.8V7.1h5.6v32.7h-5.6ZM180.8,40.2c-1.7,0-3.2-.4-4.4-1.2-1.3-.8-2.3-1.9-3-3.3-.7-1.4-1.1-3.1-1.1-4.9v-14.3h5.6v13.2c0,1.7.4,3.1,1.2,4,.8,1,2,1.4,3.5,1.4s2.8-.5,3.8-1.5c.9-1,1.4-2.4,1.4-4.1v-13h5.6v23.4h-5.5v-3.8h-.2c-.6,1.4-1.6,2.4-2.8,3.2-1.2.7-2.7,1.1-4.3,1.1ZM209.8,49.6c-3,0-5.6-.7-7.6-2.2-2-1.4-3.2-3.3-3.5-5.7h6c.3,1,.8,1.8,1.7,2.4.9.6,2,.9,3.3.9s3.2-.5,4.2-1.6c1-1,1.6-2.4,1.6-4.2v-3.3h-.2c-.6,1.3-1.5,2.3-2.7,3-1.1.7-2.4,1-3.9,1s-3.7-.5-5.2-1.5c-1.5-1-2.6-2.4-3.5-4.2-.8-1.8-1.2-3.9-1.2-6.2s.4-4.4,1.2-6.2c.8-1.8,2-3.2,3.5-4.2,1.5-1,3.2-1.5,5.2-1.5s2.9.3,4,1c1.1.7,2,1.6,2.6,2.9h.2v-3.5h5.5v22.8c0,3.2-1,5.7-3,7.6-2,1.8-4.7,2.8-8.2,2.8ZM210.1,34.7c1.6,0,2.9-.5,3.8-1.6.9-1.1,1.4-2.5,1.4-4.3v-2.1c0-1.7-.5-3.1-1.4-4.2-.9-1.1-2.2-1.6-3.8-1.6s-3.1.6-4.2,1.9c-1,1.2-1.5,2.9-1.5,5s.5,3.8,1.5,5c1,1.2,2.4,1.8,4.2,1.8ZM227.3,39.8v-23.4h5.6v23.4h-5.6ZM230.1,13.9c-.9,0-1.7-.3-2.3-.9-.6-.6-.9-1.4-.9-2.3s.3-1.7.9-2.3c.6-.6,1.4-1,2.3-1s1.7.3,2.3,1c.6.6,1,1.4,1,2.3s-.3,1.7-1,2.3c-.6.6-1.4.9-2.3.9ZM239.2,39.8v-23.4h5.5v3.5h.2c.7-1.3,1.6-2.2,2.8-2.9,1.2-.7,2.6-1.1,4.2-1.1s3.2.4,4.5,1.2c1.3.8,2.3,2,3,3.4.7,1.5,1.1,3.1,1.1,5v14.1h-5.6v-13c0-1.8-.4-3.1-1.3-4.1-.9-1-2.1-1.5-3.7-1.5s-2.8.5-3.7,1.5c-.9,1-1.3,2.4-1.3,4.1v13h-5.6ZM275.4,40.3c-2.9,0-5.3-.7-7.2-2.2-1.8-1.5-2.8-3.4-3-5.9h5.5c.2,1.2.7,2.1,1.5,2.7.9.6,2,.9,3.4.9s2.1-.2,2.7-.7c.6-.5,1-1.1,1-2,0-1.3-.9-2.1-2.6-2.5l-4.2-.9c-4.3-.9-6.4-3.1-6.4-6.4s.8-4,2.5-5.3c1.7-1.3,3.8-2,6.5-2s4.9.7,6.6,2.1c1.7,1.4,2.6,3.2,2.8,5.6h-5.5c-.2-1.1-.7-1.9-1.4-2.5-.7-.6-1.7-.9-2.8-.9s-1.9.2-2.5.7c-.6.4-.9,1-.9,1.8s.2,1.1.6,1.4c.4.4,1,.6,1.9.8l4.4.9c2.2.5,3.8,1.2,4.9,2.3,1.1,1.1,1.6,2.5,1.6,4.4s-.8,4.2-2.5,5.6c-1.6,1.3-3.9,2-6.7,2Z"/>
</svg>