<?xml version="1.0" encoding="UTF-8"?>
<svg id="artboard_1" xmlns="http://www.w3.org/2000/svg" version="1.1" viewBox="0 0 326.1 56.7">
  <!-- Generator: Adobe Illustrator 30.1.0, SVG Export Plug-In . SVG Version: 2.1.1 Build 136)  -->
  <defs>
    <style>
      .st0 {
        fill: #b7bdb5;
      }

      .st1 {
        fill: #cf0;
        fill-rule: evenodd;
      }
    </style>
  </defs>
  <path class="st1" d="M101.2,33.3h9v-13.9h-9v13.9ZM110.2,13.9h6.9v25.9c0,4.3-.4,5-1.6,6.2-.9.9-2.3,1.4-4.8,1.4h-10.1l-3.1-3.5v-1.4h12.7v-3.5h-8.7c-2.6,0-4-.5-5.1-1.6-1.4-1.5-2-4.7-2-10.8s.7-9.5,2.2-11c1.1-1.1,2.5-1.5,5-1.5h5.2s3.4,3.2,3.4,3.2v-3.1ZM28.8,7.1h8.1l-11.7,14.9,12.2,16.9h-8.6l-9.3-13.2h-2.2v13.2h-7.3V7.1h7.3v12.3h2.2l9.3-12.3ZM82.4,21.8v-2.3h-8.4v19.2h-6.8V13.9h6.8v3.1l3.4-3.1h2c.3,0,.6,0,1,0h3c2.1,0,3.4.4,4.4,1.4,1,1,1.4,2.3,1.4,6v17.5h-6.8v-16.7c0,0,0-.2,0-.3ZM46.3,33.3h9v-13.9h-9v13.9ZM46.6,38.8c-2.5,0-3.8-.4-4.9-1.5-1.6-1.6-2.2-3.9-2.2-10.9s.6-9.2,2.2-10.9c1-1.1,2.4-1.5,4.9-1.5h8.3c2.5,0,3.8.4,4.9,1.5,1.6,1.7,2.2,3.9,2.2,10.9s-.6,9.2-2.2,10.9c-1.1,1.1-2.4,1.5-4.9,1.5h-8.3Z"/>
  <path class="st0" d="M148.2,40.5c-2.9,0-5.4-.7-7.7-2-2.3-1.4-4-3.3-5.3-5.8-1.3-2.5-1.9-5.4-1.9-8.8s.6-6.3,1.9-8.8c1.3-2.5,3.1-4.4,5.3-5.8,2.3-1.4,4.8-2,7.7-2s5.5.7,7.7,2c2.3,1.3,4.1,3.2,5.3,5.7,1.3,2.5,1.9,5.4,1.9,8.8s-.6,6.3-1.9,8.8c-1.3,2.5-3.1,4.4-5.3,5.8-2.2,1.4-4.8,2-7.7,2ZM148.2,35.3c1.8,0,3.4-.5,4.8-1.4,1.4-1,2.4-2.3,3.1-4s1.1-3.7,1.1-5.9-.4-4.3-1.1-6c-.7-1.7-1.8-3-3.1-3.9-1.4-.9-2.9-1.4-4.8-1.4s-3.4.5-4.8,1.4c-1.4.9-2.4,2.2-3.1,3.9-.7,1.7-1.1,3.7-1.1,6s.4,4.2,1.1,5.9,1.8,3,3.1,4c1.4.9,2.9,1.4,4.8,1.4ZM168.7,49.6V16.2h5.6v3.6h.2c1.4-2.7,3.7-4.1,7-4.1s3.7.5,5.2,1.6c1.5,1,2.6,2.5,3.5,4.3.8,1.9,1.2,4,1.2,6.5s-.4,4.6-1.2,6.5c-.8,1.9-2,3.3-3.5,4.3-1.5,1-3.2,1.5-5.2,1.5-3.2,0-5.5-1.3-6.8-3.9h-.2v13h-5.8ZM179.8,35.4c1.8,0,3.2-.6,4.2-1.9,1-1.3,1.5-3.1,1.5-5.3s-.5-4-1.5-5.3c-1-1.3-2.4-2-4.2-2s-3,.5-3.9,1.6-1.4,2.5-1.4,4.4v2.5c0,1.8.5,3.3,1.4,4.4,1,1.1,2.3,1.6,3.9,1.6ZM206.6,40.5c-2.2,0-4.2-.5-6-1.5-1.7-1-3.1-2.5-4.1-4.3-1-1.9-1.5-4.1-1.5-6.6s.5-4.7,1.4-6.5c1-1.9,2.3-3.3,4-4.3,1.7-1,3.6-1.5,5.8-1.5s3.9.5,5.5,1.4c1.6.9,2.9,2.2,3.9,4,1,1.7,1.4,3.9,1.4,6.3v2.1h-16.5c.2,2,.8,3.5,1.9,4.6,1.1,1.1,2.4,1.6,4,1.6s2.2-.3,3-.9c.8-.6,1.4-1.4,1.7-2.4h5.9c-.3,1.7-1,3.1-2,4.3-1,1.2-2.2,2.1-3.7,2.7-1.5.6-3.1,1-4.8,1ZM200.8,25.5h10.6c-.2-1.6-.8-2.9-1.7-3.7-.9-.9-2.1-1.3-3.5-1.3s-2.6.4-3.5,1.3c-1,.9-1.6,2.1-1.9,3.7ZM222.6,40.1v-23.8h5.5v4.2h.2c.5-1.4,1.4-2.4,2.5-3.2,1.1-.8,2.5-1.2,4-1.2h1.9v5.1h-2.2c-2.1,0-3.6.6-4.6,1.9-1,1.2-1.5,2.9-1.5,5v12.2h-5.8ZM246.6,40.5c-2.4,0-4.4-.7-5.8-2-1.5-1.4-2.2-3.1-2.2-5.3s.8-4.1,2.3-5.4c1.6-1.3,3.7-1.9,6.6-1.9h6.1v-1c0-1.4-.4-2.5-1.2-3.2-.8-.8-1.8-1.2-3.2-1.2s-2.1.3-2.9.8c-.8.5-1.3,1.3-1.5,2.3h-5.8c.5-2.5,1.6-4.4,3.4-5.8,1.8-1.4,4.1-2.1,6.9-2.1s5.5.8,7.3,2.4c1.7,1.6,2.6,3.9,2.6,6.8v15.1h-5.4v-3.6h-.2c-.6,1.3-1.6,2.3-2.8,3-1.2.7-2.6,1-4.1,1ZM247.9,35.9c1.1,0,2.1-.2,2.9-.7.9-.5,1.6-1.1,2.1-1.9.5-.8.8-1.8.8-2.9v-.5h-5.8c-1.2,0-2.1.3-2.7.8-.6.5-1,1.3-1,2.2s.3,1.7,1,2.3c.7.5,1.6.8,2.8.8ZM271.4,40.1c-1.5,0-2.7-.4-3.5-1.2-.8-.8-1.3-2-1.3-3.6v-14.4h-3.8v-4.6h3.9v-7.2h5.6v7.2h5.1v4.6h-5v14.6h5.6v4.6h-6.5ZM292.5,40.5c-2.2,0-4.2-.5-6-1.5-1.7-1-3.1-2.5-4.2-4.3-1-1.9-1.5-4-1.5-6.6s.5-4.7,1.5-6.6c1-1.9,2.4-3.3,4.2-4.3,1.7-1,3.7-1.5,6-1.5s4.3.5,6,1.5c1.7,1,3.1,2.4,4.1,4.3,1,1.9,1.5,4.1,1.5,6.6s-.5,4.7-1.5,6.6c-1,1.9-2.4,3.3-4.1,4.3-1.7,1-3.7,1.5-6,1.5ZM292.5,35.4c1.8,0,3.2-.6,4.3-1.9,1.1-1.3,1.6-3.1,1.6-5.3s-.5-4-1.6-5.3c-1.1-1.3-2.5-1.9-4.3-1.9s-3.1.6-4.3,1.9c-1.1,1.3-1.6,3.1-1.6,5.3s.5,4,1.6,5.3c1.1,1.3,2.5,1.9,4.3,1.9ZM309.5,40.1v-23.8h5.5v4.2h.2c.5-1.4,1.4-2.4,2.5-3.2,1.1-.8,2.5-1.2,4-1.2h1.9v5.1h-2.2c-2.1,0-3.6.6-4.6,1.9-1,1.2-1.5,2.9-1.5,5v12.2h-5.8Z"/>
</svg>