<?xml version="1.0" encoding="UTF-8"?>
<svg id="artboard_1" xmlns="http://www.w3.org/2000/svg" version="1.1" viewBox="0 0 368.5 56.7">
  <!-- Generator: Adobe Illustrator 30.1.0, SVG Export Plug-In . SVG Version: 2.1.1 Build 136)  -->
  <defs>
    <style>
      .st0 {
        fill: #b7bdb5;
      }

      .st1 {
        fill: #cf0;
        fill-rule: evenodd;
      }
    </style>
  </defs>
  <path class="st1" d="M105.4,35h9.4v-14.5h-9.4v14.5ZM114.7,14.9h7.2v26.9c0,4.4-.5,5.2-1.7,6.4-.9,1-2.4,1.4-5,1.4h-10.5l-3.3-3.6v-1.5h13.3v-3.7h-9.1c-2.7,0-4.1-.5-5.3-1.7-1.5-1.6-2.1-4.9-2.1-11.3s.7-9.9,2.3-11.5c1.2-1.1,2.6-1.6,5.2-1.6h5.4l3.6,3.3v-3.3.2ZM29.7,7.7h8.5l-12.2,15.5,12.8,17.5h-9l-9.7-13.8h-2.3v13.8h-7.7V7.7h7.7v12.8h2.3l9.7-12.8h0ZM85.7,23v-2.4h-8.8v20h-7.2V14.9h7.2v3.3l3.6-3.3h6.2c2.2,0,3.6.5,4.6,1.4,1.1,1,1.5,2.4,1.5,6.2v18.2h-7.2v-17.3c0-.1,0-.2,0-.3h0ZM48,35h9.4v-14.5h-9.4v14.5ZM48.3,40.7c-2.6,0-4-.4-5.1-1.6-1.7-1.7-2.3-4-2.3-11.3s.7-9.6,2.3-11.4c1.1-1.1,2.5-1.6,5.1-1.6h8.7c2.6,0,4,.4,5.1,1.6,1.7,1.8,2.3,4,2.3,11.4s-.7,9.6-2.3,11.3c-1.1,1.2-2.5,1.6-5.1,1.6h-8.7Z"/>
  <path class="st0" d="M300,7.1h6v8.7h6.7v5.3h-6.7v12.3c0,1.3.5,1.7,1.6,1.7h5.1v5.3h-8.3c-2.8,0-4.4-1.5-4.4-4.3v-15h-4.4v-5.3h4.4V7.1h0Z"/>
  <path class="st0" d="M281.9,40.9c-7,0-11.8-5.3-11.8-12.8s4.9-12.8,11.8-12.8,11,4.2,11.7,10.7h-5.9c-.4-3.4-2.6-5.2-5.8-5.2s-5.9,2.6-5.9,7.3,2.2,7.2,5.9,7.2,5.4-1.7,5.8-5.2h5.9c-.7,6.7-5.3,10.8-11.7,10.8Z"/>
  <path class="st0" d="M255.8,40.9c-7.3,0-12.2-5.2-12.2-12.9s5.1-12.7,12-12.7,7,1.5,9.1,4c2.1,2.6,2.7,5.6,2.7,8s0,1.4-.1,2.2h-17.7c.1,1.1.4,1.9.7,2.6,1,2,2.8,3.3,5.6,3.3s5.1-1.3,5.8-3.9h5.6c-1.4,6.2-5.6,9.3-11.6,9.3h0ZM249.9,25.6h11.6c-.2-2.9-2.3-5.4-5.8-5.4s-4.2,1.3-5.3,3.5c-.2.6-.4,1.2-.6,1.9h.1Z"/>
  <path class="st0" d="M224.8,26.5v14h-6V15.8h6v3.2c.2-.4.4-.7.7-1,1.4-1.8,3.5-2.6,6.3-2.6,6.1,0,8.4,3.6,8.4,10.9v14.2h-6v-14c0-4.2-1.7-5.9-4.7-5.9s-4.7,1.7-4.7,5.9Z"/>
  <path class="st0" d="M199.1,26.5v14h-6V15.8h6v3.2c.2-.4.4-.7.7-1,1.4-1.8,3.5-2.6,6.3-2.6,6.1,0,8.4,3.6,8.4,10.9v14.2h-6v-14c0-4.2-1.7-5.9-4.7-5.9s-4.7,1.7-4.7,5.9Z"/>
  <path class="st0" d="M177.3,40.9c-7.1,0-12.4-5.6-12.4-12.8s5.3-12.8,12.4-12.8,12.4,5.5,12.4,12.8-5.3,12.8-12.4,12.8ZM177.3,35.7c3.6,0,6.4-2.8,6.4-7.6s-2.8-7.6-6.4-7.6-6.4,2.8-6.4,7.6,2.9,7.6,6.4,7.6Z"/>
  <path class="st0" d="M144.9,26.1v14.3h-6.2V7.2h6.2v14.3l12.4-14.3h8l-14.2,16.5,14.5,16.8h-8.2l-12.4-14.3h-.1Z"/>
</svg>