<svg width="24" height="24" viewBox="0 0 24 24" fill="none" xmlns="http://www.w3.org/2000/svg">
<path d="M9.80957 2.72393C9.55994 2.47333 9.21361 2.31895 8.82754 2.31895C8.44243 2.31895 8.09877 2.47333 7.8523 2.72393H7.84599C7.59709 2.97283 7.44271 3.32012 7.44271 3.70377C7.44271 4.08961 7.59709 4.43472 7.84599 4.6812L7.8523 4.68799C8.09877 4.9364 8.44243 5.0886 8.82754 5.0886C9.21361 5.0886 9.55994 4.9364 9.80957 4.68799L9.81248 4.6812C10.0623 4.43472 10.2148 4.08961 10.2148 3.70377C10.2148 3.32012 10.0623 2.97283 9.81248 2.72393H9.80957ZM8.82754 21.6811C9.21361 21.6811 9.55994 21.5238 9.80957 21.2778L9.81248 21.2705C10.0623 21.025 10.2148 20.6777 10.2148 20.296C10.2148 19.9102 10.0623 19.5646 9.81248 19.3145H9.80957C9.55994 19.0614 9.21361 18.9085 8.82754 18.9085C8.44243 18.9085 8.09877 19.0614 7.8523 19.3145H7.84599C7.59709 19.5646 7.44271 19.9102 7.44271 20.296C7.44271 20.6777 7.59709 21.025 7.84599 21.2705L7.8523 21.2778C8.09877 21.5238 8.44243 21.6811 8.82754 21.6811ZM16.3728 17.4851C16.7158 17.395 17.0262 17.1749 17.216 16.8419L17.2414 16.7932C17.4101 16.4779 17.4409 16.1134 17.3507 15.7899C17.2599 15.4445 17.0374 15.1382 16.7051 14.9474L16.6855 14.9343C16.3617 14.7565 15.9933 14.7177 15.6545 14.81C15.3101 14.896 15.0006 15.1253 14.8121 15.4554C14.6211 15.7836 14.5813 16.1607 14.6727 16.5077C14.767 16.8492 14.9878 17.1577 15.3181 17.3506H15.32C15.6511 17.5409 16.0253 17.5751 16.3728 17.4851ZM10.248 10.5809C9.88446 10.2183 9.38278 9.99099 8.82754 9.99099C8.27303 9.99099 7.7728 10.2183 7.40999 10.5809C7.0484 10.943 6.82543 11.4425 6.82543 11.9977C6.82543 12.5529 7.0484 13.0546 7.40999 13.4208C7.7728 13.7812 8.27303 14.0064 8.82754 14.0064C9.38278 14.0064 9.88446 13.7812 10.248 13.4208C10.6106 13.0546 10.8335 12.5529 10.8335 11.9977C10.8335 11.4425 10.6106 10.943 10.248 10.5809ZM9.44918 8.22058C10.2553 8.35339 10.9789 8.73946 11.5322 9.29664H11.5364C11.6243 9.38437 11.7099 9.48107 11.7896 9.57753L13.1723 8.77775C12.9864 8.21597 12.9777 7.62874 13.1272 7.07786C13.3242 6.34037 13.8024 5.68019 14.5193 5.26649L14.5426 5.25171C15.2517 4.85061 16.0575 4.76699 16.7848 4.96403C17.5216 5.16155 18.1861 5.6419 18.5998 6.35758V6.35976C19.0116 7.07156 19.095 7.88831 18.8987 8.62362C18.7026 9.36086 18.2227 10.0256 17.5066 10.4369L17.3178 10.5484H17.2986C16.6363 10.8637 15.908 10.9132 15.2391 10.737C14.6899 10.5916 14.1863 10.2847 13.7917 9.8497L12.411 10.6473C12.5698 11.0671 12.6575 11.5195 12.6575 11.9977C12.6575 12.4735 12.5698 12.9325 12.411 13.3544L13.7917 14.1498C14.1863 13.708 14.6899 13.4082 15.2391 13.2623C15.9761 13.0609 16.7928 13.1465 17.5066 13.5626L17.5524 13.5839V13.5861C18.2419 14.0042 18.7048 14.6493 18.8987 15.3781C19.095 16.109 19.0116 16.9263 18.5998 17.6395L18.5749 17.6892L18.572 17.6851C18.1585 18.3727 17.5066 18.8385 16.787 19.0355C16.049 19.2301 15.2321 19.147 14.5193 18.7369V18.7313C13.8024 18.3169 13.3242 17.6553 13.1272 16.9192C12.9777 16.3708 12.9864 15.7836 13.1723 15.222L11.7896 14.4242C11.7099 14.5206 11.6243 14.613 11.5364 14.7007L11.5322 14.7051C10.9789 15.2603 10.2553 15.6461 9.44918 15.7746V17.3722C10.0236 17.4922 10.5378 17.7794 10.9406 18.1824L10.9428 18.1865C11.4828 18.7241 11.8173 19.473 11.8173 20.296C11.8173 21.1166 11.4828 21.8611 10.9428 22.4014L10.9406 22.4098C10.3968 22.9498 9.65082 23.2843 8.82754 23.2843C8.00862 23.2843 7.2607 22.9498 6.71807 22.4098H6.71589V22.4014C6.17543 21.8611 5.84025 21.1166 5.84025 20.296C5.84025 19.473 6.17543 18.7241 6.71589 18.1865V18.1824H6.71807C7.12062 17.7794 7.63587 17.4922 8.20808 17.3722V15.7746C7.40224 15.6461 6.67977 15.2603 6.12744 14.7051L6.12163 14.7007C5.43188 14.0085 5 13.0546 5 11.9977C5 10.943 5.43188 9.98905 6.12163 9.29664H6.12744C6.67977 8.73946 7.40224 8.35339 8.20808 8.22058V6.62975C7.63587 6.50566 7.12062 6.21847 6.71807 5.81761H6.71589V5.81325C6.17543 5.27085 5.84025 4.52706 5.84025 3.70377C5.84025 2.88485 6.17543 2.13452 6.71589 1.5943L6.71807 1.59212C7.2607 1.04997 8.00862 0.715759 8.82754 0.715759C9.65082 0.715759 10.3968 1.04997 10.9406 1.59212V1.5943H10.9428C11.4828 2.13452 11.8173 2.88485 11.8173 3.70377C11.8173 4.52706 11.4828 5.27085 10.9428 5.81325L10.9406 5.81761C10.5378 6.21847 10.0236 6.50566 9.44918 6.62975V8.22058ZM17.216 7.15954L17.2041 7.14209C17.0136 6.82072 16.7092 6.60648 16.3728 6.51414C16.0253 6.4218 15.6511 6.46058 15.3181 6.65156H15.32C14.9878 6.84011 14.7655 7.14839 14.6727 7.49399C14.5813 7.83693 14.6211 8.21597 14.8121 8.5463L14.8186 8.55479C15.0098 8.88076 15.3145 9.09936 15.6545 9.18734C15.9962 9.28404 16.3769 9.24308 16.7051 9.0521L16.7228 9.04362C17.0459 8.8507 17.2611 8.5463 17.3507 8.21185C17.4423 7.86673 17.4058 7.48963 17.216 7.15954Z" fill="url(#paint0_linear_3791_5891)"/>
<defs>
<linearGradient id="paint0_linear_3791_5891" x1="24" y1="-1.86838e-07" x2="-4.93857" y2="13.0415" gradientUnits="userSpaceOnUse">
<stop stop-color="rgb(var(--color-event-gateway-brand))"/>
<stop offset="1" stop-color="rgb(var(--color-event-gateway-brand))"/>
</linearGradient>
</defs>
</svg>
