<svg width="12" height="12" viewBox="0 0 24 24" fill="none" xmlns="http://www.w3.org/2000/svg">
<path fill-rule="evenodd" clip-rule="evenodd" d="M8.56654 17.8134H12.2371L14.1429 20.2096L13.8152 21.026H9.0731L9.18942 20.2096L8.07153 18.4462L8.56654 17.8134ZM11.193 7.28639L13.1602 7.28343L22 17.822L21.3132 21.026H17.5245L17.7604 20.1233L9.50009 10.2732L11.193 7.28639ZM14.6686 3L18.778 6.22975L18.2519 6.77265L18.9644 7.76492V8.82592L16.9157 10.496L13.4703 6.42551H11.4644L12.272 4.94512L14.6686 3ZM6.04318 13.3443L8.90974 10.853L12.7144 15.4313L11.6342 17.1086H8.12603L5.69899 20.2934L5.14469 21.026H2V17.1183L4.93106 13.3443H6.04318Z" fill="rgb(var(--color-konnect-brand))"/>
</svg>