<svg data-testid="kui-icon-svg-brain-icon" fill="none" height="100%" role="img" viewBox="0 0 24 24" width="100%" xmlns="http://www.w3.org/2000/svg"><path d="M12.275 15.525C13.4417 15.525 14.4333 15.15 15.25 14.4C16.0667 13.65 16.475 12.7417 16.475 11.675C16.475 10.725 16.1708 9.92083 15.5625 9.2625C14.9542 8.60417 14.2167 8.275 13.35 8.275C12.5667 8.275 11.9042 8.525 11.3625 9.025C10.8208 9.525 10.55 10.1417 10.55 10.875C10.55 11.1917 10.6125 11.5 10.7375 11.8C10.8625 12.1 11.0417 12.375 11.275 12.625L12.7 11.2C12.65 11.1667 12.6125 11.125 12.5875 11.075C12.5625 11.025 12.55 10.9667 12.55 10.9C12.55 10.7167 12.625 10.5708 12.775 10.4625C12.925 10.3542 13.1167 10.3 13.35 10.3C13.6833 10.3 13.9583 10.4375 14.175 10.7125C14.3917 10.9875 14.5 11.3167 14.5 11.7C14.5 12.2167 14.2875 12.6542 13.8625 13.0125C13.4375 13.3708 12.9167 13.55 12.3 13.55C11.5167 13.55 10.8542 13.2333 10.3125 12.6C9.77083 11.9667 9.5 11.1917 9.5 10.275C9.5 9.79167 9.59167 9.32917 9.775 8.8875C9.95833 8.44583 10.2167 8.05833 10.55 7.725L9.125 6.3C8.59167 6.81667 8.18333 7.41667 7.9 8.1C7.61667 8.78333 7.475 9.5 7.475 10.25C7.475 11.7167 7.94167 12.9625 8.875 13.9875C9.80833 15.0125 10.9417 15.525 12.275 15.525ZM6 22V17.7C5.05 16.8333 4.3125 15.8208 3.7875 14.6625C3.2625 13.5042 3 12.2833 3 11C3 8.5 3.875 6.375 5.625 4.625C7.375 2.875 9.5 2 12 2C14.0833 2 15.9292 2.6125 17.5375 3.8375C19.1458 5.0625 20.1917 6.65833 20.675 8.625L21.975 13.75C22.0583 14.0667 22 14.3542 21.8 14.6125C21.6 14.8708 21.3333 15 21 15H19V18C19 18.55 18.8042 19.0208 18.4125 19.4125C18.0208 19.8042 17.55 20 17 20H15V22H13V18H17V13H19.7L18.75 9.125C18.3667 7.60833 17.55 6.375 16.3 5.425C15.05 4.475 13.6167 4 12 4C10.0667 4 8.41667 4.675 7.05 6.025C5.68333 7.375 5 9.01667 5 10.95C5 11.95 5.20417 12.9 5.6125 13.8C6.02083 14.7 6.6 15.5 7.35 16.2L8 16.8V22H6Z" fill="currentColor"></path></svg>