<svg width="331" height="305" viewBox="0 0 331 305" fill="none" xmlns="http://www.w3.org/2000/svg">
<path d="M46.1187 29.6054C45.7282 29.2149 45.095 29.2149 44.7045 29.6054L38.3405 35.9694C37.95 36.3599 37.95 36.993 38.3405 37.3836C38.731 37.7741 39.3642 37.7741 39.7547 37.3836L45.4116 31.7267L51.0684 37.3836C51.459 37.7741 52.0921 37.7741 52.4827 37.3836C52.8732 36.993 52.8732 36.3599 52.4827 35.9694L46.1187 29.6054ZM45.4116 272.812H46.4116L46.4116 30.3125H45.4116H44.4116L44.4116 272.812H45.4116Z" fill="#428CDC"/>
<path d="M287.305 273.52C287.695 273.129 287.695 272.496 287.305 272.105L280.941 265.741C280.55 265.351 279.917 265.351 279.526 265.741C279.136 266.132 279.136 266.765 279.526 267.156L285.183 272.812L279.526 278.469C279.136 278.86 279.136 279.493 279.526 279.884C279.917 280.274 280.55 280.274 280.941 279.884L287.305 273.52ZM45.4116 272.812V273.812H286.598V272.812V271.812H45.4116V272.812Z" fill="#428CDC"/>
<path d="M195.76 90.8405C195.706 90.2904 195.217 89.888 194.668 89.9416L185.716 90.815C185.167 90.8686 184.765 91.3579 184.819 91.9079C184.872 92.4579 185.361 92.8603 185.91 92.8067L193.868 92.0304L194.645 99.9975C194.699 100.548 195.187 100.95 195.737 100.896C196.286 100.843 196.688 100.353 196.634 99.8035L195.76 90.8405ZM45.4116 272.812L46.1836 273.448L195.537 91.5731L194.765 90.9375L193.993 90.3019L44.6396 272.177L45.4116 272.812Z" fill="#428CDC"/>
<path d="M195.69 210.545C195.9 210.034 195.655 209.45 195.144 209.241L186.819 205.832C186.309 205.622 185.725 205.867 185.515 206.379C185.306 206.89 185.55 207.474 186.061 207.683L193.461 210.714L190.428 218.12C190.219 218.632 190.463 219.216 190.974 219.425C191.485 219.634 192.069 219.389 192.278 218.878L195.69 210.545ZM45.4116 272.812L45.7976 273.735L195.151 211.089L194.765 210.167L194.379 209.244L45.0256 271.89L45.4116 272.812Z" fill="#428CDC"/>
<path d="M138.659 137.292H137.551L140.755 128.564H141.846L145.051 137.292H143.943L141.335 129.945H141.267L138.659 137.292ZM139.068 133.883H143.534V134.82H139.068V133.883Z" fill="#428CDC"/>
<path d="M158.484 239.344V230.616H161.535C162.143 230.616 162.644 230.722 163.039 230.932C163.434 231.139 163.728 231.419 163.921 231.771C164.114 232.121 164.211 232.509 164.211 232.935C164.211 233.31 164.144 233.619 164.011 233.864C163.88 234.108 163.707 234.301 163.491 234.443C163.278 234.585 163.046 234.69 162.796 234.759V234.844C163.063 234.861 163.332 234.955 163.602 235.125C163.871 235.295 164.097 235.54 164.279 235.858C164.461 236.176 164.552 236.565 164.552 237.026C164.552 237.463 164.452 237.857 164.254 238.206C164.055 238.555 163.741 238.832 163.312 239.037C162.883 239.241 162.325 239.344 161.637 239.344H158.484ZM159.54 238.406H161.637C162.327 238.406 162.817 238.273 163.107 238.006C163.4 237.736 163.546 237.409 163.546 237.026C163.546 236.73 163.471 236.457 163.32 236.207C163.17 235.955 162.955 235.753 162.677 235.602C162.398 235.449 162.069 235.372 161.688 235.372H159.54V238.406ZM159.54 234.452H161.501C161.819 234.452 162.106 234.389 162.361 234.264C162.62 234.139 162.825 233.963 162.975 233.736C163.129 233.509 163.205 233.241 163.205 232.935C163.205 232.551 163.072 232.226 162.805 231.959C162.538 231.689 162.114 231.554 161.535 231.554H159.54V234.452Z" fill="#428CDC"/>
<path d="M212.936 142.406H211.879C211.817 142.102 211.708 141.835 211.551 141.605C211.398 141.375 211.21 141.182 210.989 141.026C210.77 140.866 210.527 140.747 210.26 140.668C209.993 140.588 209.715 140.548 209.425 140.548C208.896 140.548 208.418 140.682 207.989 140.949C207.563 141.216 207.223 141.609 206.97 142.129C206.72 142.649 206.595 143.287 206.595 144.043C206.595 144.798 206.72 145.436 206.97 145.956C207.223 146.476 207.563 146.869 207.989 147.136C208.418 147.403 208.896 147.537 209.425 147.537C209.715 147.537 209.993 147.497 210.26 147.418C210.527 147.338 210.77 147.22 210.989 147.064C211.21 146.905 211.398 146.71 211.551 146.48C211.708 146.247 211.817 145.98 211.879 145.679H212.936C212.857 146.125 212.712 146.524 212.502 146.876C212.291 147.229 212.03 147.528 211.717 147.776C211.405 148.02 211.054 148.206 210.665 148.334C210.279 148.462 209.865 148.526 209.425 148.526C208.681 148.526 208.019 148.344 207.439 147.98C206.86 147.616 206.404 147.099 206.071 146.429C205.739 145.759 205.573 144.963 205.573 144.043C205.573 143.122 205.739 142.327 206.071 141.656C206.404 140.986 206.86 140.469 207.439 140.105C208.019 139.741 208.681 139.56 209.425 139.56C209.865 139.56 210.279 139.624 210.665 139.751C211.054 139.879 211.405 140.067 211.717 140.314C212.03 140.558 212.291 140.857 212.502 141.209C212.712 141.558 212.857 141.957 212.936 142.406ZM217.167 148.543C216.576 148.543 216.057 148.402 215.611 148.121C215.168 147.839 214.822 147.446 214.572 146.94C214.324 146.435 214.201 145.844 214.201 145.168C214.201 144.486 214.324 143.891 214.572 143.382C214.822 142.874 215.168 142.479 215.611 142.197C216.057 141.916 216.576 141.776 217.167 141.776C217.758 141.776 218.275 141.916 218.718 142.197C219.164 142.479 219.51 142.874 219.758 143.382C220.008 143.891 220.133 144.486 220.133 145.168C220.133 145.844 220.008 146.435 219.758 146.94C219.51 147.446 219.164 147.839 218.718 148.121C218.275 148.402 217.758 148.543 217.167 148.543ZM217.167 147.639C217.616 147.639 217.985 147.524 218.275 147.294C218.564 147.064 218.779 146.761 218.918 146.386C219.057 146.011 219.127 145.605 219.127 145.168C219.127 144.73 219.057 144.322 218.918 143.945C218.779 143.567 218.564 143.261 218.275 143.028C217.985 142.795 217.616 142.679 217.167 142.679C216.718 142.679 216.349 142.795 216.059 143.028C215.769 143.261 215.554 143.567 215.415 143.945C215.276 144.322 215.206 144.73 215.206 145.168C215.206 145.605 215.276 146.011 215.415 146.386C215.554 146.761 215.769 147.064 216.059 147.294C216.349 147.524 216.718 147.639 217.167 147.639ZM226.304 143.327L225.401 143.582C225.344 143.432 225.26 143.286 225.149 143.143C225.041 142.999 224.894 142.879 224.706 142.786C224.519 142.692 224.279 142.645 223.986 142.645C223.585 142.645 223.252 142.737 222.985 142.922C222.72 143.104 222.588 143.335 222.588 143.616C222.588 143.866 222.679 144.064 222.861 144.209C223.043 144.354 223.327 144.474 223.713 144.571L224.685 144.81C225.27 144.952 225.706 145.169 225.993 145.462C226.28 145.751 226.423 146.125 226.423 146.582C226.423 146.957 226.315 147.293 226.1 147.588C225.887 147.884 225.588 148.116 225.205 148.287C224.821 148.457 224.375 148.543 223.867 148.543C223.199 148.543 222.646 148.398 222.209 148.108C221.771 147.818 221.494 147.395 221.378 146.838L222.333 146.599C222.423 146.952 222.595 147.216 222.848 147.392C223.104 147.568 223.438 147.656 223.85 147.656C224.318 147.656 224.69 147.557 224.966 147.358C225.244 147.156 225.384 146.915 225.384 146.634C225.384 146.406 225.304 146.216 225.145 146.062C224.986 145.906 224.742 145.79 224.412 145.713L223.321 145.457C222.722 145.315 222.281 145.095 222 144.797C221.722 144.496 221.583 144.119 221.583 143.668C221.583 143.298 221.686 142.972 221.894 142.688C222.104 142.403 222.389 142.18 222.75 142.018C223.114 141.857 223.526 141.776 223.986 141.776C224.634 141.776 225.142 141.918 225.512 142.202C225.884 142.486 226.148 142.861 226.304 143.327ZM227.937 148.406V141.861H228.943V148.406H227.937ZM228.449 140.77C228.253 140.77 228.084 140.703 227.942 140.57C227.802 140.436 227.733 140.276 227.733 140.088C227.733 139.901 227.802 139.74 227.942 139.607C228.084 139.473 228.253 139.406 228.449 139.406C228.645 139.406 228.812 139.473 228.952 139.607C229.094 139.74 229.165 139.901 229.165 140.088C229.165 140.276 229.094 140.436 228.952 140.57C228.812 140.703 228.645 140.77 228.449 140.77ZM231.791 144.469V148.406H230.785V141.861H231.757V142.884H231.842C231.995 142.551 232.228 142.284 232.541 142.082C232.853 141.878 233.257 141.776 233.751 141.776C234.194 141.776 234.582 141.866 234.914 142.048C235.247 142.227 235.505 142.5 235.69 142.866C235.874 143.23 235.967 143.69 235.967 144.247V148.406H234.961V144.315C234.961 143.801 234.828 143.401 234.561 143.114C234.293 142.824 233.927 142.679 233.461 142.679C233.14 142.679 232.853 142.749 232.6 142.888C232.35 143.027 232.153 143.23 232.008 143.497C231.863 143.764 231.791 144.088 231.791 144.469ZM240.549 148.543C239.918 148.543 239.374 148.403 238.917 148.125C238.462 147.844 238.111 147.452 237.864 146.949C237.62 146.443 237.498 145.855 237.498 145.185C237.498 144.514 237.62 143.923 237.864 143.412C238.111 142.898 238.455 142.497 238.895 142.21C239.339 141.92 239.856 141.776 240.447 141.776C240.787 141.776 241.124 141.832 241.456 141.946C241.789 142.06 242.091 142.244 242.364 142.5C242.637 142.753 242.854 143.088 243.016 143.506C243.178 143.923 243.259 144.437 243.259 145.048V145.474H238.214V144.605H242.236C242.236 144.236 242.162 143.906 242.015 143.616C241.87 143.327 241.662 143.098 241.393 142.93C241.126 142.763 240.81 142.679 240.447 142.679C240.046 142.679 239.699 142.778 239.407 142.977C239.117 143.173 238.894 143.429 238.738 143.744C238.581 144.06 238.503 144.398 238.503 144.759V145.338C238.503 145.832 238.589 146.251 238.759 146.595C238.932 146.936 239.172 147.196 239.479 147.375C239.786 147.551 240.143 147.639 240.549 147.639C240.813 147.639 241.052 147.602 241.265 147.528C241.481 147.452 241.667 147.338 241.823 147.188C241.979 147.034 242.1 146.844 242.185 146.616L243.157 146.889C243.054 147.219 242.883 147.509 242.641 147.759C242.4 148.006 242.101 148.199 241.746 148.338C241.391 148.474 240.992 148.543 240.549 148.543ZM210.414 158.327L209.51 158.582C209.453 158.432 209.369 158.286 209.259 158.143C209.151 157.999 209.003 157.879 208.815 157.786C208.628 157.692 208.388 157.645 208.095 157.645C207.695 157.645 207.361 157.737 207.094 157.922C206.83 158.104 206.698 158.335 206.698 158.616C206.698 158.866 206.789 159.064 206.97 159.209C207.152 159.354 207.436 159.474 207.823 159.571L208.794 159.81C209.379 159.952 209.815 160.169 210.102 160.462C210.389 160.751 210.533 161.125 210.533 161.582C210.533 161.957 210.425 162.293 210.209 162.588C209.996 162.884 209.698 163.116 209.314 163.287C208.931 163.457 208.485 163.543 207.976 163.543C207.308 163.543 206.756 163.398 206.318 163.108C205.881 162.818 205.604 162.395 205.487 161.838L206.442 161.599C206.533 161.952 206.705 162.216 206.958 162.392C207.213 162.568 207.547 162.656 207.959 162.656C208.428 162.656 208.8 162.557 209.075 162.358C209.354 162.156 209.493 161.915 209.493 161.634C209.493 161.406 209.414 161.216 209.254 161.062C209.095 160.906 208.851 160.79 208.521 160.713L207.431 160.457C206.831 160.315 206.391 160.095 206.11 159.797C205.831 159.496 205.692 159.119 205.692 158.668C205.692 158.298 205.796 157.972 206.003 157.688C206.213 157.403 206.499 157.18 206.86 157.018C207.223 156.857 207.635 156.776 208.095 156.776C208.743 156.776 209.252 156.918 209.621 157.202C209.993 157.486 210.257 157.861 210.414 158.327ZM212.047 163.406V156.861H213.052V163.406H212.047ZM212.558 155.77C212.362 155.77 212.193 155.703 212.051 155.57C211.912 155.436 211.842 155.276 211.842 155.088C211.842 154.901 211.912 154.74 212.051 154.607C212.193 154.473 212.362 154.406 212.558 154.406C212.754 154.406 212.922 154.473 213.061 154.607C213.203 154.74 213.274 154.901 213.274 155.088C213.274 155.276 213.203 155.436 213.061 155.57C212.922 155.703 212.754 155.77 212.558 155.77ZM214.894 163.406V156.861H215.866V157.884H215.951C216.088 157.534 216.308 157.263 216.612 157.07C216.916 156.874 217.281 156.776 217.707 156.776C218.139 156.776 218.498 156.874 218.785 157.07C219.075 157.263 219.301 157.534 219.463 157.884H219.531C219.698 157.545 219.95 157.277 220.285 157.078C220.62 156.876 221.022 156.776 221.491 156.776C222.076 156.776 222.555 156.959 222.927 157.325C223.299 157.689 223.485 158.256 223.485 159.026V163.406H222.48V159.026C222.48 158.543 222.347 158.197 222.083 157.99C221.819 157.783 221.508 157.679 221.15 157.679C220.69 157.679 220.333 157.818 220.08 158.097C219.828 158.372 219.701 158.722 219.701 159.145V163.406H218.678V158.923C218.678 158.551 218.558 158.251 218.316 158.024C218.075 157.794 217.764 157.679 217.383 157.679C217.122 157.679 216.877 157.749 216.65 157.888C216.426 158.027 216.244 158.22 216.105 158.467C215.968 158.712 215.9 158.994 215.9 159.315V163.406H214.894ZM225.324 163.406V156.861H226.33V163.406H225.324ZM225.835 155.77C225.639 155.77 225.47 155.703 225.328 155.57C225.189 155.436 225.119 155.276 225.119 155.088C225.119 154.901 225.189 154.74 225.328 154.607C225.47 154.473 225.639 154.406 225.835 154.406C226.031 154.406 226.199 154.473 226.338 154.607C226.48 154.74 226.551 154.901 226.551 155.088C226.551 155.276 226.48 155.436 226.338 155.57C226.199 155.703 226.031 155.77 225.835 155.77ZM229.177 154.679V163.406H228.172V154.679H229.177ZM232.945 163.56C232.531 163.56 232.154 163.482 231.816 163.325C231.478 163.166 231.21 162.938 231.011 162.639C230.812 162.338 230.713 161.974 230.713 161.548C230.713 161.173 230.786 160.869 230.934 160.636C231.082 160.401 231.279 160.216 231.526 160.082C231.774 159.949 232.046 159.849 232.345 159.784C232.646 159.716 232.948 159.662 233.252 159.622C233.65 159.571 233.972 159.533 234.22 159.507C234.47 159.479 234.651 159.432 234.765 159.366C234.882 159.301 234.94 159.187 234.94 159.026V158.991C234.94 158.571 234.825 158.244 234.595 158.011C234.367 157.778 234.022 157.662 233.559 157.662C233.079 157.662 232.703 157.767 232.43 157.977C232.157 158.187 231.965 158.412 231.855 158.651L230.9 158.31C231.07 157.912 231.298 157.602 231.582 157.381C231.869 157.156 232.181 157 232.519 156.912C232.86 156.821 233.195 156.776 233.525 156.776C233.735 156.776 233.977 156.801 234.249 156.852C234.525 156.901 234.791 157.001 235.046 157.155C235.305 157.308 235.519 157.54 235.69 157.849C235.86 158.159 235.945 158.574 235.945 159.094V163.406H234.94V162.52H234.889C234.82 162.662 234.707 162.814 234.548 162.976C234.389 163.138 234.177 163.276 233.913 163.389C233.649 163.503 233.326 163.56 232.945 163.56ZM233.099 162.656C233.497 162.656 233.832 162.578 234.105 162.422C234.38 162.266 234.588 162.064 234.727 161.817C234.869 161.57 234.94 161.31 234.94 161.037V160.116C234.897 160.168 234.803 160.214 234.659 160.257C234.516 160.297 234.352 160.332 234.164 160.364C233.98 160.392 233.799 160.418 233.623 160.44C233.45 160.46 233.309 160.477 233.201 160.491C232.94 160.526 232.695 160.581 232.468 160.658C232.244 160.732 232.062 160.844 231.923 160.994C231.786 161.142 231.718 161.344 231.718 161.599C231.718 161.949 231.847 162.213 232.106 162.392C232.367 162.568 232.698 162.656 233.099 162.656ZM237.781 163.406V156.861H238.753V157.849H238.821C238.94 157.526 239.156 157.263 239.469 157.061C239.781 156.859 240.133 156.759 240.525 156.759C240.599 156.759 240.692 156.76 240.802 156.763C240.913 156.766 240.997 156.77 241.054 156.776V157.798C241.02 157.79 240.942 157.777 240.819 157.76C240.7 157.74 240.574 157.73 240.44 157.73C240.122 157.73 239.838 157.797 239.588 157.93C239.341 158.061 239.145 158.243 239 158.476C238.858 158.706 238.787 158.969 238.787 159.264V163.406H237.781ZM242.246 163.406V156.861H243.252V163.406H242.246ZM242.757 155.77C242.561 155.77 242.392 155.703 242.25 155.57C242.111 155.436 242.041 155.276 242.041 155.088C242.041 154.901 242.111 154.74 242.25 154.607C242.392 154.473 242.561 154.406 242.757 154.406C242.953 154.406 243.121 154.473 243.26 154.607C243.402 154.74 243.473 154.901 243.473 155.088C243.473 155.276 243.402 155.436 243.26 155.57C243.121 155.703 242.953 155.77 242.757 155.77ZM247.94 156.861V157.713H244.548V156.861H247.94ZM245.537 155.293H246.542V161.531C246.542 161.815 246.584 162.028 246.666 162.17C246.751 162.31 246.859 162.403 246.99 162.452C247.123 162.497 247.264 162.52 247.412 162.52C247.523 162.52 247.613 162.514 247.684 162.503C247.755 162.489 247.812 162.477 247.855 162.469L248.059 163.372C247.991 163.398 247.896 163.423 247.774 163.449C247.652 163.477 247.497 163.491 247.309 163.491C247.025 163.491 246.747 163.43 246.474 163.308C246.204 163.186 245.98 163 245.801 162.75C245.625 162.5 245.537 162.185 245.537 161.804V155.293ZM250.101 165.861C249.93 165.861 249.778 165.847 249.645 165.818C249.511 165.793 249.419 165.767 249.368 165.741L249.623 164.855C249.868 164.918 250.084 164.94 250.271 164.923C250.459 164.906 250.625 164.822 250.77 164.672C250.917 164.524 251.052 164.284 251.175 163.952L251.362 163.44L248.942 156.861H250.032L251.839 162.077H251.907L253.714 156.861H254.805L252.027 164.361C251.902 164.699 251.747 164.979 251.562 165.2C251.378 165.425 251.163 165.591 250.919 165.699C250.677 165.807 250.405 165.861 250.101 165.861Z" fill="#428CDC"/>
<path d="M97.8872 211.392C97.8872 211.392 100.994 204.956 110.005 221.583C119.016 238.209 115.287 242.5 115.287 242.5" stroke="#FF0000"/>
<path d="M90.1105 239.48C89.565 239.474 89.0891 239.327 88.6829 239.037C88.2766 238.744 87.9613 238.342 87.7369 237.831C87.5124 237.32 87.4002 236.733 87.4002 236.071C87.4002 235.415 87.5181 234.835 87.7539 234.332C87.9926 233.827 88.3207 233.43 88.7383 233.143C89.1559 232.857 89.636 232.713 90.1786 232.713C90.5764 232.713 90.9201 232.79 91.2099 232.943C91.4997 233.094 91.7454 233.304 91.9471 233.574C92.1516 233.844 92.3235 234.153 92.4627 234.503H92.8548L93.0082 236.054L93.8605 239.344H92.923L92.1218 236.054C92.0792 235.847 92.0139 235.605 91.9258 235.33C91.8377 235.054 91.7198 234.786 91.5721 234.524C91.4244 234.263 91.2355 234.047 91.0053 233.876C90.7781 233.703 90.5025 233.616 90.1786 233.616C89.832 233.616 89.5252 233.722 89.2582 233.932C88.9911 234.142 88.7823 234.433 88.6318 234.805C88.4812 235.178 88.4059 235.605 88.4059 236.088C88.4059 236.56 88.4769 236.984 88.619 237.362C88.761 237.737 88.9599 238.034 89.2156 238.253C89.4712 238.469 89.7695 238.577 90.1105 238.577C90.4258 238.577 90.6999 238.49 90.9329 238.317C91.1659 238.141 91.3619 237.92 91.521 237.656C91.6801 237.389 91.8079 237.115 91.9045 236.834C92.0039 236.55 92.0764 236.301 92.1218 236.088L92.8377 232.798H93.7752L93.0082 236.088L92.8548 237.69H92.5139C92.3661 238.043 92.1815 238.355 91.9599 238.628C91.7411 238.898 91.4784 239.108 91.1715 239.259C90.8676 239.409 90.5139 239.483 90.1105 239.48Z" fill="#FF0000"/>
<rect x="0.25" y="0.25" width="330.5" height="303.635" rx="5.75" stroke="#428CDC" stroke-width="0.5"/>
<path d="M41.6818 13.3769H42.892L45.3125 17.4508H45.4148L47.8352 13.3769H49.0455L45.892 18.5076V22.1042H44.8352V18.5076L41.6818 13.3769Z" fill="#428CDC"/>
<path d="M296.239 269.012L298.489 272.643H298.557L300.807 269.012H302.051L299.307 273.376L302.051 277.74H300.807L298.557 274.177H298.489L296.239 277.74H294.995L297.807 273.376L294.995 269.012H296.239Z" fill="#428CDC"/>
</svg>
