<svg width="631" height="304" viewBox="0 0 631 304" fill="none" xmlns="http://www.w3.org/2000/svg">
<path d="M43.7071 32.2929C43.3166 31.9024 42.6834 31.9024 42.2929 32.2929L35.9289 38.6568C35.5384 39.0474 35.5384 39.6805 35.9289 40.0711C36.3195 40.4616 36.9526 40.4616 37.3431 40.0711L43 34.4142L48.6569 40.0711C49.0474 40.4616 49.6805 40.4616 50.0711 40.0711C50.4616 39.6805 50.4616 39.0474 50.0711 38.6568L43.7071 32.2929ZM43 273H44L44 33H43H42L42 273H43Z" fill="#428CDC"/>
<path d="M282.707 273.707C283.098 273.317 283.098 272.683 282.707 272.293L276.343 265.929C275.953 265.538 275.319 265.538 274.929 265.929C274.538 266.319 274.538 266.953 274.929 267.343L280.586 273L274.929 278.657C274.538 279.047 274.538 279.681 274.929 280.071C275.319 280.462 275.953 280.462 276.343 280.071L282.707 273.707ZM43 273V274H282V273V272H43V273Z" fill="#428CDC"/>
<path d="M191.995 92.9029C191.942 92.3532 191.453 91.9511 190.903 92.0047L181.945 92.8786C181.396 92.9323 180.994 93.4213 181.047 93.971C181.101 94.5207 181.59 94.9228 182.14 94.8692L190.102 94.0924L190.879 102.055C190.932 102.604 191.421 103.006 191.971 102.953C192.521 102.899 192.923 102.41 192.869 101.86L191.995 92.9029ZM43 273L43.7724 273.635L191.772 93.6351L191 93L190.228 92.3649L42.2276 272.365L43 273Z" fill="#428CDC"/>
<path d="M197.999 134.051C198.027 133.5 197.603 133.03 197.051 133.001L188.063 132.541C187.511 132.513 187.041 132.937 187.013 133.489C186.985 134.04 187.409 134.51 187.961 134.539L195.95 134.948L195.541 142.937C195.513 143.489 195.937 143.959 196.489 143.987C197.04 144.015 197.51 143.591 197.539 143.039L197.999 134.051ZM43 273L43.67 273.742L197.67 134.742L197 134L196.33 133.258L42.33 272.258L43 273Z" fill="#428CDC"/>
<path d="M135.415 139H134.307L137.511 130.273H138.602L141.807 139H140.699L138.091 131.653H138.023L135.415 139ZM135.824 135.591H140.29V136.528H135.824V135.591Z" fill="#428CDC"/>
<path d="M152.057 192V183.273H155.108C155.716 183.273 156.217 183.378 156.612 183.588C157.007 183.795 157.301 184.075 157.494 184.428C157.688 184.777 157.784 185.165 157.784 185.591C157.784 185.966 157.717 186.276 157.584 186.52C157.453 186.764 157.28 186.957 157.064 187.099C156.851 187.241 156.619 187.347 156.369 187.415V187.5C156.636 187.517 156.905 187.611 157.175 187.781C157.445 187.952 157.67 188.196 157.852 188.514C158.034 188.832 158.125 189.222 158.125 189.682C158.125 190.119 158.026 190.513 157.827 190.862C157.628 191.212 157.314 191.489 156.885 191.693C156.456 191.898 155.898 192 155.21 192H152.057ZM153.114 191.062H155.21C155.901 191.062 156.391 190.929 156.68 190.662C156.973 190.392 157.119 190.065 157.119 189.682C157.119 189.386 157.044 189.114 156.893 188.864C156.743 188.611 156.528 188.409 156.25 188.259C155.972 188.105 155.642 188.028 155.261 188.028H153.114V191.062ZM153.114 187.108H155.074C155.392 187.108 155.679 187.045 155.935 186.92C156.193 186.795 156.398 186.619 156.548 186.392C156.702 186.165 156.778 185.898 156.778 185.591C156.778 185.207 156.645 184.882 156.378 184.615C156.111 184.345 155.688 184.21 155.108 184.21H153.114V187.108Z" fill="#428CDC"/>
<line x1="191.493" y1="97.9178" x2="197.493" y2="133.918" stroke="#FF0000" stroke-dasharray="2 2"/>
<line x1="191.493" y1="97.9178" x2="197.493" y2="133.918" stroke="black" stroke-opacity="0.2" stroke-dasharray="2 2"/>
<path d="M217.057 113V104.273H222.324V105.21H218.114V108.159H222.051V109.097H218.114V112.062H222.392V113H217.057ZM228.217 110.324V106.455H229.223V113H228.217V111.892H228.149C227.996 112.224 227.757 112.507 227.433 112.74C227.109 112.97 226.7 113.085 226.206 113.085C225.797 113.085 225.433 112.996 225.115 112.817C224.797 112.635 224.547 112.362 224.365 111.999C224.183 111.632 224.092 111.17 224.092 110.614V106.455H225.098V110.545C225.098 111.023 225.232 111.403 225.499 111.688C225.768 111.972 226.112 112.114 226.53 112.114C226.78 112.114 227.034 112.05 227.293 111.922C227.554 111.794 227.773 111.598 227.949 111.334C228.128 111.07 228.217 110.733 228.217 110.324ZM233.724 113.136C233.11 113.136 232.582 112.991 232.139 112.702C231.696 112.412 231.355 112.013 231.116 111.504C230.877 110.996 230.758 110.415 230.758 109.761C230.758 109.097 230.88 108.51 231.125 108.001C231.372 107.49 231.716 107.091 232.156 106.804C232.599 106.514 233.116 106.369 233.707 106.369C234.167 106.369 234.582 106.455 234.951 106.625C235.321 106.795 235.623 107.034 235.859 107.341C236.095 107.648 236.241 108.006 236.298 108.415H235.292C235.216 108.116 235.045 107.852 234.781 107.622C234.52 107.389 234.167 107.273 233.724 107.273C233.332 107.273 232.988 107.375 232.693 107.58C232.4 107.781 232.172 108.067 232.007 108.436C231.845 108.803 231.764 109.233 231.764 109.727C231.764 110.233 231.843 110.673 232.002 111.048C232.164 111.423 232.392 111.714 232.684 111.922C232.98 112.129 233.326 112.233 233.724 112.233C233.985 112.233 234.223 112.188 234.436 112.097C234.649 112.006 234.829 111.875 234.977 111.705C235.125 111.534 235.23 111.33 235.292 111.091H236.298C236.241 111.477 236.1 111.825 235.876 112.135C235.654 112.442 235.36 112.686 234.994 112.868C234.63 113.047 234.207 113.136 233.724 113.136ZM238.774 104.273V113H237.768V104.273H238.774ZM240.616 113V106.455H241.621V113H240.616ZM241.127 105.364C240.931 105.364 240.762 105.297 240.62 105.163C240.481 105.03 240.411 104.869 240.411 104.682C240.411 104.494 240.481 104.334 240.62 104.2C240.762 104.067 240.931 104 241.127 104C241.323 104 241.491 104.067 241.63 104.2C241.772 104.334 241.843 104.494 241.843 104.682C241.843 104.869 241.772 105.03 241.63 105.163C241.491 105.297 241.323 105.364 241.127 105.364ZM245.935 113.136C245.39 113.136 244.908 112.999 244.49 112.723C244.073 112.445 243.746 112.053 243.51 111.547C243.275 111.038 243.157 110.438 243.157 109.744C243.157 109.057 243.275 108.46 243.51 107.955C243.746 107.449 244.074 107.058 244.495 106.783C244.915 106.507 245.401 106.369 245.952 106.369C246.378 106.369 246.715 106.44 246.962 106.582C247.212 106.722 247.402 106.881 247.533 107.06C247.667 107.236 247.77 107.381 247.844 107.494H247.929V104.273H248.935V113H247.963V111.994H247.844C247.77 112.114 247.665 112.264 247.529 112.446C247.392 112.625 247.198 112.786 246.945 112.928C246.692 113.067 246.355 113.136 245.935 113.136ZM246.071 112.233C246.475 112.233 246.816 112.128 247.094 111.918C247.373 111.705 247.584 111.411 247.729 111.036C247.874 110.658 247.946 110.222 247.946 109.727C247.946 109.239 247.875 108.811 247.733 108.445C247.591 108.075 247.381 107.788 247.103 107.584C246.824 107.376 246.48 107.273 246.071 107.273C245.645 107.273 245.29 107.382 245.006 107.601C244.725 107.817 244.513 108.111 244.371 108.483C244.232 108.852 244.162 109.267 244.162 109.727C244.162 110.193 244.233 110.616 244.375 110.997C244.52 111.375 244.733 111.676 245.015 111.901C245.299 112.122 245.651 112.233 246.071 112.233ZM253.661 113.136C253.03 113.136 252.486 112.997 252.029 112.719C251.574 112.438 251.223 112.045 250.976 111.543C250.732 111.037 250.61 110.449 250.61 109.778C250.61 109.108 250.732 108.517 250.976 108.006C251.223 107.491 251.567 107.091 252.007 106.804C252.451 106.514 252.968 106.369 253.559 106.369C253.9 106.369 254.236 106.426 254.569 106.54C254.901 106.653 255.203 106.838 255.476 107.094C255.749 107.347 255.966 107.682 256.128 108.099C256.29 108.517 256.371 109.031 256.371 109.642V110.068H251.326V109.199H255.348C255.348 108.83 255.275 108.5 255.127 108.21C254.982 107.92 254.775 107.692 254.505 107.524C254.238 107.357 253.922 107.273 253.559 107.273C253.158 107.273 252.811 107.372 252.519 107.571C252.229 107.767 252.006 108.023 251.85 108.338C251.694 108.653 251.615 108.991 251.615 109.352V109.932C251.615 110.426 251.701 110.845 251.871 111.189C252.044 111.53 252.284 111.79 252.591 111.969C252.898 112.145 253.255 112.233 253.661 112.233C253.925 112.233 254.164 112.196 254.377 112.122C254.593 112.045 254.779 111.932 254.935 111.781C255.091 111.628 255.212 111.437 255.297 111.21L256.269 111.483C256.167 111.812 255.995 112.102 255.753 112.352C255.512 112.599 255.213 112.793 254.858 112.932C254.503 113.068 254.104 113.136 253.661 113.136ZM259.827 113.153C259.412 113.153 259.036 113.075 258.698 112.919C258.36 112.76 258.091 112.531 257.892 112.233C257.694 111.932 257.594 111.568 257.594 111.142C257.594 110.767 257.668 110.463 257.816 110.23C257.963 109.994 258.161 109.81 258.408 109.676C258.655 109.543 258.928 109.443 259.226 109.378C259.527 109.31 259.83 109.256 260.134 109.216C260.532 109.165 260.854 109.126 261.101 109.101C261.351 109.072 261.533 109.026 261.647 108.96C261.763 108.895 261.821 108.781 261.821 108.619V108.585C261.821 108.165 261.706 107.838 261.476 107.605C261.249 107.372 260.904 107.256 260.441 107.256C259.961 107.256 259.584 107.361 259.311 107.571C259.039 107.781 258.847 108.006 258.736 108.244L257.782 107.903C257.952 107.506 258.179 107.196 258.463 106.974C258.75 106.75 259.063 106.594 259.401 106.506C259.742 106.415 260.077 106.369 260.407 106.369C260.617 106.369 260.858 106.395 261.131 106.446C261.407 106.494 261.672 106.595 261.928 106.749C262.186 106.902 262.401 107.134 262.571 107.443C262.742 107.753 262.827 108.168 262.827 108.688V113H261.821V112.114H261.77C261.702 112.256 261.588 112.408 261.429 112.57C261.27 112.732 261.059 112.869 260.794 112.983C260.53 113.097 260.208 113.153 259.827 113.153ZM259.98 112.25C260.378 112.25 260.713 112.172 260.986 112.016C261.262 111.859 261.469 111.658 261.608 111.411C261.75 111.163 261.821 110.903 261.821 110.631V109.71C261.779 109.761 261.685 109.808 261.54 109.851C261.398 109.891 261.233 109.926 261.046 109.957C260.861 109.986 260.681 110.011 260.505 110.034C260.331 110.054 260.191 110.071 260.083 110.085C259.821 110.119 259.577 110.175 259.35 110.251C259.125 110.325 258.944 110.437 258.804 110.588C258.668 110.736 258.6 110.937 258.6 111.193C258.6 111.543 258.729 111.807 258.988 111.986C259.249 112.162 259.58 112.25 259.98 112.25ZM265.668 109.062V113H264.663V106.455H265.634V107.477H265.719C265.873 107.145 266.106 106.878 266.418 106.676C266.731 106.472 267.134 106.369 267.629 106.369C268.072 106.369 268.46 106.46 268.792 106.642C269.124 106.821 269.383 107.094 269.567 107.46C269.752 107.824 269.844 108.284 269.844 108.841V113H268.839V108.909C268.839 108.395 268.705 107.994 268.438 107.707C268.171 107.418 267.805 107.273 267.339 107.273C267.018 107.273 266.731 107.342 266.478 107.482C266.228 107.621 266.031 107.824 265.886 108.091C265.741 108.358 265.668 108.682 265.668 109.062ZM219.392 128.136C218.847 128.136 218.365 127.999 217.947 127.723C217.53 127.445 217.203 127.053 216.967 126.547C216.732 126.038 216.614 125.438 216.614 124.744C216.614 124.057 216.732 123.46 216.967 122.955C217.203 122.449 217.531 122.058 217.952 121.783C218.372 121.507 218.858 121.369 219.409 121.369C219.835 121.369 220.172 121.44 220.419 121.582C220.669 121.722 220.859 121.881 220.99 122.06C221.124 122.236 221.227 122.381 221.301 122.494H221.386V119.273H222.392V128H221.42V126.994H221.301C221.227 127.114 221.122 127.264 220.986 127.446C220.849 127.625 220.655 127.786 220.402 127.928C220.149 128.067 219.813 128.136 219.392 128.136ZM219.528 127.233C219.932 127.233 220.273 127.128 220.551 126.918C220.83 126.705 221.041 126.411 221.186 126.036C221.331 125.658 221.403 125.222 221.403 124.727C221.403 124.239 221.332 123.811 221.19 123.445C221.048 123.075 220.838 122.788 220.56 122.584C220.281 122.376 219.938 122.273 219.528 122.273C219.102 122.273 218.747 122.382 218.463 122.601C218.182 122.817 217.97 123.111 217.828 123.483C217.689 123.852 217.619 124.267 217.619 124.727C217.619 125.193 217.69 125.616 217.832 125.997C217.977 126.375 218.19 126.676 218.472 126.901C218.756 127.122 219.108 127.233 219.528 127.233ZM224.374 128V121.455H225.379V128H224.374ZM224.885 120.364C224.689 120.364 224.52 120.297 224.378 120.163C224.239 120.03 224.169 119.869 224.169 119.682C224.169 119.494 224.239 119.334 224.378 119.2C224.52 119.067 224.689 119 224.885 119C225.081 119 225.249 119.067 225.388 119.2C225.53 119.334 225.601 119.494 225.601 119.682C225.601 119.869 225.53 120.03 225.388 120.163C225.249 120.297 225.081 120.364 224.885 120.364ZM231.858 122.92L230.954 123.176C230.897 123.026 230.814 122.879 230.703 122.737C230.595 122.592 230.447 122.473 230.26 122.379C230.072 122.286 229.832 122.239 229.539 122.239C229.139 122.239 228.805 122.331 228.538 122.516C228.274 122.697 228.142 122.929 228.142 123.21C228.142 123.46 228.233 123.658 228.414 123.803C228.596 123.947 228.88 124.068 229.267 124.165L230.238 124.403C230.824 124.545 231.26 124.763 231.547 125.055C231.833 125.345 231.977 125.719 231.977 126.176C231.977 126.551 231.869 126.886 231.653 127.182C231.44 127.477 231.142 127.71 230.758 127.881C230.375 128.051 229.929 128.136 229.42 128.136C228.752 128.136 228.2 127.991 227.762 127.702C227.325 127.412 227.048 126.989 226.931 126.432L227.886 126.193C227.977 126.545 228.149 126.81 228.402 126.986C228.657 127.162 228.991 127.25 229.403 127.25C229.872 127.25 230.244 127.151 230.52 126.952C230.798 126.75 230.937 126.509 230.937 126.227C230.937 126 230.858 125.81 230.699 125.656C230.539 125.5 230.295 125.384 229.966 125.307L228.875 125.051C228.275 124.909 227.835 124.689 227.554 124.391C227.275 124.089 227.136 123.713 227.136 123.261C227.136 122.892 227.24 122.565 227.447 122.281C227.657 121.997 227.943 121.774 228.304 121.612C228.667 121.45 229.079 121.369 229.539 121.369C230.187 121.369 230.696 121.511 231.065 121.795C231.437 122.08 231.701 122.455 231.858 122.92ZM236.337 121.455V122.307H232.945V121.455H236.337ZM233.934 119.886H234.94V126.125C234.94 126.409 234.981 126.622 235.063 126.764C235.148 126.903 235.256 126.997 235.387 127.045C235.521 127.091 235.661 127.114 235.809 127.114C235.92 127.114 236.011 127.108 236.082 127.097C236.153 127.082 236.21 127.071 236.252 127.062L236.457 127.966C236.388 127.991 236.293 128.017 236.171 128.043C236.049 128.071 235.894 128.085 235.707 128.085C235.423 128.085 235.144 128.024 234.871 127.902C234.602 127.78 234.377 127.594 234.198 127.344C234.022 127.094 233.934 126.778 233.934 126.398V119.886ZM239.776 128.153C239.362 128.153 238.985 128.075 238.647 127.919C238.309 127.76 238.04 127.531 237.842 127.233C237.643 126.932 237.543 126.568 237.543 126.142C237.543 125.767 237.617 125.463 237.765 125.23C237.913 124.994 238.11 124.81 238.357 124.676C238.604 124.543 238.877 124.443 239.175 124.378C239.477 124.31 239.779 124.256 240.083 124.216C240.481 124.165 240.803 124.126 241.05 124.101C241.3 124.072 241.482 124.026 241.596 123.96C241.712 123.895 241.771 123.781 241.771 123.619V123.585C241.771 123.165 241.656 122.838 241.425 122.605C241.198 122.372 240.853 122.256 240.39 122.256C239.91 122.256 239.533 122.361 239.261 122.571C238.988 122.781 238.796 123.006 238.685 123.244L237.731 122.903C237.901 122.506 238.129 122.196 238.413 121.974C238.7 121.75 239.012 121.594 239.35 121.506C239.691 121.415 240.026 121.369 240.356 121.369C240.566 121.369 240.808 121.395 241.08 121.446C241.356 121.494 241.621 121.595 241.877 121.749C242.136 121.902 242.35 122.134 242.521 122.443C242.691 122.753 242.776 123.168 242.776 123.688V128H241.771V127.114H241.719C241.651 127.256 241.538 127.408 241.379 127.57C241.219 127.732 241.008 127.869 240.744 127.983C240.479 128.097 240.157 128.153 239.776 128.153ZM239.93 127.25C240.327 127.25 240.663 127.172 240.935 127.016C241.211 126.859 241.418 126.658 241.558 126.411C241.7 126.163 241.771 125.903 241.771 125.631V124.71C241.728 124.761 241.634 124.808 241.489 124.851C241.347 124.891 241.183 124.926 240.995 124.957C240.81 124.986 240.63 125.011 240.454 125.034C240.281 125.054 240.14 125.071 240.032 125.085C239.771 125.119 239.526 125.175 239.299 125.251C239.075 125.325 238.893 125.437 238.754 125.588C238.617 125.736 238.549 125.937 238.549 126.193C238.549 126.543 238.678 126.807 238.937 126.986C239.198 127.162 239.529 127.25 239.93 127.25ZM245.618 124.062V128H244.612V121.455H245.583V122.477H245.669C245.822 122.145 246.055 121.878 246.368 121.676C246.68 121.472 247.083 121.369 247.578 121.369C248.021 121.369 248.409 121.46 248.741 121.642C249.074 121.821 249.332 122.094 249.517 122.46C249.701 122.824 249.794 123.284 249.794 123.841V128H248.788V123.909C248.788 123.395 248.654 122.994 248.387 122.707C248.12 122.418 247.754 122.273 247.288 122.273C246.967 122.273 246.68 122.342 246.427 122.482C246.177 122.621 245.98 122.824 245.835 123.091C245.69 123.358 245.618 123.682 245.618 124.062ZM254.29 128.136C253.677 128.136 253.148 127.991 252.705 127.702C252.262 127.412 251.921 127.013 251.683 126.504C251.444 125.996 251.325 125.415 251.325 124.761C251.325 124.097 251.447 123.51 251.691 123.001C251.938 122.49 252.282 122.091 252.722 121.804C253.165 121.514 253.683 121.369 254.273 121.369C254.734 121.369 255.148 121.455 255.518 121.625C255.887 121.795 256.19 122.034 256.425 122.341C256.661 122.648 256.808 123.006 256.864 123.415H255.859C255.782 123.116 255.612 122.852 255.347 122.622C255.086 122.389 254.734 122.273 254.29 122.273C253.898 122.273 253.555 122.375 253.259 122.58C252.967 122.781 252.738 123.067 252.573 123.436C252.411 123.803 252.33 124.233 252.33 124.727C252.33 125.233 252.41 125.673 252.569 126.048C252.731 126.423 252.958 126.714 253.251 126.922C253.546 127.129 253.893 127.233 254.29 127.233C254.552 127.233 254.789 127.188 255.002 127.097C255.215 127.006 255.396 126.875 255.543 126.705C255.691 126.534 255.796 126.33 255.859 126.091H256.864C256.808 126.477 256.667 126.825 256.442 127.135C256.221 127.442 255.927 127.686 255.56 127.868C255.197 128.047 254.773 128.136 254.29 128.136ZM261.079 128.136C260.448 128.136 259.904 127.997 259.447 127.719C258.992 127.438 258.641 127.045 258.394 126.543C258.15 126.037 258.028 125.449 258.028 124.778C258.028 124.108 258.15 123.517 258.394 123.006C258.641 122.491 258.985 122.091 259.425 121.804C259.869 121.514 260.386 121.369 260.977 121.369C261.317 121.369 261.654 121.426 261.987 121.54C262.319 121.653 262.621 121.838 262.894 122.094C263.167 122.347 263.384 122.682 263.546 123.099C263.708 123.517 263.789 124.031 263.789 124.642V125.068H258.744V124.199H262.766C262.766 123.83 262.692 123.5 262.545 123.21C262.4 122.92 262.192 122.692 261.923 122.524C261.656 122.357 261.34 122.273 260.977 122.273C260.576 122.273 260.229 122.372 259.937 122.571C259.647 122.767 259.424 123.023 259.268 123.338C259.112 123.653 259.033 123.991 259.033 124.352V124.932C259.033 125.426 259.119 125.845 259.289 126.189C259.462 126.53 259.702 126.79 260.009 126.969C260.316 127.145 260.673 127.233 261.079 127.233C261.343 127.233 261.582 127.196 261.795 127.122C262.011 127.045 262.197 126.932 262.353 126.781C262.509 126.628 262.63 126.437 262.715 126.21L263.687 126.483C263.585 126.812 263.413 127.102 263.171 127.352C262.93 127.599 262.631 127.793 262.276 127.932C261.921 128.068 261.522 128.136 261.079 128.136Z" fill="#428CDC"/>
<path d="M336.707 32.2929C336.317 31.9024 335.683 31.9024 335.293 32.2929L328.929 38.6568C328.538 39.0474 328.538 39.6805 328.929 40.0711C329.319 40.4616 329.953 40.4616 330.343 40.0711L336 34.4142L341.657 40.0711C342.047 40.4616 342.681 40.4616 343.071 40.0711C343.462 39.6805 343.462 39.0474 343.071 38.6568L336.707 32.2929ZM336 273H337V33H336H335V273H336Z" fill="#428CDC"/>
<path d="M575.707 273.707C576.098 273.317 576.098 272.683 575.707 272.293L569.343 265.929C568.953 265.538 568.319 265.538 567.929 265.929C567.538 266.319 567.538 266.953 567.929 267.343L573.586 273L567.929 278.657C567.538 279.047 567.538 279.681 567.929 280.071C568.319 280.462 568.953 280.462 569.343 280.071L575.707 273.707ZM336 273V274H575V273V272H336V273Z" fill="#428CDC"/>
<path d="M484.995 92.9029C484.942 92.3532 484.453 91.9511 483.903 92.0047L474.945 92.8786C474.396 92.9323 473.994 93.4213 474.047 93.971C474.101 94.5207 474.59 94.9228 475.14 94.8692L483.102 94.0924L483.879 102.055C483.932 102.604 484.421 103.006 484.971 102.953C485.521 102.899 485.923 102.41 485.869 101.86L484.995 92.9029ZM336 273L336.772 273.635L484.772 93.6351L484 93L483.228 92.3649L335.228 272.365L336 273Z" fill="#428CDC"/>
<path d="M418.996 204.086C419.044 203.536 418.636 203.051 418.086 203.004L409.119 202.232C408.569 202.184 408.084 202.592 408.037 203.142C407.989 203.692 408.397 204.177 408.947 204.224L416.918 204.911L416.232 212.881C416.184 213.431 416.592 213.916 417.142 213.963C417.693 214.011 418.177 213.603 418.224 213.053L418.996 204.086ZM336 273L336.644 273.765L418.644 204.765L418 204L417.356 203.235L335.356 272.235L336 273Z" fill="#428CDC"/>
<line x1="484.424" y1="98.2643" x2="418.424" y2="204.264" stroke="#FF0000" stroke-dasharray="2 2"/>
<line x1="484.424" y1="98.2643" x2="418.424" y2="204.264" stroke="black" stroke-opacity="0.2" stroke-dasharray="2 2"/>
<path d="M457.057 163V154.273H462.324V155.21H458.114V158.159H462.051V159.097H458.114V162.062H462.392V163H457.057ZM468.217 160.324V156.455H469.223V163H468.217V161.892H468.149C467.996 162.224 467.757 162.507 467.433 162.74C467.109 162.97 466.7 163.085 466.206 163.085C465.797 163.085 465.433 162.996 465.115 162.817C464.797 162.635 464.547 162.362 464.365 161.999C464.183 161.632 464.092 161.17 464.092 160.614V156.455H465.098V160.545C465.098 161.023 465.232 161.403 465.499 161.688C465.768 161.972 466.112 162.114 466.53 162.114C466.78 162.114 467.034 162.05 467.293 161.922C467.554 161.794 467.773 161.598 467.949 161.334C468.128 161.07 468.217 160.733 468.217 160.324ZM473.724 163.136C473.11 163.136 472.582 162.991 472.139 162.702C471.696 162.412 471.355 162.013 471.116 161.504C470.877 160.996 470.758 160.415 470.758 159.761C470.758 159.097 470.88 158.51 471.125 158.001C471.372 157.49 471.716 157.091 472.156 156.804C472.599 156.514 473.116 156.369 473.707 156.369C474.167 156.369 474.582 156.455 474.951 156.625C475.321 156.795 475.623 157.034 475.859 157.341C476.095 157.648 476.241 158.006 476.298 158.415H475.292C475.216 158.116 475.045 157.852 474.781 157.622C474.52 157.389 474.167 157.273 473.724 157.273C473.332 157.273 472.988 157.375 472.693 157.58C472.4 157.781 472.172 158.067 472.007 158.436C471.845 158.803 471.764 159.233 471.764 159.727C471.764 160.233 471.843 160.673 472.002 161.048C472.164 161.423 472.392 161.714 472.684 161.922C472.98 162.129 473.326 162.233 473.724 162.233C473.985 162.233 474.223 162.188 474.436 162.097C474.649 162.006 474.829 161.875 474.977 161.705C475.125 161.534 475.23 161.33 475.292 161.091H476.298C476.241 161.477 476.1 161.825 475.876 162.135C475.654 162.442 475.36 162.686 474.994 162.868C474.63 163.047 474.207 163.136 473.724 163.136ZM478.774 154.273V163H477.768V154.273H478.774ZM480.616 163V156.455H481.621V163H480.616ZM481.127 155.364C480.931 155.364 480.762 155.297 480.62 155.163C480.481 155.03 480.411 154.869 480.411 154.682C480.411 154.494 480.481 154.334 480.62 154.2C480.762 154.067 480.931 154 481.127 154C481.323 154 481.491 154.067 481.63 154.2C481.772 154.334 481.843 154.494 481.843 154.682C481.843 154.869 481.772 155.03 481.63 155.163C481.491 155.297 481.323 155.364 481.127 155.364ZM485.935 163.136C485.39 163.136 484.908 162.999 484.49 162.723C484.073 162.445 483.746 162.053 483.51 161.547C483.275 161.038 483.157 160.438 483.157 159.744C483.157 159.057 483.275 158.46 483.51 157.955C483.746 157.449 484.074 157.058 484.495 156.783C484.915 156.507 485.401 156.369 485.952 156.369C486.378 156.369 486.715 156.44 486.962 156.582C487.212 156.722 487.402 156.881 487.533 157.06C487.667 157.236 487.77 157.381 487.844 157.494H487.929V154.273H488.935V163H487.963V161.994H487.844C487.77 162.114 487.665 162.264 487.529 162.446C487.392 162.625 487.198 162.786 486.945 162.928C486.692 163.067 486.355 163.136 485.935 163.136ZM486.071 162.233C486.475 162.233 486.816 162.128 487.094 161.918C487.373 161.705 487.584 161.411 487.729 161.036C487.874 160.658 487.946 160.222 487.946 159.727C487.946 159.239 487.875 158.811 487.733 158.445C487.591 158.075 487.381 157.788 487.103 157.584C486.824 157.376 486.48 157.273 486.071 157.273C485.645 157.273 485.29 157.382 485.006 157.601C484.725 157.817 484.513 158.111 484.371 158.483C484.232 158.852 484.162 159.267 484.162 159.727C484.162 160.193 484.233 160.616 484.375 160.997C484.52 161.375 484.733 161.676 485.015 161.901C485.299 162.122 485.651 162.233 486.071 162.233ZM493.661 163.136C493.03 163.136 492.486 162.997 492.029 162.719C491.574 162.438 491.223 162.045 490.976 161.543C490.732 161.037 490.61 160.449 490.61 159.778C490.61 159.108 490.732 158.517 490.976 158.006C491.223 157.491 491.567 157.091 492.007 156.804C492.451 156.514 492.968 156.369 493.559 156.369C493.9 156.369 494.236 156.426 494.569 156.54C494.901 156.653 495.203 156.838 495.476 157.094C495.749 157.347 495.966 157.682 496.128 158.099C496.29 158.517 496.371 159.031 496.371 159.642V160.068H491.326V159.199H495.348C495.348 158.83 495.275 158.5 495.127 158.21C494.982 157.92 494.775 157.692 494.505 157.524C494.238 157.357 493.922 157.273 493.559 157.273C493.158 157.273 492.811 157.372 492.519 157.571C492.229 157.767 492.006 158.023 491.85 158.338C491.694 158.653 491.615 158.991 491.615 159.352V159.932C491.615 160.426 491.701 160.845 491.871 161.189C492.044 161.53 492.284 161.79 492.591 161.969C492.898 162.145 493.255 162.233 493.661 162.233C493.925 162.233 494.164 162.196 494.377 162.122C494.593 162.045 494.779 161.932 494.935 161.781C495.091 161.628 495.212 161.437 495.297 161.21L496.269 161.483C496.167 161.812 495.995 162.102 495.753 162.352C495.512 162.599 495.213 162.793 494.858 162.932C494.503 163.068 494.104 163.136 493.661 163.136ZM499.827 163.153C499.412 163.153 499.036 163.075 498.698 162.919C498.36 162.76 498.091 162.531 497.892 162.233C497.694 161.932 497.594 161.568 497.594 161.142C497.594 160.767 497.668 160.463 497.816 160.23C497.963 159.994 498.161 159.81 498.408 159.676C498.655 159.543 498.928 159.443 499.226 159.378C499.527 159.31 499.83 159.256 500.134 159.216C500.532 159.165 500.854 159.126 501.101 159.101C501.351 159.072 501.533 159.026 501.647 158.96C501.763 158.895 501.821 158.781 501.821 158.619V158.585C501.821 158.165 501.706 157.838 501.476 157.605C501.249 157.372 500.904 157.256 500.441 157.256C499.961 157.256 499.584 157.361 499.311 157.571C499.039 157.781 498.847 158.006 498.736 158.244L497.782 157.903C497.952 157.506 498.179 157.196 498.463 156.974C498.75 156.75 499.063 156.594 499.401 156.506C499.742 156.415 500.077 156.369 500.407 156.369C500.617 156.369 500.858 156.395 501.131 156.446C501.407 156.494 501.672 156.595 501.928 156.749C502.186 156.902 502.401 157.134 502.571 157.443C502.742 157.753 502.827 158.168 502.827 158.688V163H501.821V162.114H501.77C501.702 162.256 501.588 162.408 501.429 162.57C501.27 162.732 501.059 162.869 500.794 162.983C500.53 163.097 500.208 163.153 499.827 163.153ZM499.98 162.25C500.378 162.25 500.713 162.172 500.986 162.016C501.262 161.859 501.469 161.658 501.608 161.411C501.75 161.163 501.821 160.903 501.821 160.631V159.71C501.779 159.761 501.685 159.808 501.54 159.851C501.398 159.891 501.233 159.926 501.046 159.957C500.861 159.986 500.681 160.011 500.505 160.034C500.331 160.054 500.191 160.071 500.083 160.085C499.821 160.119 499.577 160.175 499.35 160.251C499.125 160.325 498.944 160.437 498.804 160.588C498.668 160.736 498.6 160.937 498.6 161.193C498.6 161.543 498.729 161.807 498.988 161.986C499.249 162.162 499.58 162.25 499.98 162.25ZM505.668 159.062V163H504.663V156.455H505.634V157.477H505.719C505.873 157.145 506.106 156.878 506.418 156.676C506.731 156.472 507.134 156.369 507.629 156.369C508.072 156.369 508.46 156.46 508.792 156.642C509.124 156.821 509.383 157.094 509.567 157.46C509.752 157.824 509.844 158.284 509.844 158.841V163H508.839V158.909C508.839 158.395 508.705 157.994 508.438 157.707C508.171 157.418 507.805 157.273 507.339 157.273C507.018 157.273 506.731 157.342 506.478 157.482C506.228 157.621 506.031 157.824 505.886 158.091C505.741 158.358 505.668 158.682 505.668 159.062ZM459.392 178.136C458.847 178.136 458.365 177.999 457.947 177.723C457.53 177.445 457.203 177.053 456.967 176.547C456.732 176.038 456.614 175.438 456.614 174.744C456.614 174.057 456.732 173.46 456.967 172.955C457.203 172.449 457.531 172.058 457.952 171.783C458.372 171.507 458.858 171.369 459.409 171.369C459.835 171.369 460.172 171.44 460.419 171.582C460.669 171.722 460.859 171.881 460.99 172.06C461.124 172.236 461.227 172.381 461.301 172.494H461.386V169.273H462.392V178H461.42V176.994H461.301C461.227 177.114 461.122 177.264 460.986 177.446C460.849 177.625 460.655 177.786 460.402 177.928C460.149 178.067 459.813 178.136 459.392 178.136ZM459.528 177.233C459.932 177.233 460.273 177.128 460.551 176.918C460.83 176.705 461.041 176.411 461.186 176.036C461.331 175.658 461.403 175.222 461.403 174.727C461.403 174.239 461.332 173.811 461.19 173.445C461.048 173.075 460.838 172.788 460.56 172.584C460.281 172.376 459.938 172.273 459.528 172.273C459.102 172.273 458.747 172.382 458.463 172.601C458.182 172.817 457.97 173.111 457.828 173.483C457.689 173.852 457.619 174.267 457.619 174.727C457.619 175.193 457.69 175.616 457.832 175.997C457.977 176.375 458.19 176.676 458.472 176.901C458.756 177.122 459.108 177.233 459.528 177.233ZM464.374 178V171.455H465.379V178H464.374ZM464.885 170.364C464.689 170.364 464.52 170.297 464.378 170.163C464.239 170.03 464.169 169.869 464.169 169.682C464.169 169.494 464.239 169.334 464.378 169.2C464.52 169.067 464.689 169 464.885 169C465.081 169 465.249 169.067 465.388 169.2C465.53 169.334 465.601 169.494 465.601 169.682C465.601 169.869 465.53 170.03 465.388 170.163C465.249 170.297 465.081 170.364 464.885 170.364ZM471.858 172.92L470.954 173.176C470.897 173.026 470.814 172.879 470.703 172.737C470.595 172.592 470.447 172.473 470.26 172.379C470.072 172.286 469.832 172.239 469.539 172.239C469.139 172.239 468.805 172.331 468.538 172.516C468.274 172.697 468.142 172.929 468.142 173.21C468.142 173.46 468.233 173.658 468.414 173.803C468.596 173.947 468.88 174.068 469.267 174.165L470.238 174.403C470.824 174.545 471.26 174.763 471.547 175.055C471.833 175.345 471.977 175.719 471.977 176.176C471.977 176.551 471.869 176.886 471.653 177.182C471.44 177.477 471.142 177.71 470.758 177.881C470.375 178.051 469.929 178.136 469.42 178.136C468.752 178.136 468.2 177.991 467.762 177.702C467.325 177.412 467.048 176.989 466.931 176.432L467.886 176.193C467.977 176.545 468.149 176.81 468.402 176.986C468.657 177.162 468.991 177.25 469.403 177.25C469.872 177.25 470.244 177.151 470.52 176.952C470.798 176.75 470.937 176.509 470.937 176.227C470.937 176 470.858 175.81 470.699 175.656C470.539 175.5 470.295 175.384 469.966 175.307L468.875 175.051C468.275 174.909 467.835 174.689 467.554 174.391C467.275 174.089 467.136 173.713 467.136 173.261C467.136 172.892 467.24 172.565 467.447 172.281C467.657 171.997 467.943 171.774 468.304 171.612C468.667 171.45 469.079 171.369 469.539 171.369C470.187 171.369 470.696 171.511 471.065 171.795C471.437 172.08 471.701 172.455 471.858 172.92ZM476.337 171.455V172.307H472.945V171.455H476.337ZM473.934 169.886H474.94V176.125C474.94 176.409 474.981 176.622 475.063 176.764C475.148 176.903 475.256 176.997 475.387 177.045C475.521 177.091 475.661 177.114 475.809 177.114C475.92 177.114 476.011 177.108 476.082 177.097C476.153 177.082 476.21 177.071 476.252 177.062L476.457 177.966C476.388 177.991 476.293 178.017 476.171 178.043C476.049 178.071 475.894 178.085 475.707 178.085C475.423 178.085 475.144 178.024 474.871 177.902C474.602 177.78 474.377 177.594 474.198 177.344C474.022 177.094 473.934 176.778 473.934 176.398V169.886ZM479.776 178.153C479.362 178.153 478.985 178.075 478.647 177.919C478.309 177.76 478.04 177.531 477.842 177.233C477.643 176.932 477.543 176.568 477.543 176.142C477.543 175.767 477.617 175.463 477.765 175.23C477.913 174.994 478.11 174.81 478.357 174.676C478.604 174.543 478.877 174.443 479.175 174.378C479.477 174.31 479.779 174.256 480.083 174.216C480.481 174.165 480.803 174.126 481.05 174.101C481.3 174.072 481.482 174.026 481.596 173.96C481.712 173.895 481.771 173.781 481.771 173.619V173.585C481.771 173.165 481.656 172.838 481.425 172.605C481.198 172.372 480.853 172.256 480.39 172.256C479.91 172.256 479.533 172.361 479.261 172.571C478.988 172.781 478.796 173.006 478.685 173.244L477.731 172.903C477.901 172.506 478.129 172.196 478.413 171.974C478.7 171.75 479.012 171.594 479.35 171.506C479.691 171.415 480.026 171.369 480.356 171.369C480.566 171.369 480.808 171.395 481.08 171.446C481.356 171.494 481.621 171.595 481.877 171.749C482.136 171.902 482.35 172.134 482.521 172.443C482.691 172.753 482.776 173.168 482.776 173.688V178H481.771V177.114H481.719C481.651 177.256 481.538 177.408 481.379 177.57C481.219 177.732 481.008 177.869 480.744 177.983C480.479 178.097 480.157 178.153 479.776 178.153ZM479.93 177.25C480.327 177.25 480.663 177.172 480.935 177.016C481.211 176.859 481.418 176.658 481.558 176.411C481.7 176.163 481.771 175.903 481.771 175.631V174.71C481.728 174.761 481.634 174.808 481.489 174.851C481.347 174.891 481.183 174.926 480.995 174.957C480.81 174.986 480.63 175.011 480.454 175.034C480.281 175.054 480.14 175.071 480.032 175.085C479.771 175.119 479.526 175.175 479.299 175.251C479.075 175.325 478.893 175.437 478.754 175.588C478.617 175.736 478.549 175.937 478.549 176.193C478.549 176.543 478.678 176.807 478.937 176.986C479.198 177.162 479.529 177.25 479.93 177.25ZM485.618 174.062V178H484.612V171.455H485.583V172.477H485.669C485.822 172.145 486.055 171.878 486.368 171.676C486.68 171.472 487.083 171.369 487.578 171.369C488.021 171.369 488.409 171.46 488.741 171.642C489.074 171.821 489.332 172.094 489.517 172.46C489.701 172.824 489.794 173.284 489.794 173.841V178H488.788V173.909C488.788 173.395 488.654 172.994 488.387 172.707C488.12 172.418 487.754 172.273 487.288 172.273C486.967 172.273 486.68 172.342 486.427 172.482C486.177 172.621 485.98 172.824 485.835 173.091C485.69 173.358 485.618 173.682 485.618 174.062ZM494.29 178.136C493.677 178.136 493.148 177.991 492.705 177.702C492.262 177.412 491.921 177.013 491.683 176.504C491.444 175.996 491.325 175.415 491.325 174.761C491.325 174.097 491.447 173.51 491.691 173.001C491.938 172.49 492.282 172.091 492.722 171.804C493.165 171.514 493.683 171.369 494.273 171.369C494.734 171.369 495.148 171.455 495.518 171.625C495.887 171.795 496.19 172.034 496.425 172.341C496.661 172.648 496.808 173.006 496.864 173.415H495.859C495.782 173.116 495.612 172.852 495.347 172.622C495.086 172.389 494.734 172.273 494.29 172.273C493.898 172.273 493.555 172.375 493.259 172.58C492.967 172.781 492.738 173.067 492.573 173.436C492.411 173.803 492.33 174.233 492.33 174.727C492.33 175.233 492.41 175.673 492.569 176.048C492.731 176.423 492.958 176.714 493.251 176.922C493.546 177.129 493.893 177.233 494.29 177.233C494.552 177.233 494.789 177.188 495.002 177.097C495.215 177.006 495.396 176.875 495.543 176.705C495.691 176.534 495.796 176.33 495.859 176.091H496.864C496.808 176.477 496.667 176.825 496.442 177.135C496.221 177.442 495.927 177.686 495.56 177.868C495.197 178.047 494.773 178.136 494.29 178.136ZM501.079 178.136C500.448 178.136 499.904 177.997 499.447 177.719C498.992 177.438 498.641 177.045 498.394 176.543C498.15 176.037 498.028 175.449 498.028 174.778C498.028 174.108 498.15 173.517 498.394 173.006C498.641 172.491 498.985 172.091 499.425 171.804C499.869 171.514 500.386 171.369 500.977 171.369C501.317 171.369 501.654 171.426 501.987 171.54C502.319 171.653 502.621 171.838 502.894 172.094C503.167 172.347 503.384 172.682 503.546 173.099C503.708 173.517 503.789 174.031 503.789 174.642V175.068H498.744V174.199H502.766C502.766 173.83 502.692 173.5 502.545 173.21C502.4 172.92 502.192 172.692 501.923 172.524C501.656 172.357 501.34 172.273 500.977 172.273C500.576 172.273 500.229 172.372 499.937 172.571C499.647 172.767 499.424 173.023 499.268 173.338C499.112 173.653 499.033 173.991 499.033 174.352V174.932C499.033 175.426 499.119 175.845 499.289 176.189C499.462 176.53 499.702 176.79 500.009 176.969C500.316 177.145 500.673 177.233 501.079 177.233C501.343 177.233 501.582 177.196 501.795 177.122C502.011 177.045 502.197 176.932 502.353 176.781C502.509 176.628 502.63 176.437 502.715 176.21L503.687 176.483C503.585 176.812 503.413 177.102 503.171 177.352C502.93 177.599 502.631 177.793 502.276 177.932C501.921 178.068 501.522 178.136 501.079 178.136Z" fill="#428CDC"/>
<path d="M435.08 136H434.023C433.96 135.696 433.851 135.429 433.695 135.199C433.541 134.969 433.354 134.776 433.132 134.619C432.913 134.46 432.67 134.341 432.403 134.261C432.136 134.182 431.858 134.142 431.568 134.142C431.04 134.142 430.561 134.276 430.132 134.543C429.706 134.81 429.366 135.203 429.114 135.723C428.864 136.243 428.739 136.881 428.739 137.636C428.739 138.392 428.864 139.03 429.114 139.55C429.366 140.07 429.706 140.463 430.132 140.73C430.561 140.997 431.04 141.131 431.568 141.131C431.858 141.131 432.136 141.091 432.403 141.011C432.67 140.932 432.913 140.814 433.132 140.658C433.354 140.499 433.541 140.304 433.695 140.074C433.851 139.841 433.96 139.574 434.023 139.273H435.08C435 139.719 434.855 140.118 434.645 140.47C434.435 140.822 434.173 141.122 433.861 141.369C433.548 141.614 433.197 141.8 432.808 141.928C432.422 142.055 432.009 142.119 431.568 142.119C430.824 142.119 430.162 141.938 429.582 141.574C429.003 141.21 428.547 140.693 428.214 140.023C427.882 139.352 427.716 138.557 427.716 137.636C427.716 136.716 427.882 135.92 428.214 135.25C428.547 134.58 429.003 134.062 429.582 133.699C430.162 133.335 430.824 133.153 431.568 133.153C432.009 133.153 432.422 133.217 432.808 133.345C433.197 133.473 433.548 133.661 433.861 133.908C434.173 134.152 434.435 134.45 434.645 134.803C434.855 135.152 435 135.551 435.08 136Z" fill="#428CDC"/>
<path d="M404.75 243H402.057V234.273H404.869C405.716 234.273 406.44 234.447 407.043 234.797C407.645 235.143 408.107 235.642 408.428 236.293C408.749 236.94 408.909 237.716 408.909 238.619C408.909 239.528 408.747 240.311 408.423 240.967C408.099 241.621 407.628 242.124 407.009 242.476C406.389 242.825 405.636 243 404.75 243ZM403.114 242.062H404.682C405.403 242.062 406.001 241.923 406.476 241.645C406.95 241.366 407.304 240.97 407.537 240.456C407.77 239.942 407.886 239.33 407.886 238.619C407.886 237.915 407.771 237.308 407.541 236.8C407.311 236.288 406.967 235.896 406.51 235.624C406.053 235.348 405.483 235.21 404.801 235.21H403.114V242.062Z" fill="#428CDC"/>
<path d="M114 188.137C114 188.137 120.035 184.656 124.165 189.877C128.294 195.099 124.165 198 124.165 198" stroke="#FF0000"/>
<path d="M393 205.137C393 205.137 399.035 201.656 403.165 206.877C407.294 212.099 403.165 215 403.165 215" stroke="#FF0000"/>
<path d="M103.409 203.455H104.5L106.222 208.432L107.909 203.455H109L106.716 209.864V212.455H105.71V209.864L103.409 203.455Z" fill="#FF0000"/>
<path d="M386.409 215.455H387.5L389.222 220.432L390.909 215.455H392L389.716 221.864V224.455H388.71V221.864L386.409 215.455Z" fill="#FF0000"/>
<rect x="0.25" y="0.25" width="630.5" height="303.5" rx="5.75" stroke="#428CDC" stroke-width="0.5"/>
<path d="M293.568 268.273L295.818 271.903H295.886L298.136 268.273H299.381L296.636 272.636L299.381 277H298.136L295.886 273.438H295.818L293.568 277H292.324L295.136 272.636L292.324 268.273H293.568Z" fill="#428CDC"/>
<path d="M586.568 268.273L588.818 271.903H588.886L591.136 268.273H592.381L589.636 272.636L592.381 277H591.136L588.886 273.438H588.818L586.568 277H585.324L588.136 272.636L585.324 268.273H586.568Z" fill="#428CDC"/>
<path d="M39.3068 17.2727H40.517L42.9375 21.3466H43.0398L45.4602 17.2727H46.6705L43.517 22.4034V26H42.4602V22.4034L39.3068 17.2727Z" fill="#428CDC"/>
<path d="M332.307 14.2727H333.517L335.938 18.3466H336.04L338.46 14.2727H339.67L336.517 19.4034V23H335.46V19.4034L332.307 14.2727Z" fill="#428CDC"/>
</svg>
