<svg width="328" height="301" viewBox="0 0 328 301" fill="none" xmlns="http://www.w3.org/2000/svg">
<path d="M39.7071 29.2929C39.3166 28.9024 38.6834 28.9024 38.2929 29.2929L31.9289 35.6568C31.5384 36.0474 31.5384 36.6805 31.9289 37.0711C32.3195 37.4616 32.9526 37.4616 33.3431 37.0711L39 31.4142L44.6569 37.0711C45.0474 37.4616 45.6805 37.4616 46.0711 37.0711C46.4616 36.6805 46.4616 36.0474 46.0711 35.6568L39.7071 29.2929ZM39 270H40L40 30H39H38L38 270H39Z" fill="#428CDC"/>
<path d="M278.707 270.707C279.098 270.317 279.098 269.683 278.707 269.293L272.343 262.929C271.953 262.538 271.319 262.538 270.929 262.929C270.538 263.319 270.538 263.953 270.929 264.343L276.586 270L270.929 275.657C270.538 276.047 270.538 276.681 270.929 277.071C271.319 277.462 271.953 277.462 272.343 277.071L278.707 270.707ZM39 270V271H278V270V269H39V270Z" fill="#428CDC"/>
<path d="M187.995 89.9029C187.942 89.3532 187.453 88.9511 186.903 89.0047L177.945 89.8786C177.396 89.9323 176.994 90.4213 177.047 90.971C177.101 91.5207 177.59 91.9228 178.14 91.8692L186.102 91.0924L186.879 99.0546C186.932 99.6043 187.421 100.006 187.971 99.9528C188.521 99.8991 188.923 99.4101 188.869 98.8604L187.995 89.9029ZM39 270L39.7724 270.635L187.772 90.6351L187 90L186.228 89.3649L38.2276 269.365L39 270Z" fill="#428CDC"/>
<path d="M187.925 208.379C188.135 207.868 187.89 207.284 187.379 207.075L179.05 203.664C178.539 203.455 177.955 203.699 177.746 204.21C177.537 204.721 177.781 205.305 178.292 205.515L185.696 208.546L182.664 215.95C182.455 216.461 182.699 217.045 183.21 217.254C183.721 217.463 184.305 217.219 184.515 216.708L187.925 208.379ZM39 270L39.3864 270.922L187.386 208.922L187 208L186.614 207.078L38.6136 269.078L39 270Z" fill="#428CDC"/>
<path d="M131.415 136H130.307L133.511 127.273H134.602L137.807 136H136.699L134.091 128.653H134.023L131.415 136ZM131.824 132.591H136.29V133.528H131.824V132.591Z" fill="#428CDC"/>
<path d="M151.057 237V228.273H154.108C154.716 228.273 155.217 228.378 155.612 228.588C156.007 228.795 156.301 229.075 156.494 229.428C156.688 229.777 156.784 230.165 156.784 230.591C156.784 230.966 156.717 231.276 156.584 231.52C156.453 231.764 156.28 231.957 156.064 232.099C155.851 232.241 155.619 232.347 155.369 232.415V232.5C155.636 232.517 155.905 232.611 156.175 232.781C156.445 232.952 156.67 233.196 156.852 233.514C157.034 233.832 157.125 234.222 157.125 234.682C157.125 235.119 157.026 235.513 156.827 235.862C156.628 236.212 156.314 236.489 155.885 236.693C155.456 236.898 154.898 237 154.21 237H151.057ZM152.114 236.062H154.21C154.901 236.062 155.391 235.929 155.68 235.662C155.973 235.392 156.119 235.065 156.119 234.682C156.119 234.386 156.044 234.114 155.893 233.864C155.743 233.611 155.528 233.409 155.25 233.259C154.972 233.105 154.642 233.028 154.261 233.028H152.114V236.062ZM152.114 232.108H154.074C154.392 232.108 154.679 232.045 154.935 231.92C155.193 231.795 155.398 231.619 155.548 231.392C155.702 231.165 155.778 230.898 155.778 230.591C155.778 230.207 155.645 229.882 155.378 229.615C155.111 229.345 154.688 229.21 154.108 229.21H152.114V232.108Z" fill="#428CDC"/>
<g filter="url(#filter0_d_17_53)">
<line x1="187.5" y1="103" x2="187.5" y2="208" stroke="#FF0000" stroke-dasharray="2 2"/>
<line x1="187.5" y1="103" x2="187.5" y2="208" stroke="black" stroke-opacity="0.2" stroke-dasharray="2 2"/>
</g>
<path d="M198.057 147V138.273H203.324V139.21H199.114V142.159H203.051V143.097H199.114V146.062H203.392V147H198.057ZM209.217 144.324V140.455H210.223V147H209.217V145.892H209.149C208.996 146.224 208.757 146.507 208.433 146.74C208.109 146.97 207.7 147.085 207.206 147.085C206.797 147.085 206.433 146.996 206.115 146.817C205.797 146.635 205.547 146.362 205.365 145.999C205.183 145.632 205.092 145.17 205.092 144.614V140.455H206.098V144.545C206.098 145.023 206.232 145.403 206.499 145.688C206.768 145.972 207.112 146.114 207.53 146.114C207.78 146.114 208.034 146.05 208.293 145.922C208.554 145.794 208.773 145.598 208.949 145.334C209.128 145.07 209.217 144.733 209.217 144.324ZM214.724 147.136C214.11 147.136 213.582 146.991 213.139 146.702C212.696 146.412 212.355 146.013 212.116 145.504C211.877 144.996 211.758 144.415 211.758 143.761C211.758 143.097 211.88 142.51 212.125 142.001C212.372 141.49 212.716 141.091 213.156 140.804C213.599 140.514 214.116 140.369 214.707 140.369C215.167 140.369 215.582 140.455 215.951 140.625C216.321 140.795 216.623 141.034 216.859 141.341C217.095 141.648 217.241 142.006 217.298 142.415H216.292C216.216 142.116 216.045 141.852 215.781 141.622C215.52 141.389 215.167 141.273 214.724 141.273C214.332 141.273 213.988 141.375 213.693 141.58C213.4 141.781 213.172 142.067 213.007 142.436C212.845 142.803 212.764 143.233 212.764 143.727C212.764 144.233 212.843 144.673 213.002 145.048C213.164 145.423 213.392 145.714 213.684 145.922C213.98 146.129 214.326 146.233 214.724 146.233C214.985 146.233 215.223 146.188 215.436 146.097C215.649 146.006 215.829 145.875 215.977 145.705C216.125 145.534 216.23 145.33 216.292 145.091H217.298C217.241 145.477 217.1 145.825 216.876 146.135C216.654 146.442 216.36 146.686 215.994 146.868C215.63 147.047 215.207 147.136 214.724 147.136ZM219.774 138.273V147H218.768V138.273H219.774ZM221.616 147V140.455H222.621V147H221.616ZM222.127 139.364C221.931 139.364 221.762 139.297 221.62 139.163C221.481 139.03 221.411 138.869 221.411 138.682C221.411 138.494 221.481 138.334 221.62 138.2C221.762 138.067 221.931 138 222.127 138C222.323 138 222.491 138.067 222.63 138.2C222.772 138.334 222.843 138.494 222.843 138.682C222.843 138.869 222.772 139.03 222.63 139.163C222.491 139.297 222.323 139.364 222.127 139.364ZM226.935 147.136C226.39 147.136 225.908 146.999 225.49 146.723C225.073 146.445 224.746 146.053 224.51 145.547C224.275 145.038 224.157 144.438 224.157 143.744C224.157 143.057 224.275 142.46 224.51 141.955C224.746 141.449 225.074 141.058 225.495 140.783C225.915 140.507 226.401 140.369 226.952 140.369C227.378 140.369 227.715 140.44 227.962 140.582C228.212 140.722 228.402 140.881 228.533 141.06C228.667 141.236 228.77 141.381 228.844 141.494H228.929V138.273H229.935V147H228.963V145.994H228.844C228.77 146.114 228.665 146.264 228.529 146.446C228.392 146.625 228.198 146.786 227.945 146.928C227.692 147.067 227.355 147.136 226.935 147.136ZM227.071 146.233C227.475 146.233 227.816 146.128 228.094 145.918C228.373 145.705 228.584 145.411 228.729 145.036C228.874 144.658 228.946 144.222 228.946 143.727C228.946 143.239 228.875 142.811 228.733 142.445C228.591 142.075 228.381 141.788 228.103 141.584C227.824 141.376 227.48 141.273 227.071 141.273C226.645 141.273 226.29 141.382 226.006 141.601C225.725 141.817 225.513 142.111 225.371 142.483C225.232 142.852 225.162 143.267 225.162 143.727C225.162 144.193 225.233 144.616 225.375 144.997C225.52 145.375 225.733 145.676 226.015 145.901C226.299 146.122 226.651 146.233 227.071 146.233ZM234.661 147.136C234.03 147.136 233.486 146.997 233.029 146.719C232.574 146.438 232.223 146.045 231.976 145.543C231.732 145.037 231.61 144.449 231.61 143.778C231.61 143.108 231.732 142.517 231.976 142.006C232.223 141.491 232.567 141.091 233.007 140.804C233.451 140.514 233.968 140.369 234.559 140.369C234.9 140.369 235.236 140.426 235.569 140.54C235.901 140.653 236.203 140.838 236.476 141.094C236.749 141.347 236.966 141.682 237.128 142.099C237.29 142.517 237.371 143.031 237.371 143.642V144.068H232.326V143.199H236.348C236.348 142.83 236.275 142.5 236.127 142.21C235.982 141.92 235.775 141.692 235.505 141.524C235.238 141.357 234.922 141.273 234.559 141.273C234.158 141.273 233.811 141.372 233.519 141.571C233.229 141.767 233.006 142.023 232.85 142.338C232.694 142.653 232.615 142.991 232.615 143.352V143.932C232.615 144.426 232.701 144.845 232.871 145.189C233.044 145.53 233.284 145.79 233.591 145.969C233.898 146.145 234.255 146.233 234.661 146.233C234.925 146.233 235.164 146.196 235.377 146.122C235.593 146.045 235.779 145.932 235.935 145.781C236.091 145.628 236.212 145.437 236.297 145.21L237.269 145.483C237.167 145.812 236.995 146.102 236.753 146.352C236.512 146.599 236.213 146.793 235.858 146.932C235.503 147.068 235.104 147.136 234.661 147.136ZM240.827 147.153C240.412 147.153 240.036 147.075 239.698 146.919C239.36 146.76 239.091 146.531 238.892 146.233C238.694 145.932 238.594 145.568 238.594 145.142C238.594 144.767 238.668 144.463 238.816 144.23C238.963 143.994 239.161 143.81 239.408 143.676C239.655 143.543 239.928 143.443 240.226 143.378C240.527 143.31 240.83 143.256 241.134 143.216C241.532 143.165 241.854 143.126 242.101 143.101C242.351 143.072 242.533 143.026 242.647 142.96C242.763 142.895 242.821 142.781 242.821 142.619V142.585C242.821 142.165 242.706 141.838 242.476 141.605C242.249 141.372 241.904 141.256 241.441 141.256C240.961 141.256 240.584 141.361 240.311 141.571C240.039 141.781 239.847 142.006 239.736 142.244L238.782 141.903C238.952 141.506 239.179 141.196 239.463 140.974C239.75 140.75 240.063 140.594 240.401 140.506C240.742 140.415 241.077 140.369 241.407 140.369C241.617 140.369 241.858 140.395 242.131 140.446C242.407 140.494 242.672 140.595 242.928 140.749C243.186 140.902 243.401 141.134 243.571 141.443C243.742 141.753 243.827 142.168 243.827 142.688V147H242.821V146.114H242.77C242.702 146.256 242.588 146.408 242.429 146.57C242.27 146.732 242.059 146.869 241.794 146.983C241.53 147.097 241.208 147.153 240.827 147.153ZM240.98 146.25C241.378 146.25 241.713 146.172 241.986 146.016C242.262 145.859 242.469 145.658 242.608 145.411C242.75 145.163 242.821 144.903 242.821 144.631V143.71C242.779 143.761 242.685 143.808 242.54 143.851C242.398 143.891 242.233 143.926 242.046 143.957C241.861 143.986 241.681 144.011 241.505 144.034C241.331 144.054 241.191 144.071 241.083 144.085C240.821 144.119 240.577 144.175 240.35 144.251C240.125 144.325 239.944 144.437 239.804 144.588C239.668 144.736 239.6 144.937 239.6 145.193C239.6 145.543 239.729 145.807 239.988 145.986C240.249 146.162 240.58 146.25 240.98 146.25ZM246.668 143.062V147H245.663V140.455H246.634V141.477H246.719C246.873 141.145 247.106 140.878 247.418 140.676C247.731 140.472 248.134 140.369 248.629 140.369C249.072 140.369 249.46 140.46 249.792 140.642C250.124 140.821 250.383 141.094 250.567 141.46C250.752 141.824 250.844 142.284 250.844 142.841V147H249.839V142.909C249.839 142.395 249.705 141.994 249.438 141.707C249.171 141.418 248.805 141.273 248.339 141.273C248.018 141.273 247.731 141.342 247.478 141.482C247.228 141.621 247.031 141.824 246.886 142.091C246.741 142.358 246.668 142.682 246.668 143.062ZM200.392 162.136C199.847 162.136 199.365 161.999 198.947 161.723C198.53 161.445 198.203 161.053 197.967 160.547C197.732 160.038 197.614 159.438 197.614 158.744C197.614 158.057 197.732 157.46 197.967 156.955C198.203 156.449 198.531 156.058 198.952 155.783C199.372 155.507 199.858 155.369 200.409 155.369C200.835 155.369 201.172 155.44 201.419 155.582C201.669 155.722 201.859 155.881 201.99 156.06C202.124 156.236 202.227 156.381 202.301 156.494H202.386V153.273H203.392V162H202.42V160.994H202.301C202.227 161.114 202.122 161.264 201.986 161.446C201.849 161.625 201.655 161.786 201.402 161.928C201.149 162.067 200.813 162.136 200.392 162.136ZM200.528 161.233C200.932 161.233 201.273 161.128 201.551 160.918C201.83 160.705 202.041 160.411 202.186 160.036C202.331 159.658 202.403 159.222 202.403 158.727C202.403 158.239 202.332 157.811 202.19 157.445C202.048 157.075 201.838 156.788 201.56 156.584C201.281 156.376 200.938 156.273 200.528 156.273C200.102 156.273 199.747 156.382 199.463 156.601C199.182 156.817 198.97 157.111 198.828 157.483C198.689 157.852 198.619 158.267 198.619 158.727C198.619 159.193 198.69 159.616 198.832 159.997C198.977 160.375 199.19 160.676 199.472 160.901C199.756 161.122 200.108 161.233 200.528 161.233ZM205.374 162V155.455H206.379V162H205.374ZM205.885 154.364C205.689 154.364 205.52 154.297 205.378 154.163C205.239 154.03 205.169 153.869 205.169 153.682C205.169 153.494 205.239 153.334 205.378 153.2C205.52 153.067 205.689 153 205.885 153C206.081 153 206.249 153.067 206.388 153.2C206.53 153.334 206.601 153.494 206.601 153.682C206.601 153.869 206.53 154.03 206.388 154.163C206.249 154.297 206.081 154.364 205.885 154.364ZM212.858 156.92L211.954 157.176C211.897 157.026 211.814 156.879 211.703 156.737C211.595 156.592 211.447 156.473 211.26 156.379C211.072 156.286 210.832 156.239 210.539 156.239C210.139 156.239 209.805 156.331 209.538 156.516C209.274 156.697 209.142 156.929 209.142 157.21C209.142 157.46 209.233 157.658 209.414 157.803C209.596 157.947 209.88 158.068 210.267 158.165L211.238 158.403C211.824 158.545 212.26 158.763 212.547 159.055C212.833 159.345 212.977 159.719 212.977 160.176C212.977 160.551 212.869 160.886 212.653 161.182C212.44 161.477 212.142 161.71 211.758 161.881C211.375 162.051 210.929 162.136 210.42 162.136C209.752 162.136 209.2 161.991 208.762 161.702C208.325 161.412 208.048 160.989 207.931 160.432L208.886 160.193C208.977 160.545 209.149 160.81 209.402 160.986C209.657 161.162 209.991 161.25 210.403 161.25C210.872 161.25 211.244 161.151 211.52 160.952C211.798 160.75 211.937 160.509 211.937 160.227C211.937 160 211.858 159.81 211.699 159.656C211.539 159.5 211.295 159.384 210.966 159.307L209.875 159.051C209.275 158.909 208.835 158.689 208.554 158.391C208.275 158.089 208.136 157.713 208.136 157.261C208.136 156.892 208.24 156.565 208.447 156.281C208.657 155.997 208.943 155.774 209.304 155.612C209.667 155.45 210.079 155.369 210.539 155.369C211.187 155.369 211.696 155.511 212.065 155.795C212.437 156.08 212.701 156.455 212.858 156.92ZM217.337 155.455V156.307H213.945V155.455H217.337ZM214.934 153.886H215.94V160.125C215.94 160.409 215.981 160.622 216.063 160.764C216.148 160.903 216.256 160.997 216.387 161.045C216.521 161.091 216.661 161.114 216.809 161.114C216.92 161.114 217.011 161.108 217.082 161.097C217.153 161.082 217.21 161.071 217.252 161.062L217.457 161.966C217.388 161.991 217.293 162.017 217.171 162.043C217.049 162.071 216.894 162.085 216.707 162.085C216.423 162.085 216.144 162.024 215.871 161.902C215.602 161.78 215.377 161.594 215.198 161.344C215.022 161.094 214.934 160.778 214.934 160.398V153.886ZM220.776 162.153C220.362 162.153 219.985 162.075 219.647 161.919C219.309 161.76 219.04 161.531 218.842 161.233C218.643 160.932 218.543 160.568 218.543 160.142C218.543 159.767 218.617 159.463 218.765 159.23C218.913 158.994 219.11 158.81 219.357 158.676C219.604 158.543 219.877 158.443 220.175 158.378C220.477 158.31 220.779 158.256 221.083 158.216C221.481 158.165 221.803 158.126 222.05 158.101C222.3 158.072 222.482 158.026 222.596 157.96C222.712 157.895 222.771 157.781 222.771 157.619V157.585C222.771 157.165 222.656 156.838 222.425 156.605C222.198 156.372 221.853 156.256 221.39 156.256C220.91 156.256 220.533 156.361 220.261 156.571C219.988 156.781 219.796 157.006 219.685 157.244L218.731 156.903C218.901 156.506 219.129 156.196 219.413 155.974C219.7 155.75 220.012 155.594 220.35 155.506C220.691 155.415 221.026 155.369 221.356 155.369C221.566 155.369 221.808 155.395 222.08 155.446C222.356 155.494 222.621 155.595 222.877 155.749C223.136 155.902 223.35 156.134 223.521 156.443C223.691 156.753 223.776 157.168 223.776 157.688V162H222.771V161.114H222.719C222.651 161.256 222.538 161.408 222.379 161.57C222.219 161.732 222.008 161.869 221.744 161.983C221.479 162.097 221.157 162.153 220.776 162.153ZM220.93 161.25C221.327 161.25 221.663 161.172 221.935 161.016C222.211 160.859 222.418 160.658 222.558 160.411C222.7 160.163 222.771 159.903 222.771 159.631V158.71C222.728 158.761 222.634 158.808 222.489 158.851C222.347 158.891 222.183 158.926 221.995 158.957C221.81 158.986 221.63 159.011 221.454 159.034C221.281 159.054 221.14 159.071 221.032 159.085C220.771 159.119 220.526 159.175 220.299 159.251C220.075 159.325 219.893 159.437 219.754 159.588C219.617 159.736 219.549 159.937 219.549 160.193C219.549 160.543 219.678 160.807 219.937 160.986C220.198 161.162 220.529 161.25 220.93 161.25ZM226.618 158.062V162H225.612V155.455H226.583V156.477H226.669C226.822 156.145 227.055 155.878 227.368 155.676C227.68 155.472 228.083 155.369 228.578 155.369C229.021 155.369 229.409 155.46 229.741 155.642C230.074 155.821 230.332 156.094 230.517 156.46C230.701 156.824 230.794 157.284 230.794 157.841V162H229.788V157.909C229.788 157.395 229.654 156.994 229.387 156.707C229.12 156.418 228.754 156.273 228.288 156.273C227.967 156.273 227.68 156.342 227.427 156.482C227.177 156.621 226.98 156.824 226.835 157.091C226.69 157.358 226.618 157.682 226.618 158.062ZM235.29 162.136C234.677 162.136 234.148 161.991 233.705 161.702C233.262 161.412 232.921 161.013 232.683 160.504C232.444 159.996 232.325 159.415 232.325 158.761C232.325 158.097 232.447 157.51 232.691 157.001C232.938 156.49 233.282 156.091 233.722 155.804C234.165 155.514 234.683 155.369 235.273 155.369C235.734 155.369 236.148 155.455 236.518 155.625C236.887 155.795 237.19 156.034 237.425 156.341C237.661 156.648 237.808 157.006 237.864 157.415H236.859C236.782 157.116 236.612 156.852 236.347 156.622C236.086 156.389 235.734 156.273 235.29 156.273C234.898 156.273 234.555 156.375 234.259 156.58C233.967 156.781 233.738 157.067 233.573 157.436C233.411 157.803 233.33 158.233 233.33 158.727C233.33 159.233 233.41 159.673 233.569 160.048C233.731 160.423 233.958 160.714 234.251 160.922C234.546 161.129 234.893 161.233 235.29 161.233C235.552 161.233 235.789 161.188 236.002 161.097C236.215 161.006 236.396 160.875 236.543 160.705C236.691 160.534 236.796 160.33 236.859 160.091H237.864C237.808 160.477 237.667 160.825 237.442 161.135C237.221 161.442 236.927 161.686 236.56 161.868C236.197 162.047 235.773 162.136 235.29 162.136ZM242.079 162.136C241.448 162.136 240.904 161.997 240.447 161.719C239.992 161.438 239.641 161.045 239.394 160.543C239.15 160.037 239.028 159.449 239.028 158.778C239.028 158.108 239.15 157.517 239.394 157.006C239.641 156.491 239.985 156.091 240.425 155.804C240.869 155.514 241.386 155.369 241.977 155.369C242.317 155.369 242.654 155.426 242.987 155.54C243.319 155.653 243.621 155.838 243.894 156.094C244.167 156.347 244.384 156.682 244.546 157.099C244.708 157.517 244.789 158.031 244.789 158.642V159.068H239.744V158.199H243.766C243.766 157.83 243.692 157.5 243.545 157.21C243.4 156.92 243.192 156.692 242.923 156.524C242.656 156.357 242.34 156.273 241.977 156.273C241.576 156.273 241.229 156.372 240.937 156.571C240.647 156.767 240.424 157.023 240.268 157.338C240.112 157.653 240.033 157.991 240.033 158.352V158.932C240.033 159.426 240.119 159.845 240.289 160.189C240.462 160.53 240.702 160.79 241.009 160.969C241.316 161.145 241.673 161.233 242.079 161.233C242.343 161.233 242.582 161.196 242.795 161.122C243.011 161.045 243.197 160.932 243.353 160.781C243.509 160.628 243.63 160.437 243.715 160.21L244.687 160.483C244.585 160.812 244.413 161.102 244.171 161.352C243.93 161.599 243.631 161.793 243.276 161.932C242.921 162.068 242.522 162.136 242.079 162.136Z" fill="#428CDC"/>
<path d="M287.568 266.273L289.818 269.903H289.886L292.136 266.273H293.381L290.636 270.636L293.381 275H292.136L289.886 271.438H289.818L287.568 275H286.324L289.136 270.636L286.324 266.273H287.568Z" fill="#428CDC"/>
<rect x="0.25" y="0.25" width="327.5" height="300.5" rx="5.75" stroke="#428CDC" stroke-width="0.5"/>
<path d="M35.3068 16.2727H36.517L38.9375 20.3466H39.0398L41.4602 16.2727H42.6705L39.517 21.4034V25H38.4602V21.4034L35.3068 16.2727Z" fill="#428CDC"/>
<defs>
<filter id="filter0_d_17_53" x="183" y="103" width="9" height="113" filterUnits="userSpaceOnUse" color-interpolation-filters="sRGB">
<feFlood flood-opacity="0" result="BackgroundImageFix"/>
<feColorMatrix in="SourceAlpha" type="matrix" values="0 0 0 0 0 0 0 0 0 0 0 0 0 0 0 0 0 0 127 0" result="hardAlpha"/>
<feOffset dy="4"/>
<feGaussianBlur stdDeviation="2"/>
<feComposite in2="hardAlpha" operator="out"/>
<feColorMatrix type="matrix" values="0 0 0 0 0 0 0 0 0 0 0 0 0 0 0 0 0 0 0.25 0"/>
<feBlend mode="normal" in2="BackgroundImageFix" result="effect1_dropShadow_17_53"/>
<feBlend mode="normal" in="SourceGraphic" in2="effect1_dropShadow_17_53" result="shape"/>
</filter>
</defs>
</svg>
