<svg width="555" height="472" viewBox="0 0 555 472" fill="none" xmlns="http://www.w3.org/2000/svg">
<path d="M166.707 38.2929C166.317 37.9024 165.683 37.9024 165.293 38.2929L158.929 44.6568C158.538 45.0474 158.538 45.6805 158.929 46.0711C159.319 46.4616 159.953 46.4616 160.343 46.0711L166 40.4142L171.657 46.0711C172.047 46.4616 172.681 46.4616 173.071 46.0711C173.462 45.6805 173.462 45.0474 173.071 44.6568L166.707 38.2929ZM166 279H167L167 39H166H165L165 279H166Z" fill="#428CDC"/>
<path d="M405.707 279.707C406.098 279.317 406.098 278.683 405.707 278.293L399.343 271.929C398.953 271.538 398.319 271.538 397.929 271.929C397.538 272.319 397.538 272.953 397.929 273.343L403.586 279L397.929 284.657C397.538 285.047 397.538 285.681 397.929 286.071C398.319 286.462 398.953 286.462 399.343 286.071L405.707 279.707ZM166 279V280H405V279V278H166V279Z" fill="#428CDC"/>
<path d="M271.967 98.7455C271.827 98.2114 271.28 97.8924 270.746 98.0329L262.042 100.323C261.508 100.464 261.189 101.011 261.329 101.545C261.47 102.079 262.017 102.398 262.551 102.257L270.287 100.222L272.323 107.958C272.464 108.492 273.011 108.811 273.545 108.671C274.079 108.53 274.398 107.983 274.258 107.449L271.967 98.7455ZM166 279L166.864 279.504L271.864 99.5038L271 99L270.136 98.4961L165.136 278.496L166 279Z" fill="#287E1D"/>
<path d="M251.665 89.1364C251.034 89.1364 250.49 88.9972 250.033 88.7188C249.578 88.4375 249.227 88.0455 248.98 87.5426C248.736 87.0369 248.614 86.4489 248.614 85.7784C248.614 85.108 248.736 84.517 248.98 84.0057C249.227 83.4915 249.571 83.0909 250.011 82.804C250.455 82.5142 250.972 82.3693 251.562 82.3693C251.903 82.3693 252.24 82.4261 252.572 82.5398C252.905 82.6534 253.207 82.8381 253.48 83.0938C253.753 83.3466 253.97 83.6818 254.132 84.0994C254.294 84.517 254.375 85.0312 254.375 85.642V86.0682H249.33V85.1989H253.352C253.352 84.8295 253.278 84.5 253.131 84.2102C252.986 83.9205 252.778 83.6918 252.509 83.5241C252.241 83.3565 251.926 83.2727 251.562 83.2727C251.162 83.2727 250.815 83.3722 250.523 83.571C250.233 83.767 250.01 84.0227 249.854 84.3381C249.697 84.6534 249.619 84.9915 249.619 85.3523V85.9318C249.619 86.4261 249.705 86.8452 249.875 87.1889C250.048 87.5298 250.288 87.7898 250.595 87.9688C250.902 88.1449 251.259 88.233 251.665 88.233C251.929 88.233 252.168 88.196 252.381 88.1222C252.597 88.0455 252.783 87.9318 252.939 87.7812C253.095 87.6278 253.216 87.4375 253.301 87.2102L254.273 87.483C254.17 87.8125 253.999 88.1023 253.757 88.3523C253.516 88.5994 253.217 88.7926 252.862 88.9318C252.507 89.0682 252.108 89.1364 251.665 89.1364ZM255.905 89V82.4545H256.876V83.4773H256.962C257.098 83.1278 257.318 82.8565 257.622 82.6634C257.926 82.4673 258.291 82.3693 258.717 82.3693C259.149 82.3693 259.509 82.4673 259.795 82.6634C260.085 82.8565 260.311 83.1278 260.473 83.4773H260.541C260.709 83.1392 260.96 82.8707 261.295 82.6719C261.631 82.4702 262.033 82.3693 262.501 82.3693C263.087 82.3693 263.565 82.5526 263.938 82.919C264.31 83.2827 264.496 83.8494 264.496 84.6193V89H263.49V84.6193C263.49 84.1364 263.358 83.7912 263.094 83.5838C262.83 83.3764 262.518 83.2727 262.161 83.2727C261.7 83.2727 261.344 83.4119 261.091 83.6903C260.838 83.9659 260.712 84.3153 260.712 84.7386V89H259.689V84.517C259.689 84.1449 259.568 83.8452 259.327 83.6179C259.085 83.3878 258.774 83.2727 258.393 83.2727C258.132 83.2727 257.888 83.3423 257.661 83.4815C257.436 83.6207 257.254 83.8139 257.115 84.0611C256.979 84.3054 256.911 84.5881 256.911 84.9091V89H255.905ZM266.335 91.4545V82.4545H267.306V83.4943H267.425C267.499 83.3807 267.602 83.2358 267.732 83.0597C267.866 82.8807 268.056 82.7216 268.303 82.5824C268.553 82.4403 268.891 82.3693 269.317 82.3693C269.869 82.3693 270.354 82.5071 270.775 82.7827C271.195 83.0582 271.523 83.4489 271.759 83.9545C271.995 84.4602 272.113 85.0568 272.113 85.7443C272.113 86.4375 271.995 87.0384 271.759 87.5469C271.523 88.0526 271.197 88.4446 270.779 88.723C270.362 88.9986 269.88 89.1364 269.335 89.1364C268.914 89.1364 268.577 89.0668 268.325 88.9276C268.072 88.7855 267.877 88.625 267.741 88.446C267.604 88.2642 267.499 88.1136 267.425 87.9943H267.34V91.4545H266.335ZM267.323 85.7273C267.323 86.2216 267.396 86.6577 267.54 87.0355C267.685 87.4105 267.897 87.7045 268.175 87.9176C268.454 88.1278 268.795 88.233 269.198 88.233C269.619 88.233 269.969 88.1222 270.251 87.9006C270.535 87.6761 270.748 87.375 270.89 86.9972C271.035 86.6165 271.107 86.1932 271.107 85.7273C271.107 85.267 271.036 84.8523 270.894 84.483C270.755 84.1108 270.543 83.8168 270.259 83.6009C269.978 83.3821 269.624 83.2727 269.198 83.2727C268.789 83.2727 268.445 83.3764 268.167 83.5838C267.888 83.7884 267.678 84.0753 267.536 84.4446C267.394 84.8111 267.323 85.2386 267.323 85.7273ZM276.391 89.1364C275.761 89.1364 275.217 88.9972 274.759 88.7188C274.305 88.4375 273.954 88.0455 273.707 87.5426C273.462 87.0369 273.34 86.4489 273.34 85.7784C273.34 85.108 273.462 84.517 273.707 84.0057C273.954 83.4915 274.298 83.0909 274.738 82.804C275.181 82.5142 275.698 82.3693 276.289 82.3693C276.63 82.3693 276.967 82.4261 277.299 82.5398C277.631 82.6534 277.934 82.8381 278.207 83.0938C278.479 83.3466 278.697 83.6818 278.859 84.0994C279.021 84.517 279.102 85.0312 279.102 85.642V86.0682H274.056V85.1989H278.079C278.079 84.8295 278.005 84.5 277.857 84.2102C277.712 83.9205 277.505 83.6918 277.235 83.5241C276.968 83.3565 276.653 83.2727 276.289 83.2727C275.888 83.2727 275.542 83.3722 275.249 83.571C274.96 83.767 274.737 84.0227 274.58 84.3381C274.424 84.6534 274.346 84.9915 274.346 85.3523V85.9318C274.346 86.4261 274.431 86.8452 274.602 87.1889C274.775 87.5298 275.015 87.7898 275.322 87.9688C275.629 88.1449 275.985 88.233 276.391 88.233C276.656 88.233 276.894 88.196 277.107 88.1222C277.323 88.0455 277.509 87.9318 277.665 87.7812C277.822 87.6278 277.942 87.4375 278.028 87.2102L278.999 87.483C278.897 87.8125 278.725 88.1023 278.484 88.3523C278.242 88.5994 277.944 88.7926 277.589 88.9318C277.234 89.0682 276.835 89.1364 276.391 89.1364ZM280.631 89V82.4545H281.603V83.4432H281.671C281.79 83.1193 282.006 82.8565 282.319 82.6548C282.631 82.4531 282.984 82.3523 283.376 82.3523C283.45 82.3523 283.542 82.3537 283.653 82.3565C283.763 82.3594 283.847 82.3636 283.904 82.3693V83.392C283.87 83.3835 283.792 83.3707 283.67 83.3537C283.55 83.3338 283.424 83.3239 283.29 83.3239C282.972 83.3239 282.688 83.3906 282.438 83.5241C282.191 83.6548 281.995 83.8366 281.85 84.0696C281.708 84.2997 281.637 84.5625 281.637 84.858V89H280.631ZM287.556 89.1364C286.965 89.1364 286.447 88.9957 286.001 88.7145C285.558 88.4332 285.211 88.0398 284.961 87.5341C284.714 87.0284 284.59 86.4375 284.59 85.7614C284.59 85.0795 284.714 84.4844 284.961 83.9759C285.211 83.4673 285.558 83.0724 286.001 82.7912C286.447 82.5099 286.965 82.3693 287.556 82.3693C288.147 82.3693 288.664 82.5099 289.107 82.7912C289.553 83.0724 289.9 83.4673 290.147 83.9759C290.397 84.4844 290.522 85.0795 290.522 85.7614C290.522 86.4375 290.397 87.0284 290.147 87.5341C289.9 88.0398 289.553 88.4332 289.107 88.7145C288.664 88.9957 288.147 89.1364 287.556 89.1364ZM287.556 88.233C288.005 88.233 288.374 88.1179 288.664 87.8878C288.954 87.6577 289.168 87.3551 289.308 86.9801C289.447 86.6051 289.516 86.1989 289.516 85.7614C289.516 85.3239 289.447 84.9162 289.308 84.5384C289.168 84.1605 288.954 83.8551 288.664 83.6222C288.374 83.3892 288.005 83.2727 287.556 83.2727C287.107 83.2727 286.738 83.3892 286.448 83.6222C286.158 83.8551 285.944 84.1605 285.805 84.5384C285.665 84.9162 285.596 85.3239 285.596 85.7614C285.596 86.1989 285.665 86.6051 285.805 86.9801C285.944 87.3551 286.158 87.6577 286.448 87.8878C286.738 88.1179 287.107 88.233 287.556 88.233ZM292.057 89V82.4545H293.029V83.4432H293.097C293.216 83.1193 293.432 82.8565 293.745 82.6548C294.057 82.4531 294.409 82.3523 294.801 82.3523C294.875 82.3523 294.968 82.3537 295.078 82.3565C295.189 82.3594 295.273 82.3636 295.33 82.3693V83.392C295.296 83.3835 295.218 83.3707 295.096 83.3537C294.976 83.3338 294.85 83.3239 294.716 83.3239C294.398 83.3239 294.114 83.3906 293.864 83.5241C293.617 83.6548 293.421 83.8366 293.276 84.0696C293.134 84.2997 293.063 84.5625 293.063 84.858V89H292.057ZM300.391 90.0909V79.1818H302.914V80.017H301.346V89.2557H302.914V90.0909H300.391ZM307.074 89.1193C306.432 89.1193 305.885 88.9446 305.434 88.5952C304.982 88.2429 304.637 87.733 304.398 87.0653C304.159 86.3949 304.04 85.5852 304.04 84.6364C304.04 83.6932 304.159 82.8878 304.398 82.2202C304.64 81.5497 304.986 81.0384 305.438 80.6861C305.892 80.331 306.438 80.1534 307.074 80.1534C307.711 80.1534 308.255 80.331 308.706 80.6861C309.161 81.0384 309.507 81.5497 309.746 82.2202C309.988 82.8878 310.108 83.6932 310.108 84.6364C310.108 85.5852 309.989 86.3949 309.75 87.0653C309.512 87.733 309.167 88.2429 308.715 88.5952C308.263 88.9446 307.716 89.1193 307.074 89.1193ZM307.074 88.1818C307.711 88.1818 308.205 87.875 308.557 87.2614C308.909 86.6477 309.086 85.7727 309.086 84.6364C309.086 83.8807 309.005 83.2372 308.843 82.706C308.684 82.1747 308.453 81.7699 308.152 81.4915C307.854 81.2131 307.495 81.0739 307.074 81.0739C306.444 81.0739 305.951 81.3849 305.596 82.0071C305.24 82.6264 305.063 83.5028 305.063 84.6364C305.063 85.392 305.142 86.0341 305.301 86.5625C305.461 87.0909 305.689 87.4929 305.988 87.7685C306.289 88.044 306.651 88.1818 307.074 88.1818ZM312.173 89.0682C311.963 89.0682 311.782 88.9929 311.632 88.8423C311.481 88.6918 311.406 88.5114 311.406 88.3011C311.406 88.0909 311.481 87.9105 311.632 87.7599C311.782 87.6094 311.963 87.5341 312.173 87.5341C312.383 87.5341 312.564 87.6094 312.714 87.7599C312.865 87.9105 312.94 88.0909 312.94 88.3011C312.94 88.4403 312.904 88.5682 312.833 88.6847C312.765 88.8011 312.673 88.8949 312.556 88.9659C312.443 89.0341 312.315 89.0682 312.173 89.0682ZM317.254 89.1193C316.668 89.1193 316.151 89.0156 315.702 88.8082C315.256 88.598 314.908 88.3097 314.658 87.9432C314.408 87.5739 314.285 87.1534 314.288 86.6818C314.285 86.3125 314.357 85.9716 314.505 85.6591C314.653 85.3437 314.854 85.081 315.11 84.8707C315.369 84.6577 315.657 84.5227 315.975 84.4659V84.4148C315.558 84.3068 315.225 84.0724 314.978 83.7116C314.731 83.348 314.609 82.9347 314.612 82.4716C314.609 82.0284 314.721 81.6321 314.948 81.2827C315.175 80.9332 315.488 80.6577 315.886 80.456C316.286 80.2543 316.742 80.1534 317.254 80.1534C317.759 80.1534 318.211 80.2543 318.609 80.456C319.006 80.6577 319.319 80.9332 319.546 81.2827C319.776 81.6321 319.893 82.0284 319.896 82.4716C319.893 82.9347 319.766 83.348 319.516 83.7116C319.269 84.0724 318.941 84.3068 318.532 84.4148V84.4659C318.847 84.5227 319.131 84.6577 319.384 84.8707C319.637 85.081 319.839 85.3437 319.989 85.6591C320.14 85.9716 320.217 86.3125 320.219 86.6818C320.217 87.1534 320.089 87.5739 319.836 87.9432C319.586 88.3097 319.238 88.598 318.792 88.8082C318.349 89.0156 317.836 89.1193 317.254 89.1193ZM317.254 88.1818C317.648 88.1818 317.989 88.1179 318.276 87.9901C318.563 87.8622 318.785 87.6818 318.941 87.4489C319.097 87.2159 319.177 86.9432 319.18 86.6307C319.177 86.3011 319.092 86.0099 318.924 85.7571C318.756 85.5043 318.528 85.3054 318.238 85.1605C317.951 85.0156 317.623 84.9432 317.254 84.9432C316.881 84.9432 316.549 85.0156 316.256 85.1605C315.967 85.3054 315.738 85.5043 315.57 85.7571C315.406 86.0099 315.325 86.3011 315.327 86.6307C315.325 86.9432 315.4 87.2159 315.553 87.4489C315.71 87.6818 315.933 87.8622 316.222 87.9901C316.512 88.1179 316.856 88.1818 317.254 88.1818ZM317.254 84.0398C317.566 84.0398 317.843 83.9773 318.085 83.8523C318.329 83.7273 318.521 83.5526 318.66 83.3281C318.799 83.1037 318.87 82.8409 318.873 82.5398C318.87 82.2443 318.8 81.9872 318.664 81.7685C318.528 81.5469 318.339 81.3764 318.097 81.2571C317.856 81.1349 317.575 81.0739 317.254 81.0739C316.927 81.0739 316.641 81.1349 316.397 81.2571C316.153 81.3764 315.964 81.5469 315.83 81.7685C315.697 81.9872 315.631 82.2443 315.634 82.5398C315.631 82.8409 315.698 83.1037 315.835 83.3281C315.974 83.5526 316.165 83.7273 316.41 83.8523C316.654 83.9773 316.935 84.0398 317.254 84.0398ZM324.648 89.1193C324.063 89.1193 323.546 89.0156 323.097 88.8082C322.651 88.598 322.303 88.3097 322.053 87.9432C321.803 87.5739 321.679 87.1534 321.682 86.6818C321.679 86.3125 321.752 85.9716 321.9 85.6591C322.047 85.3437 322.249 85.081 322.505 84.8707C322.763 84.6577 323.051 84.5227 323.37 84.4659V84.4148C322.952 84.3068 322.62 84.0724 322.373 83.7116C322.125 83.348 322.003 82.9347 322.006 82.4716C322.003 82.0284 322.115 81.6321 322.343 81.2827C322.57 80.9332 322.882 80.6577 323.28 80.456C323.681 80.2543 324.137 80.1534 324.648 80.1534C325.154 80.1534 325.605 80.2543 326.003 80.456C326.401 80.6577 326.713 80.9332 326.941 81.2827C327.171 81.6321 327.287 82.0284 327.29 82.4716C327.287 82.9347 327.161 83.348 326.911 83.7116C326.664 84.0724 326.336 84.3068 325.926 84.4148V84.4659C326.242 84.5227 326.526 84.6577 326.779 84.8707C327.032 85.081 327.233 85.3437 327.384 85.6591C327.534 85.9716 327.611 86.3125 327.614 86.6818C327.611 87.1534 327.483 87.5739 327.23 87.9432C326.98 88.3097 326.632 88.598 326.186 88.8082C325.743 89.0156 325.23 89.1193 324.648 89.1193ZM324.648 88.1818C325.043 88.1818 325.384 88.1179 325.671 87.9901C325.958 87.8622 326.179 87.6818 326.336 87.4489C326.492 87.2159 326.571 86.9432 326.574 86.6307C326.571 86.3011 326.486 86.0099 326.319 85.7571C326.151 85.5043 325.922 85.3054 325.632 85.1605C325.346 85.0156 325.017 84.9432 324.648 84.9432C324.276 84.9432 323.944 85.0156 323.651 85.1605C323.361 85.3054 323.132 85.5043 322.965 85.7571C322.8 86.0099 322.719 86.3011 322.722 86.6307C322.719 86.9432 322.794 87.2159 322.948 87.4489C323.104 87.6818 323.327 87.8622 323.617 87.9901C323.907 88.1179 324.25 88.1818 324.648 88.1818ZM324.648 84.0398C324.961 84.0398 325.238 83.9773 325.479 83.8523C325.723 83.7273 325.915 83.5526 326.054 83.3281C326.194 83.1037 326.265 82.8409 326.267 82.5398C326.265 82.2443 326.195 81.9872 326.059 81.7685C325.922 81.5469 325.733 81.3764 325.492 81.2571C325.25 81.1349 324.969 81.0739 324.648 81.0739C324.321 81.0739 324.036 81.1349 323.792 81.2571C323.547 81.3764 323.358 81.5469 323.225 81.7685C323.091 81.9872 323.026 82.2443 323.029 82.5398C323.026 82.8409 323.093 83.1037 323.229 83.3281C323.368 83.5526 323.56 83.7273 323.804 83.8523C324.049 83.9773 324.33 84.0398 324.648 84.0398ZM330.495 87.8068L330.426 88.267C330.378 88.5909 330.304 88.9375 330.205 89.3068C330.108 89.6761 330.007 90.0241 329.902 90.3509C329.797 90.6776 329.711 90.9375 329.642 91.1307H328.875C328.912 90.9489 328.961 90.7088 329.02 90.4105C329.08 90.1122 329.14 89.7784 329.199 89.4091C329.262 89.0426 329.313 88.6676 329.353 88.2841L329.404 87.8068H330.495ZM338.562 89.1193C337.92 89.1193 337.374 88.9446 336.922 88.5952C336.47 88.2429 336.125 87.733 335.886 87.0653C335.648 86.3949 335.528 85.5852 335.528 84.6364C335.528 83.6932 335.648 82.8878 335.886 82.2202C336.128 81.5497 336.474 81.0384 336.926 80.6861C337.381 80.331 337.926 80.1534 338.562 80.1534C339.199 80.1534 339.743 80.331 340.195 80.6861C340.649 81.0384 340.996 81.5497 341.234 82.2202C341.476 82.8878 341.597 83.6932 341.597 84.6364C341.597 85.5852 341.477 86.3949 341.239 87.0653C341 87.733 340.655 88.2429 340.203 88.5952C339.751 88.9446 339.205 89.1193 338.562 89.1193ZM338.562 88.1818C339.199 88.1818 339.693 87.875 340.045 87.2614C340.398 86.6477 340.574 85.7727 340.574 84.6364C340.574 83.8807 340.493 83.2372 340.331 82.706C340.172 82.1747 339.942 81.7699 339.641 81.4915C339.342 81.2131 338.983 81.0739 338.562 81.0739C337.932 81.0739 337.439 81.3849 337.084 82.0071C336.729 82.6264 336.551 83.5028 336.551 84.6364C336.551 85.392 336.631 86.0341 336.79 86.5625C336.949 87.0909 337.178 87.4929 337.476 87.7685C337.777 88.044 338.139 88.1818 338.562 88.1818ZM343.661 89.0682C343.451 89.0682 343.271 88.9929 343.12 88.8423C342.969 88.6918 342.894 88.5114 342.894 88.3011C342.894 88.0909 342.969 87.9105 343.12 87.7599C343.271 87.6094 343.451 87.5341 343.661 87.5341C343.871 87.5341 344.052 87.6094 344.202 87.7599C344.353 87.9105 344.428 88.0909 344.428 88.3011C344.428 88.4403 344.393 88.5682 344.322 88.6847C344.254 88.8011 344.161 88.8949 344.045 88.9659C343.931 89.0341 343.803 89.0682 343.661 89.0682ZM348.742 89.1193C348.157 89.1193 347.64 89.0156 347.191 88.8082C346.745 88.598 346.397 88.3097 346.147 87.9432C345.897 87.5739 345.773 87.1534 345.776 86.6818C345.773 86.3125 345.846 85.9716 345.993 85.6591C346.141 85.3437 346.343 85.081 346.598 84.8707C346.857 84.6577 347.145 84.5227 347.463 84.4659V84.4148C347.046 84.3068 346.713 84.0724 346.466 83.7116C346.219 83.348 346.097 82.9347 346.1 82.4716C346.097 82.0284 346.209 81.6321 346.436 81.2827C346.664 80.9332 346.976 80.6577 347.374 80.456C347.775 80.2543 348.23 80.1534 348.742 80.1534C349.248 80.1534 349.699 80.2543 350.097 80.456C350.495 80.6577 350.807 80.9332 351.034 81.2827C351.265 81.6321 351.381 82.0284 351.384 82.4716C351.381 82.9347 351.255 83.348 351.005 83.7116C350.757 84.0724 350.429 84.3068 350.02 84.4148V84.4659C350.336 84.5227 350.62 84.6577 350.873 84.8707C351.125 85.081 351.327 85.3437 351.478 85.6591C351.628 85.9716 351.705 86.3125 351.708 86.6818C351.705 87.1534 351.577 87.5739 351.324 87.9432C351.074 88.3097 350.726 88.598 350.28 88.8082C349.837 89.0156 349.324 89.1193 348.742 89.1193ZM348.742 88.1818C349.137 88.1818 349.478 88.1179 349.765 87.9901C350.051 87.8622 350.273 87.6818 350.429 87.4489C350.586 87.2159 350.665 86.9432 350.668 86.6307C350.665 86.3011 350.58 86.0099 350.412 85.7571C350.245 85.5043 350.016 85.3054 349.726 85.1605C349.439 85.0156 349.111 84.9432 348.742 84.9432C348.37 84.9432 348.037 85.0156 347.745 85.1605C347.455 85.3054 347.226 85.5043 347.059 85.7571C346.894 86.0099 346.813 86.3011 346.816 86.6307C346.813 86.9432 346.888 87.2159 347.042 87.4489C347.198 87.6818 347.421 87.8622 347.711 87.9901C348 88.1179 348.344 88.1818 348.742 88.1818ZM348.742 84.0398C349.054 84.0398 349.331 83.9773 349.573 83.8523C349.817 83.7273 350.009 83.5526 350.148 83.3281C350.287 83.1037 350.358 82.8409 350.361 82.5398C350.358 82.2443 350.289 81.9872 350.152 81.7685C350.016 81.5469 349.827 81.3764 349.586 81.2571C349.344 81.1349 349.063 81.0739 348.742 81.0739C348.415 81.0739 348.13 81.1349 347.885 81.2571C347.641 81.3764 347.452 81.5469 347.319 81.7685C347.185 81.9872 347.12 82.2443 347.123 82.5398C347.12 82.8409 347.186 83.1037 347.323 83.3281C347.462 83.5526 347.654 83.7273 347.898 83.8523C348.142 83.9773 348.424 84.0398 348.742 84.0398ZM353.341 89V88.233L356.222 85.0795C356.56 84.7102 356.838 84.3892 357.057 84.1165C357.276 83.8409 357.438 83.5824 357.543 83.3409C357.651 83.0966 357.705 82.8409 357.705 82.5739C357.705 82.267 357.631 82.0014 357.483 81.777C357.338 81.5526 357.139 81.3793 356.886 81.2571C356.634 81.1349 356.349 81.0739 356.034 81.0739C355.699 81.0739 355.406 81.1435 355.156 81.2827C354.909 81.419 354.717 81.6108 354.581 81.858C354.447 82.1051 354.381 82.3949 354.381 82.7273H353.375C353.375 82.2159 353.493 81.767 353.729 81.3807C353.964 80.9943 354.286 80.6932 354.692 80.4773C355.101 80.2614 355.56 80.1534 356.068 80.1534C356.58 80.1534 357.033 80.2614 357.428 80.4773C357.822 80.6932 358.132 80.9844 358.357 81.3509C358.581 81.7173 358.693 82.125 358.693 82.5739C358.693 82.8949 358.635 83.2088 358.518 83.5156C358.405 83.8196 358.206 84.1591 357.922 84.5341C357.641 84.9062 357.25 85.3608 356.75 85.8977L354.79 87.9943V88.0625H358.847V89H353.341ZM362.124 87.8068L362.055 88.267C362.007 88.5909 361.933 88.9375 361.834 89.3068C361.737 89.6761 361.636 90.0241 361.531 90.3509C361.426 90.6776 361.339 90.9375 361.271 91.1307H360.504C360.541 90.9489 360.589 90.7088 360.649 90.4105C360.709 90.1122 360.768 89.7784 360.828 89.4091C360.891 89.0426 360.942 88.6676 360.982 88.2841L361.033 87.8068H362.124ZM370.191 89.1193C369.549 89.1193 369.002 88.9446 368.551 88.5952C368.099 88.2429 367.754 87.733 367.515 87.0653C367.277 86.3949 367.157 85.5852 367.157 84.6364C367.157 83.6932 367.277 82.8878 367.515 82.2202C367.757 81.5497 368.103 81.0384 368.555 80.6861C369.01 80.331 369.555 80.1534 370.191 80.1534C370.828 80.1534 371.372 80.331 371.824 80.6861C372.278 81.0384 372.625 81.5497 372.863 82.2202C373.105 82.8878 373.225 83.6932 373.225 84.6364C373.225 85.5852 373.106 86.3949 372.868 87.0653C372.629 87.733 372.284 88.2429 371.832 88.5952C371.38 88.9446 370.833 89.1193 370.191 89.1193ZM370.191 88.1818C370.828 88.1818 371.322 87.875 371.674 87.2614C372.027 86.6477 372.203 85.7727 372.203 84.6364C372.203 83.8807 372.122 83.2372 371.96 82.706C371.801 82.1747 371.571 81.7699 371.27 81.4915C370.971 81.2131 370.612 81.0739 370.191 81.0739C369.561 81.0739 369.068 81.3849 368.713 82.0071C368.358 82.6264 368.18 83.5028 368.18 84.6364C368.18 85.392 368.26 86.0341 368.419 86.5625C368.578 87.0909 368.806 87.4929 369.105 87.7685C369.406 88.044 369.768 88.1818 370.191 88.1818ZM375.29 89.0682C375.08 89.0682 374.9 88.9929 374.749 88.8423C374.598 88.6918 374.523 88.5114 374.523 88.3011C374.523 88.0909 374.598 87.9105 374.749 87.7599C374.9 87.6094 375.08 87.5341 375.29 87.5341C375.5 87.5341 375.681 87.6094 375.831 87.7599C375.982 87.9105 376.057 88.0909 376.057 88.3011C376.057 88.4403 376.022 88.5682 375.951 88.6847C375.882 88.8011 375.79 88.8949 375.674 88.9659C375.56 89.0341 375.432 89.0682 375.29 89.0682ZM379.87 80.2727V89H378.813V81.3807H378.762L376.631 82.7955V81.7216L378.813 80.2727H379.87ZM382.38 89V88.233L385.261 85.0795C385.599 84.7102 385.877 84.3892 386.096 84.1165C386.315 83.8409 386.477 83.5824 386.582 83.3409C386.69 83.0966 386.744 82.8409 386.744 82.5739C386.744 82.267 386.67 82.0014 386.522 81.777C386.377 81.5526 386.178 81.3793 385.925 81.2571C385.673 81.1349 385.388 81.0739 385.073 81.0739C384.738 81.0739 384.445 81.1435 384.195 81.2827C383.948 81.419 383.756 81.6108 383.62 81.858C383.487 82.1051 383.42 82.3949 383.42 82.7273H382.414C382.414 82.2159 382.532 81.767 382.768 81.3807C383.004 80.9943 383.325 80.6932 383.731 80.4773C384.14 80.2614 384.599 80.1534 385.107 80.1534C385.619 80.1534 386.072 80.2614 386.467 80.4773C386.862 80.6932 387.171 80.9844 387.396 81.3509C387.62 81.7173 387.732 82.125 387.732 82.5739C387.732 82.8949 387.674 83.2088 387.558 83.5156C387.444 83.8196 387.245 84.1591 386.961 84.5341C386.68 84.9062 386.289 85.3608 385.789 85.8977L383.829 87.9943V88.0625H387.886V89H382.38ZM391.163 87.8068L391.094 88.267C391.046 88.5909 390.972 88.9375 390.873 89.3068C390.776 89.6761 390.675 90.0241 390.57 90.3509C390.465 90.6776 390.379 90.9375 390.31 91.1307H389.543C389.58 90.9489 389.629 90.7088 389.688 90.4105C389.748 90.1122 389.808 89.7784 389.867 89.4091C389.93 89.0426 389.981 88.6676 390.021 88.2841L390.072 87.8068H391.163ZM399.23 89.1193C398.588 89.1193 398.042 88.9446 397.59 88.5952C397.138 88.2429 396.793 87.733 396.554 87.0653C396.316 86.3949 396.196 85.5852 396.196 84.6364C396.196 83.6932 396.316 82.8878 396.554 82.2202C396.796 81.5497 397.142 81.0384 397.594 80.6861C398.049 80.331 398.594 80.1534 399.23 80.1534C399.867 80.1534 400.411 80.331 400.863 80.6861C401.317 81.0384 401.664 81.5497 401.902 82.2202C402.144 82.8878 402.265 83.6932 402.265 84.6364C402.265 85.5852 402.145 86.3949 401.907 87.0653C401.668 87.733 401.323 88.2429 400.871 88.5952C400.419 88.9446 399.873 89.1193 399.23 89.1193ZM399.23 88.1818C399.867 88.1818 400.361 87.875 400.713 87.2614C401.066 86.6477 401.242 85.7727 401.242 84.6364C401.242 83.8807 401.161 83.2372 400.999 82.706C400.84 82.1747 400.61 81.7699 400.309 81.4915C400.01 81.2131 399.651 81.0739 399.23 81.0739C398.6 81.0739 398.107 81.3849 397.752 82.0071C397.397 82.6264 397.219 83.5028 397.219 84.6364C397.219 85.392 397.299 86.0341 397.458 86.5625C397.617 87.0909 397.846 87.4929 398.144 87.7685C398.445 88.044 398.807 88.1818 399.23 88.1818ZM404.329 89.0682C404.119 89.0682 403.939 88.9929 403.788 88.8423C403.637 88.6918 403.562 88.5114 403.562 88.3011C403.562 88.0909 403.637 87.9105 403.788 87.7599C403.939 87.6094 404.119 87.5341 404.329 87.5341C404.539 87.5341 404.72 87.6094 404.87 87.7599C405.021 87.9105 405.096 88.0909 405.096 88.3011C405.096 88.4403 405.061 88.5682 404.99 88.6847C404.922 88.8011 404.829 88.8949 404.713 88.9659C404.599 89.0341 404.471 89.0682 404.329 89.0682ZM409.426 89.1193C408.784 89.1193 408.237 88.9446 407.785 88.5952C407.333 88.2429 406.988 87.733 406.75 87.0653C406.511 86.3949 406.392 85.5852 406.392 84.6364C406.392 83.6932 406.511 82.8878 406.75 82.2202C406.991 81.5497 407.338 81.0384 407.789 80.6861C408.244 80.331 408.789 80.1534 409.426 80.1534C410.062 80.1534 410.606 80.331 411.058 80.6861C411.512 81.0384 411.859 81.5497 412.098 82.2202C412.339 82.8878 412.46 83.6932 412.46 84.6364C412.46 85.5852 412.341 86.3949 412.102 87.0653C411.863 87.733 411.518 88.2429 411.066 88.5952C410.615 88.9446 410.068 89.1193 409.426 89.1193ZM409.426 88.1818C410.062 88.1818 410.556 87.875 410.909 87.2614C411.261 86.6477 411.437 85.7727 411.437 84.6364C411.437 83.8807 411.356 83.2372 411.194 82.706C411.035 82.1747 410.805 81.7699 410.504 81.4915C410.206 81.2131 409.846 81.0739 409.426 81.0739C408.795 81.0739 408.302 81.3849 407.947 82.0071C407.592 82.6264 407.414 83.5028 407.414 84.6364C407.414 85.392 407.494 86.0341 407.653 86.5625C407.812 87.0909 408.041 87.4929 408.339 87.7685C408.64 88.044 409.002 88.1818 409.426 88.1818ZM416.108 79.1818V90.0909H413.585V89.2557H415.153V80.017H413.585V79.1818H416.108Z" fill="#287E1D"/>
<path d="M317.984 174.177C318.082 173.633 317.72 173.113 317.177 173.016L308.319 171.424C307.775 171.326 307.255 171.688 307.158 172.231C307.06 172.775 307.421 173.295 307.965 173.393L315.839 174.807L314.424 182.681C314.326 183.225 314.688 183.745 315.231 183.842C315.775 183.94 316.295 183.579 316.393 183.035L317.984 174.177ZM166 279L166.571 279.821L317.571 174.821L317 174L316.429 173.179L165.429 278.179L166 279Z" fill="#DC4A42"/>
<path d="M329.392 171.136C328.847 171.136 328.365 170.999 327.947 170.723C327.53 170.445 327.203 170.053 326.967 169.547C326.732 169.038 326.614 168.438 326.614 167.744C326.614 167.057 326.732 166.46 326.967 165.955C327.203 165.449 327.531 165.058 327.952 164.783C328.372 164.507 328.858 164.369 329.409 164.369C329.835 164.369 330.172 164.44 330.419 164.582C330.669 164.722 330.859 164.881 330.99 165.06C331.124 165.236 331.227 165.381 331.301 165.494H331.386V162.273H332.392V171H331.42V169.994H331.301C331.227 170.114 331.122 170.264 330.986 170.446C330.849 170.625 330.655 170.786 330.402 170.928C330.149 171.067 329.813 171.136 329.392 171.136ZM329.528 170.233C329.932 170.233 330.273 170.128 330.551 169.918C330.83 169.705 331.041 169.411 331.186 169.036C331.331 168.658 331.403 168.222 331.403 167.727C331.403 167.239 331.332 166.811 331.19 166.445C331.048 166.075 330.838 165.788 330.56 165.584C330.281 165.376 329.938 165.273 329.528 165.273C329.102 165.273 328.747 165.382 328.463 165.601C328.182 165.817 327.97 166.111 327.828 166.483C327.689 166.852 327.619 167.267 327.619 167.727C327.619 168.193 327.69 168.616 327.832 168.997C327.977 169.375 328.19 169.676 328.472 169.901C328.756 170.122 329.108 170.233 329.528 170.233ZM337.033 171.136C336.442 171.136 335.923 170.996 335.477 170.714C335.034 170.433 334.688 170.04 334.438 169.534C334.19 169.028 334.067 168.437 334.067 167.761C334.067 167.08 334.19 166.484 334.438 165.976C334.688 165.467 335.034 165.072 335.477 164.791C335.923 164.51 336.442 164.369 337.033 164.369C337.624 164.369 338.141 164.51 338.584 164.791C339.03 165.072 339.376 165.467 339.624 165.976C339.874 166.484 339.999 167.08 339.999 167.761C339.999 168.437 339.874 169.028 339.624 169.534C339.376 170.04 339.03 170.433 338.584 170.714C338.141 170.996 337.624 171.136 337.033 171.136ZM337.033 170.233C337.482 170.233 337.851 170.118 338.141 169.888C338.43 169.658 338.645 169.355 338.784 168.98C338.923 168.605 338.993 168.199 338.993 167.761C338.993 167.324 338.923 166.916 338.784 166.538C338.645 166.161 338.43 165.855 338.141 165.622C337.851 165.389 337.482 165.273 337.033 165.273C336.584 165.273 336.214 165.389 335.925 165.622C335.635 165.855 335.42 166.161 335.281 166.538C335.142 166.916 335.072 167.324 335.072 167.761C335.072 168.199 335.142 168.605 335.281 168.98C335.42 169.355 335.635 169.658 335.925 169.888C336.214 170.118 336.584 170.233 337.033 170.233ZM344.176 173.591C343.69 173.591 343.272 173.528 342.923 173.403C342.574 173.281 342.282 173.119 342.049 172.918C341.819 172.719 341.636 172.506 341.5 172.278L342.301 171.716C342.392 171.835 342.507 171.972 342.646 172.125C342.785 172.281 342.975 172.416 343.217 172.53C343.461 172.646 343.781 172.705 344.176 172.705C344.704 172.705 345.14 172.577 345.484 172.321C345.828 172.065 346 171.665 346 171.119V169.79H345.914C345.841 169.909 345.735 170.057 345.599 170.233C345.466 170.406 345.272 170.561 345.02 170.697C344.77 170.831 344.431 170.898 344.005 170.898C343.477 170.898 343.002 170.773 342.582 170.523C342.164 170.273 341.833 169.909 341.589 169.432C341.348 168.955 341.227 168.375 341.227 167.693C341.227 167.023 341.345 166.439 341.581 165.942C341.816 165.442 342.145 165.055 342.565 164.783C342.985 164.507 343.471 164.369 344.022 164.369C344.449 164.369 344.787 164.44 345.037 164.582C345.289 164.722 345.483 164.881 345.616 165.06C345.752 165.236 345.858 165.381 345.931 165.494H346.034V164.455H347.005V171.188C347.005 171.75 346.877 172.207 346.622 172.56C346.369 172.915 346.028 173.175 345.599 173.339C345.173 173.507 344.699 173.591 344.176 173.591ZM344.142 169.994C344.545 169.994 344.886 169.902 345.164 169.717C345.443 169.533 345.654 169.267 345.799 168.92C345.944 168.574 346.017 168.159 346.017 167.676C346.017 167.205 345.946 166.788 345.804 166.428C345.662 166.067 345.451 165.784 345.173 165.58C344.895 165.375 344.551 165.273 344.142 165.273C343.716 165.273 343.36 165.381 343.076 165.597C342.795 165.812 342.583 166.102 342.441 166.466C342.302 166.83 342.233 167.233 342.233 167.676C342.233 168.131 342.304 168.533 342.446 168.882C342.591 169.229 342.804 169.501 343.085 169.7C343.369 169.896 343.721 169.994 344.142 169.994ZM352.716 172.091V161.182H355.238V162.017H353.67V171.256H355.238V172.091H352.716ZM359.398 171.119C358.756 171.119 358.21 170.945 357.758 170.595C357.306 170.243 356.961 169.733 356.722 169.065C356.484 168.395 356.364 167.585 356.364 166.636C356.364 165.693 356.484 164.888 356.722 164.22C356.964 163.55 357.31 163.038 357.762 162.686C358.217 162.331 358.762 162.153 359.398 162.153C360.035 162.153 360.579 162.331 361.031 162.686C361.485 163.038 361.832 163.55 362.07 164.22C362.312 164.888 362.433 165.693 362.433 166.636C362.433 167.585 362.313 168.395 362.075 169.065C361.836 169.733 361.491 170.243 361.039 170.595C360.587 170.945 360.04 171.119 359.398 171.119ZM359.398 170.182C360.035 170.182 360.529 169.875 360.881 169.261C361.234 168.648 361.41 167.773 361.41 166.636C361.41 165.881 361.329 165.237 361.167 164.706C361.008 164.175 360.778 163.77 360.477 163.491C360.178 163.213 359.819 163.074 359.398 163.074C358.768 163.074 358.275 163.385 357.92 164.007C357.565 164.626 357.387 165.503 357.387 166.636C357.387 167.392 357.467 168.034 357.626 168.562C357.785 169.091 358.013 169.493 358.312 169.768C358.613 170.044 358.975 170.182 359.398 170.182ZM364.497 171.068C364.287 171.068 364.107 170.993 363.956 170.842C363.805 170.692 363.73 170.511 363.73 170.301C363.73 170.091 363.805 169.911 363.956 169.76C364.107 169.609 364.287 169.534 364.497 169.534C364.707 169.534 364.888 169.609 365.038 169.76C365.189 169.911 365.264 170.091 365.264 170.301C365.264 170.44 365.229 170.568 365.158 170.685C365.089 170.801 364.997 170.895 364.881 170.966C364.767 171.034 364.639 171.068 364.497 171.068ZM369.077 162.273V171H368.02V163.381H367.969L365.838 164.795V163.722L368.02 162.273H369.077ZM372.588 169.807L372.52 170.267C372.472 170.591 372.398 170.938 372.299 171.307C372.202 171.676 372.101 172.024 371.996 172.351C371.891 172.678 371.804 172.938 371.736 173.131H370.969C371.006 172.949 371.054 172.709 371.114 172.411C371.174 172.112 371.233 171.778 371.293 171.409C371.355 171.043 371.407 170.668 371.446 170.284L371.498 169.807H372.588ZM380.656 171.119C380.014 171.119 379.467 170.945 379.016 170.595C378.564 170.243 378.219 169.733 377.98 169.065C377.741 168.395 377.622 167.585 377.622 166.636C377.622 165.693 377.741 164.888 377.98 164.22C378.222 163.55 378.568 163.038 379.02 162.686C379.474 162.331 380.02 162.153 380.656 162.153C381.293 162.153 381.837 162.331 382.288 162.686C382.743 163.038 383.089 163.55 383.328 164.22C383.57 164.888 383.69 165.693 383.69 166.636C383.69 167.585 383.571 168.395 383.332 169.065C383.094 169.733 382.749 170.243 382.297 170.595C381.845 170.945 381.298 171.119 380.656 171.119ZM380.656 170.182C381.293 170.182 381.787 169.875 382.139 169.261C382.491 168.648 382.668 167.773 382.668 166.636C382.668 165.881 382.587 165.237 382.425 164.706C382.266 164.175 382.036 163.77 381.734 163.491C381.436 163.213 381.077 163.074 380.656 163.074C380.026 163.074 379.533 163.385 379.178 164.007C378.822 164.626 378.645 165.503 378.645 166.636C378.645 167.392 378.724 168.034 378.884 168.562C379.043 169.091 379.271 169.493 379.57 169.768C379.871 170.044 380.233 170.182 380.656 170.182ZM385.755 171.068C385.545 171.068 385.364 170.993 385.214 170.842C385.063 170.692 384.988 170.511 384.988 170.301C384.988 170.091 385.063 169.911 385.214 169.76C385.364 169.609 385.545 169.534 385.755 169.534C385.965 169.534 386.146 169.609 386.296 169.76C386.447 169.911 386.522 170.091 386.522 170.301C386.522 170.44 386.487 170.568 386.415 170.685C386.347 170.801 386.255 170.895 386.138 170.966C386.025 171.034 385.897 171.068 385.755 171.068ZM388.31 171V170.233L391.19 167.08C391.528 166.71 391.807 166.389 392.026 166.116C392.244 165.841 392.406 165.582 392.511 165.341C392.619 165.097 392.673 164.841 392.673 164.574C392.673 164.267 392.599 164.001 392.452 163.777C392.307 163.553 392.108 163.379 391.855 163.257C391.602 163.135 391.318 163.074 391.003 163.074C390.668 163.074 390.375 163.143 390.125 163.283C389.878 163.419 389.686 163.611 389.55 163.858C389.416 164.105 389.349 164.395 389.349 164.727H388.344C388.344 164.216 388.462 163.767 388.697 163.381C388.933 162.994 389.254 162.693 389.661 162.477C390.07 162.261 390.528 162.153 391.037 162.153C391.548 162.153 392.001 162.261 392.396 162.477C392.791 162.693 393.101 162.984 393.325 163.351C393.55 163.717 393.662 164.125 393.662 164.574C393.662 164.895 393.604 165.209 393.487 165.516C393.374 165.82 393.175 166.159 392.891 166.534C392.609 166.906 392.219 167.361 391.719 167.898L389.759 169.994V170.062H393.815V171H388.31ZM397.092 169.807L397.024 170.267C396.976 170.591 396.902 170.938 396.803 171.307C396.706 171.676 396.605 172.024 396.5 172.351C396.395 172.678 396.308 172.938 396.24 173.131H395.473C395.51 172.949 395.558 172.709 395.618 172.411C395.678 172.112 395.737 171.778 395.797 171.409C395.859 171.043 395.911 170.668 395.95 170.284L396.001 169.807H397.092ZM405.16 171.119C404.518 171.119 403.971 170.945 403.52 170.595C403.068 170.243 402.723 169.733 402.484 169.065C402.245 168.395 402.126 167.585 402.126 166.636C402.126 165.693 402.245 164.888 402.484 164.22C402.725 163.55 403.072 163.038 403.524 162.686C403.978 162.331 404.524 162.153 405.16 162.153C405.797 162.153 406.341 162.331 406.792 162.686C407.247 163.038 407.593 163.55 407.832 164.22C408.074 164.888 408.194 165.693 408.194 166.636C408.194 167.585 408.075 168.395 407.836 169.065C407.598 169.733 407.252 170.243 406.801 170.595C406.349 170.945 405.802 171.119 405.16 171.119ZM405.16 170.182C405.797 170.182 406.291 169.875 406.643 169.261C406.995 168.648 407.172 167.773 407.172 166.636C407.172 165.881 407.091 165.237 406.929 164.706C406.77 164.175 406.539 163.77 406.238 163.491C405.94 163.213 405.581 163.074 405.16 163.074C404.529 163.074 404.037 163.385 403.681 164.007C403.326 164.626 403.149 165.503 403.149 166.636C403.149 167.392 403.228 168.034 403.387 168.562C403.547 169.091 403.775 169.493 404.074 169.768C404.375 170.044 404.737 170.182 405.16 170.182ZM410.259 171.068C410.049 171.068 409.868 170.993 409.718 170.842C409.567 170.692 409.492 170.511 409.492 170.301C409.492 170.091 409.567 169.911 409.718 169.76C409.868 169.609 410.049 169.534 410.259 169.534C410.469 169.534 410.65 169.609 410.8 169.76C410.951 169.911 411.026 170.091 411.026 170.301C411.026 170.44 410.99 170.568 410.919 170.685C410.851 170.801 410.759 170.895 410.642 170.966C410.529 171.034 410.401 171.068 410.259 171.068ZM415.51 162.153C415.868 162.156 416.226 162.224 416.584 162.358C416.942 162.491 417.268 162.713 417.564 163.023C417.859 163.33 418.097 163.749 418.276 164.28C418.455 164.811 418.544 165.477 418.544 166.278C418.544 167.054 418.47 167.743 418.322 168.345C418.178 168.945 417.967 169.45 417.692 169.862C417.419 170.274 417.087 170.587 416.695 170.8C416.305 171.013 415.865 171.119 415.374 171.119C414.885 171.119 414.449 171.023 414.065 170.83C413.685 170.634 413.372 170.362 413.128 170.016C412.886 169.666 412.732 169.261 412.663 168.801H413.703C413.797 169.202 413.983 169.533 414.261 169.794C414.543 170.053 414.913 170.182 415.374 170.182C416.047 170.182 416.578 169.888 416.967 169.3C417.359 168.712 417.555 167.881 417.555 166.807H417.487C417.328 167.045 417.139 167.251 416.92 167.425C416.702 167.598 416.459 167.732 416.192 167.825C415.925 167.919 415.641 167.966 415.339 167.966C414.839 167.966 414.381 167.842 413.963 167.595C413.548 167.345 413.216 167.003 412.966 166.568C412.719 166.131 412.595 165.631 412.595 165.068C412.595 164.534 412.714 164.045 412.953 163.602C413.195 163.156 413.533 162.801 413.967 162.537C414.405 162.273 414.919 162.145 415.51 162.153ZM415.51 163.091C415.152 163.091 414.83 163.18 414.543 163.359C414.259 163.536 414.033 163.774 413.865 164.075C413.7 164.374 413.618 164.705 413.618 165.068C413.618 165.432 413.697 165.763 413.857 166.061C414.018 166.357 414.239 166.592 414.517 166.768C414.798 166.942 415.118 167.028 415.476 167.028C415.746 167.028 415.997 166.976 416.23 166.871C416.463 166.763 416.666 166.616 416.839 166.432C417.016 166.244 417.153 166.033 417.253 165.797C417.352 165.558 417.402 165.31 417.402 165.051C417.402 164.71 417.32 164.391 417.155 164.092C416.993 163.794 416.768 163.553 416.482 163.368C416.197 163.183 415.874 163.091 415.51 163.091ZM421.432 169.807L421.364 170.267C421.316 170.591 421.242 170.938 421.142 171.307C421.046 171.676 420.945 172.024 420.84 172.351C420.735 172.678 420.648 172.938 420.58 173.131H419.813C419.85 172.949 419.898 172.709 419.958 172.411C420.017 172.112 420.077 171.778 420.137 171.409C420.199 171.043 420.25 170.668 420.29 170.284L420.341 169.807H421.432ZM429.5 171.119C428.858 171.119 428.311 170.945 427.859 170.595C427.408 170.243 427.063 169.733 426.824 169.065C426.585 168.395 426.466 167.585 426.466 166.636C426.466 165.693 426.585 164.888 426.824 164.22C427.065 163.55 427.412 163.038 427.864 162.686C428.318 162.331 428.864 162.153 429.5 162.153C430.136 162.153 430.68 162.331 431.132 162.686C431.587 163.038 431.933 163.55 432.172 164.22C432.413 164.888 432.534 165.693 432.534 166.636C432.534 167.585 432.415 168.395 432.176 169.065C431.938 169.733 431.592 170.243 431.141 170.595C430.689 170.945 430.142 171.119 429.5 171.119ZM429.5 170.182C430.136 170.182 430.631 169.875 430.983 169.261C431.335 168.648 431.511 167.773 431.511 166.636C431.511 165.881 431.43 165.237 431.268 164.706C431.109 164.175 430.879 163.77 430.578 163.491C430.28 163.213 429.92 163.074 429.5 163.074C428.869 163.074 428.376 163.385 428.021 164.007C427.666 164.626 427.489 165.503 427.489 166.636C427.489 167.392 427.568 168.034 427.727 168.562C427.886 169.091 428.115 169.493 428.413 169.768C428.714 170.044 429.077 170.182 429.5 170.182ZM434.599 171.068C434.388 171.068 434.208 170.993 434.058 170.842C433.907 170.692 433.832 170.511 433.832 170.301C433.832 170.091 433.907 169.911 434.058 169.76C434.208 169.609 434.388 169.534 434.599 169.534C434.809 169.534 434.989 169.609 435.14 169.76C435.29 169.911 435.366 170.091 435.366 170.301C435.366 170.44 435.33 170.568 435.259 170.685C435.191 170.801 435.099 170.895 434.982 170.966C434.869 171.034 434.741 171.068 434.599 171.068ZM437.25 171L441.154 163.278V163.21H436.654V162.273H442.245V163.261L438.358 171H437.25ZM445.862 161.182V172.091H443.339V171.256H444.907V162.017H443.339V161.182H445.862Z" fill="#DC4A42"/>
<path d="M397.813 241.583C398.134 241.134 398.032 240.509 397.583 240.187L390.27 234.941C389.822 234.619 389.197 234.722 388.875 235.17C388.553 235.619 388.656 236.244 389.104 236.566L395.605 241.23L390.941 247.73C390.619 248.178 390.722 248.803 391.17 249.125C391.619 249.447 392.244 249.344 392.566 248.896L397.813 241.583ZM166 279L166.162 279.987L397.162 241.987L397 241L396.838 240.013L165.838 278.013L166 279Z" fill="#7360AA"/>
<path d="M63.1702 132.015C62.6259 131.921 62.1086 132.286 62.0146 132.83L60.483 141.699C60.3891 142.243 60.7541 142.76 61.2983 142.854C61.8425 142.948 62.3599 142.583 62.4539 142.039L63.8152 134.156L71.6986 135.517C72.2428 135.611 72.7602 135.246 72.8541 134.702C72.9481 134.157 72.5831 133.64 72.0389 133.546L63.1702 132.015ZM166 279L166.817 278.424L63.8171 132.424L63 133L62.1829 133.576L165.183 279.576L166 279Z" fill="#9F7823"/>
<path d="M24.858 115.614L24.8409 114.369H25.0455L27.9091 111.455H29.1534L26.1023 114.54H26.017L24.858 115.614ZM23.9205 118V109.273H24.9261V118H23.9205ZM28.0795 118L25.5227 114.761L26.2386 114.062L29.358 118H28.0795ZM30.4478 118V111.455H31.4535V118H30.4478ZM30.9592 110.364C30.7631 110.364 30.5941 110.297 30.4521 110.163C30.3129 110.03 30.2433 109.869 30.2433 109.682C30.2433 109.494 30.3129 109.334 30.4521 109.2C30.5941 109.067 30.7631 109 30.9592 109C31.1552 109 31.3228 109.067 31.462 109.2C31.604 109.334 31.6751 109.494 31.6751 109.682C31.6751 109.869 31.604 110.03 31.462 110.163C31.3228 110.297 31.1552 110.364 30.9592 110.364ZM34.3011 114.062V118H33.2955V111.455H34.267V112.477H34.3523C34.5057 112.145 34.7386 111.878 35.0511 111.676C35.3636 111.472 35.767 111.369 36.2614 111.369C36.7045 111.369 37.0923 111.46 37.4247 111.642C37.7571 111.821 38.0156 112.094 38.2003 112.46C38.3849 112.824 38.4773 113.284 38.4773 113.841V118H37.4716V113.909C37.4716 113.395 37.3381 112.994 37.071 112.707C36.804 112.418 36.4375 112.273 35.9716 112.273C35.6506 112.273 35.3636 112.342 35.1108 112.482C34.8608 112.621 34.6634 112.824 34.5185 113.091C34.3736 113.358 34.3011 113.682 34.3011 114.062ZM42.957 120.591C42.4712 120.591 42.0536 120.528 41.7042 120.403C41.3548 120.281 41.0636 120.119 40.8306 119.918C40.6005 119.719 40.4173 119.506 40.2809 119.278L41.082 118.716C41.1729 118.835 41.288 118.972 41.4272 119.125C41.5664 119.281 41.7567 119.416 41.9982 119.53C42.2425 119.646 42.5621 119.705 42.957 119.705C43.4854 119.705 43.9215 119.577 44.2653 119.321C44.609 119.065 44.7809 118.665 44.7809 118.119V116.79H44.6957C44.6218 116.909 44.5167 117.057 44.3803 117.233C44.2468 117.406 44.0536 117.561 43.8008 117.697C43.5508 117.831 43.2127 117.898 42.7866 117.898C42.2582 117.898 41.7837 117.773 41.3633 117.523C40.9457 117.273 40.6147 116.909 40.3704 116.432C40.1289 115.955 40.0082 115.375 40.0082 114.693C40.0082 114.023 40.1261 113.439 40.3619 112.942C40.5977 112.442 40.9258 112.055 41.3462 111.783C41.7667 111.507 42.2525 111.369 42.8036 111.369C43.2298 111.369 43.5678 111.44 43.8178 111.582C44.0707 111.722 44.2638 111.881 44.3974 112.06C44.5337 112.236 44.6388 112.381 44.7127 112.494H44.815V111.455H45.7866V118.188C45.7866 118.75 45.6587 119.207 45.4031 119.56C45.1502 119.915 44.8093 120.175 44.3803 120.339C43.9542 120.507 43.4798 120.591 42.957 120.591ZM42.9229 116.994C43.3263 116.994 43.6673 116.902 43.9457 116.717C44.2241 116.533 44.4357 116.267 44.5806 115.92C44.7255 115.574 44.7979 115.159 44.7979 114.676C44.7979 114.205 44.7269 113.788 44.5849 113.428C44.4428 113.067 44.2326 112.784 43.9542 112.58C43.6758 112.375 43.332 112.273 42.9229 112.273C42.4968 112.273 42.1417 112.381 41.8576 112.597C41.5763 112.812 41.3647 113.102 41.2227 113.466C41.0835 113.83 41.0138 114.233 41.0138 114.676C41.0138 115.131 41.0849 115.533 41.2269 115.882C41.3718 116.229 41.5849 116.501 41.8661 116.7C42.1502 116.896 42.5025 116.994 42.9229 116.994ZM51.4968 119.091V108.182H54.0195V109.017H52.4513V118.256H54.0195V119.091H51.4968ZM59.1001 113.168V114.105H55.282V113.168H59.1001ZM63.6992 118.119C63.0572 118.119 62.5103 117.945 62.0586 117.595C61.6069 117.243 61.2617 116.733 61.0231 116.065C60.7844 115.395 60.6651 114.585 60.6651 113.636C60.6651 112.693 60.7844 111.888 61.0231 111.22C61.2646 110.55 61.6112 110.038 62.0629 109.686C62.5174 109.331 63.0629 109.153 63.6992 109.153C64.3356 109.153 64.8796 109.331 65.3313 109.686C65.7859 110.038 66.1325 110.55 66.3711 111.22C66.6126 111.888 66.7333 112.693 66.7333 113.636C66.7333 114.585 66.614 115.395 66.3754 116.065C66.1367 116.733 65.7915 117.243 65.3398 117.595C64.8881 117.945 64.3413 118.119 63.6992 118.119ZM63.6992 117.182C64.3356 117.182 64.8299 116.875 65.1822 116.261C65.5344 115.648 65.7106 114.773 65.7106 113.636C65.7106 112.881 65.6296 112.237 65.4677 111.706C65.3086 111.175 65.0785 110.77 64.7773 110.491C64.479 110.213 64.1197 110.074 63.6992 110.074C63.0685 110.074 62.5756 110.385 62.2205 111.007C61.8654 111.626 61.6879 112.503 61.6879 113.636C61.6879 114.392 61.7674 115.034 61.9265 115.562C62.0856 116.091 62.3143 116.493 62.6126 116.768C62.9137 117.044 63.2759 117.182 63.6992 117.182ZM68.7979 118.068C68.5877 118.068 68.4073 117.993 68.2567 117.842C68.1062 117.692 68.0309 117.511 68.0309 117.301C68.0309 117.091 68.1062 116.911 68.2567 116.76C68.4073 116.609 68.5877 116.534 68.7979 116.534C69.0082 116.534 69.1886 116.609 69.3391 116.76C69.4897 116.911 69.565 117.091 69.565 117.301C69.565 117.44 69.5295 117.568 69.4585 117.685C69.3903 117.801 69.2979 117.895 69.1815 117.966C69.0678 118.034 68.94 118.068 68.7979 118.068ZM74.049 109.153C74.407 109.156 74.7649 109.224 75.1229 109.358C75.4808 109.491 75.8075 109.713 76.103 110.023C76.3984 110.33 76.6357 110.749 76.8146 111.28C76.9936 111.811 77.0831 112.477 77.0831 113.278C77.0831 114.054 77.0092 114.743 76.8615 115.345C76.7166 115.945 76.5064 116.45 76.2308 116.862C75.9581 117.274 75.6257 117.587 75.2337 117.8C74.8445 118.013 74.4041 118.119 73.9126 118.119C73.424 118.119 72.9879 118.023 72.6044 117.83C72.2237 117.634 71.9112 117.362 71.6669 117.016C71.4254 116.666 71.2706 116.261 71.2024 115.801H72.2422C72.3359 116.202 72.522 116.533 72.8004 116.794C73.0817 117.053 73.4524 117.182 73.9126 117.182C74.5859 117.182 75.1172 116.888 75.5064 116.3C75.8984 115.712 76.0945 114.881 76.0945 113.807H76.0263C75.8672 114.045 75.6783 114.251 75.4595 114.425C75.2408 114.598 74.9979 114.732 74.7308 114.825C74.4638 114.919 74.1797 114.966 73.8786 114.966C73.3786 114.966 72.9197 114.842 72.5021 114.595C72.0874 114.345 71.755 114.003 71.505 113.568C71.2578 113.131 71.1342 112.631 71.1342 112.068C71.1342 111.534 71.2536 111.045 71.4922 110.602C71.7337 110.156 72.0717 109.801 72.5064 109.537C72.9439 109.273 73.4581 109.145 74.049 109.153ZM74.049 110.091C73.6911 110.091 73.3686 110.18 73.0817 110.359C72.7976 110.536 72.5717 110.774 72.4041 111.075C72.2393 111.374 72.157 111.705 72.157 112.068C72.157 112.432 72.2365 112.763 72.3956 113.061C72.5575 113.357 72.7777 113.592 73.0561 113.768C73.3374 113.942 73.657 114.028 74.0149 114.028C74.2848 114.028 74.5362 113.976 74.7692 113.871C75.0021 113.763 75.2053 113.616 75.3786 113.432C75.5547 113.244 75.6925 113.033 75.7919 112.797C75.8913 112.558 75.9411 112.31 75.9411 112.051C75.9411 111.71 75.8587 111.391 75.6939 111.092C75.532 110.794 75.3075 110.553 75.0206 110.368C74.7365 110.183 74.4126 110.091 74.049 110.091ZM79.9712 116.807L79.9031 117.267C79.8548 117.591 79.7809 117.938 79.6815 118.307C79.5849 118.676 79.484 119.024 79.3789 119.351C79.2738 119.678 79.1871 119.938 79.119 120.131H78.3519C78.3888 119.949 78.4371 119.709 78.4968 119.411C78.5565 119.112 78.6161 118.778 78.6758 118.409C78.7383 118.043 78.7894 117.668 78.8292 117.284L78.8803 116.807H79.9712ZM88.0391 118.119C87.397 118.119 86.8501 117.945 86.3984 117.595C85.9467 117.243 85.6016 116.733 85.3629 116.065C85.1243 115.395 85.005 114.585 85.005 113.636C85.005 112.693 85.1243 111.888 85.3629 111.22C85.6044 110.55 85.951 110.038 86.4027 109.686C86.8572 109.331 87.4027 109.153 88.0391 109.153C88.6754 109.153 89.2195 109.331 89.6712 109.686C90.1257 110.038 90.4723 110.55 90.7109 111.22C90.9524 111.888 91.0732 112.693 91.0732 113.636C91.0732 114.585 90.9538 115.395 90.7152 116.065C90.4766 116.733 90.1314 117.243 89.6797 117.595C89.228 117.945 88.6811 118.119 88.0391 118.119ZM88.0391 117.182C88.6754 117.182 89.1697 116.875 89.522 116.261C89.8743 115.648 90.0504 114.773 90.0504 113.636C90.0504 112.881 89.9695 112.237 89.8075 111.706C89.6484 111.175 89.4183 110.77 89.1172 110.491C88.8189 110.213 88.4595 110.074 88.0391 110.074C87.4084 110.074 86.9155 110.385 86.5604 111.007C86.2053 111.626 86.0277 112.503 86.0277 113.636C86.0277 114.392 86.1072 115.034 86.2663 115.562C86.4254 116.091 86.6541 116.493 86.9524 116.768C87.2536 117.044 87.6158 117.182 88.0391 117.182ZM93.1378 118.068C92.9276 118.068 92.7472 117.993 92.5966 117.842C92.446 117.692 92.3707 117.511 92.3707 117.301C92.3707 117.091 92.446 116.911 92.5966 116.76C92.7472 116.609 92.9276 116.534 93.1378 116.534C93.348 116.534 93.5284 116.609 93.679 116.76C93.8295 116.911 93.9048 117.091 93.9048 117.301C93.9048 117.44 93.8693 117.568 93.7983 117.685C93.7301 117.801 93.6378 117.895 93.5213 117.966C93.4077 118.034 93.2798 118.068 93.1378 118.068ZM98.2184 118.119C97.6332 118.119 97.1161 118.016 96.6673 117.808C96.2212 117.598 95.8732 117.31 95.6232 116.943C95.3732 116.574 95.2496 116.153 95.2525 115.682C95.2496 115.312 95.3221 114.972 95.4698 114.659C95.6175 114.344 95.8192 114.081 96.0749 113.871C96.3335 113.658 96.6218 113.523 96.94 113.466V113.415C96.5224 113.307 96.19 113.072 95.9428 112.712C95.6957 112.348 95.5735 111.935 95.5763 111.472C95.5735 111.028 95.6857 110.632 95.913 110.283C96.1403 109.933 96.4528 109.658 96.8505 109.456C97.2511 109.254 97.707 109.153 98.2184 109.153C98.7241 109.153 99.1758 109.254 99.5735 109.456C99.9712 109.658 100.284 109.933 100.511 110.283C100.741 110.632 100.858 111.028 100.86 111.472C100.858 111.935 100.731 112.348 100.481 112.712C100.234 113.072 99.9059 113.307 99.4968 113.415V113.466C99.8121 113.523 100.096 113.658 100.349 113.871C100.602 114.081 100.804 114.344 100.954 114.659C101.105 114.972 101.181 115.312 101.184 115.682C101.181 116.153 101.054 116.574 100.801 116.943C100.551 117.31 100.203 117.598 99.7567 117.808C99.3136 118.016 98.8008 118.119 98.2184 118.119ZM98.2184 117.182C98.6133 117.182 98.9542 117.118 99.2411 116.99C99.5281 116.862 99.7496 116.682 99.9059 116.449C100.062 116.216 100.142 115.943 100.145 115.631C100.142 115.301 100.056 115.01 99.8888 114.757C99.7212 114.504 99.4925 114.305 99.2028 114.161C98.9158 114.016 98.5877 113.943 98.2184 113.943C97.8462 113.943 97.5138 114.016 97.2212 114.161C96.9315 114.305 96.7028 114.504 96.5352 114.757C96.3704 115.01 96.2894 115.301 96.2923 115.631C96.2894 115.943 96.3647 116.216 96.5181 116.449C96.6744 116.682 96.8974 116.862 97.1871 116.99C97.4769 117.118 97.8207 117.182 98.2184 117.182ZM98.2184 113.04C98.5309 113.04 98.8079 112.977 99.0494 112.852C99.2937 112.727 99.4854 112.553 99.6246 112.328C99.7638 112.104 99.8349 111.841 99.8377 111.54C99.8349 111.244 99.7653 110.987 99.6289 110.768C99.4925 110.547 99.3036 110.376 99.0621 110.257C98.8207 110.135 98.5394 110.074 98.2184 110.074C97.8917 110.074 97.6062 110.135 97.3619 110.257C97.1175 110.376 96.9286 110.547 96.7951 110.768C96.6616 110.987 96.5962 111.244 96.5991 111.54C96.5962 111.841 96.663 112.104 96.7994 112.328C96.9386 112.553 97.1303 112.727 97.3746 112.852C97.619 112.977 97.9002 113.04 98.2184 113.04ZM104.065 116.807L103.997 117.267C103.949 117.591 103.875 117.938 103.775 118.307C103.679 118.676 103.578 119.024 103.473 119.351C103.368 119.678 103.281 119.938 103.213 120.131H102.446C102.483 119.949 102.531 119.709 102.591 119.411C102.65 119.112 102.71 118.778 102.77 118.409C102.832 118.043 102.883 117.668 102.923 117.284L102.974 116.807H104.065ZM112.133 118.119C111.491 118.119 110.944 117.945 110.492 117.595C110.04 117.243 109.695 116.733 109.457 116.065C109.218 115.395 109.099 114.585 109.099 113.636C109.099 112.693 109.218 111.888 109.457 111.22C109.698 110.55 110.045 110.038 110.496 109.686C110.951 109.331 111.496 109.153 112.133 109.153C112.769 109.153 113.313 109.331 113.765 109.686C114.219 110.038 114.566 110.55 114.805 111.22C115.046 111.888 115.167 112.693 115.167 113.636C115.167 114.585 115.048 115.395 114.809 116.065C114.57 116.733 114.225 117.243 113.773 117.595C113.322 117.945 112.775 118.119 112.133 118.119ZM112.133 117.182C112.769 117.182 113.263 116.875 113.616 116.261C113.968 115.648 114.144 114.773 114.144 113.636C114.144 112.881 114.063 112.237 113.901 111.706C113.742 111.175 113.512 110.77 113.211 110.491C112.913 110.213 112.553 110.074 112.133 110.074C111.502 110.074 111.009 110.385 110.654 111.007C110.299 111.626 110.121 112.503 110.121 113.636C110.121 114.392 110.201 115.034 110.36 115.562C110.519 116.091 110.748 116.493 111.046 116.768C111.347 117.044 111.71 117.182 112.133 117.182ZM117.232 118.068C117.021 118.068 116.841 117.993 116.69 117.842C116.54 117.692 116.464 117.511 116.464 117.301C116.464 117.091 116.54 116.911 116.69 116.76C116.841 116.609 117.021 116.534 117.232 116.534C117.442 116.534 117.622 116.609 117.773 116.76C117.923 116.911 117.999 117.091 117.999 117.301C117.999 117.44 117.963 117.568 117.892 117.685C117.824 117.801 117.732 117.895 117.615 117.966C117.501 118.034 117.374 118.068 117.232 118.068ZM121.811 109.273V118H120.755V110.381H120.703L118.573 111.795V110.722L120.755 109.273H121.811ZM125.323 116.807L125.255 117.267C125.206 117.591 125.132 117.938 125.033 118.307C124.936 118.676 124.836 119.024 124.73 119.351C124.625 119.678 124.539 119.938 124.471 120.131H123.703C123.74 119.949 123.789 119.709 123.848 119.411C123.908 119.112 123.968 118.778 124.027 118.409C124.09 118.043 124.141 117.668 124.181 117.284L124.232 116.807H125.323ZM133.391 118.119C132.749 118.119 132.202 117.945 131.75 117.595C131.298 117.243 130.953 116.733 130.714 116.065C130.476 115.395 130.357 114.585 130.357 113.636C130.357 112.693 130.476 111.888 130.714 111.22C130.956 110.55 131.303 110.038 131.754 109.686C132.209 109.331 132.754 109.153 133.391 109.153C134.027 109.153 134.571 109.331 135.023 109.686C135.477 110.038 135.824 110.55 136.062 111.22C136.304 111.888 136.425 112.693 136.425 113.636C136.425 114.585 136.305 115.395 136.067 116.065C135.828 116.733 135.483 117.243 135.031 117.595C134.58 117.945 134.033 118.119 133.391 118.119ZM133.391 117.182C134.027 117.182 134.521 116.875 134.874 116.261C135.226 115.648 135.402 114.773 135.402 113.636C135.402 112.881 135.321 112.237 135.159 111.706C135 111.175 134.77 110.77 134.469 110.491C134.17 110.213 133.811 110.074 133.391 110.074C132.76 110.074 132.267 110.385 131.912 111.007C131.557 111.626 131.379 112.503 131.379 113.636C131.379 114.392 131.459 115.034 131.618 115.562C131.777 116.091 132.006 116.493 132.304 116.768C132.605 117.044 132.967 117.182 133.391 117.182ZM138.489 118.068C138.279 118.068 138.099 117.993 137.948 117.842C137.798 117.692 137.722 117.511 137.722 117.301C137.722 117.091 137.798 116.911 137.948 116.76C138.099 116.609 138.279 116.534 138.489 116.534C138.7 116.534 138.88 116.609 139.031 116.76C139.181 116.911 139.256 117.091 139.256 117.301C139.256 117.44 139.221 117.568 139.15 117.685C139.082 117.801 138.989 117.895 138.873 117.966C138.759 118.034 138.631 118.068 138.489 118.068ZM143.586 118.119C142.944 118.119 142.397 117.945 141.945 117.595C141.494 117.243 141.148 116.733 140.91 116.065C140.671 115.395 140.552 114.585 140.552 113.636C140.552 112.693 140.671 111.888 140.91 111.22C141.151 110.55 141.498 110.038 141.95 109.686C142.404 109.331 142.95 109.153 143.586 109.153C144.222 109.153 144.766 109.331 145.218 109.686C145.673 110.038 146.019 110.55 146.258 111.22C146.499 111.888 146.62 112.693 146.62 113.636C146.62 114.585 146.501 115.395 146.262 116.065C146.023 116.733 145.678 117.243 145.227 117.595C144.775 117.945 144.228 118.119 143.586 118.119ZM143.586 117.182C144.222 117.182 144.717 116.875 145.069 116.261C145.421 115.648 145.597 114.773 145.597 113.636C145.597 112.881 145.516 112.237 145.354 111.706C145.195 111.175 144.965 110.77 144.664 110.491C144.366 110.213 144.006 110.074 143.586 110.074C142.955 110.074 142.462 110.385 142.107 111.007C141.752 111.626 141.575 112.503 141.575 113.636C141.575 114.392 141.654 115.034 141.813 115.562C141.972 116.091 142.201 116.493 142.499 116.768C142.8 117.044 143.163 117.182 143.586 117.182ZM150.268 108.182V119.091H147.745V118.256H149.313V109.017H147.745V108.182H150.268Z" fill="#9F7823"/>
<path d="M54.0197 446.197C54.1288 446.739 54.6561 447.089 55.1975 446.98L64.0203 445.203C64.5617 445.094 64.9122 444.567 64.8031 444.025C64.694 443.484 64.1667 443.133 63.6253 443.242L55.7828 444.822L54.2031 436.98C54.094 436.438 53.5667 436.088 53.0253 436.197C52.4839 436.306 52.1334 436.833 52.2424 437.375L54.0197 446.197ZM166 279L165.167 278.446L54.1672 445.446L55 446L55.8328 446.554L166.833 279.554L166 279Z" fill="#428CDC"/>
<path d="M389.58 229.136C388.989 229.136 388.47 228.996 388.024 228.714C387.581 228.433 387.234 228.04 386.984 227.534C386.737 227.028 386.614 226.437 386.614 225.761C386.614 225.08 386.737 224.484 386.984 223.976C387.234 223.467 387.581 223.072 388.024 222.791C388.47 222.51 388.989 222.369 389.58 222.369C390.17 222.369 390.688 222.51 391.131 222.791C391.577 223.072 391.923 223.467 392.17 223.976C392.42 224.484 392.545 225.08 392.545 225.761C392.545 226.437 392.42 227.028 392.17 227.534C391.923 228.04 391.577 228.433 391.131 228.714C390.688 228.996 390.17 229.136 389.58 229.136ZM389.58 228.233C390.028 228.233 390.398 228.118 390.688 227.888C390.977 227.658 391.192 227.355 391.331 226.98C391.47 226.605 391.54 226.199 391.54 225.761C391.54 225.324 391.47 224.916 391.331 224.538C391.192 224.161 390.977 223.855 390.688 223.622C390.398 223.389 390.028 223.273 389.58 223.273C389.131 223.273 388.761 223.389 388.472 223.622C388.182 223.855 387.967 224.161 387.828 224.538C387.689 224.916 387.619 225.324 387.619 225.761C387.619 226.199 387.689 226.605 387.828 226.98C387.967 227.355 388.182 227.658 388.472 227.888C388.761 228.118 389.131 228.233 389.58 228.233ZM396.927 222.455V223.307H393.535V222.455H396.927ZM394.524 220.886H395.529V227.125C395.529 227.409 395.571 227.622 395.653 227.764C395.738 227.903 395.846 227.997 395.977 228.045C396.11 228.091 396.251 228.114 396.399 228.114C396.51 228.114 396.6 228.108 396.672 228.097C396.743 228.082 396.799 228.071 396.842 228.062L397.047 228.966C396.978 228.991 396.883 229.017 396.761 229.043C396.639 229.071 396.484 229.085 396.297 229.085C396.012 229.085 395.734 229.024 395.461 228.902C395.191 228.78 394.967 228.594 394.788 228.344C394.612 228.094 394.524 227.778 394.524 227.398V220.886ZM401.287 222.455V223.307H397.895V222.455H401.287ZM398.883 220.886H399.889V227.125C399.889 227.409 399.93 227.622 400.012 227.764C400.098 227.903 400.206 227.997 400.336 228.045C400.47 228.091 400.61 228.114 400.758 228.114C400.869 228.114 400.96 228.108 401.031 228.097C401.102 228.082 401.159 228.071 401.201 228.062L401.406 228.966C401.338 228.991 401.243 229.017 401.12 229.043C400.998 229.071 400.843 229.085 400.656 229.085C400.372 229.085 400.093 229.024 399.821 228.902C399.551 228.78 399.326 228.594 399.147 228.344C398.971 228.094 398.883 227.778 398.883 227.398V220.886ZM405.473 229.136C404.843 229.136 404.299 228.997 403.841 228.719C403.387 228.438 403.036 228.045 402.789 227.543C402.544 227.037 402.422 226.449 402.422 225.778C402.422 225.108 402.544 224.517 402.789 224.006C403.036 223.491 403.38 223.091 403.82 222.804C404.263 222.514 404.78 222.369 405.371 222.369C405.712 222.369 406.049 222.426 406.381 222.54C406.713 222.653 407.016 222.838 407.289 223.094C407.561 223.347 407.779 223.682 407.941 224.099C408.103 224.517 408.184 225.031 408.184 225.642V226.068H403.138V225.199H407.161C407.161 224.83 407.087 224.5 406.939 224.21C406.794 223.92 406.587 223.692 406.317 223.524C406.05 223.357 405.735 223.273 405.371 223.273C404.971 223.273 404.624 223.372 404.331 223.571C404.042 223.767 403.819 224.023 403.662 224.338C403.506 224.653 403.428 224.991 403.428 225.352V225.932C403.428 226.426 403.513 226.845 403.684 227.189C403.857 227.53 404.097 227.79 404.404 227.969C404.711 228.145 405.067 228.233 405.473 228.233C405.738 228.233 405.976 228.196 406.189 228.122C406.405 228.045 406.591 227.932 406.748 227.781C406.904 227.628 407.025 227.437 407.11 227.21L408.081 227.483C407.979 227.812 407.807 228.102 407.566 228.352C407.324 228.599 407.026 228.793 406.671 228.932C406.316 229.068 405.917 229.136 405.473 229.136ZM409.713 229V222.455H410.685V223.443H410.753C410.873 223.119 411.088 222.857 411.401 222.655C411.713 222.453 412.066 222.352 412.458 222.352C412.532 222.352 412.624 222.354 412.735 222.357C412.846 222.359 412.929 222.364 412.986 222.369V223.392C412.952 223.384 412.874 223.371 412.752 223.354C412.632 223.334 412.506 223.324 412.373 223.324C412.054 223.324 411.77 223.391 411.52 223.524C411.273 223.655 411.077 223.837 410.932 224.07C410.79 224.3 410.719 224.562 410.719 224.858V229H409.713ZM418.048 230.091V219.182H420.57V220.017H419.002V229.256H420.57V230.091H418.048ZM424.73 229.119C424.088 229.119 423.542 228.945 423.09 228.595C422.638 228.243 422.293 227.733 422.054 227.065C421.816 226.395 421.696 225.585 421.696 224.636C421.696 223.693 421.816 222.888 422.054 222.22C422.296 221.55 422.642 221.038 423.094 220.686C423.549 220.331 424.094 220.153 424.73 220.153C425.367 220.153 425.911 220.331 426.363 220.686C426.817 221.038 427.164 221.55 427.402 222.22C427.644 222.888 427.765 223.693 427.765 224.636C427.765 225.585 427.645 226.395 427.407 227.065C427.168 227.733 426.823 228.243 426.371 228.595C425.919 228.945 425.373 229.119 424.73 229.119ZM424.73 228.182C425.367 228.182 425.861 227.875 426.213 227.261C426.566 226.648 426.742 225.773 426.742 224.636C426.742 223.881 426.661 223.237 426.499 222.706C426.34 222.175 426.11 221.77 425.809 221.491C425.51 221.213 425.151 221.074 424.73 221.074C424.1 221.074 423.607 221.385 423.252 222.007C422.897 222.626 422.719 223.503 422.719 224.636C422.719 225.392 422.799 226.034 422.958 226.562C423.117 227.091 423.346 227.493 423.644 227.768C423.945 228.044 424.307 228.182 424.73 228.182ZM429.829 229.068C429.619 229.068 429.439 228.993 429.288 228.842C429.137 228.692 429.062 228.511 429.062 228.301C429.062 228.091 429.137 227.911 429.288 227.76C429.439 227.609 429.619 227.534 429.829 227.534C430.039 227.534 430.22 227.609 430.37 227.76C430.521 227.911 430.596 228.091 430.596 228.301C430.596 228.44 430.561 228.568 430.49 228.685C430.422 228.801 430.329 228.895 430.213 228.966C430.099 229.034 429.971 229.068 429.829 229.068ZM434.409 220.273V229H433.352V221.381H433.301L431.17 222.795V221.722L433.352 220.273H434.409ZM436.919 229V228.233L439.8 225.08C440.138 224.71 440.416 224.389 440.635 224.116C440.854 223.841 441.016 223.582 441.121 223.341C441.229 223.097 441.283 222.841 441.283 222.574C441.283 222.267 441.209 222.001 441.061 221.777C440.916 221.553 440.717 221.379 440.464 221.257C440.212 221.135 439.928 221.074 439.612 221.074C439.277 221.074 438.984 221.143 438.734 221.283C438.487 221.419 438.295 221.611 438.159 221.858C438.026 222.105 437.959 222.395 437.959 222.727H436.953C436.953 222.216 437.071 221.767 437.307 221.381C437.543 220.994 437.864 220.693 438.27 220.477C438.679 220.261 439.138 220.153 439.646 220.153C440.158 220.153 440.611 220.261 441.006 220.477C441.401 220.693 441.71 220.984 441.935 221.351C442.159 221.717 442.271 222.125 442.271 222.574C442.271 222.895 442.213 223.209 442.097 223.516C441.983 223.82 441.784 224.159 441.5 224.534C441.219 224.906 440.828 225.361 440.328 225.898L438.368 227.994V228.062H442.425V229H436.919ZM445.702 227.807L445.634 228.267C445.585 228.591 445.511 228.938 445.412 229.307C445.315 229.676 445.214 230.024 445.109 230.351C445.004 230.678 444.918 230.938 444.849 231.131H444.082C444.119 230.949 444.168 230.709 444.227 230.411C444.287 230.112 444.347 229.778 444.406 229.409C444.469 229.043 444.52 228.668 444.56 228.284L444.611 227.807H445.702ZM453.77 229.119C453.127 229.119 452.581 228.945 452.129 228.595C451.677 228.243 451.332 227.733 451.093 227.065C450.855 226.395 450.735 225.585 450.735 224.636C450.735 223.693 450.855 222.888 451.093 222.22C451.335 221.55 451.681 221.038 452.133 220.686C452.588 220.331 453.133 220.153 453.77 220.153C454.406 220.153 454.95 220.331 455.402 220.686C455.856 221.038 456.203 221.55 456.441 222.22C456.683 222.888 456.804 223.693 456.804 224.636C456.804 225.585 456.684 226.395 456.446 227.065C456.207 227.733 455.862 228.243 455.41 228.595C454.958 228.945 454.412 229.119 453.77 229.119ZM453.77 228.182C454.406 228.182 454.9 227.875 455.252 227.261C455.605 226.648 455.781 225.773 455.781 224.636C455.781 223.881 455.7 223.237 455.538 222.706C455.379 222.175 455.149 221.77 454.848 221.491C454.549 221.213 454.19 221.074 453.77 221.074C453.139 221.074 452.646 221.385 452.291 222.007C451.936 222.626 451.758 223.503 451.758 224.636C451.758 225.392 451.838 226.034 451.997 226.562C452.156 227.091 452.385 227.493 452.683 227.768C452.984 228.044 453.346 228.182 453.77 228.182ZM458.868 229.068C458.658 229.068 458.478 228.993 458.327 228.842C458.176 228.692 458.101 228.511 458.101 228.301C458.101 228.091 458.176 227.911 458.327 227.76C458.478 227.609 458.658 227.534 458.868 227.534C459.078 227.534 459.259 227.609 459.409 227.76C459.56 227.911 459.635 228.091 459.635 228.301C459.635 228.44 459.6 228.568 459.529 228.685C459.461 228.801 459.368 228.895 459.252 228.966C459.138 229.034 459.01 229.068 458.868 229.068ZM463.448 220.273V229H462.391V221.381H462.34L460.21 222.795V221.722L462.391 220.273H463.448ZM468.754 229.119C468.168 229.119 467.651 229.016 467.202 228.808C466.756 228.598 466.408 228.31 466.158 227.943C465.908 227.574 465.785 227.153 465.788 226.682C465.785 226.312 465.857 225.972 466.005 225.659C466.153 225.344 466.354 225.081 466.61 224.871C466.869 224.658 467.157 224.523 467.475 224.466V224.415C467.058 224.307 466.725 224.072 466.478 223.712C466.231 223.348 466.109 222.935 466.112 222.472C466.109 222.028 466.221 221.632 466.448 221.283C466.675 220.933 466.988 220.658 467.386 220.456C467.786 220.254 468.242 220.153 468.754 220.153C469.259 220.153 469.711 220.254 470.109 220.456C470.506 220.658 470.819 220.933 471.046 221.283C471.276 221.632 471.393 222.028 471.396 222.472C471.393 222.935 471.266 223.348 471.016 223.712C470.769 224.072 470.441 224.307 470.032 224.415V224.466C470.347 224.523 470.631 224.658 470.884 224.871C471.137 225.081 471.339 225.344 471.489 225.659C471.64 225.972 471.717 226.312 471.719 226.682C471.717 227.153 471.589 227.574 471.336 227.943C471.086 228.31 470.738 228.598 470.292 228.808C469.849 229.016 469.336 229.119 468.754 229.119ZM468.754 228.182C469.148 228.182 469.489 228.118 469.776 227.99C470.063 227.862 470.285 227.682 470.441 227.449C470.597 227.216 470.677 226.943 470.68 226.631C470.677 226.301 470.592 226.01 470.424 225.757C470.256 225.504 470.028 225.305 469.738 225.161C469.451 225.016 469.123 224.943 468.754 224.943C468.381 224.943 468.049 225.016 467.756 225.161C467.467 225.305 467.238 225.504 467.07 225.757C466.906 226.01 466.825 226.301 466.827 226.631C466.825 226.943 466.9 227.216 467.053 227.449C467.21 227.682 467.433 227.862 467.722 227.99C468.012 228.118 468.356 228.182 468.754 228.182ZM468.754 224.04C469.066 224.04 469.343 223.977 469.585 223.852C469.829 223.727 470.021 223.553 470.16 223.328C470.299 223.104 470.37 222.841 470.373 222.54C470.37 222.244 470.3 221.987 470.164 221.768C470.028 221.547 469.839 221.376 469.597 221.257C469.356 221.135 469.075 221.074 468.754 221.074C468.427 221.074 468.141 221.135 467.897 221.257C467.653 221.376 467.464 221.547 467.33 221.768C467.197 221.987 467.131 222.244 467.134 222.54C467.131 222.841 467.198 223.104 467.335 223.328C467.474 223.553 467.665 223.727 467.91 223.852C468.154 223.977 468.435 224.04 468.754 224.04ZM474.6 227.807L474.532 228.267C474.484 228.591 474.41 228.938 474.31 229.307C474.214 229.676 474.113 230.024 474.008 230.351C473.903 230.678 473.816 230.938 473.748 231.131H472.981C473.018 230.949 473.066 230.709 473.126 230.411C473.185 230.112 473.245 229.778 473.305 229.409C473.367 229.043 473.418 228.668 473.458 228.284L473.509 227.807H474.6ZM482.668 229.119C482.026 229.119 481.479 228.945 481.027 228.595C480.576 228.243 480.23 227.733 479.992 227.065C479.753 226.395 479.634 225.585 479.634 224.636C479.634 223.693 479.753 222.888 479.992 222.22C480.233 221.55 480.58 221.038 481.032 220.686C481.486 220.331 482.032 220.153 482.668 220.153C483.304 220.153 483.848 220.331 484.3 220.686C484.755 221.038 485.101 221.55 485.34 222.22C485.581 222.888 485.702 223.693 485.702 224.636C485.702 225.585 485.583 226.395 485.344 227.065C485.105 227.733 484.76 228.243 484.309 228.595C483.857 228.945 483.31 229.119 482.668 229.119ZM482.668 228.182C483.304 228.182 483.799 227.875 484.151 227.261C484.503 226.648 484.679 225.773 484.679 224.636C484.679 223.881 484.598 223.237 484.436 222.706C484.277 222.175 484.047 221.77 483.746 221.491C483.448 221.213 483.088 221.074 482.668 221.074C482.037 221.074 481.544 221.385 481.189 222.007C480.834 222.626 480.657 223.503 480.657 224.636C480.657 225.392 480.736 226.034 480.895 226.562C481.054 227.091 481.283 227.493 481.581 227.768C481.882 228.044 482.245 228.182 482.668 228.182ZM487.767 229.068C487.556 229.068 487.376 228.993 487.225 228.842C487.075 228.692 487 228.511 487 228.301C487 228.091 487.075 227.911 487.225 227.76C487.376 227.609 487.556 227.534 487.767 227.534C487.977 227.534 488.157 227.609 488.308 227.76C488.458 227.911 488.534 228.091 488.534 228.301C488.534 228.44 488.498 228.568 488.427 228.685C488.359 228.801 488.267 228.895 488.15 228.966C488.037 229.034 487.909 229.068 487.767 229.068ZM492.847 229.119C492.262 229.119 491.745 229.016 491.296 228.808C490.85 228.598 490.502 228.31 490.252 227.943C490.002 227.574 489.879 227.153 489.881 226.682C489.879 226.312 489.951 225.972 490.099 225.659C490.246 225.344 490.448 225.081 490.704 224.871C490.962 224.658 491.251 224.523 491.569 224.466V224.415C491.151 224.307 490.819 224.072 490.572 223.712C490.325 223.348 490.202 222.935 490.205 222.472C490.202 222.028 490.315 221.632 490.542 221.283C490.769 220.933 491.082 220.658 491.479 220.456C491.88 220.254 492.336 220.153 492.847 220.153C493.353 220.153 493.805 220.254 494.202 220.456C494.6 220.658 494.913 220.933 495.14 221.283C495.37 221.632 495.487 222.028 495.489 222.472C495.487 222.935 495.36 223.348 495.11 223.712C494.863 224.072 494.535 224.307 494.126 224.415V224.466C494.441 224.523 494.725 224.658 494.978 224.871C495.231 225.081 495.433 225.344 495.583 225.659C495.734 225.972 495.81 226.312 495.813 226.682C495.81 227.153 495.683 227.574 495.43 227.943C495.18 228.31 494.832 228.598 494.386 228.808C493.942 229.016 493.43 229.119 492.847 229.119ZM492.847 228.182C493.242 228.182 493.583 228.118 493.87 227.99C494.157 227.862 494.379 227.682 494.535 227.449C494.691 227.216 494.771 226.943 494.773 226.631C494.771 226.301 494.685 226.01 494.518 225.757C494.35 225.504 494.121 225.305 493.832 225.161C493.545 225.016 493.217 224.943 492.847 224.943C492.475 224.943 492.143 225.016 491.85 225.161C491.56 225.305 491.332 225.504 491.164 225.757C490.999 226.01 490.918 226.301 490.921 226.631C490.918 226.943 490.994 227.216 491.147 227.449C491.303 227.682 491.526 227.862 491.816 227.99C492.106 228.118 492.45 228.182 492.847 228.182ZM492.847 224.04C493.16 224.04 493.437 223.977 493.678 223.852C493.923 223.727 494.114 223.553 494.254 223.328C494.393 223.104 494.464 222.841 494.467 222.54C494.464 222.244 494.394 221.987 494.258 221.768C494.121 221.547 493.933 221.376 493.691 221.257C493.45 221.135 493.168 221.074 492.847 221.074C492.521 221.074 492.235 221.135 491.991 221.257C491.746 221.376 491.558 221.547 491.424 221.768C491.29 221.987 491.225 222.244 491.228 222.54C491.225 222.841 491.292 223.104 491.428 223.328C491.567 223.553 491.759 223.727 492.004 223.852C492.248 223.977 492.529 224.04 492.847 224.04ZM500.174 229.119C499.674 229.119 499.223 229.02 498.823 228.821C498.422 228.622 498.101 228.349 497.86 228.003C497.618 227.656 497.486 227.261 497.463 226.818H498.486C498.526 227.213 498.705 227.54 499.023 227.798C499.344 228.054 499.728 228.182 500.174 228.182C500.532 228.182 500.85 228.098 501.128 227.93C501.409 227.763 501.63 227.533 501.789 227.24C501.951 226.945 502.032 226.611 502.032 226.239C502.032 225.858 501.948 225.518 501.78 225.22C501.615 224.919 501.388 224.682 501.098 224.509C500.809 224.335 500.478 224.247 500.105 224.244C499.838 224.241 499.564 224.283 499.283 224.368C499.002 224.45 498.77 224.557 498.588 224.688L497.6 224.568L498.128 220.273H502.662V221.21H499.015L498.708 223.784H498.759C498.938 223.642 499.162 223.524 499.432 223.43C499.702 223.337 499.983 223.29 500.276 223.29C500.81 223.29 501.286 223.418 501.703 223.673C502.124 223.926 502.453 224.273 502.692 224.713C502.934 225.153 503.054 225.656 503.054 226.222C503.054 226.778 502.929 227.276 502.679 227.713C502.432 228.148 502.091 228.491 501.657 228.744C501.222 228.994 500.728 229.119 500.174 229.119ZM505.936 227.807L505.868 228.267C505.82 228.591 505.746 228.938 505.646 229.307C505.55 229.676 505.449 230.024 505.344 230.351C505.239 230.678 505.152 230.938 505.084 231.131H504.317C504.354 230.949 504.402 230.709 504.462 230.411C504.521 230.112 504.581 229.778 504.641 229.409C504.703 229.043 504.754 228.668 504.794 228.284L504.845 227.807H505.936ZM514.004 229.119C513.362 229.119 512.815 228.945 512.363 228.595C511.912 228.243 511.566 227.733 511.328 227.065C511.089 226.395 510.97 225.585 510.97 224.636C510.97 223.693 511.089 222.888 511.328 222.22C511.569 221.55 511.916 221.038 512.368 220.686C512.822 220.331 513.368 220.153 514.004 220.153C514.64 220.153 515.184 220.331 515.636 220.686C516.091 221.038 516.437 221.55 516.676 222.22C516.917 222.888 517.038 223.693 517.038 224.636C517.038 225.585 516.919 226.395 516.68 227.065C516.441 227.733 516.096 228.243 515.645 228.595C515.193 228.945 514.646 229.119 514.004 229.119ZM514.004 228.182C514.64 228.182 515.135 227.875 515.487 227.261C515.839 226.648 516.015 225.773 516.015 224.636C516.015 223.881 515.934 223.237 515.772 222.706C515.613 222.175 515.383 221.77 515.082 221.491C514.784 221.213 514.424 221.074 514.004 221.074C513.373 221.074 512.88 221.385 512.525 222.007C512.17 222.626 511.993 223.503 511.993 224.636C511.993 225.392 512.072 226.034 512.231 226.562C512.39 227.091 512.619 227.493 512.917 227.768C513.218 228.044 513.581 228.182 514.004 228.182ZM519.103 229.068C518.892 229.068 518.712 228.993 518.561 228.842C518.411 228.692 518.336 228.511 518.336 228.301C518.336 228.091 518.411 227.911 518.561 227.76C518.712 227.609 518.892 227.534 519.103 227.534C519.313 227.534 519.493 227.609 519.644 227.76C519.794 227.911 519.87 228.091 519.87 228.301C519.87 228.44 519.834 228.568 519.763 228.685C519.695 228.801 519.603 228.895 519.486 228.966C519.373 229.034 519.245 229.068 519.103 229.068ZM521.754 229L525.658 221.278V221.21H521.158V220.273H526.749V221.261L522.862 229H521.754ZM528.337 229V228.233L531.218 225.08C531.556 224.71 531.834 224.389 532.053 224.116C532.272 223.841 532.434 223.582 532.539 223.341C532.647 223.097 532.701 222.841 532.701 222.574C532.701 222.267 532.627 222.001 532.479 221.777C532.334 221.553 532.135 221.379 531.882 221.257C531.63 221.135 531.346 221.074 531.03 221.074C530.695 221.074 530.402 221.143 530.152 221.283C529.905 221.419 529.713 221.611 529.577 221.858C529.444 222.105 529.377 222.395 529.377 222.727H528.371C528.371 222.216 528.489 221.767 528.725 221.381C528.961 220.994 529.282 220.693 529.688 220.477C530.097 220.261 530.556 220.153 531.064 220.153C531.576 220.153 532.029 220.261 532.424 220.477C532.819 220.693 533.128 220.984 533.353 221.351C533.577 221.717 533.689 222.125 533.689 222.574C533.689 222.895 533.631 223.209 533.515 223.516C533.401 223.82 533.202 224.159 532.918 224.534C532.637 224.906 532.246 225.361 531.746 225.898L529.786 227.994V228.062H533.843V229H528.337ZM537.631 219.182V230.091H535.108V229.256H536.676V220.017H535.108V219.182H537.631Z" fill="#7360AA"/>
<line x1="70.9137" y1="139.508" x2="264.914" y2="105.508" stroke="url(#paint0_linear_14_44)" stroke-dasharray="2 2"/>
<line x1="315.298" y1="179.599" x2="397.298" y2="240.599" stroke="url(#paint1_linear_14_44)" stroke-dasharray="2 2"/>
<rect x="0.25" y="0.25" width="554.5" height="471.5" rx="5.75" stroke="#428CDC" stroke-width="0.5"/>
<path d="M415.568 275.273L417.818 278.903H417.886L420.136 275.273H421.381L418.636 279.636L421.381 284H420.136L417.886 280.438H417.818L415.568 284H414.324L417.136 279.636L414.324 275.273H415.568Z" fill="#428CDC"/>
<path d="M162.307 25.2727H163.517L165.938 29.3466H166.04L168.46 25.2727H169.67L166.517 30.4034V34H165.46V30.4034L162.307 25.2727Z" fill="#428CDC"/>
<path d="M51.767 462V461.233L56.4716 454.21H51.7159V453.273H57.733V454.04L53.0284 461.062H57.7841V462H51.767Z" fill="#428CDC"/>
<defs>
<linearGradient id="paint0_linear_14_44" x1="71.0863" y1="140.492" x2="265.086" y2="106.492" gradientUnits="userSpaceOnUse">
<stop offset="0.293269" stop-color="#9F7823"/>
<stop offset="1" stop-color="#287E1D"/>
</linearGradient>
<linearGradient id="paint1_linear_14_44" x1="314.702" y1="180.401" x2="396.702" y2="241.401" gradientUnits="userSpaceOnUse">
<stop offset="0.254808" stop-color="#DC4A42"/>
<stop offset="0.735577" stop-color="#7360AA"/>
</linearGradient>
</defs>
</svg>
