<svg width="28" height="24" viewBox="0 0 28 24" fill="none" xmlns="http://www.w3.org/2000/svg">
<path d="M1 6C1 3.23858 3.23858 1 6 1H22C24.7614 1 27 3.23858 27 6V18C27 20.7614 24.7614 23 22 23H6C3.23858 23 1 20.7614 1 18V6Z" fill="url(#paint0_linear_7282_6286)"/>
<path d="M1 6C1 3.23858 3.23858 1 6 1H22C24.7614 1 27 3.23858 27 6V18C27 20.7614 24.7614 23 22 23H6C3.23858 23 1 20.7614 1 18V6Z" stroke="url(#paint1_linear_7282_6286)" stroke-width="2"/>
<path d="M14 6C10.6863 6 8 8.68629 8 12C8 15.3137 10.6863 18 14 18C17.3137 18 20 15.3137 20 12C20 8.68629 17.3137 6 14 6ZM14 6.61017C16.9767 6.61017 19.3898 9.02328 19.3898 12C19.3898 14.9767 16.9767 17.3898 14 17.3898C11.0233 17.3898 8.61017 14.9767 8.61017 12C8.61017 9.02328 11.0233 6.61017 14 6.61017Z" fill="white"/>
<path fill-rule="evenodd" clip-rule="evenodd" d="M14.0671 7.72888C16.426 7.72888 18.3383 9.64115 18.3383 12.0001C18.3383 14.359 16.426 16.2713 14.0671 16.2713C11.7082 16.2713 9.7959 14.359 9.7959 12.0001C9.7959 11.4236 9.91011 10.8737 10.1172 10.372C10.4195 10.7837 10.907 11.0509 11.4569 11.0509C12.3743 11.0509 13.1179 10.3073 13.1179 9.3899C13.1179 8.83996 12.8507 8.35245 12.439 8.05014C12.9408 7.8431 13.4906 7.72888 14.0671 7.72888Z" fill="white"/>
<defs>
<linearGradient id="paint0_linear_7282_6286" x1="13.9999" y1="24" x2="13.9999" y2="0" gradientUnits="userSpaceOnUse">
<stop stop-color="#7400E1"/>
<stop offset="1" stop-color="#4000BF"/>
</linearGradient>
<linearGradient id="paint1_linear_7282_6286" x1="13.9999" y1="24" x2="13.9999" y2="0" gradientUnits="userSpaceOnUse">
<stop stop-color="#7400E1"/>
<stop offset="1" stop-color="#4000BF"/>
</linearGradient>
</defs>
</svg>
