<svg fill="none" height="40" viewBox="0 0 127 40" width="127" xmlns="http://www.w3.org/2000/svg"><g clip-rule="evenodd" fill-rule="evenodd"><path d="m14.5049 34.2245 1.0988-1.4039h8.1314l4.2383 5.3606-.7535 1.8188h-10.486l.2512-1.8188z" fill="#169fcc"/><path d="m16.9907 15.9454 3.9263-6.71493h4.5753l20.5076 23.58113-1.59 7.1878h-8.7936l.5516-2.0176z" fill="#14b59a"/><path d="m21.7568 7.95485 1.88-3.44169 5.6401-4.51316 9.6639 7.50029-1.2534 1.26628 1.6821 2.30533v2.4676l-4.8154 3.8962-8.0808-9.48085z" fill="#1bc263"/><path d="m6.82252 22.9514h2.5544l6.66088-5.5156 8.8272 10.1537-2.4897 3.698h-8.1483l-5.6261 7.0826-1.29337 1.6296h-7.30753v-8.6808z" fill="#16bdcc"/><g fill="#001328"><path d="m77.8715 27.1807h6.1921v-9.4606h-6.1921zm.2169 3.7843c-1.7236 0-2.6189-.2793-3.3564-1.0464-1.1083-1.1093-1.5382-2.6513-1.5382-7.4308 0-4.7796.4299-6.3216 1.5382-7.4624.7099-.7395 1.6328-1.0188 3.3564-1.0188h5.7582c1.7236 0 2.6189.2793 3.3564 1.0188 1.1083 1.1408 1.5382 2.6514 1.5382 7.4624 0 4.8109-.4299 6.3215-1.5382 7.4308-.7375.771-1.6328 1.0464-3.3564 1.0464z"/><path d="m102.748 19.3526v.1809 11.4276h4.709v-11.9822c0-2.4862-.276-3.3791-.986-4.0557-.647-.6452-1.574-.9363-3.021-.9363l-4.1416.0118-2.3743 2.1361v-2.1361h-1.5894-3.104v16.9584h4.7092v-13.2449h5.7901v1.6325z"/><path d="m65.8271 9.33325h5.6084l-8.0537 10.16485 8.3929 11.4629h-5.9476l-6.3853-9.0043-1.5146-.0079v9.0122h-5.0483v-21.62775h5.0483v8.38285h1.5146z"/><path d="m121.911 14.0029v2.136l-2.374-2.136-3.534-.0118c-1.692 0-2.686.2911-3.455 1.0267-1.017 1.0424-1.51 3.324-1.51 7.5017 0 4.1776.402 6.3648 1.384 7.3797.769.7356 1.684 1.0621 3.502 1.0621h5.975l.008 2.4271-8.294.0157.008.9953 2.142 2.3681h6.484c1.723 0 2.709-.3068 3.324-.952.769-.7985 1.077-1.2942 1.077-4.2091v-17.5996h-4.741zm.032 13.1584h-6.192v-9.4449h6.188v9.4449z"/></g></g></svg>