<?xml version="1.0" encoding="UTF-8"?>
<svg id="Layer_1" xmlns="http://www.w3.org/2000/svg" version="1.1" width="127" height="41" viewBox="0 0 429 137">
  <!-- Generator: Adobe Illustrator 30.1.0, SVG Export Plug-In . SVG Version: 2.1.1 Build 136)  -->
  <defs>
    <style>
      .st0 {
        fill-rule: evenodd;
      }

      .st0, .st1 {
        fill: #cf0;
      }
    </style>
  </defs>
  <path class="st1" d="M49.6,113l-3.7,4.7,8.4,13.2-.9,6.1h35.6l2.5-6.1-14.3-17.9h-27.6Z"/>
  <path class="st1" d="M69.1,32.7l-12.9,22.7,62.9,74.8-1.8,6.9h28.8l5.2-24.3L84.1,32.7h-15Z"/>
  <path class="st1" d="M77.7,15.6l-6.1,11.3h15.2l26.1,31.2,15.5-12.8v-8.1l-5.4-7.6,4-4.2L95.8.7l-18.2,14.9Z"/>
  <path class="st1" d="M30.9,78.8h-8.5L0,107.4v29.6h24l4.2-5.5,18.5-24.1h26.8l8.2-12.7-29.1-34.7-21.9,18.9Z"/>
  <path class="st0" d="M260.4,94h20.9v-32.2h-20.9v32.2ZM261.1,106.9c-5.8,0-8.8-1-11.3-3.6-3.7-3.8-5.2-9-5.2-25.3s1.5-21.5,5.2-25.4c2.4-2.5,5.5-3.5,11.3-3.5h19.4c5.8,0,8.8,1,11.3,3.5,3.7,3.9,5.2,9,5.2,25.4s-1.5,21.5-5.2,25.3c-2.5,2.6-5.5,3.6-11.3,3.6h-19.4Z"/>
  <path class="st0" d="M344.3,67.3v39.6h15.9v-40.8c0-8.5-.9-11.5-3.3-13.8-2.2-2.2-5.3-3.2-10.2-3.2h-14s-8,7.3-8,7.3v-7.3h-15.8v57.8h15.9v-45.1h19.5v5.6h0Z"/>
  <path class="st0" d="M219.7,33.2h18.9l-27.2,34.6,28.3,39.1h-20.1l-21.6-30.7h-5.1s0,30.7,0,30.7h-17V33.2h17v28.6h5.1l21.6-28.6Z"/>
  <path class="st0" d="M409,49.1v7.3l-8-7.3h-11.9c-5.7,0-9.1,1-11.7,3.5-3.4,3.6-5.1,11.3-5.1,25.6s1.4,21.7,4.7,25.1c2.6,2.5,5.7,3.6,11.8,3.6h20.2v8.3s-28,0-28,0v3.4s7.3,8.1,7.3,8.1h21.9c5.8,0,9.1-1,11.2-3.2,2.6-2.7,3.6-4.4,3.6-14.3v-60h-16,0ZM409.1,94h-20.9v-32.2h20.9v32.2h0Z"/>
</svg>