<svg width="127" height="41" viewBox="0 0 127 41" fill="none" xmlns="http://www.w3.org/2000/svg">
<g clip-path="url(#clip0_2326_4)">
<path d="M14.8277 33.5984L13.7186 35.0161L16.228 38.965L15.9663 40.7911H26.6118L27.3488 38.965L23.067 33.5984H14.8277Z" fill="url(#paint0_linear_2326_4)"/>
<path d="M20.6498 9.56774L16.7991 16.3557L35.5807 38.7387L35.0464 40.7911H43.6616L45.2203 33.5093L25.1232 9.56403L20.6498 9.56774Z" fill="url(#paint1_linear_2326_4)"/>
<path d="M23.207 4.46469L21.3757 7.86054H25.9191L33.7163 17.2056L38.3516 13.3718V10.9372L36.7415 8.65848L37.9316 7.41148L28.6311 0L23.207 4.46469Z" fill="url(#paint2_linear_2326_4)"/>
<path d="M9.2268 23.3812H6.68796L0 31.9321V40.7911H7.17437L8.44195 39.1319L13.9765 31.9135H21.9837L24.4488 28.1094L15.7674 17.7326L9.2268 23.3812Z" fill="url(#paint3_linear_2326_4)"/>
<path fill-rule="evenodd" clip-rule="evenodd" d="M77.7971 27.9286H84.0435V18.2808H77.7971V27.9286ZM78.0159 31.7875C76.2773 31.7875 75.3741 31.5029 74.6301 30.7207C73.5123 29.5893 73.0786 28.0168 73.0786 23.1428C73.0786 18.2688 73.5123 16.6962 74.6301 15.5329C75.3462 14.7787 76.2773 14.4939 78.0159 14.4939H83.8247C85.5634 14.4939 86.4663 14.7787 87.2105 15.5329C88.3283 16.6962 88.7621 18.2367 88.7621 23.1428C88.7621 28.0489 88.3283 29.5893 87.2105 30.7207C86.4663 31.5068 85.5634 31.7875 83.8247 31.7875H78.0159Z" fill="white"/>
<path fill-rule="evenodd" clip-rule="evenodd" d="M102.89 19.9456C102.89 20.0058 102.89 20.066 102.89 20.1301V31.7837H107.64V19.5645C107.64 17.0292 107.362 16.1186 106.646 15.4286C105.993 14.7707 105.058 14.4739 103.598 14.4739L99.4206 14.4859L97.0256 16.6642V14.4859H95.4223H92.2911V31.7798H97.0413V18.2728H102.882V19.9376L102.89 19.9456Z" fill="white"/>
<path fill-rule="evenodd" clip-rule="evenodd" d="M65.6466 9.72815H71.3041L63.18 20.094L71.6464 31.7837H65.6466L59.2054 22.6012L57.6775 22.5932V31.7837H52.5851V9.72815H57.6775V18.2767H59.2054L65.6466 9.72815Z" fill="white"/>
<path fill-rule="evenodd" clip-rule="evenodd" d="M122.222 14.4902V16.6684L119.827 14.4902L116.262 14.4781C114.555 14.4781 113.553 14.775 112.777 15.5251C111.75 16.5882 111.253 18.9149 111.253 23.1751C111.253 27.4354 111.658 29.6658 112.649 30.7009C113.425 31.4509 114.348 31.784 116.182 31.784H122.21L122.218 34.2589L113.851 34.2751L113.859 35.2899L116.019 37.705H122.56C124.298 37.705 125.293 37.392 125.914 36.7342C126.689 35.9199 127 35.4144 127 32.4418V14.4942H122.218L122.222 14.4902ZM122.254 27.9088H116.007V18.2771H122.249V27.9088H122.254Z" fill="white"/>
</g>
<defs>
<linearGradient id="paint0_linear_2326_4" x1="0.0376319" y1="40.7678" x2="35.4368" y2="5.50028" gradientUnits="userSpaceOnUse">
<stop stop-color="#1155CB"/>
<stop offset="1" stop-color="#1DB57C"/>
</linearGradient>
<linearGradient id="paint1_linear_2326_4" x1="0.0376343" y1="40.7677" x2="35.4368" y2="5.50026" gradientUnits="userSpaceOnUse">
<stop stop-color="#1155CB"/>
<stop offset="1" stop-color="#1DB57C"/>
</linearGradient>
<linearGradient id="paint2_linear_2326_4" x1="0.037643" y1="40.7678" x2="35.4368" y2="5.50028" gradientUnits="userSpaceOnUse">
<stop stop-color="#1155CB"/>
<stop offset="1" stop-color="#1DB57C"/>
</linearGradient>
<linearGradient id="paint3_linear_2326_4" x1="0.0376402" y1="40.7678" x2="35.4368" y2="5.50027" gradientUnits="userSpaceOnUse">
<stop stop-color="#1155CB"/>
<stop offset="1" stop-color="#1DB57C"/>
</linearGradient>
<clipPath id="clip0_2326_4">
<rect width="127" height="41" fill="white"/>
</clipPath>
</defs>
</svg>
