<svg xmlns="http://www.w3.org/2000/svg" width="1660" height="1080" viewBox="0 0 1660 1080">
<rect x="0" y="0" width="1660" height="1080" rx="0" fill="#000F06"></rect>
<g stroke="#788C6E" stroke-opacity="0.05" stroke-width="1"><line x1="0" y1="0" x2="0" y2="1080"></line><line x1="52" y1="0" x2="52" y2="1080"></line><line x1="104" y1="0" x2="104" y2="1080"></line><line x1="156" y1="0" x2="156" y2="1080"></line><line x1="208" y1="0" x2="208" y2="1080"></line><line x1="260" y1="0" x2="260" y2="1080"></line><line x1="312" y1="0" x2="312" y2="1080"></line><line x1="364" y1="0" x2="364" y2="1080"></line><line x1="416" y1="0" x2="416" y2="1080"></line><line x1="468" y1="0" x2="468" y2="1080"></line><line x1="520" y1="0" x2="520" y2="1080"></line><line x1="572" y1="0" x2="572" y2="1080"></line><line x1="624" y1="0" x2="624" y2="1080"></line><line x1="676" y1="0" x2="676" y2="1080"></line><line x1="728" y1="0" x2="728" y2="1080"></line><line x1="780" y1="0" x2="780" y2="1080"></line><line x1="832" y1="0" x2="832" y2="1080"></line><line x1="884" y1="0" x2="884" y2="1080"></line><line x1="936" y1="0" x2="936" y2="1080"></line><line x1="988" y1="0" x2="988" y2="1080"></line><line x1="1040" y1="0" x2="1040" y2="1080"></line><line x1="1092" y1="0" x2="1092" y2="1080"></line><line x1="1144" y1="0" x2="1144" y2="1080"></line><line x1="1196" y1="0" x2="1196" y2="1080"></line><line x1="1248" y1="0" x2="1248" y2="1080"></line><line x1="1300" y1="0" x2="1300" y2="1080"></line><line x1="1352" y1="0" x2="1352" y2="1080"></line><line x1="1404" y1="0" x2="1404" y2="1080"></line><line x1="1456" y1="0" x2="1456" y2="1080"></line><line x1="1508" y1="0" x2="1508" y2="1080"></line><line x1="1560" y1="0" x2="1560" y2="1080"></line><line x1="1612" y1="0" x2="1612" y2="1080"></line><line x1="0" y1="0" x2="1660" y2="0"></line><line x1="0" y1="52" x2="1660" y2="52"></line><line x1="0" y1="104" x2="1660" y2="104"></line><line x1="0" y1="156" x2="1660" y2="156"></line><line x1="0" y1="208" x2="1660" y2="208"></line><line x1="0" y1="260" x2="1660" y2="260"></line><line x1="0" y1="312" x2="1660" y2="312"></line><line x1="0" y1="364" x2="1660" y2="364"></line><line x1="0" y1="416" x2="1660" y2="416"></line><line x1="0" y1="468" x2="1660" y2="468"></line><line x1="0" y1="520" x2="1660" y2="520"></line><line x1="0" y1="572" x2="1660" y2="572"></line><line x1="0" y1="624" x2="1660" y2="624"></line><line x1="0" y1="676" x2="1660" y2="676"></line><line x1="0" y1="728" x2="1660" y2="728"></line><line x1="0" y1="780" x2="1660" y2="780"></line><line x1="0" y1="832" x2="1660" y2="832"></line><line x1="0" y1="884" x2="1660" y2="884"></line><line x1="0" y1="936" x2="1660" y2="936"></line><line x1="0" y1="988" x2="1660" y2="988"></line><line x1="0" y1="1040" x2="1660" y2="1040"></line></g>
<ellipse cx="830" cy="540" rx="640" ry="430" fill="#CCFF00" opacity="0.03"></ellipse>
<g><path d="M205 421.5 C 335.5 421.5, 335.5 580, 466 580" fill="none" stroke="#B4C8A0" stroke-width="1.1" stroke-opacity="0.16"></path><path d="M364 421.5 C 415 421.5, 415 580, 466 580" fill="none" stroke="#B4C8A0" stroke-width="1.1" stroke-opacity="0.16"></path><path d="M205 580.5 C 335.5 580.5, 335.5 580, 466 580" fill="none" stroke="#B4C8A0" stroke-width="1.1" stroke-opacity="0.16"></path><path d="M364 580.5 C 415 580.5, 415 580, 466 580" fill="none" stroke="#B4C8A0" stroke-width="1.1" stroke-opacity="0.16"></path><path d="M205 739.5 C 335.5 739.5, 335.5 580, 466 580" fill="none" stroke="#B4C8A0" stroke-width="1.1" stroke-opacity="0.16"></path><path d="M364 739.5 C 415 739.5, 415 580, 466 580" fill="none" stroke="#B4C8A0" stroke-width="1.1" stroke-opacity="0.16"></path><path d="M364 546 C 415 546, 415 580, 466 580" fill="none" stroke="#CCFF00" stroke-width="2.4" stroke-opacity="0.9" stroke-dasharray="1.5 13" stroke-linecap="round"></path><path d="M364 580 C 415 580, 415 580, 466 580" fill="none" stroke="#40E0D0" stroke-width="2.4" stroke-opacity="0.9" stroke-dasharray="1.5 13" stroke-linecap="round"></path><path d="M364 614 C 415 614, 415 580, 466 580" fill="none" stroke="#9747FF" stroke-width="2.4" stroke-opacity="0.9" stroke-dasharray="1.5 13" stroke-linecap="round"></path><path d="M1174 487 C 1232.5 487, 1232.5 347, 1291 347" fill="none" stroke="#CCFF00" stroke-width="1.1" stroke-opacity="0.26"></path><path d="M1174 487 C 1232.5 487, 1232.5 347, 1291 347" fill="none" stroke="#CCFF00" stroke-width="1.1" stroke-opacity="0.26"></path><path d="M1174 487 C 1232.5 487, 1232.5 347, 1291 347" fill="none" stroke="#CCFF00" stroke-width="1.1" stroke-opacity="0.26"></path><path d="M1174 487 C 1232.5 487, 1232.5 427, 1291 427" fill="none" stroke="#CCFF00" stroke-width="1.1" stroke-opacity="0.26"></path><path d="M1174 487 C 1232.5 487, 1232.5 427, 1291 427" fill="none" stroke="#CCFF00" stroke-width="1.1" stroke-opacity="0.26"></path><path d="M1174 487 C 1232.5 487, 1232.5 427, 1291 427" fill="none" stroke="#CCFF00" stroke-width="1.1" stroke-opacity="0.26"></path><path d="M1174 487 C 1232.5 487, 1232.5 507, 1291 507" fill="none" stroke="#CCFF00" stroke-width="1.1" stroke-opacity="0.26"></path><path d="M1174 487 C 1232.5 487, 1232.5 507, 1291 507" fill="none" stroke="#CCFF00" stroke-width="1.1" stroke-opacity="0.26"></path><path d="M1174 487 C 1232.5 487, 1232.5 507, 1291 507" fill="none" stroke="#CCFF00" stroke-width="1.1" stroke-opacity="0.26"></path><path d="M1174 487 C 1232.5 487, 1232.5 587, 1291 587" fill="none" stroke="#CCFF00" stroke-width="1.1" stroke-opacity="0.26"></path><path d="M1174 487 C 1232.5 487, 1232.5 587, 1291 587" fill="none" stroke="#CCFF00" stroke-width="1.1" stroke-opacity="0.26"></path><path d="M1174 487 C 1232.5 487, 1232.5 587, 1291 587" fill="none" stroke="#CCFF00" stroke-width="1.1" stroke-opacity="0.26"></path><path d="M1174 487 C 1232.5 487, 1232.5 667, 1291 667" fill="none" stroke="#CCFF00" stroke-width="1.1" stroke-opacity="0.26"></path><path d="M1174 487 C 1232.5 487, 1232.5 667, 1291 667" fill="none" stroke="#CCFF00" stroke-width="1.1" stroke-opacity="0.26"></path><path d="M1174 487 C 1232.5 487, 1232.5 667, 1291 667" fill="none" stroke="#CCFF00" stroke-width="1.1" stroke-opacity="0.26"></path><path d="M1174 487 C 1226 487, 1226 487, 1278 487" fill="none" stroke="#CCFF00" stroke-width="2.4" stroke-opacity="0.9" stroke-dasharray="1.5 13" stroke-linecap="round"></path><path d="M1174 487 C 1226 487, 1226 280, 1278 280" fill="none" stroke="#9747FF" stroke-width="2" stroke-opacity="0.7" stroke-dasharray="1.5 13" stroke-linecap="round"></path><path d="M1174 841 C 1232.5 841, 1232.5 821, 1291 821" fill="none" stroke="#40E0D0" stroke-width="1.1" stroke-opacity="0.26"></path><path d="M1174 841 C 1232.5 841, 1232.5 821, 1291 821" fill="none" stroke="#40E0D0" stroke-width="1.1" stroke-opacity="0.26"></path><path d="M1174 841 C 1232.5 841, 1232.5 821, 1291 821" fill="none" stroke="#40E0D0" stroke-width="1.1" stroke-opacity="0.26"></path><path d="M1174 841 C 1232.5 841, 1232.5 901, 1291 901" fill="none" stroke="#40E0D0" stroke-width="1.1" stroke-opacity="0.26"></path><path d="M1174 841 C 1232.5 841, 1232.5 901, 1291 901" fill="none" stroke="#40E0D0" stroke-width="1.1" stroke-opacity="0.26"></path><path d="M1174 841 C 1232.5 841, 1232.5 901, 1291 901" fill="none" stroke="#40E0D0" stroke-width="1.1" stroke-opacity="0.26"></path><path d="M1174 841 C 1226 841, 1226 841, 1278 841" fill="none" stroke="#40E0D0" stroke-width="2.4" stroke-opacity="0.9" stroke-dasharray="1.5 13" stroke-linecap="round"></path><g stroke="#CCFF00" stroke-width="1"><line x1="461" y1="580" x2="471" y2="580"></line><line x1="466" y1="575" x2="466" y2="585"></line></g><g stroke="#CCFF00" stroke-width="1"><line x1="1169" y1="487" x2="1179" y2="487"></line><line x1="1174" y1="482" x2="1174" y2="492"></line></g><g stroke="#40E0D0" stroke-width="1"><line x1="1169" y1="841" x2="1179" y2="841"></line><line x1="1174" y1="836" x2="1174" y2="846"></line></g></g>
<circle cx="68" cy="60" r="4" fill="#CCFF00"></circle>
<text x="84" y="61" font-family="Funnel Sans, Arial, sans-serif" font-size="12" font-weight="700" fill="#AEB5A7" text-anchor="start" dominant-baseline="middle" letter-spacing="1.9">KONG AI GATEWAY</text>
<text x="64" y="112" font-family="Funnel Sans, Arial, sans-serif" font-size="37" dominant-baseline="alphabetic" letter-spacing="-0.5"><tspan fill="#FFFFFF" font-weight="700">One gateway for </tspan><tspan fill="#CCFF00" font-style="italic" font-weight="300">LLM</tspan><tspan fill="#FFFFFF" font-weight="700">, </tspan><tspan fill="#CCFF00" font-style="italic" font-weight="300">MCP</tspan><tspan fill="#FFFFFF" font-weight="700"> &amp; </tspan><tspan fill="#CCFF00" font-style="italic" font-weight="300">A2A</tspan><tspan fill="#FFFFFF" font-weight="700"> traffic.</tspan></text>
<text x="64" y="216" font-family="Funnel Sans, Arial, sans-serif" font-size="12" font-weight="700" fill="#AEB5A7" text-anchor="start" dominant-baseline="middle" letter-spacing="1.7">APPS &amp; AGENTS</text>
<text x="820" y="216" font-family="Funnel Sans, Arial, sans-serif" font-size="12" font-weight="700" fill="#AEB5A7" text-anchor="middle" dominant-baseline="middle" letter-spacing="1.7">AI GATEWAY</text>
<text x="1596" y="216" font-family="Funnel Sans, Arial, sans-serif" font-size="12" font-weight="700" fill="#AEB5A7" text-anchor="end" dominant-baseline="middle" letter-spacing="1.7">DESTINATIONS</text>
<line x1="180" y1="212" x2="364" y2="212" stroke="#3A4138" stroke-opacity="0.6"></line>
<line x1="900" y1="212" x2="1174" y2="212" stroke="#3A4138" stroke-opacity="0.6"></line>
<line x1="466" y1="212" x2="740" y2="212" stroke="#3A4138" stroke-opacity="0.6"></line>
<rect x="64" y="351" width="141" height="141" rx="10" fill="#0F160F" stroke="#2A2F28" stroke-width="1"></rect>
<g transform="translate(119.5 395.5) scale(1.2500)" fill="none" stroke="#BAC1B8" stroke-width="1.6" stroke-linecap="round" stroke-linejoin="round"><rect x="3" y="4" width="18" height="16" rx="2"></rect><path d="M3 9h18"></path></g>
<text x="134.5" y="451.5" font-family="Funnel Sans, Arial, sans-serif" font-size="12" font-weight="500" fill="#AEB5A7" text-anchor="middle" dominant-baseline="middle">Web apps</text>
<rect x="223" y="351" width="141" height="141" rx="10" fill="#0F160F" stroke="#2A2F28" stroke-width="1"></rect>
<g transform="translate(278.5 395.5) scale(1.2500)" fill="none" stroke="#BAC1B8" stroke-width="1.6" stroke-linecap="round" stroke-linejoin="round"><rect x="7" y="3" width="10" height="18" rx="2"></rect><path d="M11 18h2"></path></g>
<text x="293.5" y="451.5" font-family="Funnel Sans, Arial, sans-serif" font-size="12" font-weight="500" fill="#AEB5A7" text-anchor="middle" dominant-baseline="middle">Mobile</text>
<rect x="64" y="510" width="141" height="141" rx="10" fill="#0F160F" stroke="#2A2F28" stroke-width="1"></rect>
<g transform="translate(119.5 554.5) scale(1.2500)" fill="none" stroke="#BAC1B8" stroke-width="1.6" stroke-linecap="round" stroke-linejoin="round"><rect x="4" y="9" width="16" height="10" rx="2"></rect><path d="M12 9V5.5"></path><circle cx="12" cy="4" r="1"></circle><path d="M9 13.5v1M15 13.5v1"></path></g>
<text x="134.5" y="610.5" font-family="Funnel Sans, Arial, sans-serif" font-size="12" font-weight="500" fill="#AEB5A7" text-anchor="middle" dominant-baseline="middle">AI agents</text>
<rect x="223" y="510" width="141" height="141" rx="10" fill="#0F160F" stroke="#2A2F28" stroke-width="1"></rect>
<g transform="translate(278.5 554.5) scale(1.2500)" fill="none" stroke="#BAC1B8" stroke-width="1.6" stroke-linecap="round" stroke-linejoin="round"><rect x="3" y="4" width="18" height="16" rx="2"></rect><path d="M7 9l3 3-3 3M13 15h4"></path></g>
<text x="293.5" y="610.5" font-family="Funnel Sans, Arial, sans-serif" font-size="12" font-weight="500" fill="#AEB5A7" text-anchor="middle" dominant-baseline="middle">IDE &amp; copilots</text>
<rect x="64" y="669" width="141" height="141" rx="10" fill="#0F160F" stroke="#2A2F28" stroke-width="1"></rect>
<g transform="translate(119.5 713.5) scale(1.2500)" fill="none" stroke="#BAC1B8" stroke-width="1.6" stroke-linecap="round" stroke-linejoin="round"><rect x="3" y="4" width="18" height="7" rx="1.5"></rect><rect x="3" y="13" width="18" height="7" rx="1.5"></rect><path d="M7 7.5h.01M7 16.5h.01"></path></g>
<text x="134.5" y="769.5" font-family="Funnel Sans, Arial, sans-serif" font-size="12" font-weight="500" fill="#AEB5A7" text-anchor="middle" dominant-baseline="middle">Services</text>
<rect x="223" y="669" width="141" height="141" rx="10" fill="#0F160F" stroke="#2A2F28" stroke-width="1"></rect>
<g transform="translate(278.5 713.5) scale(1.2500)" fill="none" stroke="#BAC1B8" stroke-width="1.6" stroke-linecap="round" stroke-linejoin="round"><rect x="4" y="4" width="6" height="6" rx="1"></rect><rect x="14" y="14" width="6" height="6" rx="1"></rect><path d="M10 7h4a3 3 0 0 1 3 3v4"></path></g>
<text x="293.5" y="769.5" font-family="Funnel Sans, Arial, sans-serif" font-size="12" font-weight="500" fill="#AEB5A7" text-anchor="middle" dominant-baseline="middle">Workflows</text>
<rect x="466" y="273" width="708" height="614" rx="14" fill="#0B120D" stroke="#46502f" stroke-width="1.5"></rect>
<g transform="translate(492 299) scale(0.2774)" fill="#CCFF00"><path d="M50.5,112.9l-3.7,4.7,8.4,13.2-.9,6.1h35.6l2.5-6.1-14.3-17.9s-27.6,0-27.6,0Z"></path><path d="M69.9,32.6l-12.9,22.7,62.9,74.8-1.8,6.9h28.8l5.2-24.3L84.9,32.5h-15Z"></path><path d="M78.5,15.5l-6.1,11.3h15.2l26.1,31.2,15.5-12.8v-8.1l-5.4-7.6,4-4.2L96.7.6l-18.2,14.9Z"></path><path d="M31.7,78.7h-8.5L.8,107.3v29.6h24l4.2-5.5,18.5-24.1h26.8l8.3-12.7-29.1-34.7-21.9,18.9h0Z"></path></g>
<text x="548.4379562043796" y="311" font-family="Funnel Sans, Arial, sans-serif" font-size="11" font-weight="700" fill="#CCFF00" text-anchor="start" dominant-baseline="middle" letter-spacing="1.5">KONG</text>
<text x="548.4379562043796" y="329" font-family="Funnel Sans, Arial, sans-serif" font-size="19" font-weight="700" fill="#FFFFFF" text-anchor="start" dominant-baseline="middle">AI Gateway</text>
<text x="492" y="367" font-family="Funnel Sans, Arial, sans-serif" font-size="17" font-weight="700" fill="#FFFFFF" text-anchor="start" dominant-baseline="middle">All Kong Policies</text>
<rect x="492" y="389" width="322" height="46" rx="5" fill="#0E140C" stroke="#2A2F28" stroke-width="1"></rect>
<rect x="505" y="397" width="30" height="30" rx="7" fill="rgba(204,255,0,0.08)"></rect>
<g transform="translate(511.5 403.5) scale(0.7083)" fill="none" stroke="#CCFF00" stroke-width="1.7" stroke-linecap="round" stroke-linejoin="round"><path d="M12 3l7 3v5c0 5-3.5 8-7 9-3.5-1-7-4-7-9V6z"></path><path d="M9 12l2 2 4-4"></path></g>
<text x="547" y="412" font-family="Funnel Sans, Arial, sans-serif" font-size="13" font-weight="600" fill="#FFFFFF" text-anchor="start" dominant-baseline="middle">AI Governance</text>
<rect x="826" y="389" width="322" height="46" rx="5" fill="#0E140C" stroke="#2A2F28" stroke-width="1"></rect>
<rect x="839" y="397" width="30" height="30" rx="7" fill="rgba(204,255,0,0.08)"></rect>
<g transform="translate(845.5 403.5) scale(0.7083)" fill="none" stroke="#CCFF00" stroke-width="1.7" stroke-linecap="round" stroke-linejoin="round"><path d="M3 12h4l3 8 4-16 3 8h4"></path></g>
<text x="881" y="412" font-family="Funnel Sans, Arial, sans-serif" font-size="13" font-weight="600" fill="#FFFFFF" text-anchor="start" dominant-baseline="middle">AI Observability</text>
<rect x="492" y="445" width="322" height="46" rx="5" fill="#0E140C" stroke="#2A2F28" stroke-width="1"></rect>
<rect x="505" y="453" width="30" height="30" rx="7" fill="rgba(204,255,0,0.08)"></rect>
<g transform="translate(511.5 459.5) scale(0.7083)" fill="none" stroke="#CCFF00" stroke-width="1.7" stroke-linecap="round" stroke-linejoin="round"><circle cx="8" cy="12" r="3.5"></circle><path d="M11.5 12H21M18 12v3M21 12l-2-2"></path></g>
<text x="547" y="468" font-family="Funnel Sans, Arial, sans-serif" font-size="13" font-weight="600" fill="#FFFFFF" text-anchor="start" dominant-baseline="middle">AI Credentials</text>
<rect x="826" y="445" width="322" height="46" rx="5" fill="#0E140C" stroke="#2A2F28" stroke-width="1"></rect>
<rect x="839" y="453" width="30" height="30" rx="7" fill="rgba(204,255,0,0.08)"></rect>
<g transform="translate(845.5 459.5) scale(0.7083)" fill="none" stroke="#CCFF00" stroke-width="1.7" stroke-linecap="round" stroke-linejoin="round"><circle cx="6" cy="6" r="2"></circle><circle cx="18" cy="18" r="2"></circle><path d="M6 8v6a4 4 0 0 0 4 4h6"></path></g>
<text x="881" y="468" font-family="Funnel Sans, Arial, sans-serif" font-size="13" font-weight="600" fill="#FFFFFF" text-anchor="start" dominant-baseline="middle">AI Traffic Control</text>
<rect x="492" y="501" width="322" height="46" rx="5" fill="#0E140C" stroke="#2A2F28" stroke-width="1"></rect>
<rect x="505" y="509" width="30" height="30" rx="7" fill="rgba(204,255,0,0.08)"></rect>
<g transform="translate(511.5 515.5) scale(0.7083)" fill="none" stroke="#CCFF00" stroke-width="1.7" stroke-linecap="round" stroke-linejoin="round"><path d="M12 4v16M6 4h12M7 4l-3 7h6zM17 4l-3 7h6z"></path></g>
<text x="547" y="524" font-family="Funnel Sans, Arial, sans-serif" font-size="13" font-weight="600" fill="#FFFFFF" text-anchor="start" dominant-baseline="middle">AI Load Balancing</text>
<rect x="826" y="501" width="322" height="46" rx="5" fill="#0E140C" stroke="#2A2F28" stroke-width="1"></rect>
<rect x="839" y="509" width="30" height="30" rx="7" fill="rgba(204,255,0,0.08)"></rect>
<g transform="translate(845.5 515.5) scale(0.7083)" fill="none" stroke="#CCFF00" stroke-width="1.7" stroke-linecap="round" stroke-linejoin="round"><path d="M3 12a9 9 0 0 1 15-6l3 3M21 3v5h-5"></path><path d="M21 12a9 9 0 0 1-15 6l-3-3M3 21v-5h5"></path></g>
<text x="881" y="524" font-family="Funnel Sans, Arial, sans-serif" font-size="13" font-weight="600" fill="#FFFFFF" text-anchor="start" dominant-baseline="middle">AI Retries</text>
<rect x="492" y="561" width="656" height="58" rx="5" fill="rgba(204,255,0,0.045)" stroke="#CCFF00" stroke-width="1" stroke-dasharray="5 4"></rect>
<rect x="507" y="572" width="36" height="36" rx="8" fill="#CCFF00"></rect>
<g transform="translate(515 580) scale(0.8333)" fill="none" stroke="#0B120D" stroke-width="2" stroke-linecap="round" stroke-linejoin="round"><path d="M12 3l1.8 4.2L18 9l-4.2 1.8L12 15l-1.8-4.2L6 9l4.2-1.8z"></path><path d="M19 14l.6 1.5L21 16l-1.4.5L19 18l-.5-1.5L17 16l1.5-.5z"></path></g>
<text x="557" y="590" font-family="Funnel Sans, Arial, sans-serif" font-size="17" font-weight="700" fill="#FFFFFF" text-anchor="start" dominant-baseline="middle">Universal API</text>
<rect x="492" y="633" width="322" height="46" rx="5" fill="#0E140C" stroke="#2A2F28" stroke-width="1"></rect>
<rect x="505" y="641" width="30" height="30" rx="7" fill="rgba(204,255,0,0.08)"></rect>
<g transform="translate(511.5 647.5) scale(0.7083)" fill="none" stroke="#CCFF00" stroke-width="1.7" stroke-linecap="round" stroke-linejoin="round"><path d="M12 3l7 3v5c0 5-3.5 8-7 9-3.5-1-7-4-7-9V6z"></path><path d="M12 8v4M12 15.5h.01"></path></g>
<text x="547" y="656" font-family="Funnel Sans, Arial, sans-serif" font-size="13" font-weight="600" fill="#FFFFFF" text-anchor="start" dominant-baseline="middle">AI Prompt Guard</text>
<rect x="826" y="633" width="322" height="46" rx="5" fill="#0E140C" stroke="#2A2F28" stroke-width="1"></rect>
<rect x="839" y="641" width="30" height="30" rx="7" fill="rgba(204,255,0,0.08)"></rect>
<g transform="translate(845.5 647.5) scale(0.7083)" fill="none" stroke="#CCFF00" stroke-width="1.7" stroke-linecap="round" stroke-linejoin="round"><path d="M16 4h4v4M20 4l-6 6M4 20l6-6M16 20h4v-4M4 4l5 5"></path></g>
<text x="881" y="656" font-family="Funnel Sans, Arial, sans-serif" font-size="13" font-weight="600" fill="#FFFFFF" text-anchor="start" dominant-baseline="middle">AI Flow &amp; Transformations</text>
<rect x="492" y="689" width="322" height="46" rx="5" fill="#0E140C" stroke="#2A2F28" stroke-width="1"></rect>
<rect x="505" y="697" width="30" height="30" rx="7" fill="rgba(204,255,0,0.08)"></rect>
<g transform="translate(511.5 703.5) scale(0.7083)" fill="none" stroke="#CCFF00" stroke-width="1.7" stroke-linecap="round" stroke-linejoin="round"><ellipse cx="12" cy="6" rx="7" ry="3"></ellipse><path d="M5 6v12c0 1.7 3.1 3 7 3s7-1.3 7-3V6M5 12c0 1.7 3.1 3 7 3s7-1.3 7-3"></path></g>
<text x="547" y="712" font-family="Funnel Sans, Arial, sans-serif" font-size="13" font-weight="600" fill="#FFFFFF" text-anchor="start" dominant-baseline="middle">AI Semantic Caching</text>
<rect x="826" y="689" width="322" height="46" rx="5" fill="#0E140C" stroke="#2A2F28" stroke-width="1"></rect>
<rect x="839" y="697" width="30" height="30" rx="7" fill="rgba(204,255,0,0.08)"></rect>
<g transform="translate(845.5 703.5) scale(0.7083)" fill="none" stroke="#CCFF00" stroke-width="1.7" stroke-linecap="round" stroke-linejoin="round"><path d="M4 8V6a2 2 0 0 1 2-2h2M16 4h2a2 2 0 0 1 2 2v2M20 16v2a2 2 0 0 1-2 2h-2M8 20H6a2 2 0 0 1-2-2v-2"></path><path d="M7 10h10M7 14h6"></path></g>
<text x="881" y="712" font-family="Funnel Sans, Arial, sans-serif" font-size="13" font-weight="600" fill="#FFFFFF" text-anchor="start" dominant-baseline="middle">AI Semantic Prompt Guard</text>
<rect x="492" y="745" width="322" height="46" rx="5" fill="#0E140C" stroke="#2A2F28" stroke-width="1"></rect>
<rect x="505" y="753" width="30" height="30" rx="7" fill="rgba(204,255,0,0.08)"></rect>
<g transform="translate(511.5 759.5) scale(0.7083)" fill="none" stroke="#CCFF00" stroke-width="1.7" stroke-linecap="round" stroke-linejoin="round"><path d="M14 3H7a2 2 0 0 0-2 2v14a2 2 0 0 0 2 2h10a2 2 0 0 0 2-2V8z"></path><path d="M14 3v5h5M9 13h6M9 17h4"></path></g>
<text x="547" y="768" font-family="Funnel Sans, Arial, sans-serif" font-size="13" font-weight="600" fill="#FFFFFF" text-anchor="start" dominant-baseline="middle">AI Prompt Template</text>
<rect x="826" y="745" width="322" height="46" rx="5" fill="#0E140C" stroke="#2A2F28" stroke-width="1"></rect>
<rect x="839" y="753" width="30" height="30" rx="7" fill="rgba(204,255,0,0.08)"></rect>
<g transform="translate(845.5 759.5) scale(0.7083)" fill="none" stroke="#CCFF00" stroke-width="1.7" stroke-linecap="round" stroke-linejoin="round"><path d="M5 19L16 8M14 3l1 2.5L17.5 6.5 15 7.5 14 10l-1-2.5L10.5 6.5 13 5.5z"></path><path d="M5 11l.6 1.4L7 13l-1.4.6L5 15l-.6-1.4L3 13l1.4-.6z"></path></g>
<text x="881" y="768" font-family="Funnel Sans, Arial, sans-serif" font-size="13" font-weight="600" fill="#FFFFFF" text-anchor="start" dominant-baseline="middle">AI Prompt Decorator</text>
<rect x="492" y="801" width="322" height="46" rx="5" fill="#0E140C" stroke="#2A2F28" stroke-width="1"></rect>
<rect x="505" y="809" width="30" height="30" rx="7" fill="rgba(204,255,0,0.08)"></rect>
<g transform="translate(511.5 815.5) scale(0.7083)" fill="none" stroke="#CCFF00" stroke-width="1.7" stroke-linecap="round" stroke-linejoin="round"><path d="M14 3H7a2 2 0 0 0-2 2v14a2 2 0 0 0 2 2h10a2 2 0 0 0 2-2V8z"></path><path d="M14 3v5h5"></path><rect x="9" y="13" width="6" height="5" rx="1"></rect><path d="M10.5 13v-1.5a1.5 1.5 0 0 1 3 0V13"></path></g>
<text x="547" y="824" font-family="Funnel Sans, Arial, sans-serif" font-size="13" font-weight="600" fill="#FFFFFF" text-anchor="start" dominant-baseline="middle">AI Azure Content Safety</text>
<rect x="826" y="801" width="322" height="46" rx="5" fill="#0E140C" stroke="#2A2F28" stroke-width="1"></rect>
<rect x="839" y="809" width="30" height="30" rx="7" fill="rgba(204,255,0,0.08)"></rect>
<g transform="translate(845.5 815.5) scale(0.7083)" fill="none" stroke="#CCFF00" stroke-width="1.7" stroke-linecap="round" stroke-linejoin="round"><path d="M3 16a9 9 0 1 1 18 0"></path><path d="M12 14l4-4"></path><circle cx="12" cy="14" r="1.2" fill="#CCFF00" stroke="none"></circle></g>
<text x="881" y="824" font-family="Funnel Sans, Arial, sans-serif" font-size="13" font-weight="600" fill="#FFFFFF" text-anchor="start" dominant-baseline="middle">AI Rate Limiting Advanced</text>
<rect x="1278" y="258" width="318" height="458" rx="10" fill="rgba(8,13,9,0.55)" stroke="#2A2F28" stroke-width="1"></rect>
<circle cx="1295" cy="284" r="4" fill="#CCFF00"></circle>
<text x="1307" y="285" font-family="Funnel Sans, Arial, sans-serif" font-size="13" font-weight="700" fill="#FFFFFF" text-anchor="start" dominant-baseline="middle">LLM Providers</text>
<text x="1583" y="285" font-family="Funnel Sans, Arial, sans-serif" font-size="11" font-weight="500" fill="#7E867A" text-anchor="end" dominant-baseline="middle">LLM · A2A</text>
<rect x="1278" y="732" width="318" height="218" rx="10" fill="rgba(8,13,9,0.55)" stroke="#2A2F28" stroke-width="1"></rect>
<circle cx="1295" cy="758" r="4" fill="#40E0D0"></circle>
<text x="1307" y="759" font-family="Funnel Sans, Arial, sans-serif" font-size="13" font-weight="700" fill="#FFFFFF" text-anchor="start" dominant-baseline="middle">MCP Servers</text>
<text x="1583" y="759" font-family="Funnel Sans, Arial, sans-serif" font-size="11" font-weight="500" fill="#7E867A" text-anchor="end" dominant-baseline="middle">MCP</text>
<rect x="1291" y="311" width="92" height="72" rx="5" fill="#101510" stroke="#2A2F28" stroke-width="1"></rect>
<rect x="1320" y="320" width="34" height="34" rx="8" fill="#F4F6F1"></rect>
<g transform="translate(1326.00 326.00) scale(0.9167)"><path d="M22.2819 9.8211a5.9847 5.9847 0 0 0-.5157-4.9108 6.0462 6.0462 0 0 0-6.5098-2.9A6.0651 6.0651 0 0 0 4.9807 4.1818a5.9847 5.9847 0 0 0-3.9977 2.9 6.0462 6.0462 0 0 0 .7427 7.0966 5.98 5.98 0 0 0 .511 4.9107 6.051 6.051 0 0 0 6.5146 2.9001A5.9847 5.9847 0 0 0 13.2599 24a6.0557 6.0557 0 0 0 5.7718-4.2058 5.9894 5.9894 0 0 0 3.9977-2.9001 6.0557 6.0557 0 0 0-.7475-7.0729zm-9.022 12.6081a4.4755 4.4755 0 0 1-2.8764-1.0408l.1419-.0804 4.7783-2.7582a.7948.7948 0 0 0 .3927-.6813v-6.7369l2.02 1.1686a.071.071 0 0 1 .038.052v5.5826a4.504 4.504 0 0 1-4.4945 4.4944zm-9.6607-4.1254a4.4708 4.4708 0 0 1-.5346-3.0137l.142.0852 4.783 2.7582a.7712.7712 0 0 0 .7806 0l5.8428-3.3685v2.3324a.0804.0804 0 0 1-.0332.0615L9.74 19.9502a4.4992 4.4992 0 0 1-6.1408-1.6464zM2.3408 7.8956a4.485 4.485 0 0 1 2.3655-1.9728V11.6a.7664.7664 0 0 0 .3879.6765l5.8144 3.3543-2.0201 1.1685a.0757.0757 0 0 1-.071 0l-4.8303-2.7865A4.504 4.504 0 0 1 2.3408 7.872zm16.5963 3.8558L13.1038 8.364 15.1192 7.2a.0757.0757 0 0 1 .071 0l4.8303 2.7913a4.4944 4.4944 0 0 1-.6765 8.1042v-5.6772a.79.79 0 0 0-.407-.667zm2.0107-3.0231l-.142-.0852-4.7735-2.7818a.7759.7759 0 0 0-.7854 0L9.409 9.2297V6.8974a.0662.0662 0 0 1 .0284-.0615l4.8303-2.7866a4.4992 4.4992 0 0 1 6.6802 4.66zM8.3065 12.863l-2.02-1.1638a.0804.0804 0 0 1-.038-.0567V6.0742a4.4992 4.4992 0 0 1 7.3757-3.4537l-.142.0805L8.704 5.459a.7948.7948 0 0 0-.3927.6813zm1.0976-2.3654l2.602-1.4998 2.6069 1.4998v2.9994l-2.5974 1.4997-2.6067-1.4997Z"></path></g>
<text x="1337" y="370" font-family="Funnel Sans, Arial, sans-serif" font-size="11" font-weight="500" fill="#AEB5A7" text-anchor="middle" dominant-baseline="middle">OpenAI</text>
<rect x="1391" y="311" width="92" height="72" rx="5" fill="#101510" stroke="#2A2F28" stroke-width="1"></rect>
<rect x="1420" y="320" width="34" height="34" rx="8" fill="#F4F6F1"></rect>
<g transform="translate(1426.00 329.25) scale(0.2386)"><g fill="#181818"><metadata>
  <sfw xmlns="ns_sfw;">
   <slices>
   </slices>
   <sliceSourceBounds bottomLeftOrigin="true" height="65" width="92.2" x="-43.7" y="-98">
   </sliceSourceBounds>
  </sfw>
 </metadata>
 <path class="st0" d="M66.5,0H52.4l25.7,65h14.1L66.5,0z M25.7,0L0,65h14.4l5.3-13.6h26.9L51.8,65h14.4L40.5,0C40.5,0,25.7,0,25.7,0z&#xA;&#x9; M24.3,39.3l8.8-22.8l8.8,22.8H24.3z">
 </path></g></g>
<text x="1437" y="370" font-family="Funnel Sans, Arial, sans-serif" font-size="11" font-weight="500" fill="#AEB5A7" text-anchor="middle" dominant-baseline="middle">Anthropic</text>
<rect x="1491" y="311" width="92" height="72" rx="5" fill="#101510" stroke="#2A2F28" stroke-width="1"></rect>
<rect x="1520" y="320" width="34" height="34" rx="8" fill="#F4F6F1"></rect>
<g transform="translate(1526.00 326.00) scale(0.2292)"><defs>
        <linearGradient id="e399c19f-b68f-429d-b176-18c2117ff73c" x1="-1032.172" x2="-1059.213" y1="145.312" y2="65.426" gradientTransform="matrix(1 0 0 -1 1075 158)" gradientUnits="userSpaceOnUse">
            <stop offset="0" stop-color="#114a8b"></stop>
            <stop offset="1" stop-color="#0669bc"></stop>
        </linearGradient>
        <linearGradient id="ac2a6fc2-ca48-4327-9a3c-d4dcc3256e15" x1="-1023.725" x2="-1029.98" y1="108.083" y2="105.968" gradientTransform="matrix(1 0 0 -1 1075 158)" gradientUnits="userSpaceOnUse">
            <stop offset="0" stop-opacity=".3"></stop>
            <stop offset=".071" stop-opacity=".2"></stop>
            <stop offset=".321" stop-opacity=".1"></stop>
            <stop offset=".623" stop-opacity=".05"></stop>
            <stop offset="1" stop-opacity="0"></stop>
        </linearGradient>
        <linearGradient id="a7fee970-a784-4bb1-af8d-63d18e5f7db9" x1="-1027.165" x2="-997.482" y1="147.642" y2="68.561" gradientTransform="matrix(1 0 0 -1 1075 158)" gradientUnits="userSpaceOnUse">
            <stop offset="0" stop-color="#3ccbf4"></stop>
            <stop offset="1" stop-color="#2892df"></stop>
        </linearGradient>
    </defs>
    <path fill="url(#e399c19f-b68f-429d-b176-18c2117ff73c)" d="M33.338 6.544h26.038l-27.03 80.087a4.152 4.152 0 0 1-3.933 2.824H8.149a4.145 4.145 0 0 1-3.928-5.47L29.404 9.368a4.152 4.152 0 0 1 3.934-2.825z"></path>
    <path fill="#0078d4" d="M71.175 60.261h-41.29a1.911 1.911 0 0 0-1.305 3.309l26.532 24.764a4.171 4.171 0 0 0 2.846 1.121h23.38z"></path>
    <path fill="url(#ac2a6fc2-ca48-4327-9a3c-d4dcc3256e15)" d="M33.338 6.544a4.118 4.118 0 0 0-3.943 2.879L4.252 83.917a4.14 4.14 0 0 0 3.908 5.538h20.787a4.443 4.443 0 0 0 3.41-2.9l5.014-14.777 17.91 16.705a4.237 4.237 0 0 0 2.666.972H81.24L71.024 60.261l-29.781.007L59.47 6.544z"></path>
    <path fill="url(#a7fee970-a784-4bb1-af8d-63d18e5f7db9)" d="M66.595 9.364a4.145 4.145 0 0 0-3.928-2.82H33.648a4.146 4.146 0 0 1 3.928 2.82l25.184 74.62a4.146 4.146 0 0 1-3.928 5.472h29.02a4.146 4.146 0 0 0 3.927-5.472z"></path></g>
<text x="1537" y="370" font-family="Funnel Sans, Arial, sans-serif" font-size="11" font-weight="500" fill="#AEB5A7" text-anchor="middle" dominant-baseline="middle">Azure</text>
<rect x="1291" y="391" width="92" height="72" rx="5" fill="#101510" stroke="#2A2F28" stroke-width="1"></rect>
<rect x="1320" y="400" width="34" height="34" rx="8" fill="#F4F6F1"></rect>
<g transform="translate(1326.00 406.00) scale(0.9167)"><defs><linearGradient id="lobe-icons-bedrock-fill" x1="80%" x2="20%" y1="20%" y2="80%"><stop offset="0%" stop-color="#6350FB"></stop><stop offset="50%" stop-color="#3D8FFF"></stop><stop offset="100%" stop-color="#9AD8F8"></stop></linearGradient></defs><path d="M13.05 15.513h3.08c.214 0 .389.177.389.394v1.82a1.704 1.704 0 011.296 1.661c0 .943-.755 1.708-1.685 1.708-.931 0-1.686-.765-1.686-1.708 0-.807.554-1.484 1.297-1.662v-1.425h-2.69v4.663a.395.395 0 01-.188.338l-2.69 1.641a.385.385 0 01-.405-.002l-4.926-3.086a.395.395 0 01-.185-.336V16.3L2.196 14.87A.395.395 0 012 14.555L2 14.528V9.406c0-.14.073-.27.192-.34l2.465-1.462V4.448c0-.129.062-.249.165-.322l.021-.014L9.77 1.058a.385.385 0 01.407 0l2.69 1.675a.395.395 0 01.185.336V7.6h3.856V5.683a1.704 1.704 0 01-1.296-1.662c0-.943.755-1.708 1.685-1.708.931 0 1.685.765 1.685 1.708 0 .807-.553 1.484-1.296 1.662v2.311a.391.391 0 01-.389.394h-4.245v1.806h6.624a1.69 1.69 0 011.64-1.313c.93 0 1.685.764 1.685 1.707 0 .943-.754 1.708-1.685 1.708a1.69 1.69 0 01-1.64-1.314H13.05v1.937h4.953l.915 1.18a1.66 1.66 0 01.84-.227c.931 0 1.685.764 1.685 1.707 0 .943-.754 1.708-1.685 1.708-.93 0-1.685-.765-1.685-1.708 0-.346.102-.668.276-.937l-.724-.935H13.05v1.806zM9.973 1.856L7.93 3.122V6.09h-.778V3.604L5.435 4.669v2.945l2.11 1.36L9.712 7.61V5.334h.778V7.83c0 .136-.07.263-.184.335L7.963 9.638v2.081l1.422 1.009-.446.646-1.406-.998-1.53 1.005-.423-.66 1.605-1.055v-1.99L5.038 8.29l-2.26 1.34v1.676l1.972-1.189.398.677-2.37 1.429V14.3l2.166 1.258 2.27-1.368.397.677-2.176 1.311V19.3l1.876 1.175 2.365-1.426.398.678-2.017 1.216 1.918 1.201 2.298-1.403v-5.78l-4.758 2.893-.4-.675 5.158-3.136V3.289L9.972 1.856zM16.13 18.47a.913.913 0 00-.908.92c0 .507.406.918.908.918a.913.913 0 00.907-.919.913.913 0 00-.907-.92zm3.63-3.81a.913.913 0 00-.908.92c0 .508.406.92.907.92a.913.913 0 00.908-.92.913.913 0 00-.908-.92zm1.555-4.99a.913.913 0 00-.908.92c0 .507.407.918.908.918a.913.913 0 00.907-.919.913.913 0 00-.907-.92zM17.296 3.1a.913.913 0 00-.907.92c0 .508.406.92.907.92a.913.913 0 00.908-.92.913.913 0 00-.908-.92z" fill="url(#lobe-icons-bedrock-fill)" fill-rule="nonzero"></path></g>
<text x="1337" y="450" font-family="Funnel Sans, Arial, sans-serif" font-size="11" font-weight="500" fill="#AEB5A7" text-anchor="middle" dominant-baseline="middle">Bedrock</text>
<rect x="1391" y="391" width="92" height="72" rx="5" fill="#101510" stroke="#2A2F28" stroke-width="1"></rect>
<rect x="1420" y="400" width="34" height="34" rx="8" fill="#F4F6F1"></rect>
<g transform="translate(1426.00 406.00) scale(0.9167)"><path d="M20,13.89A.77.77,0,0,0,19,13.73l-7,5.14v.22a.72.72,0,1,1,0,1.43v0a.74.74,0,0,0,.45-.15l7.41-5.47A.76.76,0,0,0,20,13.89Z" style="fill:#669df6"></path><path d="M12,20.52a.72.72,0,0,1,0-1.43h0v-.22L5,13.73a.76.76,0,0,0-1,.16.74.74,0,0,0,.16,1l7.41,5.47a.73.73,0,0,0,.44.15v0Z" style="fill:#aecbfa"></path><path d="M12,18.34a1.47,1.47,0,1,0,1.47,1.47A1.47,1.47,0,0,0,12,18.34Zm0,2.18a.72.72,0,1,1,.72-.71A.71.71,0,0,1,12,20.52Z" style="fill:#4285f4"></path><path d="M6,6.11a.76.76,0,0,1-.75-.75V3.48a.76.76,0,1,1,1.51,0V5.36A.76.76,0,0,1,6,6.11Z" style="fill:#aecbfa"></path><circle cx="5.98" cy="12" r="0.76" style="fill:#aecbfa"></circle><circle cx="5.98" cy="9.79" r="0.76" style="fill:#aecbfa"></circle><circle cx="5.98" cy="7.57" r="0.76" style="fill:#aecbfa"></circle><path d="M18,8.31a.76.76,0,0,1-.75-.76V5.67a.75.75,0,1,1,1.5,0V7.55A.75.75,0,0,1,18,8.31Z" style="fill:#4285f4"></path><circle cx="18.02" cy="12.01" r="0.76" style="fill:#4285f4"></circle><circle cx="18.02" cy="9.76" r="0.76" style="fill:#4285f4"></circle><circle cx="18.02" cy="3.48" r="0.76" style="fill:#4285f4"></circle><path d="M12,15a.76.76,0,0,1-.75-.75V12.34a.76.76,0,0,1,1.51,0v1.89A.76.76,0,0,1,12,15Z" style="fill:#669df6"></path><circle cx="12" cy="16.45" r="0.76" style="fill:#669df6"></circle><circle cx="12" cy="10.14" r="0.76" style="fill:#669df6"></circle><circle cx="12" cy="7.92" r="0.76" style="fill:#669df6"></circle><path d="M15,10.54a.76.76,0,0,1-.75-.75V7.91a.76.76,0,1,1,1.51,0V9.79A.76.76,0,0,1,15,10.54Z" style="fill:#4285f4"></path><circle cx="15.01" cy="5.69" r="0.76" style="fill:#4285f4"></circle><circle cx="15.01" cy="14.19" r="0.76" style="fill:#4285f4"></circle><circle cx="15.01" cy="11.97" r="0.76" style="fill:#4285f4"></circle><circle cx="8.99" cy="14.19" r="0.76" style="fill:#aecbfa"></circle><circle cx="8.99" cy="7.92" r="0.76" style="fill:#aecbfa"></circle><circle cx="8.99" cy="5.69" r="0.76" style="fill:#aecbfa"></circle><path d="M9,12.73A.76.76,0,0,1,8.24,12V10.1a.75.75,0,1,1,1.5,0V12A.75.75,0,0,1,9,12.73Z" style="fill:#aecbfa"></path></g>
<text x="1437" y="450" font-family="Funnel Sans, Arial, sans-serif" font-size="11" font-weight="500" fill="#AEB5A7" text-anchor="middle" dominant-baseline="middle">Vertex</text>
<rect x="1491" y="391" width="92" height="72" rx="5" fill="#101510" stroke="#2A2F28" stroke-width="1"></rect>
<rect x="1520" y="400" width="34" height="34" rx="8" fill="#F4F6F1"></rect>
<g transform="translate(1526.00 406.00) scale(1.3750)"><path fill="#EA4335" d="M10.313 5.376l1.887-1.5-.332-.414a5.935 5.935 0 00-5.586-1.217 5.89 5.89 0 00-3.978 4.084c-.03.113.312-.098.463-.056l2.608-.428s.127-.124.201-.205c1.16-1.266 3.126-1.432 4.465-.354l.272.09z"></path><path fill="#4285F4" d="M13.637 6.3a5.835 5.835 0 00-1.77-2.838l-1.83 1.82a3.226 3.226 0 011.193 2.564v.323c.9 0 1.63.725 1.63 1.62 0 .893-.73 1.619-1.63 1.619l-3.257-.003-.325.035v2.507l.325.053h3.257a4.234 4.234 0 004.08-2.962A4.199 4.199 0 0013.636 6.3z"></path><path fill="#34A853" d="M4.711 13.999H7.97v-2.594H4.71c-.232 0-.461-.066-.672-.161l-.458.14-1.313 1.297-.114.447a4.254 4.254 0 002.557.87z"></path><path fill="#FBBC05" d="M4.711 5.572A4.234 4.234 0 00.721 8.44a4.206 4.206 0 001.433 4.688l1.89-1.884a1.617 1.617 0 01.44-3.079 1.63 1.63 0 011.714.936l1.89-1.878A4.24 4.24 0 004.71 5.572z"></path></g>
<text x="1537" y="450" font-family="Funnel Sans, Arial, sans-serif" font-size="11" font-weight="500" fill="#AEB5A7" text-anchor="middle" dominant-baseline="middle">GCP</text>
<rect x="1291" y="471" width="92" height="72" rx="5" fill="#101510" stroke="#2A2F28" stroke-width="1"></rect>
<rect x="1320" y="480" width="34" height="34" rx="8" fill="#F4F6F1"></rect>
<g transform="translate(1326.00 486.00) scale(0.0430)"><path d="M189.08 303.228H94.587l.044-94.446h94.497l-.048 94.446z" fill="#1c1c1b" fill-rule="nonzero"></path><path d="M283.528 397.674h-94.493l.044-94.446h94.496l-.047 94.446z" fill="#1c1c1b" fill-rule="nonzero"></path><path d="M283.575 303.228H189.08l.046-94.446h94.496l-.047 94.446z" fill="#1c1c1b" fill-rule="nonzero"></path><path d="M378.07 303.228h-94.495l.044-94.446h94.498l-.047 94.446zM189.128 208.779H94.633l.044-94.448h94.498l-.047 94.448zM378.115 208.779h-94.494l.045-94.448h94.496l-.047 94.448zM94.587 303.227H.093l.044-96.017h94.496l-.046 96.017z" fill="#1c1c1b" fill-rule="nonzero"></path><path d="M94.633 208.779H.138l.046-94.448H94.68l-.047 94.448z" fill="#1c1c1b" fill-rule="nonzero"></path><path d="M94.68 115.902H.185L.23 19.885h94.498l-.047 96.017zM472.657 114.331h-94.495l.044-94.446h94.497l-.046 94.446zM94.54 399.244H.046l.044-97.588h94.497l-.047 97.588z" fill="#1c1c1b" fill-rule="nonzero"></path><path d="M94.495 492.123H0l.044-94.446H94.54l-.045 94.446zM472.563 303.228H378.07l.044-94.446h94.496l-.047 94.446zM472.61 208.779h-94.495l.044-94.448h94.498l-.047 94.448z" fill="#1c1c1b" fill-rule="nonzero"></path><path d="M472.517 397.674h-94.494l.044-94.446h94.497l-.047 94.446z" fill="#1c1c1b" fill-rule="nonzero"></path><path d="M472.47 492.121h-94.493l.044-96.017h94.496l-.047 96.017z" fill="#1c1c1b" fill-rule="nonzero"></path><path d="M228.375 303.22h-96.061l.046-94.446h96.067l-.052 94.446z" fill="#ff7000" fill-rule="nonzero"></path><path d="M322.827 397.666h-94.495l.044-96.018h94.498l-.047 96.018z" fill="#ff4900" fill-rule="nonzero"></path><path d="M324.444 303.22h-97.636l.046-94.446h97.638l-.048 94.446z" fill="#ff7000" fill-rule="nonzero"></path><path d="M418.938 303.22h-96.064l.045-94.446h96.066l-.047 94.446z" fill="#ff7000" fill-rule="nonzero"></path><path d="M228.423 208.77H132.36l.045-94.445h96.066l-.05 94.446zM418.985 208.77H322.92l.044-94.445h96.069l-.048 94.446z" fill="#ffa300" fill-rule="nonzero"></path><path d="M133.883 304.79H39.392l.044-96.017h94.496l-.049 96.017z" fill="#ff7000" fill-rule="nonzero"></path><path d="M133.929 208.77H39.437l.044-95.445h94.496l-.048 95.445z" fill="#ffa300" fill-rule="nonzero"></path><path d="M133.976 114.325H39.484l.044-94.448h94.497l-.05 94.448zM511.954 115.325h-94.493l.044-95.448h94.497l-.048 95.448z" fill="#ffce00" fill-rule="nonzero"></path><path d="M133.836 399.667H39.345l.044-96.447h94.496l-.049 96.447z" fill="#ff4900" fill-rule="nonzero"></path><path d="M133.79 492.117H39.3l.044-94.448h94.496l-.049 94.448z" fill="#ff0107" fill-rule="nonzero"></path><path d="M511.862 303.22h-94.495l.046-94.446h94.496l-.047 94.446z" fill="#ff7000" fill-rule="nonzero"></path><path d="M511.907 208.77h-94.493l.044-94.445h94.496l-.047 94.446z" fill="#ffa300" fill-rule="nonzero"></path><path d="M511.815 398.666h-94.493l.044-95.447h94.496l-.047 95.447z" fill="#ff4900" fill-rule="nonzero"></path><path d="M511.77 492.117h-94.496l.046-94.448h94.496l-.047 94.448z" fill="#ff0107" fill-rule="nonzero"></path></g>
<text x="1337" y="530" font-family="Funnel Sans, Arial, sans-serif" font-size="11" font-weight="500" fill="#AEB5A7" text-anchor="middle" dominant-baseline="middle">Mistral</text>
<rect x="1391" y="471" width="92" height="72" rx="5" fill="#101510" stroke="#2A2F28" stroke-width="1"></rect>
<rect x="1420" y="480" width="34" height="34" rx="8" fill="#F4F6F1"></rect>
<g transform="translate(1426.00 486.00) scale(0.9167)"><path d="M23.748 4.482c-.254-.124-.364.113-.512.234-.051.039-.094.09-.137.136-.372.397-.806.657-1.373.626-.829-.046-1.537.214-2.163.848-.133-.782-.575-1.248-1.247-1.548-.352-.156-.708-.311-.955-.65-.172-.241-.219-.51-.305-.774-.055-.16-.11-.323-.293-.35-.2-.031-.278.136-.356.276-.313.572-.434 1.202-.422 1.84.027 1.436.633 2.58 1.838 3.393.137.093.172.187.129.323-.082.28-.18.552-.266.833-.055.179-.137.217-.329.14a5.526 5.526 0 01-1.736-1.18c-.857-.828-1.631-1.742-2.597-2.458a11.365 11.365 0 00-.689-.471c-.985-.957.13-1.743.388-1.836.27-.098.093-.432-.779-.428-.872.004-1.67.295-2.687.684a3.055 3.055 0 01-.465.137 9.597 9.597 0 00-2.883-.102c-1.885.21-3.39 1.102-4.497 2.623C.082 8.606-.231 10.684.152 12.85c.403 2.284 1.569 4.175 3.36 5.653 1.858 1.533 3.997 2.284 6.438 2.14 1.482-.085 3.133-.284 4.994-1.86.47.234.962.327 1.78.397.63.059 1.236-.03 1.705-.128.735-.156.684-.837.419-.961-2.155-1.004-1.682-.595-2.113-.926 1.096-1.296 2.746-2.642 3.392-7.003.05-.347.007-.565 0-.845-.004-.17.035-.237.23-.256a4.173 4.173 0 001.545-.475c1.396-.763 1.96-2.015 2.093-3.517.02-.23-.004-.467-.247-.588zM11.581 18c-2.089-1.642-3.102-2.183-3.52-2.16-.392.024-.321.471-.235.763.09.288.207.486.371.739.114.167.192.416-.113.603-.673.416-1.842-.14-1.897-.167-1.361-.802-2.5-1.86-3.301-3.307-.774-1.393-1.224-2.887-1.298-4.482-.02-.386.093-.522.477-.592a4.696 4.696 0 011.529-.039c2.132.312 3.946 1.265 5.468 2.774.868.86 1.525 1.887 2.202 2.891.72 1.066 1.494 2.082 2.48 2.914.348.292.625.514.891.677-.802.09-2.14.11-3.054-.614zm1-6.44a.306.306 0 01.415-.287.302.302 0 01.2.288.306.306 0 01-.31.307.303.303 0 01-.304-.308zm3.11 1.596c-.2.081-.399.151-.59.16a1.245 1.245 0 01-.798-.254c-.274-.23-.47-.358-.552-.758a1.73 1.73 0 01.016-.588c.07-.327-.008-.537-.239-.727-.187-.156-.426-.199-.688-.199a.559.559 0 01-.254-.078c-.11-.054-.2-.19-.114-.358.028-.054.16-.186.192-.21.356-.202.767-.136 1.146.016.352.144.618.408 1.001.782.391.451.462.576.685.914.176.265.336.537.445.848.067.195-.019.354-.25.452z" fill="#4D6BFE"></path></g>
<text x="1437" y="530" font-family="Funnel Sans, Arial, sans-serif" font-size="11" font-weight="500" fill="#AEB5A7" text-anchor="middle" dominant-baseline="middle">DeepSeek</text>
<rect x="1491" y="471" width="92" height="72" rx="5" fill="#101510" stroke="#2A2F28" stroke-width="1"></rect>
<rect x="1520" y="480" width="34" height="34" rx="8" fill="#F4F6F1"></rect>
<g transform="translate(1526.00 486.00) scale(0.9167)"><path d="M12.604 1.34c.393.69.784 1.382 1.174 2.075a.18.18 0 00.157.091h5.552c.174 0 .322.11.446.327l1.454 2.57c.19.337.24.478.024.837-.26.43-.513.864-.76 1.3l-.367.658c-.106.196-.223.28-.04.512l2.652 4.637c.172.301.111.494-.043.77-.437.785-.882 1.564-1.335 2.34-.159.272-.352.375-.68.37-.777-.016-1.552-.01-2.327.016a.099.099 0 00-.081.05 575.097 575.097 0 01-2.705 4.74c-.169.293-.38.363-.725.364-.997.003-2.002.004-3.017.002a.537.537 0 01-.465-.271l-1.335-2.323a.09.09 0 00-.083-.049H4.982c-.285.03-.553-.001-.805-.092l-1.603-2.77a.543.543 0 01-.002-.54l1.207-2.12a.198.198 0 000-.197 550.951 550.951 0 01-1.875-3.272l-.79-1.395c-.16-.31-.173-.496.095-.965.465-.813.927-1.625 1.387-2.436.132-.234.304-.334.584-.335a338.3 338.3 0 012.589-.001.124.124 0 00.107-.063l2.806-4.895a.488.488 0 01.422-.246c.524-.001 1.053 0 1.583-.006L11.704 1c.341-.003.724.032.9.34zm-3.432.403a.06.06 0 00-.052.03L6.254 6.788a.157.157 0 01-.135.078H3.253c-.056 0-.07.025-.041.074l5.81 10.156c.025.042.013.062-.034.063l-2.795.015a.218.218 0 00-.2.116l-1.32 2.31c-.044.078-.021.118.068.118l5.716.008c.046 0 .08.02.104.061l1.403 2.454c.046.081.092.082.139 0l5.006-8.76.783-1.382a.055.055 0 01.096 0l1.424 2.53a.122.122 0 00.107.062l2.763-.02a.04.04 0 00.035-.02.041.041 0 000-.04l-2.9-5.086a.108.108 0 010-.113l.293-.507 1.12-1.977c.024-.041.012-.062-.035-.062H9.2c-.059 0-.073-.026-.043-.077l1.434-2.505a.107.107 0 000-.114L9.225 1.774a.06.06 0 00-.053-.031zm6.29 8.02c.046 0 .058.02.034.06l-.832 1.465-2.613 4.585a.056.056 0 01-.05.029.058.058 0 01-.05-.029L8.498 9.841c-.02-.034-.01-.052.028-.054l.216-.012 6.722-.012z" fill="url(#lobe-icons-qwen-fill)" fill-rule="nonzero"></path><defs><linearGradient id="lobe-icons-qwen-fill" x1="0%" x2="100%" y1="0%" y2="0%"><stop offset="0%" stop-color="#6336E7" stop-opacity=".84"></stop><stop offset="100%" stop-color="#6F69F7" stop-opacity=".84"></stop></linearGradient></defs></g>
<text x="1537" y="530" font-family="Funnel Sans, Arial, sans-serif" font-size="11" font-weight="500" fill="#AEB5A7" text-anchor="middle" dominant-baseline="middle">Qwen</text>
<rect x="1291" y="551" width="92" height="72" rx="5" fill="#101510" stroke="#2A2F28" stroke-width="1"></rect>
<rect x="1320" y="560" width="34" height="34" rx="8" fill="#F4F6F1"></rect>
<g transform="translate(1326.00 566.00) scale(0.9167)"><rect width="24" height="24" fill="white"></rect>
<path d="M18.6885 6C20.535 6.00003 21.9998 7.52947 22 9.37598V15.3008C22.0031 15.7364 21.9192 16.1682 21.7539 16.5713C21.5886 16.9745 21.3452 17.3412 21.0371 17.6494C20.729 17.9576 20.3622 18.2018 19.959 18.3672C19.556 18.5325 19.1241 18.6163 18.6885 18.6133H14.293L15.376 17.084L18.5605 16.0654C19.1339 15.8738 19.5156 15.3 19.5156 14.7275V9.88672C19.5156 9.31422 19.1339 8.74049 18.5605 8.54883L15.375 7.5293L14.292 6H18.6885ZM8.625 7.52832L5.43945 8.54785C4.86612 8.73952 4.48438 9.31339 4.48438 9.88672L4.4834 14.7266C4.48352 15.2998 4.86704 15.8728 5.43945 16.0645L8.62402 17.0195L9.70801 18.5488H5.31152C4.8759 18.5518 4.44406 18.4681 4.04102 18.3027C3.63782 18.1373 3.27102 17.8932 2.96289 17.585C2.65498 17.2769 2.41137 16.9108 2.24609 16.5078C2.08078 16.1046 1.9969 15.6721 2 15.2363V9.375C2.00024 7.52857 3.46519 6.00005 5.3125 6H9.70703L8.625 7.52832ZM15.376 11.4775V13.0068H8.6875V11.4775H15.376Z" fill="#FF6A00"></path></g>
<text x="1337" y="610" font-family="Funnel Sans, Arial, sans-serif" font-size="11" font-weight="500" fill="#AEB5A7" text-anchor="middle" dominant-baseline="middle">DashScope</text>
<rect x="1391" y="551" width="92" height="72" rx="5" fill="#101510" stroke="#2A2F28" stroke-width="1"></rect>
<rect x="1420" y="560" width="34" height="34" rx="8" fill="#F4F6F1"></rect>
<g transform="translate(1426.00 566.00) scale(0.9167)"><rect width="24" height="24" fill="white"></rect>
<path d="M18.6885 6C20.535 6.00003 21.9998 7.52947 22 9.37598V15.3008C22.0031 15.7364 21.9192 16.1682 21.7539 16.5713C21.5886 16.9745 21.3452 17.3412 21.0371 17.6494C20.729 17.9576 20.3622 18.2018 19.959 18.3672C19.556 18.5325 19.1241 18.6163 18.6885 18.6133H14.293L15.376 17.084L18.5605 16.0654C19.1339 15.8738 19.5156 15.3 19.5156 14.7275V9.88672C19.5156 9.31422 19.1339 8.74049 18.5605 8.54883L15.375 7.5293L14.292 6H18.6885ZM8.625 7.52832L5.43945 8.54785C4.86612 8.73952 4.48438 9.31339 4.48438 9.88672L4.4834 14.7266C4.48352 15.2998 4.86704 15.8728 5.43945 16.0645L8.62402 17.0195L9.70801 18.5488H5.31152C4.8759 18.5518 4.44406 18.4681 4.04102 18.3027C3.63782 18.1373 3.27102 17.8932 2.96289 17.585C2.65498 17.2769 2.41137 16.9108 2.24609 16.5078C2.08078 16.1046 1.9969 15.6721 2 15.2363V9.375C2.00024 7.52857 3.46519 6.00005 5.3125 6H9.70703L8.625 7.52832ZM15.376 11.4775V13.0068H8.6875V11.4775H15.376Z" fill="#FF6A00"></path></g>
<text x="1437" y="610" font-family="Funnel Sans, Arial, sans-serif" font-size="11" font-weight="500" fill="#AEB5A7" text-anchor="middle" dominant-baseline="middle">Alibaba Cloud</text>
<rect x="1491" y="551" width="92" height="72" rx="5" fill="#101510" stroke="#2A2F28" stroke-width="1"></rect>
<rect x="1520" y="560" width="34" height="34" rx="8" fill="#F4F6F1"></rect>
<g transform="translate(1526.00 566.00) scale(0.9167)"><path d="M12.6797 2.00072C14.3665 1.98884 16.0773 2.39303 17.6572 3.22533L16.6357 5.16283C15.3766 4.49708 14.0218 4.18822 12.6914 4.18822C11.171 4.1883 9.67383 4.59219 8.36719 5.36497C7.06049 6.126 5.94388 7.24464 5.18359 8.68333C4.50663 9.93173 4.19824 11.2756 4.19824 12.6072C4.19831 14.1171 4.60198 15.615 5.37402 16.9109C6.14613 18.2069 7.27457 19.313 8.71191 20.074L7.69043 22.0007C5.88485 21.0495 4.45949 19.6581 3.48535 18.0173C2.51128 16.3884 2.00007 14.5096 2 12.6072C2 10.9425 2.40375 9.24135 3.23535 7.6599C4.18569 5.8645 5.59991 4.43749 7.23926 3.47435C8.87847 2.51138 10.7673 2.00077 12.6797 2.00072ZM12.8223 7.16087C11.7057 7.16094 10.6719 7.50602 9.80469 8.08861C8.93769 8.67123 8.24854 9.50357 7.84473 10.4665C7.57156 11.1086 7.41699 11.822 7.41699 12.571C7.41699 13.6887 7.76165 14.7235 8.34375 15.5915C8.92584 16.4595 9.74564 17.1492 10.7197 17.5535C11.3611 17.8269 12.0739 17.9811 12.8223 17.9812V20.1687C11.2424 20.1686 9.78098 19.693 8.56934 18.8845C7.3578 18.0641 6.39551 16.911 5.81348 15.5437C5.43332 14.6281 5.21973 13.6291 5.21973 12.5827C5.21976 11.0132 5.69483 9.53887 6.52637 8.31419C7.34603 7.10138 8.49817 6.14976 9.86426 5.56712C10.7789 5.18667 11.777 4.97342 12.8223 4.97337V7.16087Z" fill="#F05A28"></path>
<path fill-rule="evenodd" clip-rule="evenodd" d="M14.6046 10.8469C14.3551 10.5853 14.0818 10.3713 13.8086 10.2167C13.5354 10.0621 13.2503 9.97889 12.9533 9.97889C12.5493 9.97889 12.2049 10.0502 11.8841 10.1929C11.5752 10.3356 11.302 10.5258 11.0763 10.7756C10.8506 11.0133 10.6842 11.2987 10.5655 11.6079C10.4467 11.917 10.3991 12.25 10.3991 12.5829C10.3991 12.9158 10.4585 13.2488 10.5655 13.5579C10.6842 13.8671 10.8506 14.1525 11.0763 14.3903C11.302 14.6281 11.5634 14.8303 11.8841 14.9729C12.193 15.1156 12.5493 15.1869 12.9533 15.1869C13.2859 15.1869 13.6067 15.1156 13.8918 14.9848C14.1769 14.8421 14.4263 14.64 14.6283 14.3784L16.0776 15.9361C15.8638 16.1501 15.6143 16.3403 15.3292 16.4949C15.0441 16.6495 14.759 16.7803 14.4739 16.8754C14.1888 16.9706 13.9036 17.0419 13.6423 17.0776C13.381 17.1251 13.1434 17.137 12.9533 17.137C12.2999 17.137 11.6821 17.03 11.1119 16.816C10.5298 16.6019 10.0309 16.2928 9.61509 15.8885C9.18741 15.4961 8.85477 15.0086 8.60531 14.4497C8.35584 13.8909 8.23703 13.2607 8.23703 12.5829C8.23703 11.8933 8.35584 11.2749 8.60531 10.7161C8.85477 10.1572 9.18741 9.68161 9.61509 9.27731C10.0428 8.88494 10.5417 8.57578 11.1119 8.34987C11.694 8.13584 12.3118 8.02882 12.9533 8.02882C13.5116 8.02882 14.0699 8.13584 14.6283 8.34987C15.1867 8.5639 15.6856 8.89682 16.1014 9.34868L14.6046 10.8469Z" fill="black"></path></g>
<text x="1537" y="610" font-family="Funnel Sans, Arial, sans-serif" font-size="11" font-weight="500" fill="#AEB5A7" text-anchor="middle" dominant-baseline="middle">Cerebras</text>
<rect x="1291" y="631" width="92" height="72" rx="5" fill="#101510" stroke="#2A2F28" stroke-width="1"></rect>
<rect x="1320" y="640" width="34" height="34" rx="8" fill="#F4F6F1"></rect>
<g transform="translate(1326.00 646.00) scale(1.2222)"><path d="M1.155,4.93v.512L9,9.868l7.006-3.957,0,1.6L9,11.491,1.55,7.258l-.395.22V10.54L9,14.955l7.006-3.942,0,1.586L9,16.581,1.55,12.347l-.395.22v.519L9,17.5l7.845-4.414V10.021l-.4-.218L9,14.036,1.992,10.054V8.476L9,12.414,16.845,8V4.978l-.4-.219L9,8.993,2.352,5.215,9,1.46l5.476,3.094.479-.269V3.863L9,.5Z" fill="#ff3621"></path></g>
<text x="1337" y="690" font-family="Funnel Sans, Arial, sans-serif" font-size="11" font-weight="500" fill="#AEB5A7" text-anchor="middle" dominant-baseline="middle">Databricks</text>
<rect x="1391" y="631" width="92" height="72" rx="5" fill="#101510" stroke="#2A2F28" stroke-width="1"></rect>
<rect x="1420" y="640" width="34" height="34" rx="8" fill="#F4F6F1"></rect>
<g transform="translate(1426.00 646.00) scale(0.9167)"><path d="M7.905 1.09c.216.085.411.225.588.41.295.306.544.744.734 1.263.191.522.315 1.1.362 1.68a5.054 5.054 0 012.049-.636l.051-.004c.87-.07 1.73.087 2.48.474.101.053.2.11.297.17.05-.569.172-1.134.36-1.644.19-.52.439-.957.733-1.264a1.67 1.67 0 01.589-.41c.257-.1.53-.118.796-.042.401.114.745.368 1.016.737.248.337.434.769.561 1.287.23.934.27 2.163.115 3.645l.053.04.026.019c.757.576 1.284 1.397 1.563 2.35.435 1.487.216 3.155-.534 4.088l-.018.021.002.003c.417.762.67 1.567.724 2.4l.002.03c.064 1.065-.2 2.137-.814 3.19l-.007.01.01.024c.472 1.157.62 2.322.438 3.486l-.006.039a.651.651 0 01-.747.536.648.648 0 01-.54-.742c.167-1.033.01-2.069-.48-3.123a.643.643 0 01.04-.617l.004-.006c.604-.924.854-1.83.8-2.72-.046-.779-.325-1.544-.8-2.273a.644.644 0 01.18-.886l.009-.006c.243-.159.467-.565.58-1.12a4.229 4.229 0 00-.095-1.974c-.205-.7-.58-1.284-1.105-1.683-.595-.454-1.383-.673-2.38-.61a.653.653 0 01-.632-.371c-.314-.665-.772-1.141-1.343-1.436a3.288 3.288 0 00-1.772-.332c-1.245.099-2.343.801-2.67 1.686a.652.652 0 01-.61.425c-1.067.002-1.893.252-2.497.703-.522.39-.878.935-1.066 1.588a4.07 4.07 0 00-.068 1.886c.112.558.331 1.02.582 1.269l.008.007c.212.207.257.53.109.785-.36.622-.629 1.549-.673 2.44-.05 1.018.186 1.902.719 2.536l.016.019a.643.643 0 01.095.69c-.576 1.236-.753 2.252-.562 3.052a.652.652 0 01-1.269.298c-.243-1.018-.078-2.184.473-3.498l.014-.035-.008-.012a4.339 4.339 0 01-.598-1.309l-.005-.019a5.764 5.764 0 01-.177-1.785c.044-.91.278-1.842.622-2.59l.012-.026-.002-.002c-.293-.418-.51-.953-.63-1.545l-.005-.024a5.352 5.352 0 01.093-2.49c.262-.915.777-1.701 1.536-2.269.06-.045.123-.09.186-.132-.159-1.493-.119-2.73.112-3.67.127-.518.314-.95.562-1.287.27-.368.614-.622 1.015-.737.266-.076.54-.059.797.042zm4.116 9.09c.936 0 1.8.313 2.446.855.63.527 1.005 1.235 1.005 1.94 0 .888-.406 1.58-1.133 2.022-.62.375-1.451.557-2.403.557-1.009 0-1.871-.259-2.493-.734-.617-.47-.963-1.13-.963-1.845 0-.707.398-1.417 1.056-1.946.668-.537 1.55-.849 2.485-.849zm0 .896a3.07 3.07 0 00-1.916.65c-.461.37-.722.835-.722 1.25 0 .428.21.829.61 1.134.455.347 1.124.548 1.943.548.799 0 1.473-.147 1.932-.426.463-.28.7-.686.7-1.257 0-.423-.246-.89-.683-1.256-.484-.405-1.14-.643-1.864-.643zm.662 1.21l.004.004c.12.151.095.37-.056.49l-.292.23v.446a.375.375 0 01-.376.373.375.375 0 01-.376-.373v-.46l-.271-.218a.347.347 0 01-.052-.49.353.353 0 01.494-.051l.215.172.22-.174a.353.353 0 01.49.051zm-5.04-1.919c.478 0 .867.39.867.871a.87.87 0 01-.868.871.87.87 0 01-.867-.87.87.87 0 01.867-.872zm8.706 0c.48 0 .868.39.868.871a.87.87 0 01-.868.871.87.87 0 01-.867-.87.87.87 0 01.867-.872zM7.44 2.3l-.003.002a.659.659 0 00-.285.238l-.005.006c-.138.189-.258.467-.348.832-.17.692-.216 1.631-.124 2.782.43-.128.899-.208 1.404-.237l.01-.001.019-.034c.046-.082.095-.161.148-.239.123-.771.022-1.692-.253-2.444-.134-.364-.297-.65-.453-.813a.628.628 0 00-.107-.09L7.44 2.3zm9.174.04l-.002.001a.628.628 0 00-.107.09c-.156.163-.32.45-.453.814-.29.794-.387 1.776-.23 2.572l.058.097.008.014h.03a5.184 5.184 0 011.466.212c.086-1.124.038-2.043-.128-2.722-.09-.365-.21-.643-.349-.832l-.004-.006a.659.659 0 00-.285-.239h-.004z"></path></g>
<text x="1437" y="690" font-family="Funnel Sans, Arial, sans-serif" font-size="11" font-weight="500" fill="#AEB5A7" text-anchor="middle" dominant-baseline="middle">Ollama</text>
<rect x="1491" y="631" width="92" height="72" rx="5" fill="#101510" stroke="#2A2F28" stroke-width="1"></rect>
<rect x="1520" y="640" width="34" height="34" rx="8" fill="#F4F6F1"></rect>
<g transform="translate(1526.00 646.00) scale(0.9167)"><path d="M0 4.973h9.324V23L0 4.973z" fill="#FDB515"></path><path d="M13.986 4.351L22.378 0l-6.216 23H9.324l4.662-18.649z" fill="#30A2FF"></path></g>
<text x="1537" y="690" font-family="Funnel Sans, Arial, sans-serif" font-size="11" font-weight="500" fill="#AEB5A7" text-anchor="middle" dominant-baseline="middle">vLLM</text>
<rect x="1291" y="785" width="92" height="72" rx="5" fill="#101510" stroke="#2A2F28" stroke-width="1"></rect>
<rect x="1320" y="794" width="34" height="34" rx="8" fill="#F4F6F1"></rect>
<g transform="translate(1326.00 800.44) scale(0.8800)"><path d="m12.301 0h.093c2.242 0 4.34.613 6.137 1.68l-.055-.031c1.871 1.094 3.386 2.609 4.449 4.422l.031.058c1.04 1.769 1.654 3.896 1.654 6.166 0 5.406-3.483 10-8.327 11.658l-.087.026c-.063.02-.135.031-.209.031-.162 0-.312-.054-.433-.144l.002.001c-.128-.115-.208-.281-.208-.466 0-.005 0-.01 0-.014v.001q0-.048.008-1.226t.008-2.154c.007-.075.011-.161.011-.249 0-.792-.323-1.508-.844-2.025.618-.061 1.176-.163 1.718-.305l-.076.017c.573-.16 1.073-.373 1.537-.642l-.031.017c.508-.28.938-.636 1.292-1.058l.006-.007c.372-.476.663-1.036.84-1.645l.009-.035c.209-.683.329-1.468.329-2.281 0-.045 0-.091-.001-.136v.007c0-.022.001-.047.001-.072 0-1.248-.482-2.383-1.269-3.23l.003.003c.168-.44.265-.948.265-1.479 0-.649-.145-1.263-.404-1.814l.011.026c-.115-.022-.246-.035-.381-.035-.334 0-.649.078-.929.216l.012-.005c-.568.21-1.054.448-1.512.726l.038-.022-.609.384c-.922-.264-1.981-.416-3.075-.416s-2.153.152-3.157.436l.081-.02q-.256-.176-.681-.433c-.373-.214-.814-.421-1.272-.595l-.066-.022c-.293-.154-.64-.244-1.009-.244-.124 0-.246.01-.364.03l.013-.002c-.248.524-.393 1.139-.393 1.788 0 .531.097 1.04.275 1.509l-.01-.029c-.785.844-1.266 1.979-1.266 3.227 0 .025 0 .051.001.076v-.004c-.001.039-.001.084-.001.13 0 .809.12 1.591.344 2.327l-.015-.057c.189.643.476 1.202.85 1.693l-.009-.013c.354.435.782.793 1.267 1.062l.022.011c.432.252.933.465 1.46.614l.046.011c.466.125 1.024.227 1.595.284l.046.004c-.431.428-.718 1-.784 1.638l-.001.012c-.207.101-.448.183-.699.236l-.021.004c-.256.051-.549.08-.85.08-.022 0-.044 0-.066 0h.003c-.394-.008-.756-.136-1.055-.348l.006.004c-.371-.259-.671-.595-.881-.986l-.007-.015c-.198-.336-.459-.614-.768-.827l-.009-.006c-.225-.169-.49-.301-.776-.38l-.016-.004-.32-.048c-.023-.002-.05-.003-.077-.003-.14 0-.273.028-.394.077l.007-.003q-.128.072-.08.184c.039.086.087.16.145.225l-.001-.001c.061.072.13.135.205.19l.003.002.112.08c.283.148.516.354.693.603l.004.006c.191.237.359.505.494.792l.01.024.16.368c.135.402.38.738.7.981l.005.004c.3.234.662.402 1.057.478l.016.002c.33.064.714.104 1.106.112h.007c.045.002.097.002.15.002.261 0 .517-.021.767-.062l-.027.004.368-.064q0 .609.008 1.418t.008.873v.014c0 .185-.08.351-.208.466h-.001c-.119.089-.268.143-.431.143-.075 0-.147-.011-.214-.032l.005.001c-4.929-1.689-8.409-6.283-8.409-11.69 0-2.268.612-4.393 1.681-6.219l-.032.058c1.094-1.871 2.609-3.386 4.422-4.449l.058-.031c1.739-1.034 3.835-1.645 6.073-1.645h.098-.005zm-7.64 17.666q.048-.112-.112-.192-.16-.048-.208.032-.048.112.112.192.144.096.208-.032zm.497.545q.112-.08-.032-.256-.16-.144-.256-.048-.112.08.032.256.159.157.256.047zm.48.72q.144-.112 0-.304-.128-.208-.272-.096-.144.08 0 .288t.272.112zm.672.673q.128-.128-.064-.304-.192-.192-.32-.048-.144.128.064.304.192.192.32.044zm.913.4q.048-.176-.208-.256-.24-.064-.304.112t.208.24q.24.097.304-.096zm1.009.08q0-.208-.272-.176-.256 0-.256.176 0 .208.272.176.256.001.256-.175zm.929-.16q-.032-.176-.288-.144-.256.048-.224.24t.288.128.225-.224z"></path></g>
<text x="1337" y="844" font-family="Funnel Sans, Arial, sans-serif" font-size="11" font-weight="500" fill="#AEB5A7" text-anchor="middle" dominant-baseline="middle">GitHub</text>
<rect x="1391" y="785" width="92" height="72" rx="5" fill="#101510" stroke="#2A2F28" stroke-width="1"></rect>
<rect x="1420" y="794" width="34" height="34" rx="8" fill="#F4F6F1"></rect>
<g transform="translate(1426.00 800.00) scale(0.1753)"><path fill="#E01E5A" d="M26.5 79.4c0 7.3-5.9 13.2-13.2 13.2C6 92.6.1 86.7.1 79.4c0-7.3 5.9-13.2 13.2-13.2h13.2zm6.6 0c0-7.3 5.9-13.2 13.2-13.2 7.3 0 13.2 5.9 13.2 13.2v33c0 7.3-5.9 13.2-13.2 13.2-7.3 0-13.2-5.9-13.2-13.2z"></path><path fill="#36C5F0" d="M46.3 26.4c-7.3 0-13.2-5.9-13.2-13.2C33.1 5.9 39 0 46.3 0c7.3 0 13.2 5.9 13.2 13.2v13.2zm0 6.7c7.3 0 13.2 5.9 13.2 13.2 0 7.3-5.9 13.2-13.2 13.2H13.2C5.9 59.5 0 53.6 0 46.3 0 39 5.9 33.1 13.2 33.1z"></path><path fill="#2EB67D" d="M99.2 46.3c0-7.3 5.9-13.2 13.2-13.2 7.3 0 13.2 5.9 13.2 13.2 0 7.3-5.9 13.2-13.2 13.2H99.2zm-6.6 0c0 7.3-5.9 13.2-13.2 13.2-7.3 0-13.2-5.9-13.2-13.2V13.2C66.2 5.9 72.1 0 79.4 0c7.3 0 13.2 5.9 13.2 13.2z"></path><path fill="#ECB22E" d="M79.4 99.2c7.3 0 13.2 5.9 13.2 13.2 0 7.3-5.9 13.2-13.2 13.2-7.3 0-13.2-5.9-13.2-13.2V99.2zm0-6.6c-7.3 0-13.2-5.9-13.2-13.2 0-7.3 5.9-13.2 13.2-13.2h33.1c7.3 0 13.2 5.9 13.2 13.2 0 7.3-5.9 13.2-13.2 13.2z"></path></g>
<text x="1437" y="844" font-family="Funnel Sans, Arial, sans-serif" font-size="11" font-weight="500" fill="#AEB5A7" text-anchor="middle" dominant-baseline="middle">Slack</text>
<rect x="1491" y="785" width="92" height="72" rx="5" fill="#101510" stroke="#2A2F28" stroke-width="1"></rect>
<rect x="1520" y="794" width="34" height="34" rx="8" fill="#F4F6F1"></rect>
<g transform="translate(1526.00 801.17) scale(0.2520)">&#x9;<path d="m6.6 66.85 3.85 6.65c.8 1.4 1.95 2.5 3.3 3.3l13.75-23.8h-27.5c0 1.55.4 3.1 1.2 4.5z" fill="#0066da"></path>
&#x9;<path d="m43.65 25-13.75-23.8c-1.35.8-2.5 1.9-3.3 3.3l-25.4 44a9.06 9.06 0 0 0 -1.2 4.5h27.5z" fill="#00ac47"></path>
&#x9;<path d="m73.55 76.8c1.35-.8 2.5-1.9 3.3-3.3l1.6-2.75 7.65-13.25c.8-1.4 1.2-2.95 1.2-4.5h-27.502l5.852 11.5z" fill="#ea4335"></path>
&#x9;<path d="m43.65 25 13.75-23.8c-1.35-.8-2.9-1.2-4.5-1.2h-18.5c-1.6 0-3.15.45-4.5 1.2z" fill="#00832d"></path>
&#x9;<path d="m59.8 53h-32.3l-13.75 23.8c1.35.8 2.9 1.2 4.5 1.2h50.8c1.6 0 3.15-.45 4.5-1.2z" fill="#2684fc"></path>
&#x9;<path d="m73.4 26.5-12.7-22c-.8-1.4-1.95-2.5-3.3-3.3l-13.75 23.8 16.15 28h27.45c0-1.55-.4-3.1-1.2-4.5z" fill="#ffba00"></path></g>
<text x="1537" y="844" font-family="Funnel Sans, Arial, sans-serif" font-size="11" font-weight="500" fill="#AEB5A7" text-anchor="middle" dominant-baseline="middle">Drive</text>
<rect x="1291" y="865" width="92" height="72" rx="5" fill="#101510" stroke="#2A2F28" stroke-width="1"></rect>
<rect x="1320" y="874" width="34" height="34" rx="8" fill="#F4F6F1"></rect>
<g transform="translate(1326.00 880.00) scale(0.2200)"><path d="M6.017 4.313l55.333 -4.087c6.797 -0.583 8.543 -0.19 12.817 2.917l17.663 12.443c2.913 2.14 3.883 2.723 3.883 5.053v68.243c0 4.277 -1.553 6.807 -6.99 7.193L24.467 99.967c-4.08 0.193 -6.023 -0.39 -8.16 -3.113L3.3 79.94c-2.333 -3.113 -3.3 -5.443 -3.3 -8.167V11.113c0 -3.497 1.553 -6.413 6.017 -6.8z" fill="#fff"></path>
  <path fill-rule="evenodd" clip-rule="evenodd" d="M61.35 0.227l-55.333 4.087C1.553 4.7 0 7.617 0 11.113v60.66c0 2.723 0.967 5.053 3.3 8.167l13.007 16.913c2.137 2.723 4.08 3.307 8.16 3.113l64.257 -3.89c5.433 -0.387 6.99 -2.917 6.99 -7.193V20.64c0 -2.21 -0.873 -2.847 -3.443 -4.733L74.167 3.143c-4.273 -3.107 -6.02 -3.5 -12.817 -2.917zM25.92 19.523c-5.247 0.353 -6.437 0.433 -9.417 -1.99L8.927 11.507c-0.77 -0.78 -0.383 -1.753 1.557 -1.947l53.193 -3.887c4.467 -0.39 6.793 1.167 8.54 2.527l9.123 6.61c0.39 0.197 1.36 1.36 0.193 1.36l-54.933 3.307 -0.68 0.047zM19.803 88.3V30.367c0 -2.53 0.777 -3.697 3.103 -3.893L86 22.78c2.14 -0.193 3.107 1.167 3.107 3.693v57.547c0 2.53 -0.39 4.67 -3.883 4.863l-60.377 3.5c-3.493 0.193 -5.043 -0.97 -5.043 -4.083zm59.6 -54.827c0.387 1.75 0 3.5 -1.75 3.7l-2.91 0.577v42.773c-2.527 1.36 -4.853 2.137 -6.797 2.137 -3.107 0 -3.883 -0.973 -6.21 -3.887l-19.03 -29.94v28.967l6.02 1.363s0 3.5 -4.857 3.5l-13.39 0.777c-0.39 -0.78 0 -2.723 1.357 -3.11l3.497 -0.97v-38.3L30.48 40.667c-0.39 -1.75 0.58 -4.277 3.3 -4.473l14.367 -0.967 19.8 30.327v-26.83l-5.047 -0.58c-0.39 -2.143 1.163 -3.7 3.103 -3.89l13.4 -0.78z" fill="#000"></path></g>
<text x="1337" y="924" font-family="Funnel Sans, Arial, sans-serif" font-size="11" font-weight="500" fill="#AEB5A7" text-anchor="middle" dominant-baseline="middle">Notion</text>
<rect x="1391" y="865" width="92" height="72" rx="5" fill="#101510" stroke="#2A2F28" stroke-width="1"></rect>
<rect x="1420" y="874" width="34" height="34" rx="8" fill="#F4F6F1"></rect>
<g transform="translate(1426.00 880.00) scale(0.1719)"><defs><linearGradient id="jira-original-a" gradientUnits="userSpaceOnUse" x1="22.034" y1="9.773" x2="17.118" y2="14.842" gradientTransform="scale(4)"><stop offset=".176" stop-color="#0052cc"></stop><stop offset="1" stop-color="#2684ff"></stop></linearGradient><linearGradient id="jira-original-b" gradientUnits="userSpaceOnUse" x1="16.641" y1="15.564" x2="10.957" y2="21.094" gradientTransform="scale(4)"><stop offset=".176" stop-color="#0052cc"></stop><stop offset="1" stop-color="#2684ff"></stop></linearGradient></defs><path d="M108.023 16H61.805c0 11.52 9.324 20.848 20.847 20.848h8.5v8.226c0 11.52 9.328 20.848 20.848 20.848V19.977A3.98 3.98 0 00108.023 16zm0 0" fill="#2684ff"></path><path d="M85.121 39.04H38.902c0 11.519 9.325 20.847 20.844 20.847h8.504v8.226c0 11.52 9.328 20.848 20.848 20.848V43.016a3.983 3.983 0 00-3.977-3.977zm0 0" fill="url(#jira-original-a)"></path><path d="M62.219 62.078H16c0 11.524 9.324 20.848 20.848 20.848h8.5v8.23c0 11.52 9.328 20.844 20.847 20.844V66.059a3.984 3.984 0 00-3.976-3.98zm0 0" fill="url(#jira-original-b)"></path></g>
<text x="1437" y="924" font-family="Funnel Sans, Arial, sans-serif" font-size="11" font-weight="500" fill="#AEB5A7" text-anchor="middle" dominant-baseline="middle">Jira</text>
<rect x="1491" y="865" width="92" height="72" rx="5" fill="#101510" stroke="#2A2F28" stroke-width="1"></rect>
<rect x="1520" y="874" width="34" height="34" rx="8" fill="#F4F6F1"></rect>
<g transform="translate(1526.00 880.00) scale(0.9167)"><desc>
    Playwright Streamline Icon: https://streamlinehq.com
  </desc>
  <path fill="#2d4552" d="M7.99585 13.141725c-0.87725 0.248975 -1.452775 0.685475 -1.8319 1.12165 0.363125 -0.317775 0.849525 -0.609425 1.505675 -0.795425 0.6711 -0.1902 1.243625 -0.188825 1.7167 -0.09755v-0.369925c-0.40355 -0.0369 -0.866225 -0.0075 -1.390475 0.14125Zm-1.872 -3.109775 -3.25795 0.858325s0.059375 0.083875 0.1693 0.195775l2.76235 -0.727875s-0.03915 0.5044 -0.379075 0.9556c0.643 -0.486475 0.705375 -1.281825 0.705375 -1.281825Zm2.727125 7.65675C4.26615 18.923575 1.8404825 13.61025 1.1060875 10.852425c-0.3393 -1.273 -0.487415 -2.2371 -0.5268925 -2.859275 -0.0042425 -0.0646 -0.0022825 -0.11905 0.002285 -0.16895 -0.237835 0.01435 -0.3517015 0.137975 -0.328535 0.49525 0.0394775 0.621825 0.187595 1.585875 0.526895 2.859275C1.5139075 13.936125 3.9399 19.24945 8.52475 18.0146c0.99795 -0.26885 1.747675 -0.758525 2.310475 -1.383625 -0.51875 0.468525 -1.168 0.8375 -1.98425 1.057725Zm0.861575 -10.90855v0.3263h1.79835c-0.0369 -0.115525 -0.074075 -0.219625 -0.110975 -0.3263h-1.687375Z" stroke-width="0.25"></path>
  <path fill="#2d4552" d="M11.9129 9.46735c0.80875 0.229675 1.2365 0.7967 1.462575 1.2985l0.90175 0.2561s-0.123 -1.756175 -1.711525 -2.2074c-1.486075 -0.422225 -2.400575 0.8257 -2.5118 0.9872 0.4323 -0.308 1.063575 -0.56015 1.859 -0.3344Zm7.178175 1.3066c-1.487425 -0.424125 -2.401575 0.8264 -2.511175 0.985625 0.432625 -0.307625 1.063575 -0.559875 1.85865 -0.3331 0.80745 0.23005 1.23485 0.796375 1.461625 1.298525l0.90305 0.25705s-0.125 -1.756525 -1.71215 -2.2081Zm-0.8959 4.6305 -7.501475 -2.097125s0.0812 0.411725 0.3928 0.94485l6.3159 1.765675c0.519975 -0.30085 0.792775 -0.6134 0.792775 -0.6134ZM12.994375 19.918475C7.054675 18.326 7.77275 10.758025 8.733875 7.171825c0.395725 -1.4779 0.802575 -2.576375 1.13995 -3.312725 -0.2013 -0.041425 -0.368025 0.0646 -0.532775 0.39965 -0.358225 0.726575 -0.8163 1.90955 -1.259625 3.5656 -0.96085 3.586125 -1.67895 11.15385 4.2605 12.746325 2.79955 0.75 4.980475 -0.3899 6.60625 -2.18005 -1.543175 1.3977 -3.513425 2.181325 -5.9538 1.52785Z" stroke-width="0.25"></path>
  <path fill="#e2574c" d="M9.7126 15.915175V14.388l-4.243175 1.2032s0.313525 -1.82175 2.526475 -2.4495c0.6711 -0.1902 1.2437 -0.1889 1.7167 -0.09755V6.780125h2.124575c-0.231325 -0.714825 -0.4551 -1.26515 -0.64305 -1.64755 -0.310925 -0.632925 -0.62965 -0.21335 -1.35325 0.39185 -0.50965 0.425775 -1.797675 1.33405 -3.7359 1.85635 -1.938275 0.522625 -3.50525 0.384025 -4.15906 0.2708 -0.9268825 -0.1599 -1.4116925 -0.36345 -1.3663375 0.34155 0.03947 0.621825 0.187595 1.58595 0.5268925 2.859275C1.8405325 13.609875 4.266525 18.9232 8.85135 17.68835c1.197625 -0.3227 2.04295 -0.960525 2.6289 -1.7735h-1.76765v0.000325ZM2.865625 10.89025l3.258275 -0.858325s-0.094975 1.25345 -1.31645 1.57545c-1.2218 0.321675 -1.941825 -0.717125 -1.941825 -0.717125Z" stroke-width="0.25"></path>
  <path fill="#2ead33" d="M21.975075 6.8525c-0.84695 0.148475 -2.878875 0.33345 -5.389975 -0.339625 -2.5118 -0.672675 -4.17835 -1.849175 -4.838625 -2.402175 -0.936 -0.783975 -1.347725 -1.328825 -1.752925 -0.5047 -0.358225 0.726875 -0.816325 1.909875 -1.259725 3.565925 -0.960775 3.586125 -1.67885 11.15385 4.260525 12.7463 5.938125 1.591125 9.09945 -5.322175 10.0603 -8.908625 0.4434 -1.655725 0.637825 -2.9095 0.691325 -3.717925 0.061 -0.915775 -0.568025 -0.64995 -1.7709 -0.439175ZM10.0418 9.81945s0.936 -1.45575 2.523525 -1.00455c1.588525 0.451225 1.711525 2.207425 1.711525 2.207425l-4.23505 -1.202875ZM13.917 16.352c-2.79235 -0.817975 -3.223 -3.04465 -3.223 -3.04465l7.501125 2.0972c0 -0.00035 -1.5141 1.755175 -4.278125 0.94745Zm2.6521 -4.57605s0.9347 -1.45475 2.521925 -1.00225c1.587175 0.4519 1.71215 2.2081 1.71215 2.2081l-4.234075 -1.20585Z" stroke-width="0.25"></path>
  <path fill="#d65348" d="M8.2299 14.808525 5.4695 15.590875s0.29985 -1.708225 2.33335 -2.385175l-1.563075 -5.865975 -0.135075 0.04105c-1.93825 0.5227 -3.505225 0.384025 -4.15903 0.2708 -0.9268775 -0.159825 -1.411685 -0.36345 -1.3663375 0.341625 0.0394775 0.621825 0.187595 1.585875 0.5268925 2.85925 0.7340675 2.757425 3.160075 8.07075 7.744875 6.8359l0.135075 -0.042425 -0.756275 -2.8374ZM2.8657 10.8903l3.258275 -0.858375s-0.094975 1.25345 -1.316425 1.57545c-1.221825 0.321675 -1.94185 -0.717075 -1.94185 -0.717075Z" stroke-width="0.25"></path>
  <path fill="#1d8d22" d="m14.04295 16.382625 -0.1263 -0.0307c-2.792325 -0.8179 -3.223 -3.044575 -3.223 -3.044575l3.86805 1.0812 2.047825 -7.86915 -0.024775 -0.006525c-2.5118 -0.672675 -4.17825 -1.849175 -4.838625 -2.402175 -0.936 -0.783975 -1.347725 -1.328825 -1.752925 -0.5047 -0.357875 0.726875 -0.815975 1.909875 -1.259375 3.565925 -0.960775 3.586125 -1.67885 11.15385 4.260525 12.74625l0.121725 0.027425 0.926875 -3.562975ZM10.0418 9.819475s0.936 -1.455775 2.523525 -1.004575c1.588525 0.451225 1.711525 2.207425 1.711525 2.207425l-4.23505 -1.20285Z" stroke-width="0.25"></path>
  <path fill="#c04b41" d="m8.37055 14.7683 -0.740275 0.2101c0.174875 0.9859 0.483125 1.93205 0.966975 2.7679 0.0842 -0.0186 0.167725 -0.034575 0.2535 -0.058075 0.2248 -0.06065 0.43325 -0.13575 0.63395 -0.21765 -0.5406 -0.802225 -0.898225 -1.726175 -1.11415 -2.702275Zm-0.289075 -6.9439c-0.3804 1.419825 -0.720725 3.46345 -0.62705 5.51325 0.167675 -0.072775 0.3448 -0.140575 0.54155 -0.1964l0.13705 -0.030625c-0.167075 -2.189525 0.194075 -4.4207 0.600925 -5.93875 0.103125 -0.384025 0.206525 -0.741225 0.3096 -1.07435 -0.166025 0.105675 -0.3448 0.213975 -0.548425 0.32555 -0.137325 0.42385 -0.276 0.887125 -0.41365 1.401325Z" stroke-width="0.25"></path></g>
<text x="1537" y="924" font-family="Funnel Sans, Arial, sans-serif" font-size="11" font-weight="500" fill="#AEB5A7" text-anchor="middle" dominant-baseline="middle">Playwright</text>
<rect x="64" y="990" width="947.3000000000001" height="48" rx="10" fill="rgba(8,14,9,0.62)" stroke="#2A2F28" stroke-width="1"></rect>
<text x="86" y="1014" font-family="Funnel Sans, Arial, sans-serif" font-size="10" font-weight="700" fill="#7E867A" text-anchor="start" dominant-baseline="middle" letter-spacing="1.6">TRAFFIC TYPES</text><line x1="204" y1="1001" x2="204" y2="1027" stroke="#2A2F28"></line><rect x="226" y="1012.5" width="22" height="3" rx="1.5" fill="#CCFF00"></rect><text x="258" y="1014" font-family="Funnel Sans, Arial, sans-serif" font-size="14" font-weight="700" fill="#FFFFFF" text-anchor="start" dominant-baseline="middle">LLM</text><text x="295.5" y="1014" font-family="Funnel Sans, Arial, sans-serif" font-size="12" font-weight="400" fill="#AEB5A7" text-anchor="start" dominant-baseline="middle">Model inference &amp; completions</text><rect x="509.1" y="1012.5" width="22" height="3" rx="1.5" fill="#40E0D0"></rect><text x="541.1" y="1014" font-family="Funnel Sans, Arial, sans-serif" font-size="14" font-weight="700" fill="#FFFFFF" text-anchor="start" dominant-baseline="middle">MCP</text><text x="578.6" y="1014" font-family="Funnel Sans, Arial, sans-serif" font-size="12" font-weight="400" fill="#AEB5A7" text-anchor="start" dominant-baseline="middle">Tool &amp; data context calls</text><rect x="766.6" y="1012.5" width="22" height="3" rx="1.5" fill="#9747FF"></rect><text x="798.6" y="1014" font-family="Funnel Sans, Arial, sans-serif" font-size="14" font-weight="700" fill="#FFFFFF" text-anchor="start" dominant-baseline="middle">A2A</text><text x="836.1" y="1014" font-family="Funnel Sans, Arial, sans-serif" font-size="12" font-weight="400" fill="#AEB5A7" text-anchor="start" dominant-baseline="middle">Agent-to-agent exchange</text>
</svg>