<svg xmlns="http://www.w3.org/2000/svg" width="1680" height="1000" viewBox="0 0 1680 1000">
<rect x="0" y="0" width="1680" height="1000" rx="0" fill="#000F06"></rect>
<g stroke="#788C6E" stroke-opacity="0.05" stroke-width="1"><line x1="0" y1="0" x2="0" y2="1000"></line><line x1="52" y1="0" x2="52" y2="1000"></line><line x1="104" y1="0" x2="104" y2="1000"></line><line x1="156" y1="0" x2="156" y2="1000"></line><line x1="208" y1="0" x2="208" y2="1000"></line><line x1="260" y1="0" x2="260" y2="1000"></line><line x1="312" y1="0" x2="312" y2="1000"></line><line x1="364" y1="0" x2="364" y2="1000"></line><line x1="416" y1="0" x2="416" y2="1000"></line><line x1="468" y1="0" x2="468" y2="1000"></line><line x1="520" y1="0" x2="520" y2="1000"></line><line x1="572" y1="0" x2="572" y2="1000"></line><line x1="624" y1="0" x2="624" y2="1000"></line><line x1="676" y1="0" x2="676" y2="1000"></line><line x1="728" y1="0" x2="728" y2="1000"></line><line x1="780" y1="0" x2="780" y2="1000"></line><line x1="832" y1="0" x2="832" y2="1000"></line><line x1="884" y1="0" x2="884" y2="1000"></line><line x1="936" y1="0" x2="936" y2="1000"></line><line x1="988" y1="0" x2="988" y2="1000"></line><line x1="1040" y1="0" x2="1040" y2="1000"></line><line x1="1092" y1="0" x2="1092" y2="1000"></line><line x1="1144" y1="0" x2="1144" y2="1000"></line><line x1="1196" y1="0" x2="1196" y2="1000"></line><line x1="1248" y1="0" x2="1248" y2="1000"></line><line x1="1300" y1="0" x2="1300" y2="1000"></line><line x1="1352" y1="0" x2="1352" y2="1000"></line><line x1="1404" y1="0" x2="1404" y2="1000"></line><line x1="1456" y1="0" x2="1456" y2="1000"></line><line x1="1508" y1="0" x2="1508" y2="1000"></line><line x1="1560" y1="0" x2="1560" y2="1000"></line><line x1="1612" y1="0" x2="1612" y2="1000"></line><line x1="1664" y1="0" x2="1664" y2="1000"></line><line x1="0" y1="0" x2="1680" y2="0"></line><line x1="0" y1="52" x2="1680" y2="52"></line><line x1="0" y1="104" x2="1680" y2="104"></line><line x1="0" y1="156" x2="1680" y2="156"></line><line x1="0" y1="208" x2="1680" y2="208"></line><line x1="0" y1="260" x2="1680" y2="260"></line><line x1="0" y1="312" x2="1680" y2="312"></line><line x1="0" y1="364" x2="1680" y2="364"></line><line x1="0" y1="416" x2="1680" y2="416"></line><line x1="0" y1="468" x2="1680" y2="468"></line><line x1="0" y1="520" x2="1680" y2="520"></line><line x1="0" y1="572" x2="1680" y2="572"></line><line x1="0" y1="624" x2="1680" y2="624"></line><line x1="0" y1="676" x2="1680" y2="676"></line><line x1="0" y1="728" x2="1680" y2="728"></line><line x1="0" y1="780" x2="1680" y2="780"></line><line x1="0" y1="832" x2="1680" y2="832"></line><line x1="0" y1="884" x2="1680" y2="884"></line><line x1="0" y1="936" x2="1680" y2="936"></line><line x1="0" y1="988" x2="1680" y2="988"></line></g>
<ellipse cx="840" cy="500" rx="540" ry="360" fill="#CCFF00" opacity="0.04"></ellipse>
<g><line x1="814" y1="300" x2="814" y2="184" stroke="#CCFF00" stroke-width="2" stroke-opacity="0.85"></line><polygon points="814,184 807,193.8 821,193.8" fill="#CCFF00" fill-opacity="0.85"></polygon><line x1="866" y1="184" x2="866" y2="300" stroke="#CCFF00" stroke-width="2" stroke-opacity="0.85"></line><polygon points="866,300 859,290.2 873,290.2" fill="#CCFF00" fill-opacity="0.85"></polygon><line x1="610" y1="367" x2="374" y2="367" stroke="#CCFF00" stroke-width="2" stroke-opacity="0.85"></line><polygon points="374,367 383.8,360 383.8,374" fill="#CCFF00" fill-opacity="0.85"></polygon><line x1="374" y1="633" x2="610" y2="633" stroke="#CCFF00" stroke-width="2" stroke-opacity="0.85"></line><polygon points="610,633 600.2,626 600.2,640" fill="#CCFF00" fill-opacity="0.85"></polygon><line x1="1070" y1="367" x2="1306" y2="367" stroke="#CCFF00" stroke-width="2" stroke-opacity="0.85"></line><polygon points="1306,367 1296.2,360 1296.2,374" fill="#CCFF00" fill-opacity="0.85"></polygon><line x1="1306" y1="633" x2="1070" y2="633" stroke="#CCFF00" stroke-width="2" stroke-opacity="0.85"></line><polygon points="1070,633 1079.8,626 1079.8,640" fill="#CCFF00" fill-opacity="0.85"></polygon><line x1="840" y1="700" x2="840" y2="826" stroke="#CCFF00" stroke-width="2" stroke-opacity="0.85"></line><polygon points="840,826 833,816.2 847,816.2" fill="#CCFF00" fill-opacity="0.85"></polygon></g>
<rect x="429" y="474" width="122" height="52" rx="8" fill="#0B120D" stroke="#3A4138" stroke-width="1"></rect>
<text x="490" y="491" font-family="Funnel Sans, Arial, sans-serif" font-size="16" font-weight="600" fill="#BAC1B8" text-anchor="middle" dominant-baseline="middle">Context /</text>
<text x="490" y="511" font-family="Funnel Sans, Arial, sans-serif" font-size="16" font-weight="600" fill="#BAC1B8" text-anchor="middle" dominant-baseline="middle">tool calls</text>
<rect x="1129" y="474" width="122" height="52" rx="8" fill="#0B120D" stroke="#3A4138" stroke-width="1"></rect>
<text x="1190" y="491" font-family="Funnel Sans, Arial, sans-serif" font-size="16" font-weight="600" fill="#BAC1B8" text-anchor="middle" dominant-baseline="middle">Prompts /</text>
<text x="1190" y="511" font-family="Funnel Sans, Arial, sans-serif" font-size="16" font-weight="600" fill="#BAC1B8" text-anchor="middle" dominant-baseline="middle">tool calls</text>
<rect x="886" y="746" width="212.4" height="38" rx="8" fill="#0B120D" stroke="#3A4138" stroke-width="1"></rect>
<text x="992.2" y="765" font-family="Funnel Sans, Arial, sans-serif" font-size="16" font-weight="600" fill="#BAC1B8" text-anchor="middle" dominant-baseline="middle">Tool call execution</text>
<rect x="690" y="70" width="300" height="110" rx="12" fill="#0F160F" stroke="#3A4138" stroke-width="1.4"></rect>
<rect x="745" y="105" width="40" height="40" rx="9" fill="rgba(204,255,0,0.07)"></rect>
<g transform="translate(753 113) scale(1.0000)" fill="none" stroke="#CCFF00" stroke-width="1.7" stroke-linecap="round" stroke-linejoin="round"><rect x="3" y="4" width="18" height="16" rx="2"></rect><path d="M3 9h18"></path></g>
<text x="795" y="125" font-family="Funnel Sans, Arial, sans-serif" font-size="23" font-weight="700" fill="#FFFFFF" text-anchor="start" dominant-baseline="middle">MCP Client</text>
<rect x="680" y="830" width="320" height="110" rx="12" fill="#0F160F" stroke="#3A4138" stroke-width="1.4"></rect>
<rect x="745" y="865" width="40" height="40" rx="9" fill="rgba(204,255,0,0.07)"></rect>
<g transform="translate(753 873) scale(1.0000)" fill="none" stroke="#CCFF00" stroke-width="1.7" stroke-linecap="round" stroke-linejoin="round"><path d="M8 3H7a2 2 0 0 0-2 2v4a2 2 0 0 1-2 2 2 2 0 0 1 2 2v4a2 2 0 0 0 2 2h1M16 3h1a2 2 0 0 1 2 2v4a2 2 0 0 0 2 2 2 2 0 0 0-2 2v4a2 2 0 0 1-2 2h-1"></path></g>
<text x="795" y="885" font-family="Funnel Sans, Arial, sans-serif" font-size="23" font-weight="700" fill="#FFFFFF" text-anchor="start" dominant-baseline="middle">Upstream APIs</text>
<rect x="120" y="350" width="250" height="300" rx="12" fill="#0F160F" stroke="#3A4138" stroke-width="1.4"></rect>
<rect x="219" y="466" width="52" height="52" rx="11" fill="rgba(204,255,0,0.07)"></rect>
<g transform="translate(230 477) scale(1.2500)" fill="none" stroke="#CCFF00" stroke-width="1.7" stroke-linecap="round" stroke-linejoin="round"><rect x="3" y="4" width="18" height="7" rx="1.5"></rect><rect x="3" y="13" width="18" height="7" rx="1.5"></rect><path d="M7 7.5h.01M7 16.5h.01"></path></g>
<text x="245" y="534" font-family="Funnel Sans, Arial, sans-serif" font-size="22" font-weight="700" fill="#FFFFFF" text-anchor="middle" dominant-baseline="middle">MCP Server</text>
<rect x="1310" y="350" width="300" height="300" rx="12" fill="#0E1114" stroke="#3A4138" stroke-width="1.4"></rect>
<text x="1460" y="380" font-family="Funnel Sans, Arial, sans-serif" font-size="22" font-weight="700" fill="#FFFFFF" text-anchor="middle" dominant-baseline="middle">LLM</text>
<rect x="1328" y="402" width="82" height="70" rx="6" fill="#242529" stroke="#2A2F28" stroke-width="1"></rect>
<rect x="1354" y="413" width="30" height="30" rx="7" fill="#F4F6F1"></rect>
<g transform="translate(1359.50 418.50) scale(0.7917)"><path d="M22.2819 9.8211a5.9847 5.9847 0 0 0-.5157-4.9108 6.0462 6.0462 0 0 0-6.5098-2.9A6.0651 6.0651 0 0 0 4.9807 4.1818a5.9847 5.9847 0 0 0-3.9977 2.9 6.0462 6.0462 0 0 0 .7427 7.0966 5.98 5.98 0 0 0 .511 4.9107 6.051 6.051 0 0 0 6.5146 2.9001A5.9847 5.9847 0 0 0 13.2599 24a6.0557 6.0557 0 0 0 5.7718-4.2058 5.9894 5.9894 0 0 0 3.9977-2.9001 6.0557 6.0557 0 0 0-.7475-7.0729zm-9.022 12.6081a4.4755 4.4755 0 0 1-2.8764-1.0408l.1419-.0804 4.7783-2.7582a.7948.7948 0 0 0 .3927-.6813v-6.7369l2.02 1.1686a.071.071 0 0 1 .038.052v5.5826a4.504 4.504 0 0 1-4.4945 4.4944zm-9.6607-4.1254a4.4708 4.4708 0 0 1-.5346-3.0137l.142.0852 4.783 2.7582a.7712.7712 0 0 0 .7806 0l5.8428-3.3685v2.3324a.0804.0804 0 0 1-.0332.0615L9.74 19.9502a4.4992 4.4992 0 0 1-6.1408-1.6464zM2.3408 7.8956a4.485 4.485 0 0 1 2.3655-1.9728V11.6a.7664.7664 0 0 0 .3879.6765l5.8144 3.3543-2.0201 1.1685a.0757.0757 0 0 1-.071 0l-4.8303-2.7865A4.504 4.504 0 0 1 2.3408 7.872zm16.5963 3.8558L13.1038 8.364 15.1192 7.2a.0757.0757 0 0 1 .071 0l4.8303 2.7913a4.4944 4.4944 0 0 1-.6765 8.1042v-5.6772a.79.79 0 0 0-.407-.667zm2.0107-3.0231l-.142-.0852-4.7735-2.7818a.7759.7759 0 0 0-.7854 0L9.409 9.2297V6.8974a.0662.0662 0 0 1 .0284-.0615l4.8303-2.7866a4.4992 4.4992 0 0 1 6.6802 4.66zM8.3065 12.863l-2.02-1.1638a.0804.0804 0 0 1-.038-.0567V6.0742a4.4992 4.4992 0 0 1 7.3757-3.4537l-.142.0805L8.704 5.459a.7948.7948 0 0 0-.3927.6813zm1.0976-2.3654l2.602-1.4998 2.6069 1.4998v2.9994l-2.5974 1.4997-2.6067-1.4997Z"></path></g>
<text x="1369" y="461" font-family="Funnel Sans, Arial, sans-serif" font-size="9" font-weight="500" fill="#AEB5A7" text-anchor="middle" dominant-baseline="middle">OpenAI</text>
<rect x="1419" y="402" width="82" height="70" rx="6" fill="#242529" stroke="#2A2F28" stroke-width="1"></rect>
<rect x="1445" y="413" width="30" height="30" rx="7" fill="#F4F6F1"></rect>
<g transform="translate(1450.50 421.30) scale(0.2061)"><g fill="#181818"><metadata>
  <sfw xmlns="ns_sfw;">
   <slices>
   </slices>
   <sliceSourceBounds bottomLeftOrigin="true" height="65" width="92.2" x="-43.7" y="-98">
   </sliceSourceBounds>
  </sfw>
 </metadata>
 <path class="st0" d="M66.5,0H52.4l25.7,65h14.1L66.5,0z M25.7,0L0,65h14.4l5.3-13.6h26.9L51.8,65h14.4L40.5,0C40.5,0,25.7,0,25.7,0z&#xA;&#x9; M24.3,39.3l8.8-22.8l8.8,22.8H24.3z">
 </path></g></g>
<text x="1460" y="461" font-family="Funnel Sans, Arial, sans-serif" font-size="9" font-weight="500" fill="#AEB5A7" text-anchor="middle" dominant-baseline="middle">Anthropic</text>
<rect x="1510" y="402" width="82" height="70" rx="6" fill="#242529" stroke="#2A2F28" stroke-width="1"></rect>
<rect x="1536" y="413" width="30" height="30" rx="7" fill="#F4F6F1"></rect>
<g transform="translate(1541.50 418.50) scale(0.0371)"><path d="M189.08 303.228H94.587l.044-94.446h94.497l-.048 94.446z" fill="#1c1c1b" fill-rule="nonzero"></path><path d="M283.528 397.674h-94.493l.044-94.446h94.496l-.047 94.446z" fill="#1c1c1b" fill-rule="nonzero"></path><path d="M283.575 303.228H189.08l.046-94.446h94.496l-.047 94.446z" fill="#1c1c1b" fill-rule="nonzero"></path><path d="M378.07 303.228h-94.495l.044-94.446h94.498l-.047 94.446zM189.128 208.779H94.633l.044-94.448h94.498l-.047 94.448zM378.115 208.779h-94.494l.045-94.448h94.496l-.047 94.448zM94.587 303.227H.093l.044-96.017h94.496l-.046 96.017z" fill="#1c1c1b" fill-rule="nonzero"></path><path d="M94.633 208.779H.138l.046-94.448H94.68l-.047 94.448z" fill="#1c1c1b" fill-rule="nonzero"></path><path d="M94.68 115.902H.185L.23 19.885h94.498l-.047 96.017zM472.657 114.331h-94.495l.044-94.446h94.497l-.046 94.446zM94.54 399.244H.046l.044-97.588h94.497l-.047 97.588z" fill="#1c1c1b" fill-rule="nonzero"></path><path d="M94.495 492.123H0l.044-94.446H94.54l-.045 94.446zM472.563 303.228H378.07l.044-94.446h94.496l-.047 94.446zM472.61 208.779h-94.495l.044-94.448h94.498l-.047 94.448z" fill="#1c1c1b" fill-rule="nonzero"></path><path d="M472.517 397.674h-94.494l.044-94.446h94.497l-.047 94.446z" fill="#1c1c1b" fill-rule="nonzero"></path><path d="M472.47 492.121h-94.493l.044-96.017h94.496l-.047 96.017z" fill="#1c1c1b" fill-rule="nonzero"></path><path d="M228.375 303.22h-96.061l.046-94.446h96.067l-.052 94.446z" fill="#ff7000" fill-rule="nonzero"></path><path d="M322.827 397.666h-94.495l.044-96.018h94.498l-.047 96.018z" fill="#ff4900" fill-rule="nonzero"></path><path d="M324.444 303.22h-97.636l.046-94.446h97.638l-.048 94.446z" fill="#ff7000" fill-rule="nonzero"></path><path d="M418.938 303.22h-96.064l.045-94.446h96.066l-.047 94.446z" fill="#ff7000" fill-rule="nonzero"></path><path d="M228.423 208.77H132.36l.045-94.445h96.066l-.05 94.446zM418.985 208.77H322.92l.044-94.445h96.069l-.048 94.446z" fill="#ffa300" fill-rule="nonzero"></path><path d="M133.883 304.79H39.392l.044-96.017h94.496l-.049 96.017z" fill="#ff7000" fill-rule="nonzero"></path><path d="M133.929 208.77H39.437l.044-95.445h94.496l-.048 95.445z" fill="#ffa300" fill-rule="nonzero"></path><path d="M133.976 114.325H39.484l.044-94.448h94.497l-.05 94.448zM511.954 115.325h-94.493l.044-95.448h94.497l-.048 95.448z" fill="#ffce00" fill-rule="nonzero"></path><path d="M133.836 399.667H39.345l.044-96.447h94.496l-.049 96.447z" fill="#ff4900" fill-rule="nonzero"></path><path d="M133.79 492.117H39.3l.044-94.448h94.496l-.049 94.448z" fill="#ff0107" fill-rule="nonzero"></path><path d="M511.862 303.22h-94.495l.046-94.446h94.496l-.047 94.446z" fill="#ff7000" fill-rule="nonzero"></path><path d="M511.907 208.77h-94.493l.044-94.445h94.496l-.047 94.446z" fill="#ffa300" fill-rule="nonzero"></path><path d="M511.815 398.666h-94.493l.044-95.447h94.496l-.047 95.447z" fill="#ff4900" fill-rule="nonzero"></path><path d="M511.77 492.117h-94.496l.046-94.448h94.496l-.047 94.448z" fill="#ff0107" fill-rule="nonzero"></path></g>
<text x="1551" y="461" font-family="Funnel Sans, Arial, sans-serif" font-size="9" font-weight="500" fill="#AEB5A7" text-anchor="middle" dominant-baseline="middle">Mistral</text>
<rect x="1328" y="482" width="82" height="70" rx="6" fill="#242529" stroke="#2A2F28" stroke-width="1"></rect>
<rect x="1354" y="493" width="30" height="30" rx="7" fill="#F4F6F1"></rect>
<g transform="translate(1359.50 498.50) scale(0.1979)"><defs>
        <linearGradient id="e399c19f-b68f-429d-b176-18c2117ff73c" x1="-1032.172" x2="-1059.213" y1="145.312" y2="65.426" gradientTransform="matrix(1 0 0 -1 1075 158)" gradientUnits="userSpaceOnUse">
            <stop offset="0" stop-color="#114a8b"></stop>
            <stop offset="1" stop-color="#0669bc"></stop>
        </linearGradient>
        <linearGradient id="ac2a6fc2-ca48-4327-9a3c-d4dcc3256e15" x1="-1023.725" x2="-1029.98" y1="108.083" y2="105.968" gradientTransform="matrix(1 0 0 -1 1075 158)" gradientUnits="userSpaceOnUse">
            <stop offset="0" stop-opacity=".3"></stop>
            <stop offset=".071" stop-opacity=".2"></stop>
            <stop offset=".321" stop-opacity=".1"></stop>
            <stop offset=".623" stop-opacity=".05"></stop>
            <stop offset="1" stop-opacity="0"></stop>
        </linearGradient>
        <linearGradient id="a7fee970-a784-4bb1-af8d-63d18e5f7db9" x1="-1027.165" x2="-997.482" y1="147.642" y2="68.561" gradientTransform="matrix(1 0 0 -1 1075 158)" gradientUnits="userSpaceOnUse">
            <stop offset="0" stop-color="#3ccbf4"></stop>
            <stop offset="1" stop-color="#2892df"></stop>
        </linearGradient>
    </defs>
    <path fill="url(#e399c19f-b68f-429d-b176-18c2117ff73c)" d="M33.338 6.544h26.038l-27.03 80.087a4.152 4.152 0 0 1-3.933 2.824H8.149a4.145 4.145 0 0 1-3.928-5.47L29.404 9.368a4.152 4.152 0 0 1 3.934-2.825z"></path>
    <path fill="#0078d4" d="M71.175 60.261h-41.29a1.911 1.911 0 0 0-1.305 3.309l26.532 24.764a4.171 4.171 0 0 0 2.846 1.121h23.38z"></path>
    <path fill="url(#ac2a6fc2-ca48-4327-9a3c-d4dcc3256e15)" d="M33.338 6.544a4.118 4.118 0 0 0-3.943 2.879L4.252 83.917a4.14 4.14 0 0 0 3.908 5.538h20.787a4.443 4.443 0 0 0 3.41-2.9l5.014-14.777 17.91 16.705a4.237 4.237 0 0 0 2.666.972H81.24L71.024 60.261l-29.781.007L59.47 6.544z"></path>
    <path fill="url(#a7fee970-a784-4bb1-af8d-63d18e5f7db9)" d="M66.595 9.364a4.145 4.145 0 0 0-3.928-2.82H33.648a4.146 4.146 0 0 1 3.928 2.82l25.184 74.62a4.146 4.146 0 0 1-3.928 5.472h29.02a4.146 4.146 0 0 0 3.927-5.472z"></path></g>
<text x="1369" y="541" font-family="Funnel Sans, Arial, sans-serif" font-size="9" font-weight="500" fill="#AEB5A7" text-anchor="middle" dominant-baseline="middle">Azure</text>
<rect x="1419" y="482" width="82" height="70" rx="6" fill="#242529" stroke="#2A2F28" stroke-width="1"></rect>
<rect x="1445" y="493" width="30" height="30" rx="7" fill="#F4F6F1"></rect>
<g transform="translate(1450.50 498.50) scale(0.7917)"><defs><linearGradient id="lobe-icons-bedrock-fill" x1="80%" x2="20%" y1="20%" y2="80%"><stop offset="0%" stop-color="#6350FB"></stop><stop offset="50%" stop-color="#3D8FFF"></stop><stop offset="100%" stop-color="#9AD8F8"></stop></linearGradient></defs><path d="M13.05 15.513h3.08c.214 0 .389.177.389.394v1.82a1.704 1.704 0 011.296 1.661c0 .943-.755 1.708-1.685 1.708-.931 0-1.686-.765-1.686-1.708 0-.807.554-1.484 1.297-1.662v-1.425h-2.69v4.663a.395.395 0 01-.188.338l-2.69 1.641a.385.385 0 01-.405-.002l-4.926-3.086a.395.395 0 01-.185-.336V16.3L2.196 14.87A.395.395 0 012 14.555L2 14.528V9.406c0-.14.073-.27.192-.34l2.465-1.462V4.448c0-.129.062-.249.165-.322l.021-.014L9.77 1.058a.385.385 0 01.407 0l2.69 1.675a.395.395 0 01.185.336V7.6h3.856V5.683a1.704 1.704 0 01-1.296-1.662c0-.943.755-1.708 1.685-1.708.931 0 1.685.765 1.685 1.708 0 .807-.553 1.484-1.296 1.662v2.311a.391.391 0 01-.389.394h-4.245v1.806h6.624a1.69 1.69 0 011.64-1.313c.93 0 1.685.764 1.685 1.707 0 .943-.754 1.708-1.685 1.708a1.69 1.69 0 01-1.64-1.314H13.05v1.937h4.953l.915 1.18a1.66 1.66 0 01.84-.227c.931 0 1.685.764 1.685 1.707 0 .943-.754 1.708-1.685 1.708-.93 0-1.685-.765-1.685-1.708 0-.346.102-.668.276-.937l-.724-.935H13.05v1.806zM9.973 1.856L7.93 3.122V6.09h-.778V3.604L5.435 4.669v2.945l2.11 1.36L9.712 7.61V5.334h.778V7.83c0 .136-.07.263-.184.335L7.963 9.638v2.081l1.422 1.009-.446.646-1.406-.998-1.53 1.005-.423-.66 1.605-1.055v-1.99L5.038 8.29l-2.26 1.34v1.676l1.972-1.189.398.677-2.37 1.429V14.3l2.166 1.258 2.27-1.368.397.677-2.176 1.311V19.3l1.876 1.175 2.365-1.426.398.678-2.017 1.216 1.918 1.201 2.298-1.403v-5.78l-4.758 2.893-.4-.675 5.158-3.136V3.289L9.972 1.856zM16.13 18.47a.913.913 0 00-.908.92c0 .507.406.918.908.918a.913.913 0 00.907-.919.913.913 0 00-.907-.92zm3.63-3.81a.913.913 0 00-.908.92c0 .508.406.92.907.92a.913.913 0 00.908-.92.913.913 0 00-.908-.92zm1.555-4.99a.913.913 0 00-.908.92c0 .507.407.918.908.918a.913.913 0 00.907-.919.913.913 0 00-.907-.92zM17.296 3.1a.913.913 0 00-.907.92c0 .508.406.92.907.92a.913.913 0 00.908-.92.913.913 0 00-.908-.92z" fill="url(#lobe-icons-bedrock-fill)" fill-rule="nonzero"></path></g>
<text x="1460" y="541" font-family="Funnel Sans, Arial, sans-serif" font-size="9" font-weight="500" fill="#AEB5A7" text-anchor="middle" dominant-baseline="middle">Bedrock</text>
<rect x="1510" y="482" width="82" height="70" rx="6" fill="#242529" stroke="#2A2F28" stroke-width="1"></rect>
<rect x="1536" y="493" width="30" height="30" rx="7" fill="#F4F6F1"></rect>
<g transform="translate(1541.50 498.50) scale(0.7917)"><path d="M20,13.89A.77.77,0,0,0,19,13.73l-7,5.14v.22a.72.72,0,1,1,0,1.43v0a.74.74,0,0,0,.45-.15l7.41-5.47A.76.76,0,0,0,20,13.89Z" style="fill:#669df6"></path><path d="M12,20.52a.72.72,0,0,1,0-1.43h0v-.22L5,13.73a.76.76,0,0,0-1,.16.74.74,0,0,0,.16,1l7.41,5.47a.73.73,0,0,0,.44.15v0Z" style="fill:#aecbfa"></path><path d="M12,18.34a1.47,1.47,0,1,0,1.47,1.47A1.47,1.47,0,0,0,12,18.34Zm0,2.18a.72.72,0,1,1,.72-.71A.71.71,0,0,1,12,20.52Z" style="fill:#4285f4"></path><path d="M6,6.11a.76.76,0,0,1-.75-.75V3.48a.76.76,0,1,1,1.51,0V5.36A.76.76,0,0,1,6,6.11Z" style="fill:#aecbfa"></path><circle cx="5.98" cy="12" r="0.76" style="fill:#aecbfa"></circle><circle cx="5.98" cy="9.79" r="0.76" style="fill:#aecbfa"></circle><circle cx="5.98" cy="7.57" r="0.76" style="fill:#aecbfa"></circle><path d="M18,8.31a.76.76,0,0,1-.75-.76V5.67a.75.75,0,1,1,1.5,0V7.55A.75.75,0,0,1,18,8.31Z" style="fill:#4285f4"></path><circle cx="18.02" cy="12.01" r="0.76" style="fill:#4285f4"></circle><circle cx="18.02" cy="9.76" r="0.76" style="fill:#4285f4"></circle><circle cx="18.02" cy="3.48" r="0.76" style="fill:#4285f4"></circle><path d="M12,15a.76.76,0,0,1-.75-.75V12.34a.76.76,0,0,1,1.51,0v1.89A.76.76,0,0,1,12,15Z" style="fill:#669df6"></path><circle cx="12" cy="16.45" r="0.76" style="fill:#669df6"></circle><circle cx="12" cy="10.14" r="0.76" style="fill:#669df6"></circle><circle cx="12" cy="7.92" r="0.76" style="fill:#669df6"></circle><path d="M15,10.54a.76.76,0,0,1-.75-.75V7.91a.76.76,0,1,1,1.51,0V9.79A.76.76,0,0,1,15,10.54Z" style="fill:#4285f4"></path><circle cx="15.01" cy="5.69" r="0.76" style="fill:#4285f4"></circle><circle cx="15.01" cy="14.19" r="0.76" style="fill:#4285f4"></circle><circle cx="15.01" cy="11.97" r="0.76" style="fill:#4285f4"></circle><circle cx="8.99" cy="14.19" r="0.76" style="fill:#aecbfa"></circle><circle cx="8.99" cy="7.92" r="0.76" style="fill:#aecbfa"></circle><circle cx="8.99" cy="5.69" r="0.76" style="fill:#aecbfa"></circle><path d="M9,12.73A.76.76,0,0,1,8.24,12V10.1a.75.75,0,1,1,1.5,0V12A.75.75,0,0,1,9,12.73Z" style="fill:#aecbfa"></path></g>
<text x="1551" y="541" font-family="Funnel Sans, Arial, sans-serif" font-size="9" font-weight="500" fill="#AEB5A7" text-anchor="middle" dominant-baseline="middle">Vertex</text>
<rect x="1328" y="562" width="82" height="70" rx="6" fill="#242529" stroke="#2A2F28" stroke-width="1"></rect>
<rect x="1354" y="573" width="30" height="30" rx="7" fill="#F4F6F1"></rect>
<g transform="translate(1359.50 578.50) scale(1.1875)"><path fill="#EA4335" d="M10.313 5.376l1.887-1.5-.332-.414a5.935 5.935 0 00-5.586-1.217 5.89 5.89 0 00-3.978 4.084c-.03.113.312-.098.463-.056l2.608-.428s.127-.124.201-.205c1.16-1.266 3.126-1.432 4.465-.354l.272.09z"></path><path fill="#4285F4" d="M13.637 6.3a5.835 5.835 0 00-1.77-2.838l-1.83 1.82a3.226 3.226 0 011.193 2.564v.323c.9 0 1.63.725 1.63 1.62 0 .893-.73 1.619-1.63 1.619l-3.257-.003-.325.035v2.507l.325.053h3.257a4.234 4.234 0 004.08-2.962A4.199 4.199 0 0013.636 6.3z"></path><path fill="#34A853" d="M4.711 13.999H7.97v-2.594H4.71c-.232 0-.461-.066-.672-.161l-.458.14-1.313 1.297-.114.447a4.254 4.254 0 002.557.87z"></path><path fill="#FBBC05" d="M4.711 5.572A4.234 4.234 0 00.721 8.44a4.206 4.206 0 001.433 4.688l1.89-1.884a1.617 1.617 0 01.44-3.079 1.63 1.63 0 011.714.936l1.89-1.878A4.24 4.24 0 004.71 5.572z"></path></g>
<text x="1369" y="621" font-family="Funnel Sans, Arial, sans-serif" font-size="9" font-weight="500" fill="#AEB5A7" text-anchor="middle" dominant-baseline="middle">GCP</text>
<rect x="1419" y="562" width="82" height="70" rx="6" fill="#242529" stroke="#2A2F28" stroke-width="1"></rect>
<rect x="1445" y="573" width="30" height="30" rx="7" fill="#F4F6F1"></rect>
<g transform="translate(1450.50 578.50) scale(0.7917)"><path d="M23.748 4.482c-.254-.124-.364.113-.512.234-.051.039-.094.09-.137.136-.372.397-.806.657-1.373.626-.829-.046-1.537.214-2.163.848-.133-.782-.575-1.248-1.247-1.548-.352-.156-.708-.311-.955-.65-.172-.241-.219-.51-.305-.774-.055-.16-.11-.323-.293-.35-.2-.031-.278.136-.356.276-.313.572-.434 1.202-.422 1.84.027 1.436.633 2.58 1.838 3.393.137.093.172.187.129.323-.082.28-.18.552-.266.833-.055.179-.137.217-.329.14a5.526 5.526 0 01-1.736-1.18c-.857-.828-1.631-1.742-2.597-2.458a11.365 11.365 0 00-.689-.471c-.985-.957.13-1.743.388-1.836.27-.098.093-.432-.779-.428-.872.004-1.67.295-2.687.684a3.055 3.055 0 01-.465.137 9.597 9.597 0 00-2.883-.102c-1.885.21-3.39 1.102-4.497 2.623C.082 8.606-.231 10.684.152 12.85c.403 2.284 1.569 4.175 3.36 5.653 1.858 1.533 3.997 2.284 6.438 2.14 1.482-.085 3.133-.284 4.994-1.86.47.234.962.327 1.78.397.63.059 1.236-.03 1.705-.128.735-.156.684-.837.419-.961-2.155-1.004-1.682-.595-2.113-.926 1.096-1.296 2.746-2.642 3.392-7.003.05-.347.007-.565 0-.845-.004-.17.035-.237.23-.256a4.173 4.173 0 001.545-.475c1.396-.763 1.96-2.015 2.093-3.517.02-.23-.004-.467-.247-.588zM11.581 18c-2.089-1.642-3.102-2.183-3.52-2.16-.392.024-.321.471-.235.763.09.288.207.486.371.739.114.167.192.416-.113.603-.673.416-1.842-.14-1.897-.167-1.361-.802-2.5-1.86-3.301-3.307-.774-1.393-1.224-2.887-1.298-4.482-.02-.386.093-.522.477-.592a4.696 4.696 0 011.529-.039c2.132.312 3.946 1.265 5.468 2.774.868.86 1.525 1.887 2.202 2.891.72 1.066 1.494 2.082 2.48 2.914.348.292.625.514.891.677-.802.09-2.14.11-3.054-.614zm1-6.44a.306.306 0 01.415-.287.302.302 0 01.2.288.306.306 0 01-.31.307.303.303 0 01-.304-.308zm3.11 1.596c-.2.081-.399.151-.59.16a1.245 1.245 0 01-.798-.254c-.274-.23-.47-.358-.552-.758a1.73 1.73 0 01.016-.588c.07-.327-.008-.537-.239-.727-.187-.156-.426-.199-.688-.199a.559.559 0 01-.254-.078c-.11-.054-.2-.19-.114-.358.028-.054.16-.186.192-.21.356-.202.767-.136 1.146.016.352.144.618.408 1.001.782.391.451.462.576.685.914.176.265.336.537.445.848.067.195-.019.354-.25.452z" fill="#4D6BFE"></path></g>
<text x="1460" y="621" font-family="Funnel Sans, Arial, sans-serif" font-size="9" font-weight="500" fill="#AEB5A7" text-anchor="middle" dominant-baseline="middle">DeepSeek</text>
<rect x="1510" y="562" width="82" height="70" rx="6" fill="#242529" stroke="#2A2F28" stroke-width="1"></rect>
<rect x="1536" y="573" width="30" height="30" rx="7" fill="#F4F6F1"></rect>
<g transform="translate(1541.50 578.50) scale(0.7917)"><path d="M7.905 1.09c.216.085.411.225.588.41.295.306.544.744.734 1.263.191.522.315 1.1.362 1.68a5.054 5.054 0 012.049-.636l.051-.004c.87-.07 1.73.087 2.48.474.101.053.2.11.297.17.05-.569.172-1.134.36-1.644.19-.52.439-.957.733-1.264a1.67 1.67 0 01.589-.41c.257-.1.53-.118.796-.042.401.114.745.368 1.016.737.248.337.434.769.561 1.287.23.934.27 2.163.115 3.645l.053.04.026.019c.757.576 1.284 1.397 1.563 2.35.435 1.487.216 3.155-.534 4.088l-.018.021.002.003c.417.762.67 1.567.724 2.4l.002.03c.064 1.065-.2 2.137-.814 3.19l-.007.01.01.024c.472 1.157.62 2.322.438 3.486l-.006.039a.651.651 0 01-.747.536.648.648 0 01-.54-.742c.167-1.033.01-2.069-.48-3.123a.643.643 0 01.04-.617l.004-.006c.604-.924.854-1.83.8-2.72-.046-.779-.325-1.544-.8-2.273a.644.644 0 01.18-.886l.009-.006c.243-.159.467-.565.58-1.12a4.229 4.229 0 00-.095-1.974c-.205-.7-.58-1.284-1.105-1.683-.595-.454-1.383-.673-2.38-.61a.653.653 0 01-.632-.371c-.314-.665-.772-1.141-1.343-1.436a3.288 3.288 0 00-1.772-.332c-1.245.099-2.343.801-2.67 1.686a.652.652 0 01-.61.425c-1.067.002-1.893.252-2.497.703-.522.39-.878.935-1.066 1.588a4.07 4.07 0 00-.068 1.886c.112.558.331 1.02.582 1.269l.008.007c.212.207.257.53.109.785-.36.622-.629 1.549-.673 2.44-.05 1.018.186 1.902.719 2.536l.016.019a.643.643 0 01.095.69c-.576 1.236-.753 2.252-.562 3.052a.652.652 0 01-1.269.298c-.243-1.018-.078-2.184.473-3.498l.014-.035-.008-.012a4.339 4.339 0 01-.598-1.309l-.005-.019a5.764 5.764 0 01-.177-1.785c.044-.91.278-1.842.622-2.59l.012-.026-.002-.002c-.293-.418-.51-.953-.63-1.545l-.005-.024a5.352 5.352 0 01.093-2.49c.262-.915.777-1.701 1.536-2.269.06-.045.123-.09.186-.132-.159-1.493-.119-2.73.112-3.67.127-.518.314-.95.562-1.287.27-.368.614-.622 1.015-.737.266-.076.54-.059.797.042zm4.116 9.09c.936 0 1.8.313 2.446.855.63.527 1.005 1.235 1.005 1.94 0 .888-.406 1.58-1.133 2.022-.62.375-1.451.557-2.403.557-1.009 0-1.871-.259-2.493-.734-.617-.47-.963-1.13-.963-1.845 0-.707.398-1.417 1.056-1.946.668-.537 1.55-.849 2.485-.849zm0 .896a3.07 3.07 0 00-1.916.65c-.461.37-.722.835-.722 1.25 0 .428.21.829.61 1.134.455.347 1.124.548 1.943.548.799 0 1.473-.147 1.932-.426.463-.28.7-.686.7-1.257 0-.423-.246-.89-.683-1.256-.484-.405-1.14-.643-1.864-.643zm.662 1.21l.004.004c.12.151.095.37-.056.49l-.292.23v.446a.375.375 0 01-.376.373.375.375 0 01-.376-.373v-.46l-.271-.218a.347.347 0 01-.052-.49.353.353 0 01.494-.051l.215.172.22-.174a.353.353 0 01.49.051zm-5.04-1.919c.478 0 .867.39.867.871a.87.87 0 01-.868.871.87.87 0 01-.867-.87.87.87 0 01.867-.872zm8.706 0c.48 0 .868.39.868.871a.87.87 0 01-.868.871.87.87 0 01-.867-.87.87.87 0 01.867-.872zM7.44 2.3l-.003.002a.659.659 0 00-.285.238l-.005.006c-.138.189-.258.467-.348.832-.17.692-.216 1.631-.124 2.782.43-.128.899-.208 1.404-.237l.01-.001.019-.034c.046-.082.095-.161.148-.239.123-.771.022-1.692-.253-2.444-.134-.364-.297-.65-.453-.813a.628.628 0 00-.107-.09L7.44 2.3zm9.174.04l-.002.001a.628.628 0 00-.107.09c-.156.163-.32.45-.453.814-.29.794-.387 1.776-.23 2.572l.058.097.008.014h.03a5.184 5.184 0 011.466.212c.086-1.124.038-2.043-.128-2.722-.09-.365-.21-.643-.349-.832l-.004-.006a.659.659 0 00-.285-.239h-.004z"></path></g>
<text x="1551" y="621" font-family="Funnel Sans, Arial, sans-serif" font-size="9" font-weight="500" fill="#AEB5A7" text-anchor="middle" dominant-baseline="middle">Ollama</text>
<rect x="604" y="294" width="472" height="412" rx="20" fill="#CCFF00" opacity="0.05"></rect>
<rect x="610" y="300" width="460" height="400" rx="16" fill="#0B120D" stroke="#CCFF00" stroke-width="1.8"></rect>
<rect x="638" y="334" width="404" height="66" rx="10" fill="#070C09" stroke="#CCFF00" stroke-width="1.4"></rect>
<g transform="translate(660 356) scale(0.9167)" fill="none" stroke="#CCFF00" stroke-width="1.8" stroke-linecap="round" stroke-linejoin="round"><path d="M3 12h18M7 7l-4 5 4 5M17 7l4 5-4 5"></path></g>
<text x="848" y="367" font-family="Funnel Sans, Arial, sans-serif" font-size="21" font-weight="700" fill="#FFFFFF" text-anchor="middle" dominant-baseline="middle">Proxy</text>
<rect x="638" y="600" width="404" height="66" rx="10" fill="#070C09" stroke="#CCFF00" stroke-width="1.4"></rect>
<g transform="translate(660 622) scale(0.9167)" fill="none" stroke="#CCFF00" stroke-width="1.8" stroke-linecap="round" stroke-linejoin="round"><path d="M3 12h18M7 7l-4 5 4 5M17 7l4 5-4 5"></path></g>
<text x="848" y="633" font-family="Funnel Sans, Arial, sans-serif" font-size="21" font-weight="700" fill="#FFFFFF" text-anchor="middle" dominant-baseline="middle">Proxy</text>
<g transform="translate(814.3138686131387 448) scale(0.3358)" fill="#CCFF00"><path d="M50.5,112.9l-3.7,4.7,8.4,13.2-.9,6.1h35.6l2.5-6.1-14.3-17.9s-27.6,0-27.6,0Z"></path><path d="M69.9,32.6l-12.9,22.7,62.9,74.8-1.8,6.9h28.8l5.2-24.3L84.9,32.5h-15Z"></path><path d="M78.5,15.5l-6.1,11.3h15.2l26.1,31.2,15.5-12.8v-8.1l-5.4-7.6,4-4.2L96.7.6l-18.2,14.9Z"></path><path d="M31.7,78.7h-8.5L.8,107.3v29.6h24l4.2-5.5,18.5-24.1h26.8l8.3-12.7-29.1-34.7-21.9,18.9h0Z"></path></g>
<text x="840" y="544" font-family="Funnel Sans, Arial, sans-serif" font-size="30" font-weight="700" text-anchor="middle" dominant-baseline="middle" letter-spacing="-0.3"><tspan fill="#FFFFFF">Kong </tspan><tspan fill="#CCFF00">AI Gateway</tspan></text>
</svg>