<svg xmlns="http://www.w3.org/2000/svg" width="1340" height="606" viewBox="0 0 1340 606">
<rect x="0" y="0" width="1340" height="606" rx="0" fill="#000F06"></rect>
<g stroke="#788C6E" stroke-opacity="0.05" stroke-width="1"><line x1="0" y1="0" x2="0" y2="606"></line><line x1="52" y1="0" x2="52" y2="606"></line><line x1="104" y1="0" x2="104" y2="606"></line><line x1="156" y1="0" x2="156" y2="606"></line><line x1="208" y1="0" x2="208" y2="606"></line><line x1="260" y1="0" x2="260" y2="606"></line><line x1="312" y1="0" x2="312" y2="606"></line><line x1="364" y1="0" x2="364" y2="606"></line><line x1="416" y1="0" x2="416" y2="606"></line><line x1="468" y1="0" x2="468" y2="606"></line><line x1="520" y1="0" x2="520" y2="606"></line><line x1="572" y1="0" x2="572" y2="606"></line><line x1="624" y1="0" x2="624" y2="606"></line><line x1="676" y1="0" x2="676" y2="606"></line><line x1="728" y1="0" x2="728" y2="606"></line><line x1="780" y1="0" x2="780" y2="606"></line><line x1="832" y1="0" x2="832" y2="606"></line><line x1="884" y1="0" x2="884" y2="606"></line><line x1="936" y1="0" x2="936" y2="606"></line><line x1="988" y1="0" x2="988" y2="606"></line><line x1="1040" y1="0" x2="1040" y2="606"></line><line x1="1092" y1="0" x2="1092" y2="606"></line><line x1="1144" y1="0" x2="1144" y2="606"></line><line x1="1196" y1="0" x2="1196" y2="606"></line><line x1="1248" y1="0" x2="1248" y2="606"></line><line x1="1300" y1="0" x2="1300" y2="606"></line><line x1="0" y1="0" x2="1340" y2="0"></line><line x1="0" y1="52" x2="1340" y2="52"></line><line x1="0" y1="104" x2="1340" y2="104"></line><line x1="0" y1="156" x2="1340" y2="156"></line><line x1="0" y1="208" x2="1340" y2="208"></line><line x1="0" y1="260" x2="1340" y2="260"></line><line x1="0" y1="312" x2="1340" y2="312"></line><line x1="0" y1="364" x2="1340" y2="364"></line><line x1="0" y1="416" x2="1340" y2="416"></line><line x1="0" y1="468" x2="1340" y2="468"></line><line x1="0" y1="520" x2="1340" y2="520"></line><line x1="0" y1="572" x2="1340" y2="572"></line></g>
<ellipse cx="980" cy="303" rx="460" ry="300" fill="#CCFF00" opacity="0.035"></ellipse>
<g><path d="M684 131 C 810 131, 810 303, 936 303" fill="none" stroke="#CCFF00" stroke-width="2.6" stroke-opacity="0.9" stroke-dasharray="1.5 13" stroke-linecap="round"></path><path d="M684 131 C 810 131, 810 303, 936 303" fill="none" stroke="#CCFF00" stroke-width="7" stroke-opacity="0.06"></path><path d="M684 303 C 810 303, 810 303, 936 303" fill="none" stroke="#40E0D0" stroke-width="2.6" stroke-opacity="0.9" stroke-dasharray="1.5 13" stroke-linecap="round"></path><path d="M684 303 C 810 303, 810 303, 936 303" fill="none" stroke="#40E0D0" stroke-width="7" stroke-opacity="0.06"></path><path d="M684 475 C 810 475, 810 303, 936 303" fill="none" stroke="#9747FF" stroke-width="2.6" stroke-opacity="0.9" stroke-dasharray="1.5 13" stroke-linecap="round"></path><path d="M684 475 C 810 475, 810 303, 936 303" fill="none" stroke="#9747FF" stroke-width="7" stroke-opacity="0.06"></path></g>
<g stroke="#CCFF00" stroke-width="1"><line x1="931" y1="303" x2="941" y2="303"></line><line x1="936" y1="298" x2="936" y2="308"></line></g>
<rect x="64" y="56" width="620" height="150" rx="12" fill="#0E1114" stroke="#3A4138" stroke-width="1.3"></rect>
<circle cx="86" cy="82" r="5" fill="#CCFF00"></circle>
<text x="102" y="83" font-family="Funnel Sans, Arial, sans-serif" font-size="18" font-weight="700" fill="#FFFFFF" text-anchor="start" dominant-baseline="middle">LLM Providers</text>
<text x="240.8" y="84" font-family="Funnel Sans, Arial, sans-serif" font-size="13" font-weight="400" fill="#7E867A" text-anchor="start" dominant-baseline="middle">Models</text>
<rect x="615" y="70" width="53" height="26" rx="13" fill="transparent" stroke="#CCFF00" stroke-width="1.2"></rect>
<text x="641.5" y="83" font-family="Funnel Sans, Arial, sans-serif" font-size="12" font-weight="700" fill="#CCFF00" text-anchor="middle" dominant-baseline="middle" letter-spacing="0.5">LLM</text>
<rect x="82" y="114" width="87.33333333333333" height="64" rx="7" fill="#242529" stroke="#2A2F28" stroke-width="1"></rect>
<rect x="106.66666666666666" y="127" width="38" height="38" rx="9" fill="#F4F6F1"></rect>
<g transform="translate(113.67 134.00) scale(1.0000)"><path d="M22.2819 9.8211a5.9847 5.9847 0 0 0-.5157-4.9108 6.0462 6.0462 0 0 0-6.5098-2.9A6.0651 6.0651 0 0 0 4.9807 4.1818a5.9847 5.9847 0 0 0-3.9977 2.9 6.0462 6.0462 0 0 0 .7427 7.0966 5.98 5.98 0 0 0 .511 4.9107 6.051 6.051 0 0 0 6.5146 2.9001A5.9847 5.9847 0 0 0 13.2599 24a6.0557 6.0557 0 0 0 5.7718-4.2058 5.9894 5.9894 0 0 0 3.9977-2.9001 6.0557 6.0557 0 0 0-.7475-7.0729zm-9.022 12.6081a4.4755 4.4755 0 0 1-2.8764-1.0408l.1419-.0804 4.7783-2.7582a.7948.7948 0 0 0 .3927-.6813v-6.7369l2.02 1.1686a.071.071 0 0 1 .038.052v5.5826a4.504 4.504 0 0 1-4.4945 4.4944zm-9.6607-4.1254a4.4708 4.4708 0 0 1-.5346-3.0137l.142.0852 4.783 2.7582a.7712.7712 0 0 0 .7806 0l5.8428-3.3685v2.3324a.0804.0804 0 0 1-.0332.0615L9.74 19.9502a4.4992 4.4992 0 0 1-6.1408-1.6464zM2.3408 7.8956a4.485 4.485 0 0 1 2.3655-1.9728V11.6a.7664.7664 0 0 0 .3879.6765l5.8144 3.3543-2.0201 1.1685a.0757.0757 0 0 1-.071 0l-4.8303-2.7865A4.504 4.504 0 0 1 2.3408 7.872zm16.5963 3.8558L13.1038 8.364 15.1192 7.2a.0757.0757 0 0 1 .071 0l4.8303 2.7913a4.4944 4.4944 0 0 1-.6765 8.1042v-5.6772a.79.79 0 0 0-.407-.667zm2.0107-3.0231l-.142-.0852-4.7735-2.7818a.7759.7759 0 0 0-.7854 0L9.409 9.2297V6.8974a.0662.0662 0 0 1 .0284-.0615l4.8303-2.7866a4.4992 4.4992 0 0 1 6.6802 4.66zM8.3065 12.863l-2.02-1.1638a.0804.0804 0 0 1-.038-.0567V6.0742a4.4992 4.4992 0 0 1 7.3757-3.4537l-.142.0805L8.704 5.459a.7948.7948 0 0 0-.3927.6813zm1.0976-2.3654l2.602-1.4998 2.6069 1.4998v2.9994l-2.5974 1.4997-2.6067-1.4997Z"></path></g>
<rect x="181.33333333333331" y="114" width="87.33333333333333" height="64" rx="7" fill="#242529" stroke="#2A2F28" stroke-width="1"></rect>
<rect x="205.99999999999997" y="127" width="38" height="38" rx="9" fill="#F4F6F1"></rect>
<g transform="translate(213.00 137.54) scale(0.2603)"><g fill="#181818"><metadata>
  <sfw xmlns="ns_sfw;">
   <slices>
   </slices>
   <sliceSourceBounds bottomLeftOrigin="true" height="65" width="92.2" x="-43.7" y="-98">
   </sliceSourceBounds>
  </sfw>
 </metadata>
 <path class="st0" d="M66.5,0H52.4l25.7,65h14.1L66.5,0z M25.7,0L0,65h14.4l5.3-13.6h26.9L51.8,65h14.4L40.5,0C40.5,0,25.7,0,25.7,0z&#xA;&#x9; M24.3,39.3l8.8-22.8l8.8,22.8H24.3z">
 </path></g></g>
<rect x="280.66666666666663" y="114" width="87.33333333333333" height="64" rx="7" fill="#242529" stroke="#2A2F28" stroke-width="1"></rect>
<rect x="305.3333333333333" y="127" width="38" height="38" rx="9" fill="#F4F6F1"></rect>
<g transform="translate(312.33 134.00) scale(0.0469)"><path d="M189.08 303.228H94.587l.044-94.446h94.497l-.048 94.446z" fill="#1c1c1b" fill-rule="nonzero"></path><path d="M283.528 397.674h-94.493l.044-94.446h94.496l-.047 94.446z" fill="#1c1c1b" fill-rule="nonzero"></path><path d="M283.575 303.228H189.08l.046-94.446h94.496l-.047 94.446z" fill="#1c1c1b" fill-rule="nonzero"></path><path d="M378.07 303.228h-94.495l.044-94.446h94.498l-.047 94.446zM189.128 208.779H94.633l.044-94.448h94.498l-.047 94.448zM378.115 208.779h-94.494l.045-94.448h94.496l-.047 94.448zM94.587 303.227H.093l.044-96.017h94.496l-.046 96.017z" fill="#1c1c1b" fill-rule="nonzero"></path><path d="M94.633 208.779H.138l.046-94.448H94.68l-.047 94.448z" fill="#1c1c1b" fill-rule="nonzero"></path><path d="M94.68 115.902H.185L.23 19.885h94.498l-.047 96.017zM472.657 114.331h-94.495l.044-94.446h94.497l-.046 94.446zM94.54 399.244H.046l.044-97.588h94.497l-.047 97.588z" fill="#1c1c1b" fill-rule="nonzero"></path><path d="M94.495 492.123H0l.044-94.446H94.54l-.045 94.446zM472.563 303.228H378.07l.044-94.446h94.496l-.047 94.446zM472.61 208.779h-94.495l.044-94.448h94.498l-.047 94.448z" fill="#1c1c1b" fill-rule="nonzero"></path><path d="M472.517 397.674h-94.494l.044-94.446h94.497l-.047 94.446z" fill="#1c1c1b" fill-rule="nonzero"></path><path d="M472.47 492.121h-94.493l.044-96.017h94.496l-.047 96.017z" fill="#1c1c1b" fill-rule="nonzero"></path><path d="M228.375 303.22h-96.061l.046-94.446h96.067l-.052 94.446z" fill="#ff7000" fill-rule="nonzero"></path><path d="M322.827 397.666h-94.495l.044-96.018h94.498l-.047 96.018z" fill="#ff4900" fill-rule="nonzero"></path><path d="M324.444 303.22h-97.636l.046-94.446h97.638l-.048 94.446z" fill="#ff7000" fill-rule="nonzero"></path><path d="M418.938 303.22h-96.064l.045-94.446h96.066l-.047 94.446z" fill="#ff7000" fill-rule="nonzero"></path><path d="M228.423 208.77H132.36l.045-94.445h96.066l-.05 94.446zM418.985 208.77H322.92l.044-94.445h96.069l-.048 94.446z" fill="#ffa300" fill-rule="nonzero"></path><path d="M133.883 304.79H39.392l.044-96.017h94.496l-.049 96.017z" fill="#ff7000" fill-rule="nonzero"></path><path d="M133.929 208.77H39.437l.044-95.445h94.496l-.048 95.445z" fill="#ffa300" fill-rule="nonzero"></path><path d="M133.976 114.325H39.484l.044-94.448h94.497l-.05 94.448zM511.954 115.325h-94.493l.044-95.448h94.497l-.048 95.448z" fill="#ffce00" fill-rule="nonzero"></path><path d="M133.836 399.667H39.345l.044-96.447h94.496l-.049 96.447z" fill="#ff4900" fill-rule="nonzero"></path><path d="M133.79 492.117H39.3l.044-94.448h94.496l-.049 94.448z" fill="#ff0107" fill-rule="nonzero"></path><path d="M511.862 303.22h-94.495l.046-94.446h94.496l-.047 94.446z" fill="#ff7000" fill-rule="nonzero"></path><path d="M511.907 208.77h-94.493l.044-94.445h94.496l-.047 94.446z" fill="#ffa300" fill-rule="nonzero"></path><path d="M511.815 398.666h-94.493l.044-95.447h94.496l-.047 95.447z" fill="#ff4900" fill-rule="nonzero"></path><path d="M511.77 492.117h-94.496l.046-94.448h94.496l-.047 94.448z" fill="#ff0107" fill-rule="nonzero"></path></g>
<rect x="380" y="114" width="87.33333333333333" height="64" rx="7" fill="#242529" stroke="#2A2F28" stroke-width="1"></rect>
<rect x="404.6666666666667" y="127" width="38" height="38" rx="9" fill="#F4F6F1"></rect>
<g transform="translate(411.67 134.00) scale(1.0000)"><path d="M20,13.89A.77.77,0,0,0,19,13.73l-7,5.14v.22a.72.72,0,1,1,0,1.43v0a.74.74,0,0,0,.45-.15l7.41-5.47A.76.76,0,0,0,20,13.89Z" style="fill:#669df6"></path><path d="M12,20.52a.72.72,0,0,1,0-1.43h0v-.22L5,13.73a.76.76,0,0,0-1,.16.74.74,0,0,0,.16,1l7.41,5.47a.73.73,0,0,0,.44.15v0Z" style="fill:#aecbfa"></path><path d="M12,18.34a1.47,1.47,0,1,0,1.47,1.47A1.47,1.47,0,0,0,12,18.34Zm0,2.18a.72.72,0,1,1,.72-.71A.71.71,0,0,1,12,20.52Z" style="fill:#4285f4"></path><path d="M6,6.11a.76.76,0,0,1-.75-.75V3.48a.76.76,0,1,1,1.51,0V5.36A.76.76,0,0,1,6,6.11Z" style="fill:#aecbfa"></path><circle cx="5.98" cy="12" r="0.76" style="fill:#aecbfa"></circle><circle cx="5.98" cy="9.79" r="0.76" style="fill:#aecbfa"></circle><circle cx="5.98" cy="7.57" r="0.76" style="fill:#aecbfa"></circle><path d="M18,8.31a.76.76,0,0,1-.75-.76V5.67a.75.75,0,1,1,1.5,0V7.55A.75.75,0,0,1,18,8.31Z" style="fill:#4285f4"></path><circle cx="18.02" cy="12.01" r="0.76" style="fill:#4285f4"></circle><circle cx="18.02" cy="9.76" r="0.76" style="fill:#4285f4"></circle><circle cx="18.02" cy="3.48" r="0.76" style="fill:#4285f4"></circle><path d="M12,15a.76.76,0,0,1-.75-.75V12.34a.76.76,0,0,1,1.51,0v1.89A.76.76,0,0,1,12,15Z" style="fill:#669df6"></path><circle cx="12" cy="16.45" r="0.76" style="fill:#669df6"></circle><circle cx="12" cy="10.14" r="0.76" style="fill:#669df6"></circle><circle cx="12" cy="7.92" r="0.76" style="fill:#669df6"></circle><path d="M15,10.54a.76.76,0,0,1-.75-.75V7.91a.76.76,0,1,1,1.51,0V9.79A.76.76,0,0,1,15,10.54Z" style="fill:#4285f4"></path><circle cx="15.01" cy="5.69" r="0.76" style="fill:#4285f4"></circle><circle cx="15.01" cy="14.19" r="0.76" style="fill:#4285f4"></circle><circle cx="15.01" cy="11.97" r="0.76" style="fill:#4285f4"></circle><circle cx="8.99" cy="14.19" r="0.76" style="fill:#aecbfa"></circle><circle cx="8.99" cy="7.92" r="0.76" style="fill:#aecbfa"></circle><circle cx="8.99" cy="5.69" r="0.76" style="fill:#aecbfa"></circle><path d="M9,12.73A.76.76,0,0,1,8.24,12V10.1a.75.75,0,1,1,1.5,0V12A.75.75,0,0,1,9,12.73Z" style="fill:#aecbfa"></path></g>
<rect x="479.3333333333333" y="114" width="87.33333333333333" height="64" rx="7" fill="#242529" stroke="#2A2F28" stroke-width="1"></rect>
<rect x="504" y="127" width="38" height="38" rx="9" fill="#F4F6F1"></rect>
<g transform="translate(511.00 134.00) scale(1.0000)"><defs><linearGradient id="lobe-icons-bedrock-fill" x1="80%" x2="20%" y1="20%" y2="80%"><stop offset="0%" stop-color="#6350FB"></stop><stop offset="50%" stop-color="#3D8FFF"></stop><stop offset="100%" stop-color="#9AD8F8"></stop></linearGradient></defs><path d="M13.05 15.513h3.08c.214 0 .389.177.389.394v1.82a1.704 1.704 0 011.296 1.661c0 .943-.755 1.708-1.685 1.708-.931 0-1.686-.765-1.686-1.708 0-.807.554-1.484 1.297-1.662v-1.425h-2.69v4.663a.395.395 0 01-.188.338l-2.69 1.641a.385.385 0 01-.405-.002l-4.926-3.086a.395.395 0 01-.185-.336V16.3L2.196 14.87A.395.395 0 012 14.555L2 14.528V9.406c0-.14.073-.27.192-.34l2.465-1.462V4.448c0-.129.062-.249.165-.322l.021-.014L9.77 1.058a.385.385 0 01.407 0l2.69 1.675a.395.395 0 01.185.336V7.6h3.856V5.683a1.704 1.704 0 01-1.296-1.662c0-.943.755-1.708 1.685-1.708.931 0 1.685.765 1.685 1.708 0 .807-.553 1.484-1.296 1.662v2.311a.391.391 0 01-.389.394h-4.245v1.806h6.624a1.69 1.69 0 011.64-1.313c.93 0 1.685.764 1.685 1.707 0 .943-.754 1.708-1.685 1.708a1.69 1.69 0 01-1.64-1.314H13.05v1.937h4.953l.915 1.18a1.66 1.66 0 01.84-.227c.931 0 1.685.764 1.685 1.707 0 .943-.754 1.708-1.685 1.708-.93 0-1.685-.765-1.685-1.708 0-.346.102-.668.276-.937l-.724-.935H13.05v1.806zM9.973 1.856L7.93 3.122V6.09h-.778V3.604L5.435 4.669v2.945l2.11 1.36L9.712 7.61V5.334h.778V7.83c0 .136-.07.263-.184.335L7.963 9.638v2.081l1.422 1.009-.446.646-1.406-.998-1.53 1.005-.423-.66 1.605-1.055v-1.99L5.038 8.29l-2.26 1.34v1.676l1.972-1.189.398.677-2.37 1.429V14.3l2.166 1.258 2.27-1.368.397.677-2.176 1.311V19.3l1.876 1.175 2.365-1.426.398.678-2.017 1.216 1.918 1.201 2.298-1.403v-5.78l-4.758 2.893-.4-.675 5.158-3.136V3.289L9.972 1.856zM16.13 18.47a.913.913 0 00-.908.92c0 .507.406.918.908.918a.913.913 0 00.907-.919.913.913 0 00-.907-.92zm3.63-3.81a.913.913 0 00-.908.92c0 .508.406.92.907.92a.913.913 0 00.908-.92.913.913 0 00-.908-.92zm1.555-4.99a.913.913 0 00-.908.92c0 .507.407.918.908.918a.913.913 0 00.907-.919.913.913 0 00-.907-.92zM17.296 3.1a.913.913 0 00-.907.92c0 .508.406.92.907.92a.913.913 0 00.908-.92.913.913 0 00-.908-.92z" fill="url(#lobe-icons-bedrock-fill)" fill-rule="nonzero"></path></g>
<rect x="578.6666666666666" y="114" width="87.33333333333333" height="64" rx="7" fill="#242529" stroke="#2A2F28" stroke-width="1"></rect>
<g stroke="#CCFF00" stroke-width="3.2" stroke-linecap="round"><line x1="610.3333333333333" y1="146" x2="634.3333333333333" y2="146"></line><line x1="622.3333333333333" y1="134" x2="622.3333333333333" y2="158"></line></g>
<rect x="64" y="228" width="620" height="150" rx="12" fill="#0E1114" stroke="#3A4138" stroke-width="1.3"></rect>
<circle cx="86" cy="254" r="5" fill="#40E0D0"></circle>
<text x="102" y="255" font-family="Funnel Sans, Arial, sans-serif" font-size="18" font-weight="700" fill="#FFFFFF" text-anchor="start" dominant-baseline="middle">MCP Servers</text>
<text x="221.6" y="256" font-family="Funnel Sans, Arial, sans-serif" font-size="13" font-weight="400" fill="#7E867A" text-anchor="start" dominant-baseline="middle">Tools</text>
<rect x="615" y="242" width="53" height="26" rx="13" fill="transparent" stroke="#40E0D0" stroke-width="1.2"></rect>
<text x="641.5" y="255" font-family="Funnel Sans, Arial, sans-serif" font-size="12" font-weight="700" fill="#40E0D0" text-anchor="middle" dominant-baseline="middle" letter-spacing="0.5">MCP</text>
<rect x="82" y="286" width="87.33333333333333" height="64" rx="7" fill="#242529" stroke="#2A2F28" stroke-width="1"></rect>
<rect x="106.66666666666666" y="299" width="38" height="38" rx="9" fill="#F4F6F1"></rect>
<g transform="translate(113.67 306.48) scale(0.9600)"><path d="m12.301 0h.093c2.242 0 4.34.613 6.137 1.68l-.055-.031c1.871 1.094 3.386 2.609 4.449 4.422l.031.058c1.04 1.769 1.654 3.896 1.654 6.166 0 5.406-3.483 10-8.327 11.658l-.087.026c-.063.02-.135.031-.209.031-.162 0-.312-.054-.433-.144l.002.001c-.128-.115-.208-.281-.208-.466 0-.005 0-.01 0-.014v.001q0-.048.008-1.226t.008-2.154c.007-.075.011-.161.011-.249 0-.792-.323-1.508-.844-2.025.618-.061 1.176-.163 1.718-.305l-.076.017c.573-.16 1.073-.373 1.537-.642l-.031.017c.508-.28.938-.636 1.292-1.058l.006-.007c.372-.476.663-1.036.84-1.645l.009-.035c.209-.683.329-1.468.329-2.281 0-.045 0-.091-.001-.136v.007c0-.022.001-.047.001-.072 0-1.248-.482-2.383-1.269-3.23l.003.003c.168-.44.265-.948.265-1.479 0-.649-.145-1.263-.404-1.814l.011.026c-.115-.022-.246-.035-.381-.035-.334 0-.649.078-.929.216l.012-.005c-.568.21-1.054.448-1.512.726l.038-.022-.609.384c-.922-.264-1.981-.416-3.075-.416s-2.153.152-3.157.436l.081-.02q-.256-.176-.681-.433c-.373-.214-.814-.421-1.272-.595l-.066-.022c-.293-.154-.64-.244-1.009-.244-.124 0-.246.01-.364.03l.013-.002c-.248.524-.393 1.139-.393 1.788 0 .531.097 1.04.275 1.509l-.01-.029c-.785.844-1.266 1.979-1.266 3.227 0 .025 0 .051.001.076v-.004c-.001.039-.001.084-.001.13 0 .809.12 1.591.344 2.327l-.015-.057c.189.643.476 1.202.85 1.693l-.009-.013c.354.435.782.793 1.267 1.062l.022.011c.432.252.933.465 1.46.614l.046.011c.466.125 1.024.227 1.595.284l.046.004c-.431.428-.718 1-.784 1.638l-.001.012c-.207.101-.448.183-.699.236l-.021.004c-.256.051-.549.08-.85.08-.022 0-.044 0-.066 0h.003c-.394-.008-.756-.136-1.055-.348l.006.004c-.371-.259-.671-.595-.881-.986l-.007-.015c-.198-.336-.459-.614-.768-.827l-.009-.006c-.225-.169-.49-.301-.776-.38l-.016-.004-.32-.048c-.023-.002-.05-.003-.077-.003-.14 0-.273.028-.394.077l.007-.003q-.128.072-.08.184c.039.086.087.16.145.225l-.001-.001c.061.072.13.135.205.19l.003.002.112.08c.283.148.516.354.693.603l.004.006c.191.237.359.505.494.792l.01.024.16.368c.135.402.38.738.7.981l.005.004c.3.234.662.402 1.057.478l.016.002c.33.064.714.104 1.106.112h.007c.045.002.097.002.15.002.261 0 .517-.021.767-.062l-.027.004.368-.064q0 .609.008 1.418t.008.873v.014c0 .185-.08.351-.208.466h-.001c-.119.089-.268.143-.431.143-.075 0-.147-.011-.214-.032l.005.001c-4.929-1.689-8.409-6.283-8.409-11.69 0-2.268.612-4.393 1.681-6.219l-.032.058c1.094-1.871 2.609-3.386 4.422-4.449l.058-.031c1.739-1.034 3.835-1.645 6.073-1.645h.098-.005zm-7.64 17.666q.048-.112-.112-.192-.16-.048-.208.032-.048.112.112.192.144.096.208-.032zm.497.545q.112-.08-.032-.256-.16-.144-.256-.048-.112.08.032.256.159.157.256.047zm.48.72q.144-.112 0-.304-.128-.208-.272-.096-.144.08 0 .288t.272.112zm.672.673q.128-.128-.064-.304-.192-.192-.32-.048-.144.128.064.304.192.192.32.044zm.913.4q.048-.176-.208-.256-.24-.064-.304.112t.208.24q.24.097.304-.096zm1.009.08q0-.208-.272-.176-.256 0-.256.176 0 .208.272.176.256.001.256-.175zm.929-.16q-.032-.176-.288-.144-.256.048-.224.24t.288.128.225-.224z"></path></g>
<rect x="181.33333333333331" y="286" width="87.33333333333333" height="64" rx="7" fill="#242529" stroke="#2A2F28" stroke-width="1"></rect>
<rect x="205.99999999999997" y="299" width="38" height="38" rx="9" fill="#F4F6F1"></rect>
<g transform="translate(213.00 306.00) scale(0.1912)"><path fill="#E01E5A" d="M26.5 79.4c0 7.3-5.9 13.2-13.2 13.2C6 92.6.1 86.7.1 79.4c0-7.3 5.9-13.2 13.2-13.2h13.2zm6.6 0c0-7.3 5.9-13.2 13.2-13.2 7.3 0 13.2 5.9 13.2 13.2v33c0 7.3-5.9 13.2-13.2 13.2-7.3 0-13.2-5.9-13.2-13.2z"></path><path fill="#36C5F0" d="M46.3 26.4c-7.3 0-13.2-5.9-13.2-13.2C33.1 5.9 39 0 46.3 0c7.3 0 13.2 5.9 13.2 13.2v13.2zm0 6.7c7.3 0 13.2 5.9 13.2 13.2 0 7.3-5.9 13.2-13.2 13.2H13.2C5.9 59.5 0 53.6 0 46.3 0 39 5.9 33.1 13.2 33.1z"></path><path fill="#2EB67D" d="M99.2 46.3c0-7.3 5.9-13.2 13.2-13.2 7.3 0 13.2 5.9 13.2 13.2 0 7.3-5.9 13.2-13.2 13.2H99.2zm-6.6 0c0 7.3-5.9 13.2-13.2 13.2-7.3 0-13.2-5.9-13.2-13.2V13.2C66.2 5.9 72.1 0 79.4 0c7.3 0 13.2 5.9 13.2 13.2z"></path><path fill="#ECB22E" d="M79.4 99.2c7.3 0 13.2 5.9 13.2 13.2 0 7.3-5.9 13.2-13.2 13.2-7.3 0-13.2-5.9-13.2-13.2V99.2zm0-6.6c-7.3 0-13.2-5.9-13.2-13.2 0-7.3 5.9-13.2 13.2-13.2h33.1c7.3 0 13.2 5.9 13.2 13.2 0 7.3-5.9 13.2-13.2 13.2z"></path></g>
<rect x="280.66666666666663" y="286" width="87.33333333333333" height="64" rx="7" fill="#242529" stroke="#2A2F28" stroke-width="1"></rect>
<rect x="305.3333333333333" y="299" width="38" height="38" rx="9" fill="#F4F6F1"></rect>
<g transform="translate(312.33 307.28) scale(0.2749)">&#x9;<path d="m6.6 66.85 3.85 6.65c.8 1.4 1.95 2.5 3.3 3.3l13.75-23.8h-27.5c0 1.55.4 3.1 1.2 4.5z" fill="#0066da"></path>
&#x9;<path d="m43.65 25-13.75-23.8c-1.35.8-2.5 1.9-3.3 3.3l-25.4 44a9.06 9.06 0 0 0 -1.2 4.5h27.5z" fill="#00ac47"></path>
&#x9;<path d="m73.55 76.8c1.35-.8 2.5-1.9 3.3-3.3l1.6-2.75 7.65-13.25c.8-1.4 1.2-2.95 1.2-4.5h-27.502l5.852 11.5z" fill="#ea4335"></path>
&#x9;<path d="m43.65 25 13.75-23.8c-1.35-.8-2.9-1.2-4.5-1.2h-18.5c-1.6 0-3.15.45-4.5 1.2z" fill="#00832d"></path>
&#x9;<path d="m59.8 53h-32.3l-13.75 23.8c1.35.8 2.9 1.2 4.5 1.2h50.8c1.6 0 3.15-.45 4.5-1.2z" fill="#2684fc"></path>
&#x9;<path d="m73.4 26.5-12.7-22c-.8-1.4-1.95-2.5-3.3-3.3l-13.75 23.8 16.15 28h27.45c0-1.55-.4-3.1-1.2-4.5z" fill="#ffba00"></path></g>
<rect x="380" y="286" width="87.33333333333333" height="64" rx="7" fill="#242529" stroke="#2A2F28" stroke-width="1"></rect>
<rect x="404.6666666666667" y="299" width="38" height="38" rx="9" fill="#F4F6F1"></rect>
<g transform="translate(411.67 306.00) scale(0.2400)"><path d="M6.017 4.313l55.333 -4.087c6.797 -0.583 8.543 -0.19 12.817 2.917l17.663 12.443c2.913 2.14 3.883 2.723 3.883 5.053v68.243c0 4.277 -1.553 6.807 -6.99 7.193L24.467 99.967c-4.08 0.193 -6.023 -0.39 -8.16 -3.113L3.3 79.94c-2.333 -3.113 -3.3 -5.443 -3.3 -8.167V11.113c0 -3.497 1.553 -6.413 6.017 -6.8z" fill="#fff"></path>
  <path fill-rule="evenodd" clip-rule="evenodd" d="M61.35 0.227l-55.333 4.087C1.553 4.7 0 7.617 0 11.113v60.66c0 2.723 0.967 5.053 3.3 8.167l13.007 16.913c2.137 2.723 4.08 3.307 8.16 3.113l64.257 -3.89c5.433 -0.387 6.99 -2.917 6.99 -7.193V20.64c0 -2.21 -0.873 -2.847 -3.443 -4.733L74.167 3.143c-4.273 -3.107 -6.02 -3.5 -12.817 -2.917zM25.92 19.523c-5.247 0.353 -6.437 0.433 -9.417 -1.99L8.927 11.507c-0.77 -0.78 -0.383 -1.753 1.557 -1.947l53.193 -3.887c4.467 -0.39 6.793 1.167 8.54 2.527l9.123 6.61c0.39 0.197 1.36 1.36 0.193 1.36l-54.933 3.307 -0.68 0.047zM19.803 88.3V30.367c0 -2.53 0.777 -3.697 3.103 -3.893L86 22.78c2.14 -0.193 3.107 1.167 3.107 3.693v57.547c0 2.53 -0.39 4.67 -3.883 4.863l-60.377 3.5c-3.493 0.193 -5.043 -0.97 -5.043 -4.083zm59.6 -54.827c0.387 1.75 0 3.5 -1.75 3.7l-2.91 0.577v42.773c-2.527 1.36 -4.853 2.137 -6.797 2.137 -3.107 0 -3.883 -0.973 -6.21 -3.887l-19.03 -29.94v28.967l6.02 1.363s0 3.5 -4.857 3.5l-13.39 0.777c-0.39 -0.78 0 -2.723 1.357 -3.11l3.497 -0.97v-38.3L30.48 40.667c-0.39 -1.75 0.58 -4.277 3.3 -4.473l14.367 -0.967 19.8 30.327v-26.83l-5.047 -0.58c-0.39 -2.143 1.163 -3.7 3.103 -3.89l13.4 -0.78z" fill="#000"></path></g>
<rect x="479.3333333333333" y="286" width="87.33333333333333" height="64" rx="7" fill="#242529" stroke="#2A2F28" stroke-width="1"></rect>
<rect x="504" y="299" width="38" height="38" rx="9" fill="#F4F6F1"></rect>
<g transform="translate(511.00 306.00) scale(0.1875)"><defs><linearGradient id="jira-original-a" gradientUnits="userSpaceOnUse" x1="22.034" y1="9.773" x2="17.118" y2="14.842" gradientTransform="scale(4)"><stop offset=".176" stop-color="#0052cc"></stop><stop offset="1" stop-color="#2684ff"></stop></linearGradient><linearGradient id="jira-original-b" gradientUnits="userSpaceOnUse" x1="16.641" y1="15.564" x2="10.957" y2="21.094" gradientTransform="scale(4)"><stop offset=".176" stop-color="#0052cc"></stop><stop offset="1" stop-color="#2684ff"></stop></linearGradient></defs><path d="M108.023 16H61.805c0 11.52 9.324 20.848 20.847 20.848h8.5v8.226c0 11.52 9.328 20.848 20.848 20.848V19.977A3.98 3.98 0 00108.023 16zm0 0" fill="#2684ff"></path><path d="M85.121 39.04H38.902c0 11.519 9.325 20.847 20.844 20.847h8.504v8.226c0 11.52 9.328 20.848 20.848 20.848V43.016a3.983 3.983 0 00-3.977-3.977zm0 0" fill="url(#jira-original-a)"></path><path d="M62.219 62.078H16c0 11.524 9.324 20.848 20.848 20.848h8.5v8.23c0 11.52 9.328 20.844 20.847 20.844V66.059a3.984 3.984 0 00-3.976-3.98zm0 0" fill="url(#jira-original-b)"></path></g>
<rect x="578.6666666666666" y="286" width="87.33333333333333" height="64" rx="7" fill="#242529" stroke="#2A2F28" stroke-width="1"></rect>
<g stroke="#40E0D0" stroke-width="3.2" stroke-linecap="round"><line x1="610.3333333333333" y1="318" x2="634.3333333333333" y2="318"></line><line x1="622.3333333333333" y1="306" x2="622.3333333333333" y2="330"></line></g>
<rect x="64" y="400" width="620" height="150" rx="12" fill="#0E1114" stroke="#3A4138" stroke-width="1.3"></rect>
<circle cx="86" cy="426" r="5" fill="#9747FF"></circle>
<text x="102" y="427" font-family="Funnel Sans, Arial, sans-serif" font-size="18" font-weight="700" fill="#FFFFFF" text-anchor="start" dominant-baseline="middle">A2A Agents</text>
<text x="212" y="428" font-family="Funnel Sans, Arial, sans-serif" font-size="13" font-weight="400" fill="#7E867A" text-anchor="start" dominant-baseline="middle">Agents</text>
<rect x="615" y="414" width="53" height="26" rx="13" fill="transparent" stroke="#9747FF" stroke-width="1.2"></rect>
<text x="641.5" y="427" font-family="Funnel Sans, Arial, sans-serif" font-size="12" font-weight="700" fill="#9747FF" text-anchor="middle" dominant-baseline="middle" letter-spacing="0.5">A2A</text>
<rect x="82" y="458" width="87.33333333333333" height="64" rx="7" fill="#242529" stroke="#2A2F28" stroke-width="1"></rect>
<rect x="106.66666666666666" y="471" width="38" height="38" rx="9" fill="rgba(151,71,255,0.14)"></rect>
<g transform="translate(113.66666666666666 478) scale(1.0000)" fill="none" stroke="#9747FF" stroke-width="1.8" stroke-linecap="round" stroke-linejoin="round"><circle cx="12" cy="5" r="2"></circle><circle cx="5" cy="19" r="2"></circle><circle cx="19" cy="19" r="2"></circle><path d="M12 7v4M12 11l-6 6M12 11l6 6"></path></g>
<rect x="181.33333333333331" y="458" width="87.33333333333333" height="64" rx="7" fill="#242529" stroke="#2A2F28" stroke-width="1"></rect>
<rect x="205.99999999999997" y="471" width="38" height="38" rx="9" fill="rgba(151,71,255,0.14)"></rect>
<g transform="translate(212.99999999999997 478) scale(1.0000)" fill="none" stroke="#9747FF" stroke-width="1.8" stroke-linecap="round" stroke-linejoin="round"><circle cx="11" cy="11" r="7"></circle><path d="M21 21l-4.3-4.3"></path></g>
<rect x="280.66666666666663" y="458" width="87.33333333333333" height="64" rx="7" fill="#242529" stroke="#2A2F28" stroke-width="1"></rect>
<rect x="305.3333333333333" y="471" width="38" height="38" rx="9" fill="rgba(151,71,255,0.14)"></rect>
<g transform="translate(312.3333333333333 478) scale(1.0000)" fill="none" stroke="#9747FF" stroke-width="1.8" stroke-linecap="round" stroke-linejoin="round"><path d="M8 6l-6 6 6 6M16 6l6 6-6 6"></path></g>
<rect x="380" y="458" width="87.33333333333333" height="64" rx="7" fill="#242529" stroke="#2A2F28" stroke-width="1"></rect>
<rect x="404.6666666666667" y="471" width="38" height="38" rx="9" fill="rgba(151,71,255,0.14)"></rect>
<g transform="translate(411.6666666666667 478) scale(1.0000)" fill="none" stroke="#9747FF" stroke-width="1.8" stroke-linecap="round" stroke-linejoin="round"><ellipse cx="12" cy="6" rx="7" ry="3"></ellipse><path d="M5 6v12c0 1.7 3.1 3 7 3s7-1.3 7-3V6M5 12c0 1.7 3.1 3 7 3s7-1.3 7-3"></path></g>
<rect x="479.3333333333333" y="458" width="87.33333333333333" height="64" rx="7" fill="#242529" stroke="#2A2F28" stroke-width="1"></rect>
<rect x="504" y="471" width="38" height="38" rx="9" fill="rgba(151,71,255,0.14)"></rect>
<g transform="translate(511 478) scale(1.0000)" fill="none" stroke="#9747FF" stroke-width="1.8" stroke-linecap="round" stroke-linejoin="round"><rect x="4" y="9" width="16" height="10" rx="2"></rect><path d="M12 9V5.5"></path><circle cx="12" cy="4" r="1"></circle><path d="M9 13.5v1M15 13.5v1"></path></g>
<rect x="578.6666666666666" y="458" width="87.33333333333333" height="64" rx="7" fill="#242529" stroke="#2A2F28" stroke-width="1"></rect>
<g stroke="#9747FF" stroke-width="3.2" stroke-linecap="round"><line x1="610.3333333333333" y1="490" x2="634.3333333333333" y2="490"></line><line x1="622.3333333333333" y1="478" x2="622.3333333333333" y2="502"></line></g>
<rect x="929" y="166" width="354" height="274" rx="18" fill="#CCFF00" opacity="0.06"></rect>
<rect x="936" y="173" width="340" height="260" rx="14" fill="#0B120D" stroke="#CCFF00" stroke-width="1.8"></rect>
<g transform="translate(1074.7299270072992 211) scale(0.4088)" fill="#CCFF00"><path d="M50.5,112.9l-3.7,4.7,8.4,13.2-.9,6.1h35.6l2.5-6.1-14.3-17.9s-27.6,0-27.6,0Z"></path><path d="M69.9,32.6l-12.9,22.7,62.9,74.8-1.8,6.9h28.8l5.2-24.3L84.9,32.5h-15Z"></path><path d="M78.5,15.5l-6.1,11.3h15.2l26.1,31.2,15.5-12.8v-8.1l-5.4-7.6,4-4.2L96.7.6l-18.2,14.9Z"></path><path d="M31.7,78.7h-8.5L.8,107.3v29.6h24l4.2-5.5,18.5-24.1h26.8l8.3-12.7-29.1-34.7-21.9,18.9h0Z"></path></g>
<text x="1106" y="301" font-family="Funnel Sans, Arial, sans-serif" font-size="22" font-weight="700" fill="#FFFFFF" text-anchor="middle" dominant-baseline="middle">Kong AI Gateway</text>
<text x="1106" y="329" font-family="Funnel Sans, Arial, sans-serif" font-size="13.5" font-weight="400" fill="#AEB5A7" text-anchor="middle" dominant-baseline="middle">One schema, one endpoint</text>
<rect x="964" y="379" width="88" height="34" rx="8" fill="rgba(255,255,255,0.04)" stroke="#CCFF00" stroke-width="1.1"></rect>
<rect x="976" y="394" width="16" height="3" rx="1.5" fill="#CCFF00"></rect>
<text x="1000" y="396" font-family="Funnel Sans, Arial, sans-serif" font-size="13" font-weight="700" fill="#FFFFFF" text-anchor="start" dominant-baseline="middle">LLM</text>
<rect x="1062" y="379" width="88" height="34" rx="8" fill="rgba(255,255,255,0.04)" stroke="#40E0D0" stroke-width="1.1"></rect>
<rect x="1074" y="394" width="16" height="3" rx="1.5" fill="#40E0D0"></rect>
<text x="1098" y="396" font-family="Funnel Sans, Arial, sans-serif" font-size="13" font-weight="700" fill="#FFFFFF" text-anchor="start" dominant-baseline="middle">MCP</text>
<rect x="1160" y="379" width="88" height="34" rx="8" fill="rgba(255,255,255,0.04)" stroke="#9747FF" stroke-width="1.1"></rect>
<rect x="1172" y="394" width="16" height="3" rx="1.5" fill="#9747FF"></rect>
<text x="1196" y="396" font-family="Funnel Sans, Arial, sans-serif" font-size="13" font-weight="700" fill="#FFFFFF" text-anchor="start" dominant-baseline="middle">A2A</text>
</svg>