<svg fill="none" height="100" viewBox="14 14 71 64" width="100" xmlns="http://www.w3.org/2000/svg"><g fill="#cf0"><path d="m37.9777 64.86-1.6253 2.0419 3.6771 5.6873-.3833 2.6299h15.5992l1.0799-2.6299-6.2742-7.7292z"/><path d="m46.509 30.2493-5.6425 9.7765 27.5214 32.2374-.783 2.9559h12.6241l2.284-10.4874-29.449-34.4878z"/><path d="m50.2562 22.8995-2.6835 4.8909h6.6576l11.4254 13.4594 6.7926-5.5216v-3.5065l-2.3596-3.282 1.7441-1.7961-13.6285-10.6745z"/><path d="m29.7704 50.1444h-3.7203l-9.8001 12.3155v12.7592h10.5129l1.8574-2.3893 8.1101-10.3966h11.7332l3.6123-5.4789-12.7213-14.9454z"/></g></svg>