<svg width="117" height="24" viewBox="0 0 117 24" fill="none" xmlns="http://www.w3.org/2000/svg">
<g clip-path="url(#clip0_9227_15875)">
<path d="M7.56596 18.6451L7 19.3643L8.28047 21.3677L8.14696 22.2941H13.579L13.9551 21.3677L11.7702 18.6451H7.56596Z" fill="url(#paint0_linear_9227_15875)"/>
<path d="M10.5371 6.45379L8.57227 9.89745L18.1559 21.2527L17.8833 22.2939H22.2794L23.0747 18.5997L12.8198 6.4519L10.5371 6.45379Z" fill="url(#paint1_linear_9227_15875)"/>
<path d="M11.8417 3.86499L10.9072 5.58776H13.2256L17.2043 10.3287L19.5695 8.38374V7.14861L18.7479 5.99257L19.3552 5.35995L14.6095 1.59998L11.8417 3.86499Z" fill="url(#paint2_linear_9227_15875)"/>
<path d="M4.70816 13.4617H3.41266L0 17.7997V22.294H3.66087L4.30767 21.4523L7.13181 17.7903H11.2176L12.4755 15.8604L8.04562 10.5961L4.70816 13.4617Z" fill="url(#paint3_linear_9227_15875)"/>
</g>
<g clip-path="url(#clip1_9227_15875)">
<path d="M51.7468 6.04846C52.9788 6.04846 53.5548 6.20846 54.0028 6.60846C54.7228 7.20846 55.2348 8.25646 55.2348 11.7765C55.2348 15.2885 54.7148 16.3365 54.0028 16.9525C53.5548 17.3525 52.9788 17.5125 51.7468 17.5125H47.8668C46.6348 17.5125 46.0588 17.3525 45.6108 16.9525C44.8908 16.3365 44.3788 15.2885 44.3788 11.7765C44.3788 8.25646 44.8988 7.21646 45.6108 6.60846C46.0588 6.20846 46.6348 6.04846 47.8668 6.04846H51.7468ZM112.235 6.04846V8.17646H108.395V17.5205H105.475V8.17646H101.667V6.04846H112.235ZM35.5948 6.04846V10.6165H36.3628L40.1548 6.04846H43.3868L38.7388 11.4325L43.5868 17.5125H40.1468L36.4028 12.6485H35.6028V17.5125H32.6748V6.04846H35.5868H35.5948ZM60.3068 6.04846C60.9388 6.04846 61.2268 6.17646 61.5228 6.63246L61.5868 6.73646L65.5228 13.2725H65.7068V11.1205L68.4988 15.9525V17.5045H66.1308C65.5228 17.5045 65.2108 17.3605 64.9148 16.9205L64.8428 16.8165L60.5388 9.74446H60.3548V17.5045H57.5628V6.04846H60.3068ZM67.7868 6.04846C68.4028 6.04846 68.7068 6.19246 69.0028 6.62446L69.0748 6.73646L73.3868 13.8085H73.5628V6.04846H76.3548V17.5125H73.6188C72.9788 17.5125 72.6908 17.3845 72.3948 16.9285L72.3308 16.8245L68.3948 10.2885H68.2188V12.4325L65.4188 7.59246V6.04846H67.7868ZM88.2188 6.04846V8.16046H81.7388V10.6165H86.7868V12.6405H81.7468V15.4085H88.2268V17.5205H78.8188V6.04846H88.2108H88.2188ZM97.2428 6.04846C98.4908 6.04846 99.0508 6.20846 99.4988 6.60846C100.155 7.17646 100.459 8.04846 100.499 10.1925H97.7068C97.6508 8.76846 97.4908 8.45646 97.3468 8.32046C97.2268 8.20846 97.0588 8.16046 96.4908 8.16046H94.1708C93.5948 8.16046 93.4348 8.20846 93.3068 8.32046C93.1468 8.45646 92.9068 8.86446 92.9068 11.7765C92.9068 14.6965 93.1468 15.0885 93.3068 15.2325C93.4348 15.3365 93.5948 15.3845 94.1628 15.3845H96.4828C97.0588 15.4005 97.2268 15.3365 97.3468 15.2325C97.4908 15.1045 97.6508 14.8325 97.7068 13.2325H100.515C100.443 15.5525 100.155 16.3845 99.4988 16.9525C99.0508 17.3525 98.4908 17.5125 97.2428 17.5125H93.4108C92.1788 17.5125 91.6028 17.3525 91.1628 16.9525C90.4428 16.3365 89.9228 15.2885 89.9228 11.7765C89.9228 8.25646 90.4428 7.21646 91.1628 6.60846C91.6028 6.20846 92.1788 6.04846 93.4108 6.04846H97.2428ZM50.9948 8.16046H48.6108C48.0348 8.16046 47.8748 8.20846 47.7468 8.32046C47.5868 8.45646 47.3548 8.86446 47.3548 11.7765C47.3548 14.6965 47.5948 15.0885 47.7548 15.2325C47.8748 15.3365 48.0348 15.3845 48.6108 15.3845H50.9868C51.5628 15.4005 51.7228 15.3365 51.8428 15.2325C52.0028 15.0965 52.2268 14.7045 52.2428 12.0165V11.7765C52.2428 8.86446 52.0028 8.45646 51.8428 8.32046C51.7228 8.20846 51.5628 8.16046 50.9868 8.16046H50.9948Z" fill="#052F5C"/>
</g>
<defs>
<linearGradient id="paint0_linear_9227_15875" x1="0.0190171" y1="22.2823" x2="17.9777" y2="4.28624" gradientUnits="userSpaceOnUse">
<stop stop-color="#1155CB"/>
<stop offset="1" stop-color="#1DB57C"/>
</linearGradient>
<linearGradient id="paint1_linear_9227_15875" x1="0.0193788" y1="22.2821" x2="17.9781" y2="4.28607" gradientUnits="userSpaceOnUse">
<stop stop-color="#1155CB"/>
<stop offset="1" stop-color="#1DB57C"/>
</linearGradient>
<linearGradient id="paint2_linear_9227_15875" x1="0.0190585" y1="22.2822" x2="17.9778" y2="4.28614" gradientUnits="userSpaceOnUse">
<stop stop-color="#1155CB"/>
<stop offset="1" stop-color="#1DB57C"/>
</linearGradient>
<linearGradient id="paint3_linear_9227_15875" x1="0.0192067" y1="22.2822" x2="17.9779" y2="4.28617" gradientUnits="userSpaceOnUse">
<stop stop-color="#1155CB"/>
<stop offset="1" stop-color="#1DB57C"/>
</linearGradient>
<clipPath id="clip0_9227_15875">
<rect width="23.075" height="20.8" fill="white" transform="translate(0 1.59998)"/>
</clipPath>
<clipPath id="clip1_9227_15875">
<rect width="80" height="12" fill="white" transform="translate(32.6748 6)"/>
</clipPath>
</defs>
</svg>
