<svg fill="none" height="24" viewBox="0 0 117 24" width="117" xmlns="http://www.w3.org/2000/svg" xmlns:xlink="http://www.w3.org/1999/xlink"><linearGradient id="a"><stop offset="0" stop-color="#1155cb"/><stop offset="1" stop-color="#1db57c"/></linearGradient><linearGradient id="b" gradientUnits="userSpaceOnUse" x1=".019139" x2="17.9778" xlink:href="#a" y1="22.2822" y2="4.28618"/><linearGradient id="c" gradientUnits="userSpaceOnUse" x1=".019013" x2="17.9777" xlink:href="#a" y1="22.2822" y2="4.28616"/><linearGradient id="d" gradientUnits="userSpaceOnUse" x1=".019059" x2="17.9778" xlink:href="#a" y1="22.2822" y2="4.28617"/><linearGradient id="e" gradientUnits="userSpaceOnUse" x1=".019085" x2="17.9778" xlink:href="#a" y1="22.2822" y2="4.28617"/><clipPath id="f"><path d="m-.000122 1.60001h23.075v20.8h-23.075z"/></clipPath><clipPath id="g"><path d="m32.6749 6h80v12h-80z"/></clipPath><g clip-path="url(#f)"><path d="m7.56608 18.6451-.56596.7192 1.28047 2.0033-.13351.9264h5.43202l.3761-.9264-2.1849-2.7225z" fill="url(#b)"/><path d="m10.5368 6.45388-1.9649 3.44366 9.5837 11.35526-.2727 1.0412h4.3961l.7954-3.6942-10.255-12.1478z" fill="url(#c)"/><path d="m11.8417 3.86502-.9345 1.72277h2.3184l3.9787 4.74091 2.3652-1.94493v-1.23513l-.8216-1.15604.6073-.63262-4.7457-3.75997z" fill="url(#d)"/><path d="m4.70804 13.4617h-1.2955l-3.41266207 4.338v4.4943h3.66086207l.64681-.8417 2.82414-3.662h4.08581l1.2579-1.9299-4.4299-5.2643z" fill="url(#e)"/></g><g clip-path="url(#g)"><path d="m51.747 6.04843c1.232 0 1.808.16 2.256.56.72.6 1.2321 1.648 1.2321 5.16797 0 3.512-.5201 4.56-1.2321 5.176-.448.4-1.024.56-2.256.56h-3.88c-1.232 0-1.808-.16-2.256-.56-.72-.616-1.232-1.664-1.232-5.176 0-3.51997.52-4.55997 1.232-5.16797.448-.4 1.024-.56 2.256-.56zm60.488 0v2.128h-3.84v9.34397h-2.92v-9.34397h-3.808v-2.128zm-76.64 0v4.56797h.768l3.792-4.56797h3.232l-4.648 5.38397 4.848 6.08h-3.44l-3.744-4.864h-.8v4.864h-2.928v-11.46397h2.912zm24.7121 0c.632 0 .92.128 1.216.584l.0639.104 3.9361 6.53597h.184v-2.152l2.792 4.832v1.552h-2.368c-.6081 0-.9201-.144-1.216-.584l-.0721-.104-4.3039-7.07197h-.1841v7.75997h-2.792v-11.45597zm7.4799 0c.616 0 .9201.144 1.216.576l.0721.112 4.312 7.07197h.1759v-7.75997h2.792v11.46397h-2.736c-.64 0-.9279-.128-1.2239-.584l-.064-.104-3.936-6.536h-.176v2.144l-2.8001-4.83997v-1.544zm20.4321 0v2.112h-6.48v2.45597h5.0479v2.024h-5.0399v2.768h6.48v2.112h-9.4081v-11.47197h9.392zm9.0239 0c1.2481 0 1.808.16 2.256.56.656.568.96 1.44 1 3.58397h-2.7919c-.0561-1.42397-.2161-1.73597-.3601-1.87197-.12-.112-.288-.16-.856-.16h-2.3199c-.576 0-.736.048-.8641.16-.16.136-.3999.544-.3999 3.45597 0 2.92.2399 3.312.3999 3.456.1281.104.2881.152.8561.152h2.32c.576.016.7439-.048.8639-.152.144-.128.304-.4.3601-2h2.8079c-.072 2.32-.36 3.152-1.016 3.72-.448.4-1.0079.56-2.256.56h-3.832c-1.232 0-1.8079-.16-2.2479-.56-.72-.616-1.2401-1.664-1.2401-5.176 0-3.51997.5201-4.55997 1.2401-5.16797.44-.4 1.0159-.56 2.2479-.56zm-46.248 2.112h-2.384c-.576 0-.736.048-.864.16-.16.136-.392.544-.392 3.45597 0 2.92.24 3.312.4 3.456.12.104.28.152.856.152h2.376c.576.016.736-.048.856-.152.16-.136.384-.528.4-3.216v-.24c0-2.91197-.24-3.31997-.4-3.45597-.12-.112-.28-.16-.856-.16z" fill="#fff"/></g></svg>